<svg id="katman_1" data-name="katman 1" xmlns="http://www.w3.org/2000/svg" viewBox="0 0 150 150"><defs><style>.cls-1{opacity:0.35;}.cls-2{fill:#fed54c;}.cls-3{fill:#82beea;}.cls-4{fill:#304452;}.cls-5{fill:#d4905b;}.cls-6{fill:#df9f6c;}.cls-7{fill:#4c352a;}.cls-8{fill:#58656d;}.cls-9{fill:#628dac;}.cls-10{fill:#73838e;}</style></defs><g class="cls-1"><circle class="cls-2" cx="75" cy="75" r="75"/></g><path class="cls-3" d="M1022.27,542.59c-2.84-3.4-21.8-8.45-22.52-9a4,4,0,0,1-.39-.37c-.76,2.86-3.24,3.35-11.32,5.1-8.07-1.75-10.55-2.24-11.31-5.1-.16.16-.29.29-.39.37-.72.57-19.68,5.62-22.52,9-4.15,5-3.22,17-3.11,25.76A4.82,4.82,0,0,0,955.6,573h64.88a4.82,4.82,0,0,0,4.9-4.69C1025.49,559.64,1026.42,547.55,1022.27,542.59Z" transform="translate(-913.04 -453.04)"/><path class="cls-4" d="M997.25,538.85l1-3.72c-1.46,1.3-4.37,1.91-10.19,3.17a56.58,56.58,0,0,1-8.55-2.2l5.79,12.75,2.76,5.36Z" transform="translate(-913.04 -453.04)"/><path class="cls-5" d="M1001.68,507.93c-.2,3.12-.46,6.36-.81,8.9,3-1.32,3.4-6,3.52-8.61C1004.5,506,1002.52,507.3,1001.68,507.93Z" transform="translate(-913.04 -453.04)"/><path class="cls-5" d="M974.4,507.93c.2,3.12.47,6.36.81,8.9-3-1.32-3.39-6-3.51-8.61C971.59,506,973.57,507.3,974.4,507.93Z" transform="translate(-913.04 -453.04)"/><path class="cls-5" d="M996.54,525.87c-2.18,2.32-5.11,4.32-8.51,4.32h0c-3.39,0-6.31-2-8.48-4.29v5.6a14.9,14.9,0,0,1-2.75,1.7s0,.12,0,.32c.85,2.9,3.24,4.78,11.22,4.78s10.37-1.88,11.23-4.78c0-.2,0-.32,0-.32a14.45,14.45,0,0,1-2.74-1.7Z" transform="translate(-913.04 -453.04)"/><path class="cls-6" d="M1000.86,505.79c0-.33-.26-4.05-.83-5-1.36-2.33-5.53-3.39-6.27-3.4s-3.43,1.81-4.36,2.09a13.53,13.53,0,0,1-6.83-.57c-1.22-.56-3.25,1.28-4.6,1.74-4.11,1.4-2.74,14.68-2.85,15.54a19.42,19.42,0,0,0,1,4.93c1.65,3.3,6.09,9.1,11.89,9.1h0c5.8,0,10.24-5.8,11.88-9.1a24.21,24.21,0,0,0,1.19-6.3A53,53,0,0,1,1000.86,505.79Z" transform="translate(-913.04 -453.04)"/><path class="cls-7" d="M1001,514.79a50.93,50.93,0,0,1-.24-9c0-.33-.26-4.05-.84-5-1.35-2.33-5.53-3.39-6.26-3.4s-3.44,1.81-4.37,2.09a13.5,13.5,0,0,1-6.82-.57c-1.22-.56-3.26,1.28-4.61,1.74-4.16,1.42-2.69,15-2.85,15.58-.52-.16-4.09-12.63-3.11-15.84.3-1,0-3,.41-3.9a40.07,40.07,0,0,1,2.39-4.77c.58-.64,3.69-1.46,4.2-3.08s3-.72,3.53-1,.54-1.26,1.25-1.61c1.26-.61,3.82,1,4,1.06,0,0,1.21-.76.06-2.34,0,0,3.18-1.46,6.18,2.8a2.36,2.36,0,0,0-.05-2.27s1.4-.24,3.54,4a2.83,2.83,0,0,1,1.4-.76s-.55,3.16-.15,3.8c0,0,5.62,4,5.62,8C1004.32,500.36,1003.8,508.49,1001,514.79Z" transform="translate(-913.04 -453.04)"/><path class="cls-8" d="M1005.21,535.38v18.08a4,4,0,0,1-3.62,3.95c-4.13.5-10.7,1.22-13.55,1.22s-9.41-.72-13.54-1.22a4,4,0,0,1-3.62-3.95V535.38c-1.88.6-4.07,1.3-6.24,2.06V573h46.81v-35.6C1009.28,536.68,1007.09,536,1005.21,535.38Z" transform="translate(-913.04 -453.04)"/><polygon class="cls-9" points="66.51 78.46 63.76 80.42 60.41 86.58 67.73 92.73 66.3 95.47 75 101.17 66.51 78.46"/><polygon class="cls-9" points="83.49 78.46 86.24 80.42 89.59 86.58 82.27 92.73 83.7 95.47 75 101.17 83.49 78.46"/><path class="cls-10" d="M975.22,565.78V573h25.65v-7.26a2.3,2.3,0,0,0-2.34-2.26h-21A2.3,2.3,0,0,0,975.22,565.78Z" transform="translate(-913.04 -453.04)"/><path class="cls-3" d="M988,493.36s-16.27,3.55-16.27,13.09c0,0,1.89,4.66,4.13,2.52s5.54-6.14,12.14-5.93c6.61-.21,9.9,3.78,12.14,5.93s4.14-2.52,4.14-2.52C1004.32,496.91,988,493.36,988,493.36Z" transform="translate(-913.04 -453.04)"/><path class="cls-9" d="M989.65,483.16a10.79,10.79,0,0,0-3.21,0c-4.1.62-14.67,5-14.67,11.63v8.89a.34.34,0,0,0,.61.22c1.8-2.52,7.5-9.45,15.66-9.45s13.87,6.93,15.67,9.45a.34.34,0,0,0,.61-.22v-8.89C1004.32,488.2,993.75,483.78,989.65,483.16Z" transform="translate(-913.04 -453.04)"/></svg>