<svg id="katman_1" data-name="katman 1" xmlns="http://www.w3.org/2000/svg" viewBox="0 0 200 65.68"><defs><style>.cls-1{fill:#fff;}</style></defs><g id="Group_3024" data-name="Group 3024"><path id="Path_4396" data-name="Path 4396" class="cls-1" d="M832.33,501.94l-3.45,8.21h-4.11l-6.9-8.21L820.5,496l9.2-2.3Z" transform="translate(-797.21 -482.1)"/><path id="Path_4397" data-name="Path 4397" class="cls-1" d="M827.14,497.75l-1.48,8.37s-3.29-3.28-2.47-5.42S827.14,497.75,827.14,497.75Z" transform="translate(-797.21 -482.1)"/><path id="Path_4398" data-name="Path 4398" class="cls-1" d="M810.9,504.89l10,10.35-2.9,5.1-7.13,2-3.28-8.71Z" transform="translate(-797.21 -482.1)"/><path id="Path_4399" data-name="Path 4399" class="cls-1" d="M818.31,517.38l-5.15,3.29s-3.29-2.63,0-7.07A5.49,5.49,0,0,1,818.31,517.38Z" transform="translate(-797.21 -482.1)"/><path id="Path_4400" data-name="Path 4400" class="cls-1" d="M817.87,530.85l7.23-8.54,6.5,4.27L829.3,536h-7.06Z" transform="translate(-797.21 -482.1)"/><path id="Path_4401" data-name="Path 4401" class="cls-1" d="M824.74,525.51v7.23L820,531.18v-1.4Z" transform="translate(-797.21 -482.1)"/><path id="Path_4402" data-name="Path 4402" class="cls-1" d="M828,513.6h3.62l.72,2v2.3l-.72,1.81H828l-1.81-1.32v-3Z" transform="translate(-797.21 -482.1)"/><path id="Path_4403" data-name="Path 4403" class="cls-1" d="M838.34,510.15a14,14,0,0,1,7.07-8.21l105.8-5.43-107.94,1.24-4.93,3.69Z" transform="translate(-797.21 -482.1)"/><path id="Path_4404" data-name="Path 4404" class="cls-1" d="M839.16,516.64l5.26,7.31,5.91,3.45,96.11,1.73-99.72,2-8.38-5.66Z" transform="translate(-797.21 -482.1)"/><path id="Path_4405" data-name="Path 4405" class="cls-1" d="M843.43,496.51s-2.4-8.54-21.08-4.43c0,0-9,1.8-14.73,14,0,0-4.6,14.54,2.3,23,0,0,6.31,11.74,19.33,11.41,0,0,9.09-.32,13.2-3.61l1-3,1.48-1.23,130.78,2.38-126.51,4.11s-9.72,8.71-16.85,8.54H821s-8.42-1.72-16.8-11-6.9-28.71-6.9-28.71,7.27-17.49,12.07-19.34,3.58-6.16,21.32-6.65c0,0,9.37.86,15.77,7.27l130.37,1Z" transform="translate(-797.21 -482.1)"/><g id="Group_3021" data-name="Group 3021"><path id="Path_4406" data-name="Path 4406" class="cls-1" d="M850.41,507.61h13.47a2.71,2.71,0,0,1,2.38,2.47c.17,2.21,0,10.1,0,10.1a3.56,3.56,0,0,1-2.71,2.05c-1.88.17-13.14,0-13.14,0a3.71,3.71,0,0,1-2.55-3,56.52,56.52,0,0,1,0-9.2S848.85,507.61,850.41,507.61Z" transform="translate(-797.21 -482.1)"/><rect id="Rectangle_132" data-name="Rectangle 132" class="cls-1" x="56.33" y="29.17" width="6.9" height="7.39"/></g><g id="Group_3022" data-name="Group 3022"><path id="Path_4407" data-name="Path 4407" class="cls-1" d="M888.19,507.61h13.48a2.71,2.71,0,0,1,2.38,2.47c.16,2.21,0,10.1,0,10.1a3.56,3.56,0,0,1-2.71,2.05c-1.89.17-13.14,0-13.14,0a3.71,3.71,0,0,1-2.55-3,54.35,54.35,0,0,1,0-9.2S886.63,507.61,888.19,507.61Z" transform="translate(-797.21 -482.1)"/><rect id="Rectangle_133" data-name="Rectangle 133" class="cls-1" x="94.11" y="29.17" width="6.9" height="7.39"/></g><path id="Path_4408" data-name="Path 4408" class="cls-1" d="M867.91,507.51v3.65h5.26V522.4l5.26-.2v-11h5v-3.65Z" transform="translate(-797.21 -482.1)"/><g id="Group_3023" data-name="Group 3023"><path id="Path_4409" data-name="Path 4409" class="cls-1" d="M916.13,507.44v15H930s2.87-.24,3.2-2.54a90.61,90.61,0,0,0,0-9.61,3.33,3.33,0,0,0-3.28-2.54C927.14,507.69,916.13,507.44,916.13,507.44Z" transform="translate(-797.21 -482.1)"/><path id="Path_4413" data-name="Path 4413" class="cls-1" d="M921.3,511.26h6.9v7.39h-6.9Z" transform="translate(-797.21 -482.1)"/></g><path id="Path_4410" data-name="Path 4410" class="cls-1" d="M935.44,507.44V522.8l17.82-.33V518h-12.4v-1.4h5.59v-2.88l-5.84-.16.09-2.34h12.57V507H935.44Z" transform="translate(-797.21 -482.1)"/><path id="Path_4411" data-name="Path 4411" class="cls-1" d="M954.91,507.61V522.8l5.5-.32v-8.55l6.49,8.87h5.84V507.44l-6,.17V515l-5-7.52Z" transform="translate(-797.21 -482.1)"/><rect id="Rectangle_135" data-name="Rectangle 135" class="cls-1" x="177.98" y="29.17" width="5.09" height="11.54"/><rect id="Rectangle_136" data-name="Rectangle 136" class="cls-1" x="178.31" y="25.35" width="4.76" height="2.71"/><path id="Path_4412" data-name="Path 4412" class="cls-1" d="M981.19,507.44v4.19h8.63l-8.63,6.65v4.19h16v-3.82H986.45l10.11-7.39.25-3.82Z" transform="translate(-797.21 -482.1)"/></g></svg>