<svg id="katman_1" data-name="katman 1" xmlns="http://www.w3.org/2000/svg" viewBox="0 0 158.04 55.32"><defs><style>.cls-1{fill:#81d0f5;}.cls-2{fill:#009ee3;}.cls-3{fill:#fff;}.cls-4{fill:#57c4f1;}</style></defs><polygon class="cls-1" points="23.81 25.7 133 7.51 25.88 18.43 23.81 25.7"/><polygon class="cls-2" points="24.44 17.28 154.1 4.05 27.78 2.28 24.44 17.28"/><polygon class="cls-1" points="23.81 29.73 133.21 47.94 25.89 37 23.81 29.73"/><polygon class="cls-2" points="24.44 38.01 154.1 51.25 27.78 53.01 24.44 38.01"/><circle class="cls-2" cx="27.66" cy="27.66" r="27.66"/><circle class="cls-3" cx="27.63" cy="27.64" r="22.22"/><circle class="cls-4" cx="27.65" cy="27.65" r="21.43"/><circle class="cls-2" cx="27.63" cy="27.64" r="19.86"/><path class="cls-3" d="M44.58,33.37l-3.81-3.15a3.31,3.31,0,0,1-.47-4.66,3.48,3.48,0,0,1,.47-.47l3.81-3.15a17.77,17.77,0,0,0-3.53-6.08l-4.62,1.72A3.33,3.33,0,0,1,32,15l-.82-4.88a17.93,17.93,0,0,0-7,0L23.35,15a3.32,3.32,0,0,1-3.82,2.73,4.37,4.37,0,0,1-.62-.17l-4.63-1.72a17.74,17.74,0,0,0-3.52,6.08l3.81,3.15A3.33,3.33,0,0,1,15,29.78a3.05,3.05,0,0,1-.44.44l-3.81,3.15a17.88,17.88,0,0,0,3.52,6.09l4.63-1.73a3.33,3.33,0,0,1,4.44,2.56l.82,4.88a17.93,17.93,0,0,0,7,0L32,40.29a3.32,3.32,0,0,1,3.82-2.73,4.37,4.37,0,0,1,.62.17l4.62,1.73A17.91,17.91,0,0,0,44.58,33.37Z" transform="translate(-0.01 -0.01)"/><circle class="cls-2" cx="27.65" cy="27.66" r="6.37"/><circle class="cls-3" cx="27.65" cy="27.65" r="1.25"/><path class="cls-3" d="M28.28,23.82a.63.63,0,1,1-.64-.62h0A.64.64,0,0,1,28.28,23.82Z" transform="translate(-0.01 -0.01)"/><path class="cls-3" d="M28.28,31.49a.63.63,0,1,1-.63-.63.63.63,0,0,1,.63.63Z" transform="translate(-0.01 -0.01)"/><path class="cls-3" d="M25.39,24.5a.63.63,0,1,1-.89,0h0A.64.64,0,0,1,25.39,24.5Z" transform="translate(-0.01 -0.01)"/><path class="cls-3" d="M30.81,29.92a.63.63,0,1,1-.89,0h0A.64.64,0,0,1,30.81,29.92Z" transform="translate(-0.01 -0.01)"/><path class="cls-3" d="M23.82,27a.63.63,0,1,1-.63.63.63.63,0,0,1,.63-.63Z" transform="translate(-0.01 -0.01)"/><path class="cls-3" d="M31.49,27a.63.63,0,1,1-.63.63.63.63,0,0,1,.63-.63Z" transform="translate(-0.01 -0.01)"/><circle class="cls-3" cx="24.93" cy="30.36" r="0.63"/><path class="cls-3" d="M29.92,24.5a.63.63,0,1,1,0,.89h0A.64.64,0,0,1,29.92,24.5Z" transform="translate(-0.01 -0.01)"/><path class="cls-2" d="M59.28,27.87a5.54,5.54,0,0,1,5-6.06,5,5,0,0,1,1,0,6.13,6.13,0,0,1,4.51,1.57,6,6,0,0,1,1.58,4.4,7.26,7.26,0,0,1-.69,3.37,4.94,4.94,0,0,1-2,2,6.6,6.6,0,0,1-3.26.73,7.53,7.53,0,0,1-3.28-.63,4.89,4.89,0,0,1-2.1-2A6.6,6.6,0,0,1,59.28,27.87Zm3.62,0a3.91,3.91,0,0,0,.66,2.55,2.49,2.49,0,0,0,3.52.08l.08-.08a4.29,4.29,0,0,0,.64-2.73,3.53,3.53,0,0,0-.67-2.41,2.28,2.28,0,0,0-1.81-.77,2.2,2.2,0,0,0-1.76.78,3.91,3.91,0,0,0-.66,2.59Z" transform="translate(-0.01 -0.01)"/><path class="cls-2" d="M72.12,22h11v2.89H79.43v8.82H75.81V24.88h-3.7Z" transform="translate(-0.01 -0.01)"/><path class="cls-2" d="M83.75,27.87a5.55,5.55,0,0,1,5-6.07,6.37,6.37,0,0,1,1.07,0,6.13,6.13,0,0,1,4.51,1.57,5.91,5.91,0,0,1,1.58,4.4,7.26,7.26,0,0,1-.69,3.37,4.82,4.82,0,0,1-2,2,6.54,6.54,0,0,1-3.25.73,7.53,7.53,0,0,1-3.28-.63,5,5,0,0,1-2.11-2A6.69,6.69,0,0,1,83.75,27.87Zm3.62,0A3.91,3.91,0,0,0,88,30.42a2.25,2.25,0,0,0,1.8.78,2.2,2.2,0,0,0,1.8-.76,4.29,4.29,0,0,0,.64-2.73,3.63,3.63,0,0,0-.66-2.41,2.28,2.28,0,0,0-1.81-.77,2.16,2.16,0,0,0-1.76.78,3.85,3.85,0,0,0-.67,2.57Z" transform="translate(-0.01 -0.01)"/><path class="cls-2" d="M103.35,22h5.38a6.44,6.44,0,0,1,2.57.43,4.29,4.29,0,0,1,1.62,1.24,5.34,5.34,0,0,1,.93,1.88,8.66,8.66,0,0,1,.28,2.27,7.92,7.92,0,0,1-.46,2.89,5,5,0,0,1-1.19,1.74,4.08,4.08,0,0,1-1.63.93,8.3,8.3,0,0,1-2.16.32h-5.38ZM107,24.65v6.41h.89a3.55,3.55,0,0,0,1.61-.26,1.7,1.7,0,0,0,.76-.87,5.63,5.63,0,0,0,.27-2,4,4,0,0,0-.61-2.55,2.56,2.56,0,0,0-2-.69Z" transform="translate(-0.01 -0.01)"/><path class="cls-2" d="M116,22h9.7v2.5h-6.06v1.86h5.63v2.35h-5.63V31h6.25v2.69H116Z" transform="translate(-0.01 -0.01)"/><path class="cls-2" d="M127.88,22h3.38l4.41,6.48V22h3.42V33.71h-3.42l-4.38-6.44v6.44h-3.41Z" transform="translate(-0.01 -0.01)"/><path class="cls-2" d="M141.67,22h3.63V33.71h-3.63Zm.58-3.11h2.51v2.4h-2.51Z" transform="translate(-0.01 -0.01)"/><path class="cls-2" d="M147.57,22h10.24v2.34l-6.57,6.86h6.81v2.51H146.94V31.28l6.5-6.79h-5.87Z" transform="translate(-0.01 -0.01)"/></svg>