<svg id="Calque_1" data-name="Calque 1" xmlns="http://www.w3.org/2000/svg" xmlns:xlink="http://www.w3.org/1999/xlink" viewBox="0 0 859.56 756.08"><defs><style>.cls-1{fill:none;}.cls-2{fill:#58585a;}.cls-3{clip-path:url(#clip-path);}.cls-4{clip-path:url(#clip-path-2);}.cls-5{fill:url(#linear-gradient);}.cls-6{clip-path:url(#clip-path-3);}.cls-7{clip-path:url(#clip-path-4);}.cls-8{fill:url(#linear-gradient-2);}.cls-9{clip-path:url(#clip-path-5);}.cls-10{clip-path:url(#clip-path-6);}.cls-11{fill:url(#linear-gradient-3);}.cls-12{clip-path:url(#clip-path-7);}.cls-13{clip-path:url(#clip-path-8);}.cls-14{fill:url(#linear-gradient-4);}.cls-15{clip-path:url(#clip-path-9);}.cls-16{clip-path:url(#clip-path-10);}.cls-17{fill:url(#radial-gradient);}.cls-18{fill:#fff;}.cls-19{fill:#c6c7c8;}.cls-20{clip-path:url(#clip-path-11);}.cls-21{clip-path:url(#clip-path-12);}.cls-22{fill:url(#linear-gradient-5);}.cls-23{clip-path:url(#clip-path-13);}.cls-24{clip-path:url(#clip-path-14);}.cls-25{fill:url(#linear-gradient-6);}.cls-26{clip-path:url(#clip-path-15);}.cls-27{clip-path:url(#clip-path-16);}.cls-28{fill:url(#linear-gradient-7);}.cls-29{clip-path:url(#clip-path-17);}.cls-30{clip-path:url(#clip-path-18);}.cls-31{fill:url(#linear-gradient-8);}.cls-32{clip-path:url(#clip-path-19);}.cls-33{clip-path:url(#clip-path-20);}.cls-34{fill:url(#linear-gradient-9);}.cls-35{clip-path:url(#clip-path-21);}.cls-36{clip-path:url(#clip-path-22);}.cls-37{fill:url(#linear-gradient-10);}.cls-38{clip-path:url(#clip-path-23);}.cls-39{clip-path:url(#clip-path-24);}.cls-40{fill:url(#linear-gradient-11);}.cls-41{clip-path:url(#clip-path-25);}.cls-42{clip-path:url(#clip-path-26);}.cls-43{fill:url(#linear-gradient-12);}.cls-44{clip-path:url(#clip-path-27);}.cls-45{clip-path:url(#clip-path-28);}.cls-46{fill:url(#linear-gradient-13);}.cls-47{clip-path:url(#clip-path-29);}.cls-48{clip-path:url(#clip-path-30);}.cls-49{fill:url(#linear-gradient-14);}.cls-50{fill:#002f60;}.cls-51{clip-path:url(#clip-path-31);}.cls-52{clip-path:url(#clip-path-32);}.cls-53{fill:url(#linear-gradient-15);}.cls-54{clip-path:url(#clip-path-33);}.cls-55{clip-path:url(#clip-path-34);}.cls-56{fill:url(#linear-gradient-16);}.cls-57{clip-path:url(#clip-path-35);}.cls-58{clip-path:url(#clip-path-36);}.cls-59{fill:url(#linear-gradient-17);}</style><clipPath id="clip-path" transform="translate(-67.59 -46.52)"><rect class="cls-1" x="72.04" y="51.9" width="850.68" height="745.35"/></clipPath><clipPath id="clip-path-2" transform="translate(-67.59 -46.52)"><path class="cls-1" d="M649.34,547.54c-11.82,27.73-24.25,54.08-43.79,71.82-14.27,12.95-34.54,24.82-81.21,26.57-9,.32-20.53.36-26.92.36s-17.94,0-26.92-.36c-46.64-1.75-66.95-13.62-81.19-26.57-19.57-17.74-32-44.09-43.81-71.82-5.4-12.55-36.79-89.36-41.95-105,64,3.18,135.05,5.47,193.87,5.47s129.89-2.29,193.84-5.47c-5.14,15.63-36.57,92.44-41.92,105M907.88,66.07c-1.36-.37-4.24-.78-6.49-1.11q-7.62-1.06-16.86-1.91c-56.74-5-236.66-11.14-387.11-11.14S166.94,58,110.22,63.05c-6.19.56-11.77,1.2-16.88,1.91-2.23.33-5.1.74-6.46,1.11a19,19,0,0,0-13.76,20.6c.06.5,2.37,13.57,3.14,17.84q8.37,46.33,18.39,92.33,9.94,45.69,21.5,91,7,27.5,14.5,54.88c3.7,13.45,15,53.22,21.89,75.88q11.43,37.89,23.71,75.55c9,27.32,36.85,107.28,41.91,120,22.92,58.06,47.24,103,89.78,136.69,41.22,32.54,85,46.38,189.51,46.38s148.14-13.84,189.34-46.38c42.54-33.65,66.88-78.63,89.81-136.69,5-12.75,33-92.71,41.9-120q12.3-37.63,23.73-75.55c6.82-22.66,18.18-62.43,21.87-75.88q7.53-27.39,14.52-54.88,11.48-45.33,21.47-91,10.06-46,18.4-92.33c.79-4.27,3.08-17.34,3.15-17.84A19,19,0,0,0,907.88,66.07Z"/></clipPath><linearGradient id="linear-gradient" x1="169.56" y1="873.84" x2="180.57" y2="873.84" gradientTransform="matrix(0, 67.72, 67.72, 0, -58750.76, -11478.35)" gradientUnits="userSpaceOnUse"><stop offset="0" stop-color="#fff"/><stop offset="0.24" stop-color="#fdfdfd"/><stop offset="0.35" stop-color="#f6f6f6"/><stop offset="0.44" stop-color="#e9e9ea"/><stop offset="0.51" stop-color="#d7d8d9"/><stop offset="0.57" stop-color="#bfc1c2"/><stop offset="0.62" stop-color="#a3a5a7"/><stop offset="0.65" stop-color="#8f9294"/><stop offset="0.89" stop-color="#46494c"/><stop offset="1" stop-color="#292c30"/></linearGradient><clipPath id="clip-path-3" transform="translate(-67.59 -46.52)"><rect class="cls-1" x="295.98" y="436.79" width="402.86" height="214.87"/></clipPath><clipPath id="clip-path-4" transform="translate(-67.59 -46.52)"><path class="cls-1" d="M654.28,549.63h0m29.21-101.31c-9.2,24.52-34.4,86.11-39.09,97.1h0c-11.07,25.92-23.43,52.7-42.49,70C588.6,627.44,570,638.8,524.15,640.57l-26.73.33-26.7-.33c-46-1.77-65.16-13.7-77.77-25.19-19.06-17.26-31.44-44-42.48-70-4.74-11-29.92-72.58-39.1-97.1,68.63,3.27,134.43,5.11,186.05,5.11S614.82,451.59,683.49,448.32Zm-385-4.07c5.28,16,36.61,92.65,42.08,105.38,11.52,27.06,24.51,55,45.17,73.75,14.07,12.76,35.12,26.1,84.6,27.92l27.12.36,27.11-.36c49.46-1.82,70.54-15.16,84.64-27.94,20.66-18.7,33.61-46.67,45.11-73.73,5.5-12.75,36.83-89.33,42.1-105.38l2.46-7.46-7.84.41c-71.37,3.48-140.13,5.43-193.58,5.43s-122.21-1.95-193.6-5.43l-7.84-.41Z"/></clipPath><linearGradient id="linear-gradient-2" x1="142.1" y1="890.11" x2="153.1" y2="890.11" gradientTransform="matrix(0, -17.96, -17.96, 0, 16415.39, 3141)" gradientUnits="userSpaceOnUse"><stop offset="0" stop-color="#58585a"/><stop offset="0.91" stop-color="#58585a"/><stop offset="1" stop-color="#1a171b"/></linearGradient><clipPath id="clip-path-5" transform="translate(-67.59 -46.52)"><rect class="cls-1" x="113.2" y="68.68" width="768.18" height="648.81"/></clipPath><clipPath id="clip-path-6" transform="translate(-67.59 -46.52)"><path class="cls-1" d="M693,444.58l-.69.52-2.65,2c-.82,2.31-1.62,4.57-1.92,5.36-1.48,3.89-3,7.78-4.49,11.72-3.11,8.12-6.31,16.23-9.49,24.35q-9.68,24.32-19.89,48.4c-6.72,15.89-13.39,32-21.75,47.15-7.72,14-17.06,27.45-29.47,37.83S575,638.78,559,642.17c-16.77,3.49-34.11,4-51.2,4.08-3.47,0-6.89,0-10.37.09s-6.91-.05-10.38-.09c-17.09-.1-34.41-.59-51.18-4.08-16-3.39-31.12-9.79-43.67-20.27-12.39-10.38-21.73-23.78-29.45-37.83-8.36-15.18-15-31.26-21.78-47.15q-10.18-24.1-19.83-48.4-4.83-12.18-9.52-24.35c-1.51-3.94-3-7.83-4.47-11.72-.31-.79-1.11-3.05-1.95-5.36l-2.63-2-.69-.52c-15.87-12.8-81.29-90-121.14-182.21-33.57-77.77-61-170.75-67.53-193.69,4.36,24.72,12,51.84,19.53,78.22,1.82,6.44,3.54,12.55,5.23,18.62,9.58,34.36,19.77,69.45,30.34,104.24,20.64,67.83,41.91,137,68.2,205.86,13.92,36.49,26.94,68.66,39.74,98.34,11.32,26.25,25.72,56.43,46.68,81.15,21.34,25.15,44.92,41.22,74.25,50.68,25.5,8.2,55.51,11.7,100.25,11.7s74.72-3.5,100.24-11.7c29.34-9.46,52.93-25.53,74.27-50.68,20.93-24.72,35.35-54.9,46.68-81.15,12.82-29.68,25.8-61.85,39.73-98.34,26.31-68.88,47.57-138.07,68.21-205.86,10.58-34.82,20.78-69.9,30.3-104.24,1.49-5.26,3-10.69,4.5-16,7.5-26.61,15.19-54,20-80C874.3,94.24,846,188.77,812.75,265.79c-39.82,92.27-103.9,166-119.77,178.79"/></clipPath><linearGradient id="linear-gradient-3" x1="158.12" y1="882" x2="169.12" y2="882" gradientTransform="matrix(0, -47.97, -47.97, 0, 42736.58, 8249.24)" gradientUnits="userSpaceOnUse"><stop offset="0" stop-color="#fefefe"/><stop offset="0.18" stop-color="#fefefe"/><stop offset="0.21" stop-color="#eeefef"/><stop offset="0.35" stop-color="#9c9e9f"/><stop offset="0.44" stop-color="#686b6d"/><stop offset="0.49" stop-color="#54575a"/><stop offset="0.71" stop-color="#35383c"/><stop offset="0.79" stop-color="#292c30"/><stop offset="1" stop-color="#292c30"/></linearGradient><clipPath id="clip-path-7" transform="translate(-67.59 -46.52)"><rect class="cls-1" x="114.34" y="51.9" width="766.18" height="396.13"/></clipPath><clipPath id="clip-path-8" transform="translate(-67.59 -46.52)"><path class="cls-1" d="M880.52,62.72C753,55,625.22,51.92,497.42,51.91S241.89,55,114.34,62.72c0,0,18.36,84,48.39,164.83l.07.1h-.07c4.68,12.58,9.66,25.07,14.88,37.18,39.08,90.5,108.25,162.71,125.94,177.8,4.62.19,11.43.56,16.08.8q18.57.85,37.15,1.61,36.59,1.47,73.18,2.32,33.71.7,67.46.66t67.44-.66q36.61-.81,73.2-2.32,18.57-.75,37.17-1.61c4.61-.24,11.44-.61,16-.8,17.73-15.09,86.89-87.3,126-177.8,20.86-48.28,37.56-103,48.57-143.35l-.13.06.13-.16c9.47-34.67,14.71-58.66,14.71-58.66"/></clipPath><linearGradient id="linear-gradient-4" x1="160.81" y1="883.79" x2="171.82" y2="883.79" gradientTransform="matrix(0, -35.99, -35.99, 0, 32240.18, 6189.7)" gradientUnits="userSpaceOnUse"><stop offset="0" stop-color="#383c40"/><stop offset="0" stop-color="#383c40"/><stop offset="0.03" stop-color="#626569"/><stop offset="0.06" stop-color="#9a9c9e"/><stop offset="0.09" stop-color="#c5c7c8"/><stop offset="0.12" stop-color="#e5e5e6"/><stop offset="0.14" stop-color="#f8f8f8"/><stop offset="0.16" stop-color="#fff"/><stop offset="0.19" stop-color="#f0f1f1"/><stop offset="0.25" stop-color="#dcdfe0"/><stop offset="0.31" stop-color="#d1d4d5"/><stop offset="0.37" stop-color="#cdd0d2"/><stop offset="0.69" stop-color="#cbced0"/><stop offset="0.8" stop-color="#c4c8ca"/><stop offset="0.89" stop-color="#b8bcbe"/><stop offset="0.95" stop-color="#a7acaf"/><stop offset="1" stop-color="#979c9f"/></linearGradient><clipPath id="clip-path-9" transform="translate(-67.59 -46.52)"><rect class="cls-1" x="114.34" y="51.91" width="766.18" height="191.18"/></clipPath><clipPath id="clip-path-10" transform="translate(-67.59 -46.52)"><path class="cls-1" d="M345.38,239.42c209-11.61,394.77-57.81,521.48-121.88,8.79-32.58,13.66-54.82,13.66-54.82h0c-60.78-5-236-10.8-383.1-10.8S175.19,57.75,114.34,62.7v0s18.36,84,48.39,164.83l.07.1h-.07c1.61,4.29,3.22,8.55,4.9,12.81a1745.7,1745.7,0,0,0,177.75-1"/></clipPath><radialGradient id="radial-gradient" cx="157.11" cy="876.12" r="11.01" gradientTransform="matrix(44.62, 0, 0, -44.62, -6965.99, 39054.94)" gradientUnits="userSpaceOnUse"><stop offset="0" stop-color="#fff"/><stop offset="0.36" stop-color="#fff"/><stop offset="0.53" stop-color="#f8f9f9"/><stop offset="0.77" stop-color="#e6e8e9"/><stop offset="0.92" stop-color="#d6d9db"/><stop offset="1" stop-color="#d6d9db"/></radialGradient><clipPath id="clip-path-11" transform="translate(-67.59 -46.52)"><rect class="cls-1" x="710.58" y="196.71" width="0.08" height="0.27"/></clipPath><clipPath id="clip-path-12" transform="translate(-67.59 -46.52)"><polyline class="cls-1" points="710.65 196.99 710.6 196.78 710.57 196.71 710.65 196.99"/></clipPath><linearGradient id="linear-gradient-5" x1="138.2" y1="883.38" x2="149.44" y2="883.38" gradientTransform="matrix(0, -4.54, -4.54, 0, 4657.81, 824.86)" gradientUnits="userSpaceOnUse"><stop offset="0" stop-color="#3e3d40"/><stop offset="0" stop-color="#3e3d40"/><stop offset="0.02" stop-color="#5e5d5f"/><stop offset="0.06" stop-color="#979698"/><stop offset="0.09" stop-color="#c4c3c4"/><stop offset="0.12" stop-color="#e4e4e4"/><stop offset="0.14" stop-color="#f8f8f8"/><stop offset="0.16" stop-color="#fff"/><stop offset="0.19" stop-color="#f2f2f2"/><stop offset="0.25" stop-color="#dfdfe0"/><stop offset="0.31" stop-color="#d4d4d5"/><stop offset="0.37" stop-color="#d0d0d1"/><stop offset="0.68" stop-color="#cececf"/><stop offset="0.79" stop-color="#c8c7c8"/><stop offset="0.86" stop-color="#bcbcbd"/><stop offset="0.93" stop-color="#acabac"/><stop offset="0.98" stop-color="#979696"/><stop offset="1" stop-color="#8d8c8c"/></linearGradient><clipPath id="clip-path-13" transform="translate(-67.59 -46.52)"><rect class="cls-1" x="411.48" y="196.71" width="0.11" height="0.27"/></clipPath><clipPath id="clip-path-14" transform="translate(-67.59 -46.52)"><polyline class="cls-1" points="411.58 196.99 411.53 196.78 411.48 196.71 411.58 196.99"/></clipPath><linearGradient id="linear-gradient-6" x1="138.2" y1="943.21" x2="149.44" y2="943.21" gradientTransform="matrix(0, -4.54, -4.54, 0, 4630.63, 824.86)" xlink:href="#linear-gradient-5"/><clipPath id="clip-path-15" transform="translate(-67.59 -46.52)"><rect class="cls-1" x="384.59" y="194.75" width="46.45" height="42.21"/></clipPath><clipPath id="clip-path-16" transform="translate(-67.59 -46.52)"><path class="cls-1" d="M411.53,196.78l.05.21-.1-.28,0,.07c-.29-.82-1.13-2-3.67-2l-.29,0v3.08l.29,0,1.11.65s15.19,31.45,17.14,35.38H389.49l-4.9,3.09H431l-19.51-40.18"/></clipPath><linearGradient id="linear-gradient-7" x1="187.19" y1="1103.71" x2="198.19" y2="1103.71" gradientTransform="matrix(0, -1.45, -1.45, 0, 2007.23, 488.02)" gradientUnits="userSpaceOnUse"><stop offset="0" stop-color="#fff"/><stop offset="0.25" stop-color="#f7f7f7"/><stop offset="0.63" stop-color="#e1e2e3"/><stop offset="1" stop-color="#c6c7c9"/></linearGradient><clipPath id="clip-path-17" transform="translate(-67.59 -46.52)"><rect class="cls-1" x="683.6" y="194.75" width="46.45" height="42.21"/></clipPath><clipPath id="clip-path-18" transform="translate(-67.59 -46.52)"><path class="cls-1" d="M710.57,196.78l0,.21-.08-.28,0,.07c-.29-.82-1.15-2-3.68-2l-.29,0v3.08l.29,0,1.11.65s15.24,31.45,17.13,35.38H688.5L683.6,237h46.45l-19.48-40.18"/></clipPath><linearGradient id="linear-gradient-8" x1="105.35" y1="934.26" x2="116.35" y2="934.26" gradientTransform="matrix(0, -1.45, -1.45, 0, 2062, 369.34)" xlink:href="#linear-gradient-7"/><clipPath id="clip-path-19" transform="translate(-67.59 -46.52)"><rect class="cls-1" x="221.41" y="174.54" width="109.38" height="95.53"/></clipPath><clipPath id="clip-path-20" transform="translate(-67.59 -46.52)"><path class="cls-1" d="M224.51,177.64h65.84c14.78,0,26.69,4.78,35.42,14.22a41.3,41.3,0,0,1,2.81,3.33l2.2-2.18a39.8,39.8,0,0,0-2.73-3.25c-9.37-10.09-22-15.22-37.7-15.22H221.41v95.53l3.1-3.11V177.64"/></clipPath><linearGradient id="linear-gradient-9" x1="70.05" y1="799.5" x2="81.06" y2="799.5" gradientTransform="matrix(0, 3.51, 3.51, 0, -2533.54, -28.47)" xlink:href="#linear-gradient-7"/><clipPath id="clip-path-21" transform="translate(-67.59 -46.52)"><rect class="cls-1" x="250.76" y="201.09" width="58.74" height="48.9"/></clipPath><clipPath id="clip-path-22" transform="translate(-67.59 -46.52)"><path class="cls-1" d="M303.51,240.87c4-5.34,6-11.89,6-19.48,0-7.39-2-13.69-5.78-18.69l-1.39-1.61-2.18,2.18,1.08,1.3c3.46,4.48,5.17,10.11,5.17,16.82,0,6.92-1.79,12.86-5.32,17.63a18.37,18.37,0,0,1-15.56,7.87H253.86l-3.1,3.1h34.75a21.44,21.44,0,0,0,18-9.12"/></clipPath><linearGradient id="linear-gradient-10" x1="246.45" y1="1279.39" x2="257.45" y2="1279.39" gradientTransform="matrix(-0.51, -0.96, -0.96, 0.51, 1563.49, -232.7)" xlink:href="#linear-gradient-7"/><clipPath id="clip-path-23" transform="translate(-67.59 -46.52)"><rect class="cls-1" x="337.23" y="174.13" width="141.09" height="95.95"/></clipPath><clipPath id="clip-path-24" transform="translate(-67.59 -46.52)"><path class="cls-1" d="M443.65,270.07h34.68L465.55,241.6c-7.05-15.59-12.84-28.07-17.19-37.1-8.44-17.51-10.92-20.92-12.05-22-2.68-2.7-6.7-4.84-11.94-6.27a64,64,0,0,0-16.48-2.1h-.13a64,64,0,0,0-16.64,2.1c-5.21,1.43-9.3,3.57-12.12,6.31-1,1.13-3.36,4.57-11.83,22l-17.37,37.1-12.58,28.43L342,267c1.62-3.62,10.64-24,10.64-24l17.36-37c7.65-15.77,10.33-20.23,11.24-21.22,2.4-2.33,6-4.19,10.72-5.47a59.19,59.19,0,0,1,15.83-2h.13a60.06,60.06,0,0,1,15.64,2c4.73,1.28,8.29,3.12,10.63,5.51.86.82,3.45,4.56,11.4,21.11,4.34,9,10.1,21.45,17.15,37,0,0,9.17,20.42,10.79,24.1H445.6l-2,3.11"/></clipPath><linearGradient id="linear-gradient-11" x1="60.46" y1="798" x2="71.46" y2="798" gradientTransform="matrix(0, 2.49, 2.49, 0, -1581.49, 59.29)" xlink:href="#linear-gradient-7"/><clipPath id="clip-path-25" transform="translate(-67.59 -46.52)"><rect class="cls-1" x="636.28" y="174.13" width="141.08" height="95.95"/></clipPath><clipPath id="clip-path-26" transform="translate(-67.59 -46.52)"><path class="cls-1" d="M742.73,270.07h34.64L764.62,241.6c-7.06-15.59-12.83-28.07-17.22-37.1-8.4-17.51-10.9-20.92-12-22-2.63-2.7-6.68-4.84-11.94-6.27a63.64,63.64,0,0,0-16.47-2.1h-.1a64.22,64.22,0,0,0-16.65,2.1c-5.22,1.43-9.29,3.57-12.12,6.31-1.07,1.13-3.35,4.57-11.81,22l-17.4,37.1-12.58,28.43L641,267l10.63-24,17.35-37c7.64-15.77,10.34-20.23,11.25-21.22,2.41-2.33,6.05-4.19,10.73-5.47a59.43,59.43,0,0,1,15.84-2h.1a60.29,60.29,0,0,1,15.67,2c4.69,1.28,8.27,3.12,10.6,5.51.87.82,3.46,4.56,11.42,21.11,4.35,9,10.1,21.45,17.15,37,0,0,9.17,20.42,10.8,24.1H744.65l-1.92,3.11"/></clipPath><linearGradient id="linear-gradient-12" x1="166.21" y1="825.66" x2="177.22" y2="825.66" gradientTransform="matrix(2.33, 0.69, 0.69, -2.33, -327.51, 1981.69)" xlink:href="#linear-gradient-7"/><clipPath id="clip-path-27" transform="translate(-67.59 -46.52)"><rect class="cls-1" x="473.8" y="174.54" width="107.91" height="95.53"/></clipPath><clipPath id="clip-path-28" transform="translate(-67.59 -46.52)"><path class="cls-1" d="M578.59,267h-54.4c-15,0-27-4.6-35.62-13.68a40.65,40.65,0,0,1-7.15-10.08,44.22,44.22,0,0,1-4.53-20.11c0-12.2,4-22.72,11.87-31.24,8.75-9.44,20.67-14.21,35.43-14.21h54.4l3.12-3.1H524.19c-15.65,0-28.35,5.13-37.7,15.22-8.41,9.1-12.69,20.3-12.69,33.33a47.24,47.24,0,0,0,5.33,22.41,43.54,43.54,0,0,0,7.2,9.9c9.2,9.72,22,14.67,37.86,14.67h57.52V246.89l-3.12,3.1v17"/></clipPath><linearGradient id="linear-gradient-13" x1="203.06" y1="821.83" x2="214.07" y2="821.83" gradientTransform="matrix(0, 3.51, 3.51, 0, -2425.95, -547.46)" xlink:href="#linear-gradient-7"/><clipPath id="clip-path-29" transform="translate(-67.59 -46.52)"><rect class="cls-1" x="505.08" y="174.54" width="76.63" height="75.45"/></clipPath><clipPath id="clip-path-30" transform="translate(-67.59 -46.52)"><path class="cls-1" d="M513.39,204.59c3.83-5,9-7.45,15.64-7.45h52.68v-22.6l-3.12,3.1v16.42H529c-7.6,0-13.7,2.91-18.07,8.64-3.92,5-5.88,11.34-5.88,18.69l.05,1.78A31.33,31.33,0,0,0,511,240.85,21.25,21.25,0,0,0,529,250h49.56l3.12-3.1H529A18.14,18.14,0,0,1,513.51,239c-3.54-4.83-5.33-10.78-5.33-17.65l0-.81c.14-6.3,1.86-11.67,5.19-16"/></clipPath><linearGradient id="linear-gradient-14" x1="125.15" y1="936.03" x2="136.15" y2="936.03" gradientTransform="matrix(0, -3.13, -3.13, 0, 3409.61, 584.72)" xlink:href="#linear-gradient-7"/><clipPath id="clip-path-31" transform="translate(-67.59 -46.52)"><rect class="cls-1" x="224.52" y="177.24" width="488.85" height="64.97"/></clipPath><clipPath id="clip-path-32" transform="translate(-67.59 -46.52)"><path class="cls-1" d="M488.73,191.86c-7.89,8.52-11.87,19-11.87,31.23,0,1.41.07,2.8.19,4.15q14.11-1.85,28-3.89l-.06-2c0-7.34,2-13.63,5.89-18.68,4.37-5.72,10.47-8.64,18.09-8.64h49.54V177.65H524.15c-14.77,0-26.67,4.79-35.42,14.21M290.35,177.65H224.51v64.43c8.7.11,17.43.14,26.25.13V194.07H285.5c7.68,0,13.79,2.92,18.19,8.64,3.84,5,5.78,11.3,5.78,18.68,0,7.61-2,14.15-6,19.48l-.35.4c10.43-.32,20.9-.77,31.42-1.28a45.64,45.64,0,0,0,3.06-16.9c0-12.19-4-22.71-11.88-31.22C317,182.44,305.12,177.65,290.35,177.65Zm308.06,29.1Q611.7,204,624.67,201V177.65H598.41Zm-164.29-22c-2.33-2.38-5.89-4.24-10.61-5.5a63.14,63.14,0,0,0-31.61,0c-4.67,1.27-8.31,3.12-10.71,5.46-.9,1-3.59,5.46-11.25,21.23l-15.45,32.94c10.09-.61,20.17-1.28,30.13-2l19.17-40.25a4.47,4.47,0,0,1,4.06-1.83c2.5,0,3.36,1.18,3.65,2l17.5,36q13.94-1.44,27.72-3c-4.38-9.57-8.13-17.62-11.2-23.92C437.61,189.31,435,185.57,434.12,184.75Zm272.64-7.51a59.71,59.71,0,0,0-15.83,2c-4.67,1.27-8.34,3.12-10.71,5.46a16.61,16.61,0,0,0-1.89,2.91q17.83-4.81,35-10A64.57,64.57,0,0,0,706.76,177.24Z"/></clipPath><linearGradient id="linear-gradient-15" x1="173.84" y1="838.39" x2="184.85" y2="838.39" gradientTransform="matrix(0, 6.32, 6.32, 0, -4826.02, -949.05)" gradientUnits="userSpaceOnUse"><stop offset="0" stop-color="#63769e"/><stop offset="0.11" stop-color="#63769e"/><stop offset="0.26" stop-color="#5a719a"/><stop offset="0.5" stop-color="#43638e"/><stop offset="0.8" stop-color="#1d4c7a"/><stop offset="1" stop-color="#003b6b"/></linearGradient><clipPath id="clip-path-33" transform="translate(-67.59 -46.52)"><rect class="cls-1" x="103.09" y="62.94" width="788.61" height="661.04"/></clipPath><clipPath id="clip-path-34" transform="translate(-67.59 -46.52)"><path class="cls-1" d="M159.54,272.48q31.65,104.08,70.57,205.78c12.59,32.87,25.63,65.56,39.58,97.87,12.62,29.27,26.95,58.26,47.72,82.75,46.39,54.65,101.14,65.1,180,65.1s133.65-10.45,180-65.1c20.8-24.49,35.1-53.48,47.74-82.75,13.93-32.31,27-65,39.55-97.89q38.81-101.64,70.59-205.76,15.83-52,30.38-104.45c9.32-33.51,20.35-70.25,26-104.2-2.29-.25-4.68-.49-7.17-.7l-1.94-.19c-4.7,28-13.11,57.78-21.24,86.67-1.47,5.29-3,10.74-4.5,16-9.52,34.34-19.72,69.4-30.3,104.23C805.91,337.64,782.25,406.7,756.16,475c-13.83,36.19-26.71,68.06-39.41,97.48-11.23,26.06-25.49,56-46.29,80.49-21.16,24.92-44.56,40.89-73.64,50.26-25.3,8.13-55,11.62-99.4,11.62s-74.11-3.49-99.4-11.62c-29.08-9.37-52.5-25.34-73.63-50.26-20.79-24.52-35.07-54.43-46.3-80.45-12.73-29.46-25.6-61.33-39.41-97.52-26.09-68.29-49.74-137.33-70.38-205.17C157.73,235,147.54,200,138,165.6c-1.7-6.08-3.42-12.19-5.24-18.63-8.1-28.43-16.4-57.77-20.52-84l-2,.19c-2.48.21-4.84.45-7.13.7,5.08,32.93,16.77,70.73,26.06,104.2q14.57,52.44,30.39,104.45"/></clipPath><linearGradient id="linear-gradient-16" x1="161.86" y1="873.08" x2="172.87" y2="873.08" gradientTransform="matrix(71.66, 0, 0, -71.66, -11562.88, 62908.5)" gradientUnits="userSpaceOnUse"><stop offset="0" stop-color="#fff"/><stop offset="0.55" stop-color="#fff"/><stop offset="1" stop-color="#fff"/></linearGradient><clipPath id="clip-path-35" transform="translate(-67.59 -46.52)"><rect class="cls-1" x="111.39" y="62.63" width="772.23" height="386.14"/></clipPath><clipPath id="clip-path-36" transform="translate(-67.59 -46.52)"><path class="cls-1" d="M178,264.58C139.72,175.9,115,63.86,114.78,62.64c-1.17.11-2.28.18-3.39.29v.12c1,4.66,25.35,114.91,63.36,202.93C213.12,354.81,281.69,429.4,301.14,445.1l.71.53,3.85,2.86s-1.51-4.25-2.15-5.94c-15.54-13.3-85.91-86.24-125.52-178m702-201.93c-.32,1.4-25,113.35-63.26,201.93-39.61,91.7-110.13,164.94-125.55,178.05l-.07.15-2.18,6,3.84-2.86.73-.57C713,429.69,781.73,354.78,820.08,266c37.85-87.64,62.51-198.27,63.51-202.93l0-.11C882.5,62.84,881.29,62.76,880.07,62.65Z"/></clipPath><linearGradient id="linear-gradient-17" x1="169.16" y1="871.36" x2="180.16" y2="871.36" gradientTransform="matrix(0, 36.3, 36.3, 0, -31202.26, -6136.52)" gradientUnits="userSpaceOnUse"><stop offset="0" stop-color="#58585a"/><stop offset="0.04" stop-color="#515153"/><stop offset="0.08" stop-color="#414043"/><stop offset="0.15" stop-color="#302e31"/><stop offset="0.23" stop-color="#232124"/><stop offset="0.33" stop-color="#1c191d"/><stop offset="0.54" stop-color="#1a171b"/><stop offset="0.77" stop-color="#2a282b"/><stop offset="1" stop-color="#353437"/></linearGradient></defs><path class="cls-2" d="M909.29,60.86h0m0,0-.23,0Zm-598,685.76c-42.28-33.39-65.8-77.9-88.12-134.38-5-12.68-33.13-93.28-41.78-119.75L157.69,417l-21.82-75.75-14.5-54.77c-7.78-30.61-15-61.16-21.48-90.82-6.6-30.32-12.76-61.33-18.34-92.14L78.45,85.9a13.54,13.54,0,0,1,9.8-14.61l5.87-1,16.59-1.88c58.11-5.14,239.7-11.12,386.71-11.12s328.52,6,386.61,11.12l16.59,1.9,5.86,1A13.57,13.57,0,0,1,916.29,86l-3.1,17.54c-5.53,30.67-11.71,61.68-18.35,92.14-6.52,29.89-13.74,60.45-21.48,90.82l-14.47,54.77L837.07,417l-23.71,75.45c-8.67,26.55-36.77,107.12-41.78,119.75-22.32,56.48-45.85,101-88.13,134.38-38,30-77.16,45.26-186,45.26C389.09,791.88,348.43,775.94,311.28,746.62ZM109.77,57.68l-17.21,2-7.09,1.22a24.4,24.4,0,0,0-17.7,26.45l3.17,18.17c5.6,30.94,11.81,62.06,18.42,92.51,6.49,29.79,13.75,60.47,21.55,91.19l14.55,55,21.92,76,23.73,75.67c8.94,27.37,36.82,107.23,42,120.35,22.95,58.16,47.3,104,91.48,138.92,45,35.56,93.68,47.53,192.83,47.53s147.7-12,192.71-47.53c44.19-34.91,68.53-80.76,91.49-138.92,5.15-13.06,33-92.92,42-120.35l23.76-75.67,21.89-76,14.54-55c7.77-30.5,15-61.17,21.56-91.19,6.65-30.58,12.86-61.72,18.42-92.51L927,87.28l.17-2.92a24.39,24.39,0,0,0-17.86-23.5l-7.13-1.22-17.16-2c-58.35-5.15-240.36-11.16-387.58-11.16S168.07,52.53,109.77,57.68Z" transform="translate(-67.59 -46.52)"/><g class="cls-3"><g class="cls-4"><rect class="cls-5" x="4.46" y="5.39" width="850.67" height="745.34"/></g></g><g class="cls-6"><g class="cls-7"><rect class="cls-8" x="228.39" y="390.26" width="402.86" height="214.87"/></g></g><g class="cls-9"><g class="cls-10"><rect class="cls-11" x="45.61" y="22.16" width="768.18" height="648.81"/></g></g><g class="cls-12"><g class="cls-13"><rect class="cls-14" x="46.75" y="5.39" width="766.18" height="396.12"/></g></g><g class="cls-15"><g class="cls-16"><rect class="cls-17" x="46.75" y="5.39" width="766.18" height="191.18"/></g></g><path class="cls-18" d="M736.71,250.6l-1.92,3.09c.75,1.56,7.94,16.38,7.94,16.38l1.93-3.11c-.74-1.56-7.95-16.36-7.95-16.36" transform="translate(-67.59 -46.52)"/><path class="cls-18" d="M677.16,250.6s-7,14.78-7.78,16.36H641l-4.76,3.12h35.05s7.06-14.8,7.79-16.38h55.66l1.92-3.09H677.16" transform="translate(-67.59 -46.52)"/><path class="cls-19" d="M677.16,250.6s-7,14.78-7.78,16.36H641l-4.76,3.12h35.05s7.06-14.8,7.79-16.38h55.66l1.92-3.09H677.16" transform="translate(-67.59 -46.52)"/><path class="cls-18" d="M764.62,241.6c-7.07-15.59-12.84-28.07-17.22-37.09-8.4-17.51-10.9-20.93-12-22-2.64-2.71-6.69-4.85-11.94-6.26a63.32,63.32,0,0,0-16.47-2.11v3.08a60.21,60.21,0,0,1,15.66,2c4.69,1.28,8.28,3.13,10.61,5.51.87.82,3.46,4.56,11.42,21.12,4.35,9,10.1,21.45,17.14,37,0,0,9.18,20.42,10.8,24.09H744.65l-1.94,3.11h34.66L764.62,241.6" transform="translate(-67.59 -46.52)"/><polyline class="cls-18" points="643.07 150.47 643.02 150.26 642.99 150.19 643.07 150.47"/><g class="cls-20"><g class="cls-21"><rect class="cls-22" x="642.98" y="150.19" width="0.09" height="0.27"/></g></g><path class="cls-18" d="M437.67,250.6l-1.95,3.09c.75,1.56,7.93,16.38,7.93,16.38l2-3.11-7.93-16.36" transform="translate(-67.59 -46.52)"/><path class="cls-18" d="M378.08,250.6s-7,14.78-7.78,16.36H342l-4.75,3.12h35s7.07-14.8,7.79-16.38h55.68l1.95-3.09H378.08" transform="translate(-67.59 -46.52)"/><path class="cls-19" d="M378.08,250.6s-7,14.78-7.78,16.36H342l-4.75,3.12h35s7.07-14.8,7.79-16.38h55.68l1.95-3.09H378.08" transform="translate(-67.59 -46.52)"/><path class="cls-18" d="M465.55,241.6c-7.06-15.59-12.85-28.07-17.19-37.09-8.44-17.51-10.92-20.93-12.05-22-2.68-2.71-6.7-4.85-11.95-6.26a63.49,63.49,0,0,0-16.47-2.11v3.08a60.11,60.11,0,0,1,15.64,2c4.72,1.28,8.29,3.13,10.62,5.51.87.82,3.46,4.56,11.41,21.12,4.34,9,10.1,21.45,17.14,37,0,0,9.17,20.42,10.8,24.09H445.6l-2,3.11h34.66L465.55,241.6" transform="translate(-67.59 -46.52)"/><path class="cls-19" d="M406.33,198.53l1.26-.67v-3.08a4.27,4.27,0,0,0-3.77,1.78L384.59,237l4.91-3.09,16.83-35.34" transform="translate(-67.59 -46.52)"/><polyline class="cls-18" points="343.99 150.47 343.94 150.26 343.89 150.19 343.99 150.47"/><g class="cls-23"><g class="cls-24"><rect class="cls-25" x="343.89" y="150.19" width="0.11" height="0.27"/></g></g><g class="cls-26"><g class="cls-27"><rect class="cls-28" x="377.71" y="186.74" width="60.21" height="58.24" transform="translate(-120.9 152.92) rotate(-25.85)"/></g></g><path class="cls-19" d="M705.32,198.53l1.27-.67v-3.08a4.25,4.25,0,0,0-3.76,1.78L683.6,237l4.9-3.09c1.89-3.92,16.82-35.34,16.82-35.34" transform="translate(-67.59 -46.52)"/><g class="cls-29"><g class="cls-30"><rect class="cls-31" x="676.78" y="186.81" width="60.1" height="58.1" transform="translate(-91.67 278.77) rotate(-25.5)"/></g></g><path class="cls-18" d="M598.47,177.64h26.27l3.11-3.09H595.4v95.52l3.07-3.11V177.64" transform="translate(-67.59 -46.52)"/><path class="cls-19" d="M627.82,174.54l-3.09,3.09V267H598.46l-3.07,3.12h32.43V174.54" transform="translate(-67.59 -46.52)"/><g class="cls-32"><g class="cls-33"><rect class="cls-34" x="211.23" y="153.63" width="129.74" height="137.34" transform="translate(-101.54 347.59) rotate(-67.83)"/></g></g><path class="cls-19" d="M253.86,197.14h31.65c6.12,0,10.92,2,14.62,6.13l2.19-2.18c-4.26-4.64-9.91-7-16.81-7H250.76V250l3.1-3.09V197.14" transform="translate(-67.59 -46.52)"/><path class="cls-19" d="M328.32,255.4c8.22-8.66,12.42-19.53,12.42-32.31,0-11.51-3.37-21.61-10-30.09l-2.2,2.19a44.87,44.87,0,0,1,9.07,27.9c0,11.95-3.9,22.14-11.57,30.18-8.61,9.08-20.66,13.68-35.73,13.68H224.51l-3.1,3.12h68.94c16,0,28.73-4.95,38-14.67" transform="translate(-67.59 -46.52)"/><g class="cls-35"><g class="cls-36"><polygon class="cls-37" points="196.04 227.77 162.94 165.29 229.03 130.27 262.14 192.75 196.04 227.77"/></g></g><g class="cls-38"><g class="cls-39"><rect class="cls-40" x="342.84" y="141.36" width="129.87" height="161.48" transform="translate(18.08 510.03) rotate(-74.65)"/></g></g><g class="cls-41"><g class="cls-42"><polygon class="cls-43" points="579.99 89.33 735.8 135.28 698.48 261.84 542.65 215.88 579.99 89.33"/></g></g><g class="cls-44"><g class="cls-45"><rect class="cls-46" x="406.21" y="128.01" width="107.91" height="95.53"/></g></g><g class="cls-47"><g class="cls-48"><rect class="cls-49" x="437.49" y="128.01" width="76.63" height="75.45"/></g></g><path class="cls-50" d="M303.5,240.87a21.45,21.45,0,0,1-18,9.12H250.76V194.07h34.73c7.69,0,13.8,2.92,18.2,8.64,3.84,5,5.78,11.3,5.78,18.68,0,7.61-2,14.15-6,19.48m22.26-49c-8.74-9.43-20.65-14.22-35.4-14.22H224.51V267h65.85c15.06,0,27.09-4.6,35.68-13.68,7.71-8.05,11.6-18.21,11.6-30.19C337.64,210.9,333.63,200.38,325.76,191.87Z" transform="translate(-67.59 -46.52)"/><path class="cls-50" d="M488.54,253.29c-7.75-8.11-11.65-18.27-11.65-30.19,0-12.2,4-22.71,11.84-31.23,8.75-9.43,20.66-14.22,35.42-14.22h54.4v16.43H529c-7.61,0-13.7,2.91-18.07,8.64-3.93,5-5.9,11.33-5.9,18.67,0,7.56,2,14.12,6,19.48A21.29,21.29,0,0,0,529,250h49.55v17h-54.4c-15,0-27-4.6-35.61-13.67" transform="translate(-67.59 -46.52)"/><path class="cls-50" d="M624.67,177.65V267H598.41V177.65h26.26" transform="translate(-67.59 -46.52)"/><path class="cls-50" d="M683.57,237l19.25-40.39a4.42,4.42,0,0,1,4-1.83c2.51,0,3.37,1.18,3.68,2L730,237H683.57m78.13,5.9c-7-15.56-12.8-28-17.13-37-8-16.55-10.55-20.29-11.42-21.11-2.33-2.38-5.93-4.25-10.6-5.51a63.49,63.49,0,0,0-31.62,0c-4.67,1.28-8.34,3.13-10.71,5.46-.92,1-3.61,5.46-11.25,21.24l-17.35,37s-9,20.4-10.64,24h28.33c.77-1.58,7.78-16.35,7.78-16.35h59.54s7.19,14.79,7.94,16.35h27.95C770.86,263.28,761.7,242.87,761.7,242.87Z" transform="translate(-67.59 -46.52)"/><path class="cls-50" d="M384.55,237l19.23-40.39c.75-1.2,2.12-1.83,4.05-1.83,2.52,0,3.38,1.18,3.67,2L431,237H384.55m78.12,5.9c-7-15.56-12.8-28-17.15-37-7.93-16.55-10.51-20.29-11.4-21.11-2.33-2.38-5.9-4.25-10.62-5.51a63.41,63.41,0,0,0-31.6,0c-4.69,1.28-8.31,3.13-10.73,5.46-.89,1-3.57,5.46-11.23,21.24l-17.34,37s-9,20.4-10.64,24H370.3c.74-1.58,7.75-16.35,7.75-16.35h59.59s7.15,14.79,7.92,16.35h27.92Z" transform="translate(-67.59 -46.52)"/><g class="cls-51"><g class="cls-52"><rect class="cls-53" x="222.37" y="144.93" width="493.15" height="129.62" transform="translate(-91.38 17.92) rotate(-7.67)"/></g></g><g class="cls-54"><g class="cls-55"><rect class="cls-56" x="35.5" y="16.42" width="788.61" height="661.04"/></g></g><g class="cls-57"><g class="cls-58"><rect class="cls-59" x="43.8" y="16.12" width="772.23" height="386.13"/></g></g></svg>