<svg id="katman_1" data-name="katman 1" xmlns="http://www.w3.org/2000/svg" viewBox="0 0 150 150"><defs><style>.cls-1{opacity:0.35;}.cls-2{fill:#449bff;}.cls-3{fill:#82beea;}.cls-4{fill:#304452;}.cls-5{fill:#d4905b;}.cls-6{fill:#df9f6c;}.cls-7{fill:#4c352a;}.cls-8{fill:#58656d;}.cls-9{fill:#628dac;}.cls-10{fill:#73838e;}</style></defs><g class="cls-1"><circle class="cls-2" cx="75" cy="75" r="75"/></g><path class="cls-3" d="M990,552.93c-2.47-3-18.9-7.51-19.52-8a3.3,3.3,0,0,1-.34-.33c-.66,2.54-2.81,3-9.81,4.53-7-1.55-9.15-2-9.81-4.53a3.37,3.37,0,0,1-.33.33c-.63.5-17.06,5-19.52,8-3.6,4.42-2.79,15.16-2.7,22.91a4.23,4.23,0,0,0,4.25,4.16h56.23a4.22,4.22,0,0,0,4.24-4.16C992.78,568.09,993.59,557.35,990,552.93Z" transform="translate(-885.33 -465)"/><path class="cls-4" d="M968.31,549.61l.85-3.31c-1.26,1.16-3.79,1.71-8.83,2.82a48,48,0,0,1-7.41-2l5,11.33,2.39,4.76Z" transform="translate(-885.33 -465)"/><path class="cls-5" d="M972.15,522.13c-.17,2.77-.4,5.65-.7,7.91,2.63-1.18,2.94-5.33,3-7.65C974.59,520.42,972.88,521.56,972.15,522.13Z" transform="translate(-885.33 -465)"/><path class="cls-5" d="M948.51,522.13c.18,2.77.41,5.65.7,7.91-2.62-1.18-2.94-5.33-3.05-7.65C946.07,520.42,947.79,521.56,948.51,522.13Z" transform="translate(-885.33 -465)"/><path class="cls-5" d="M967.69,538.08c-1.88,2.06-4.42,3.83-7.37,3.83h0c-2.93,0-5.46-1.76-7.35-3.81v5a12.49,12.49,0,0,1-2.38,1.51s0,.1,0,.28c.75,2.58,2.81,4.25,9.73,4.25s9-1.67,9.73-4.25c0-.18,0-.28,0-.28a13.17,13.17,0,0,1-2.38-1.51Z" transform="translate(-885.33 -465)"/><path class="cls-6" d="M971.44,520.22a15.34,15.34,0,0,0-.72-4.46c-1.18-2.07-4.79-3-5.43-3s-3,1.6-3.79,1.85a11.32,11.32,0,0,1-5.91-.51c-1.05-.49-2.82,1.14-4,1.55-3.56,1.24-2.37,13-2.47,13.81a17.58,17.58,0,0,0,.89,4.38c1.43,2.94,5.27,8.09,10.3,8.09h0c5,0,8.87-5.15,10.3-8.09a22.12,22.12,0,0,0,1-5.6A47.16,47.16,0,0,1,971.44,520.22Z" transform="translate(-885.33 -465)"/><path class="cls-7" d="M971.59,528.22a48.21,48.21,0,0,1-.21-8,15.34,15.34,0,0,0-.72-4.46c-1.17-2.07-4.79-3-5.43-3s-3,1.6-3.78,1.85a11.35,11.35,0,0,1-5.92-.51c-1-.49-2.81,1.14-4,1.55-3.6,1.26-2.33,13.36-2.47,13.84-.45-.13-3.54-11.22-2.69-14.07.26-.88,0-2.68.35-3.47a36.19,36.19,0,0,1,2.08-4.24c.5-.57,3.19-1.3,3.64-2.74s2.58-.63,3.06-.85.46-1.12,1.07-1.43c1.1-.55,3.32.87,3.47.94s1.06-.68.05-2.08c0,0,2.76-1.29,5.36,2.49a2.16,2.16,0,0,0,0-2s1.21-.21,3.07,3.58c0,0,.69-.68,1.21-.68,0,0-.48,2.81-.13,3.38,0,0,4.87,3.59,4.87,7.12A45.23,45.23,0,0,1,971.59,528.22Z" transform="translate(-885.33 -465)"/><path class="cls-8" d="M975.21,546.53V562.6a3.55,3.55,0,0,1-3.13,3.51c-3.59.44-9.28,1.09-11.75,1.09s-8.15-.65-11.74-1.09a3.54,3.54,0,0,1-3.13-3.51V546.53c-1.63.53-3.53,1.16-5.41,1.83V580h40.57V548.36C978.74,547.69,976.84,547.06,975.21,546.53Z" transform="translate(-885.33 -465)"/><polygon class="cls-9" points="67.64 78.08 65.26 79.82 62.35 85.29 68.7 90.76 67.46 93.2 75 98.27 67.64 78.08"/><polygon class="cls-9" points="82.36 78.08 84.74 79.82 87.65 85.29 81.3 90.76 82.54 93.2 75 98.27 82.36 78.08"/><path class="cls-10" d="M949.22,573.55V580h22.23v-6.45a2,2,0,0,0-2-2H951.24A2,2,0,0,0,949.22,573.55Z" transform="translate(-885.33 -465)"/><path class="cls-3" d="M960.33,509.17s-14.1,3.16-14.1,11.64c0,0,1.64,4.15,3.58,2.24s4.8-5.45,10.52-5.27c5.73-.18,8.58,3.36,10.52,5.27s3.59-2.24,3.59-2.24C974.44,512.33,960.33,509.17,960.33,509.17Z" transform="translate(-885.33 -465)"/><path class="cls-9" d="M961.72,500.11a8.58,8.58,0,0,0-2.77,0c-3.56.55-12.72,4.48-12.72,10.33v7.91a.29.29,0,0,0,.53.19c1.56-2.24,6.5-8.4,13.57-8.4s12,6.16,13.58,8.4a.29.29,0,0,0,.53-.19v-7.91C974.44,504.59,965.28,500.66,961.72,500.11Z" transform="translate(-885.33 -465)"/></svg>