<svg id="katman_1" data-name="katman 1" xmlns="http://www.w3.org/2000/svg" xmlns:xlink="http://www.w3.org/1999/xlink" viewBox="0 0 150 150"><defs><style>.cls-1{fill:none;}.cls-2{opacity:0.35;}.cls-3{fill:#a4a3e0;}.cls-4{clip-path:url(#clip-path);}.cls-5{fill:#1b2a2f;}.cls-6{fill:#c8c9ca;}.cls-7{fill:#00253e;}.cls-8{fill:#fab676;}.cls-9{fill:#ffd9aa;}.cls-10{fill:#fbc28c;}.cls-11{fill:#fdcf94;}.cls-12{fill:#fdf9d6;}.cls-13{fill:#fff;}.cls-14{fill:#ececed;}.cls-15{fill:#00496a;}.cls-16{fill:#00415f;}.cls-17{fill:#324348;}.cls-18{fill:#28393d;}.cls-19{fill:#3b9044;}.cls-20{fill:#7bde45;}</style><clipPath id="clip-path" transform="translate(-885.33 -465)"><rect class="cls-1" x="912.33" y="518" width="96" height="96"/></clipPath></defs><g class="cls-2"><circle class="cls-3" cx="75" cy="75" r="75"/></g><g class="cls-4"><g id="Group_2922" data-name="Group 2922"><g id="Group_2921" data-name="Group 2921"><path id="Path_4259" data-name="Path 4259" class="cls-5" d="M924.15,575.66c2.37.77,8.08-5.46,8.94-11.41.73-5.07,1.23-11-1-12.71S915.44,572.83,924.15,575.66Z" transform="translate(-885.33 -465)"/><path id="Path_4260" data-name="Path 4260" class="cls-6" d="M927.78,572.53s1.83,1,5.41-5.94,3.91-11.35,2.29-12.32-8.16,11.91-7.67,17.6" transform="translate(-885.33 -465)"/><path id="Path_4261" data-name="Path 4261" class="cls-7" d="M995.25,575.66c-2.4.65-7.58-6-8.13-12-.47-5.09-.67-11.08,1.66-12.64S1004.1,573.28,995.25,575.66Z" transform="translate(-885.33 -465)"/><path id="Path_4262" data-name="Path 4262" class="cls-6" d="M992,572.23s-1.88.89-5.1-6.21-3.33-11.53-1.66-12.42,7.54,12.31,6.76,18" transform="translate(-885.33 -465)"/><g id="Group_2920" data-name="Group 2920"><path id="Path_4263" data-name="Path 4263" class="cls-8" d="M983,570.7c-2.55,1.4-3.9,3.57-6,4.67s-14.2-6.87-14.2-6.87l.52-2.81,5.69-2.88S984,570.11,983,570.7Z" transform="translate(-885.33 -465)"/><path id="Path_4264" data-name="Path 4264" class="cls-9" d="M933.67,553.6s8.09,6.1,11.86,6.55,9,0,11.31.77,6.66,5.43,9.76,7,8.76,4.32,10,5.76a7.09,7.09,0,0,1,1.22,5.11c-.11,1.66-3,3.33-3,3.33a3.89,3.89,0,0,1-1,2.88,3.72,3.72,0,0,1-3.22,1.11,2.5,2.5,0,0,1-.77,2.67,3.65,3.65,0,0,1-3.11.78,7.52,7.52,0,0,1-1.55,2c-1.22,1.22-2.22,1.33-4.55.33s-16-8.43-18.07-10-11.2-9.32-16.42-11.76Z" transform="translate(-885.33 -465)"/><path id="Path_4265" data-name="Path 4265" class="cls-10" d="M943.56,580.1s2.06-2,4.05-1.08a3.63,3.63,0,0,1,1.83,3.66c-.07.22,2.85-1.69,4.4-.36a3.48,3.48,0,0,1,1.11,3.26l2.37-.89a2.75,2.75,0,0,1,1.95,3.36,2,2,0,0,1-.18.48l2.68-.4s2.14,2,1.17,3.59C962.94,591.71,947.41,586.68,943.56,580.1Z" transform="translate(-885.33 -465)"/><path id="Path_4266" data-name="Path 4266" class="cls-10" d="M965.64,567.36a52.11,52.11,0,0,1-4.7-3.64l-4,13.5s.45,3.11,3,3.22a4.7,4.7,0,0,0,5-4.36,6.06,6.06,0,0,0,0-.74,32,32,0,0,1-.67-5.77A5.16,5.16,0,0,1,965.64,567.36Z" transform="translate(-885.33 -465)"/><g id="Group_2919" data-name="Group 2919"><path id="Path_4267" data-name="Path 4267" class="cls-10" d="M969.82,588.76c-1.93.44-3.4-1.26-5.25-2.81a7.46,7.46,0,0,0-3.92-1.7,10.13,10.13,0,0,0,3.7,2.81,4,4,0,0,1,2.36,2.47A3.64,3.64,0,0,0,969.82,588.76Z" transform="translate(-885.33 -465)"/><path id="Path_4268" data-name="Path 4268" class="cls-10" d="M926.12,570.13c5.22,2.44,14.31,10.2,16.42,11.75s15.74,9,18.07,10,3.34.89,4.55-.33a7.7,7.7,0,0,1-4.07-.93s-9.09-5.54-13.38-8.42a114,114,0,0,1-12.79-10.95,20.83,20.83,0,0,1-5.14-9.12Z" transform="translate(-885.33 -465)"/><path id="Path_4269" data-name="Path 4269" class="cls-10" d="M973.81,585c-.74.51-1.41.66-2.51-.6s-1.56-2.29-3.18-2.58a15.22,15.22,0,0,1-4-1.78,4.25,4.25,0,0,0,2.44,2.37,9.49,9.49,0,0,1,4,3.69A3.74,3.74,0,0,0,973.81,585Z" transform="translate(-885.33 -465)"/><path id="Path_4270" data-name="Path 4270" class="cls-10" d="M972.55,578.7a6.56,6.56,0,0,1,2.26,3.4s2.62-1.51,3-3.09a.78.78,0,0,0-.34.28c-1,1.48-2.29,1.63-3,.15a5.3,5.3,0,0,0-3.62-3,5.81,5.81,0,0,1-2.89-1.92C968.41,576.26,970.78,577.37,972.55,578.7Z" transform="translate(-885.33 -465)"/></g><path id="Path_4271" data-name="Path 4271" class="cls-8" d="M945.09,586.09a3.51,3.51,0,0,1,2.27.39c.67.45,3.27,2.83,3.27,2.83a2.73,2.73,0,0,1,2.55.28,8.74,8.74,0,0,0,2.55,1.5,3,3,0,0,1,2.5.27c.72.67,1.66-1,1.66-1s-2.83-2.83-3.33-2.78-4.66-2.1-4.88-2.1a37.06,37.06,0,0,1-3.94-2.33C947.53,582.93,945.09,586.09,945.09,586.09Z" transform="translate(-885.33 -465)"/><path id="Path_4272" data-name="Path 4272" class="cls-11" d="M945.23,578.91c-1.4.37-2.49,2.34-2.8,4a3,3,0,0,0,2.49,3.17,4.92,4.92,0,0,0,3.61-2.76C949.15,581.88,949.08,577.87,945.23,578.91Z" transform="translate(-885.33 -465)"/><path id="Path_4273" data-name="Path 4273" class="cls-12" d="M947.22,579.88c-1.39-1-2.68.48-2.93,1.17s1.87,1.8,2.37,2.28S949.27,581.4,947.22,579.88Z" transform="translate(-885.33 -465)"/><path id="Path_4274" data-name="Path 4274" class="cls-8" d="M948,579.38c.4.87,1.13,3-.32,4.37a5.18,5.18,0,0,1-4.06,1.8,2.46,2.46,0,0,0,1.26.54,4.89,4.89,0,0,0,3.61-2.76A4.08,4.08,0,0,0,948,579.38Z" transform="translate(-885.33 -465)"/><path id="Path_4275" data-name="Path 4275" class="cls-11" d="M959.5,587.75a4.21,4.21,0,0,0-2.27,3.24,2.44,2.44,0,0,0,2,2.57,4,4,0,0,0,2.92-2.23C962.67,590.15,962.62,586.91,959.5,587.75Z" transform="translate(-885.33 -465)"/><path id="Path_4276" data-name="Path 4276" class="cls-12" d="M961.11,588.53c-1.12-.83-2.16.4-2.36,1s1.51,1.46,1.91,1.85S962.77,589.76,961.11,588.53Z" transform="translate(-885.33 -465)"/><path id="Path_4277" data-name="Path 4277" class="cls-8" d="M961.77,588.13a3.11,3.11,0,0,1-.26,3.53,4.18,4.18,0,0,1-3.28,1.47,2,2,0,0,0,1,.44,4,4,0,0,0,2.92-2.24A3.28,3.28,0,0,0,961.77,588.13Z" transform="translate(-885.33 -465)"/><path id="Path_4278" data-name="Path 4278" class="cls-11" d="M955.22,584.45c-1.35.37-2.41,2.28-2.71,3.89a2.93,2.93,0,0,0,2.41,3.08,4.77,4.77,0,0,0,3.5-2.68C959,587.33,959,583.45,955.22,584.45Z" transform="translate(-885.33 -465)"/><path id="Path_4279" data-name="Path 4279" class="cls-12" d="M957.15,585.39c-1.35-1-2.59.47-2.83,1.14s1.81,1.74,2.29,2.21S959.15,586.86,957.15,585.39Z" transform="translate(-885.33 -465)"/><path id="Path_4280" data-name="Path 4280" class="cls-8" d="M958,584.91c.39.84,1.09,2.88-.31,4.23a5,5,0,0,1-3.94,1.75,2.44,2.44,0,0,0,1.22.53,4.77,4.77,0,0,0,3.5-2.68A4,4,0,0,0,958,584.91Z" transform="translate(-885.33 -465)"/><path id="Path_4281" data-name="Path 4281" class="cls-11" d="M986.78,553.93s-7.54,1.56-9.76,2.11a44.5,44.5,0,0,1-6.21.67c-2.88.33-7.54-.45-9.76,1s-6.09,7.87-6.65,10.2.11,3.44,1,5.54.78,6.55,4.1,6.1,4.55-4.32,4.44-6.43a9.31,9.31,0,0,0-1.33-4,13.59,13.59,0,0,1,1.55-2.22s2.1-1.33,3.88-2.22,12.42,6.44,14.53,6.1,9.65-2.66,9.65-2.66S991.66,557.15,986.78,553.93Z" transform="translate(-885.33 -465)"/><path id="Path_4282" data-name="Path 4282" class="cls-12" d="M956.51,575.08c-.24-.81,1.26,0,2.36-.44s1.41-.89,2-.45,1.41,3.92-1,4.59S957.1,577.08,956.51,575.08Z" transform="translate(-885.33 -465)"/><path id="Path_4283" data-name="Path 4283" class="cls-8" d="M991.15,561.52c-.8,1.13-2,2.88-2.7,3.87-1,1.55-4.36,3.47-4.59,1.7A20.47,20.47,0,0,0,981,561.4a8.12,8.12,0,0,1,.81,3.91c-.22,1.34-.59,2.3-3.84,1.63s-7.91-7.47-8.36-6.65a13.14,13.14,0,0,1-3.69,3.55,3,3,0,0,1-3,.14,6.05,6.05,0,0,1-.59,3,4.43,4.43,0,0,1-2.81,2,7.34,7.34,0,0,0,1.11.89c.59.37,2.14,1.92,2.07,6a3.9,3.9,0,0,1-1,2.74,7.2,7.2,0,0,0,2.21-5.44,9.26,9.26,0,0,0-1.33-4,13.18,13.18,0,0,1,1.55-2.22s2.11-1.34,3.88-2.22,12.42,6.43,14.53,6.1,9.65-2.67,9.65-2.67A35.91,35.91,0,0,0,991.15,561.52Z" transform="translate(-885.33 -465)"/><path id="Path_4284" data-name="Path 4284" class="cls-11" d="M950.08,581.81c-1.66.4-3,2.51-3.34,4.28s1.7,3.34,3,3.4a5.79,5.79,0,0,0,4.29-3C954.73,585,954.66,580.7,950.08,581.81Z" transform="translate(-885.33 -465)"/><path id="Path_4285" data-name="Path 4285" class="cls-12" d="M952.44,582.84c-1.65-1.1-3.18.52-3.47,1.26s2.22,1.92,2.81,2.44S954.88,584.47,952.44,582.84Z" transform="translate(-885.33 -465)"/><path id="Path_4286" data-name="Path 4286" class="cls-8" d="M953.42,582.31c.47.93,1.33,3.18-.39,4.67a6.5,6.5,0,0,1-4.82,1.94,3.24,3.24,0,0,0,1.5.57,5.8,5.8,0,0,0,4.28-3A4,4,0,0,0,953.42,582.31Z" transform="translate(-885.33 -465)"/></g><path id="Path_4287" data-name="Path 4287" class="cls-13" d="M1009.18,544.73l2,20.18s-18.07,6.88-19.18,7.32c-.2-2.22-1.78-12.86-6.77-18.63C985.23,553.6,1000.2,546.84,1009.18,544.73Z" transform="translate(-885.33 -465)"/><path id="Path_4288" data-name="Path 4288" class="cls-14" d="M992,572.23c1.09-.43,18.36-7,19.16-7.3l-.6-6.07a34,34,0,0,1-19.87,6.36A46.53,46.53,0,0,1,992,572.23Z" transform="translate(-885.33 -465)"/><path id="Path_4289" data-name="Path 4289" class="cls-15" d="M988.78,551.05a51.44,51.44,0,0,1,6.47,24.61s16.83-4.51,17.94-5.4-3.67-29.3-3.9-29S990.89,549.06,988.78,551.05Z" transform="translate(-885.33 -465)"/><path id="Path_4290" data-name="Path 4290" class="cls-16" d="M1012.72,562.25a31.63,31.63,0,0,1-9.75,5.33,17.26,17.26,0,0,1-8.32.57,47.24,47.24,0,0,1,.6,7.51s16.83-4.51,17.94-5.4C1013.56,570,1013.28,566.59,1012.72,562.25Z" transform="translate(-885.33 -465)"/><path id="Path_4291" data-name="Path 4291" class="cls-13" d="M912,544.18l-3,20.06s17.7,7.79,18.79,8.29c.3-2.21,2.43-12.76,7.7-18.27C935.48,554.27,920.88,546.75,912,544.18Z" transform="translate(-885.33 -465)"/><path id="Path_4292" data-name="Path 4292" class="cls-14" d="M927.78,572.53c-1.06-.49-18-7.93-18.76-8.28l.91-6a34.16,34.16,0,0,0,19.52,7.37A46.94,46.94,0,0,0,927.78,572.53Z" transform="translate(-885.33 -465)"/><path id="Path_4293" data-name="Path 4293" class="cls-17" d="M932.07,551.54a49.66,49.66,0,0,0-7.92,24.12s-16.45-5.06-17.52-6,5.25-29.26,5.45-28.91S930.07,549.44,932.07,551.54Z" transform="translate(-885.33 -465)"/><path id="Path_4294" data-name="Path 4294" class="cls-18" d="M917.05,567.32a33,33,0,0,1-9.57-5.37c-.75,4.18-1.19,7.4-.84,7.71,1.06.94,17.52,6,17.52,6a46.3,46.3,0,0,1,1-7.32A17.65,17.65,0,0,1,917.05,567.32Z" transform="translate(-885.33 -465)"/></g></g></g><path class="cls-19" d="M960.94,537.92a18.47,18.47,0,1,1,13-5.41A18.35,18.35,0,0,1,960.94,537.92Zm0-32.21a13.75,13.75,0,1,0,13.75,13.75A13.77,13.77,0,0,0,960.94,505.71Z" transform="translate(-885.33 -465)"/><polygon class="cls-20" points="97.77 42.99 93.61 38.83 75.94 56.33 68.95 49.44 64.79 53.6 75.89 64.59 76.11 64.37 76.16 64.42 97.77 42.99"/></svg>