<svg id="katman_1" data-name="katman 1" xmlns="http://www.w3.org/2000/svg" viewBox="0 0 150 150"><defs><style>.cls-1{opacity:0.35;}.cls-2{fill:#20c997;}.cls-3{fill:#575756;}.cls-4{fill:#b1b1b1;}.cls-5{fill:#f15c4f;}.cls-6{fill:#fed667;}.cls-7{fill:#6bd863;}.cls-8{fill:#3c3c3b;}.cls-9{fill:#fff;}.cls-10{fill:#f5f5f5;}.cls-11{fill:#d9d9d9;}</style></defs><g class="cls-1"><circle class="cls-2" cx="75" cy="75" r="75"/></g><rect class="cls-3" x="55.75" y="64.9" width="33.23" height="52.1" rx="3.94"/><rect class="cls-4" x="61.49" y="91.56" width="6.15" height="4.1" rx="0.79"/><rect class="cls-4" x="61.49" y="97.31" width="6.15" height="4.1" rx="0.79"/><rect class="cls-4" x="61.49" y="103.05" width="6.15" height="4.1" rx="0.79"/><rect class="cls-5" x="61.49" y="108.79" width="6.15" height="4.1" rx="0.79"/><rect class="cls-4" x="69.29" y="91.56" width="6.15" height="4.1" rx="0.79"/><rect class="cls-4" x="69.29" y="97.31" width="6.15" height="4.1" rx="0.79"/><rect class="cls-4" x="69.29" y="103.05" width="6.15" height="4.1" rx="0.79"/><rect class="cls-6" x="69.29" y="108.79" width="6.15" height="4.1" rx="0.79"/><rect class="cls-4" x="77.08" y="91.56" width="6.15" height="4.1" rx="0.79"/><rect class="cls-4" x="77.08" y="97.31" width="6.15" height="4.1" rx="0.79"/><rect class="cls-4" x="77.08" y="103.05" width="6.15" height="4.1" rx="0.79"/><rect class="cls-7" x="77.08" y="108.79" width="6.15" height="4.1" rx="0.79"/><rect class="cls-8" x="61.82" y="66.26" width="21.09" height="1.37"/><rect class="cls-7" x="59.85" y="69" width="25.03" height="18.46" rx="1.97"/><rect class="cls-9" x="953.81" y="542.55" width="10.54" height="1.37" transform="translate(-988.56 372.22) rotate(-45)"/><polygon class="cls-9" points="71.47 81.47 67.74 77.75 66.77 78.71 69.53 81.47 71.47 81.47"/><path class="cls-10" d="M932.77,498v25.91a3.94,3.94,0,0,0,3.94,3.94h14.41V498Z" transform="translate(-885.33 -465)"/><path class="cls-11" d="M957.7,527.85V513.49H944.58a3.94,3.94,0,0,0-3.94,3.93v10.43Z" transform="translate(-885.33 -465)"/><path class="cls-11" d="M941.33,527.85h-4.62a3.94,3.94,0,0,0,3.93-3.94h.69Z" transform="translate(-885.33 -465)"/><path class="cls-9" d="M948.52,513.49V532h18.35V517.42a3.93,3.93,0,0,0-3.93-3.93Z" transform="translate(-885.33 -465)"/><path class="cls-9" d="M949.21,513.49h-4.63a3.93,3.93,0,0,1,3.94,3.93h.69Z" transform="translate(-885.33 -465)"/><rect class="cls-11" x="65.24" y="53.27" width="14.25" height="0.68"/><rect class="cls-11" x="65.24" y="56.01" width="14.25" height="0.68"/><rect class="cls-11" x="65.24" y="58.74" width="14.25" height="0.68"/><rect class="cls-11" x="65.24" y="61.48" width="14.25" height="0.68"/><path class="cls-9" d="M941.08,538.85a2.05,2.05,0,1,0,0-4.1,2.05,2.05,0,1,0,0,4.1Z" transform="translate(-885.33 -465)"/><circle class="cls-9" cx="52.77" cy="68.84" r="1.2"/><path class="cls-9" d="M991.7,553.61H991a6.21,6.21,0,0,0-12.41,0h-.68a6.89,6.89,0,1,1,13.77,0Z" transform="translate(-885.33 -465)"/><path class="cls-9" d="M989,553.61h-.69a3.47,3.47,0,1,0-6.93,0h-.68a4.15,4.15,0,1,1,8.3,0Z" transform="translate(-885.33 -465)"/><path class="cls-9" d="M986.23,553.61h-.68a.73.73,0,0,0-1.46,0h-.69a1.42,1.42,0,1,1,2.83,0Z" transform="translate(-885.33 -465)"/><rect class="cls-8" x="83.24" y="90.33" width="28.72" height="18.05" rx="1.97"/><rect class="cls-4" x="98.17" y="103.42" width="4.69" height="1.73"/><rect class="cls-4" x="104.01" y="103.42" width="4.69" height="1.73"/><rect class="cls-4" x="86.48" y="103.42" width="4.69" height="1.73"/><rect class="cls-4" x="92.33" y="103.42" width="4.69" height="1.73"/><path class="cls-6" d="M992.48,561.8h0a.28.28,0,0,1,.28-.29H994v-1.18h-1.28a.28.28,0,0,1-.28-.29h0a.28.28,0,0,1,.28-.29H994v-.49a.69.69,0,0,0-.69-.69H990a.69.69,0,0,0-.69.69v.49h1.27a.29.29,0,0,1,.29.29h0a.29.29,0,0,1-.29.29h-1.27v1.18h1.27a.29.29,0,0,1,.29.29h0a.28.28,0,0,1-.29.28h-1.27v.49a.69.69,0,0,0,.69.69h3.31a.69.69,0,0,0,.69-.69v-.49h-1.28A.27.27,0,0,1,992.48,561.8Z" transform="translate(-885.33 -465)"/><rect class="cls-9" x="86.48" y="93.57" width="10.54" height="1.73"/><path class="cls-9" d="M999,571.24v-.68a6.2,6.2,0,1,0,0-12.4v-.69a6.89,6.89,0,1,1,0,13.77Z" transform="translate(-885.33 -465)"/><path class="cls-9" d="M999,568.51v-.69a3.47,3.47,0,1,0,0-6.93v-.68a4.15,4.15,0,1,1,0,8.3Z" transform="translate(-885.33 -465)"/><path class="cls-9" d="M999,565.77v-.68a.73.73,0,1,0,0-1.46v-.69a1.42,1.42,0,1,1,0,2.83Z" transform="translate(-885.33 -465)"/></svg>