<svg id="katman_1" data-name="katman 1" xmlns="http://www.w3.org/2000/svg" viewBox="0 0 158.04 55.32"><defs><style>.cls-1{fill:#81d0f5;}.cls-2{fill:#009ee3;}.cls-3{fill:#fff;}.cls-4{fill:#57c4f1;}.cls-5{fill:#fed54c;}</style></defs><polygon class="cls-1" points="23.81 25.7 133 7.51 25.88 18.43 23.81 25.7"/><polygon class="cls-2" points="24.44 17.28 154.1 4.05 27.78 2.28 24.44 17.28"/><polygon class="cls-1" points="23.81 29.73 133.21 47.94 25.89 37 23.81 29.73"/><polygon class="cls-2" points="24.44 38.01 154.1 51.25 27.78 53.01 24.44 38.01"/><circle class="cls-2" cx="27.66" cy="27.66" r="27.66"/><circle class="cls-3" cx="27.63" cy="27.64" r="22.22"/><circle class="cls-4" cx="27.65" cy="27.65" r="21.43"/><circle class="cls-2" cx="27.63" cy="27.64" r="19.86"/><path class="cls-5" d="M44.57,33.36l-3.81-3.15a3.31,3.31,0,0,1-.47-4.66h0a3.48,3.48,0,0,1,.47-.47l3.81-3.15A17.77,17.77,0,0,0,41,15.85l-4.62,1.72A3.34,3.34,0,0,1,32,15l-.82-4.88a17.93,17.93,0,0,0-7,0L23.34,15a3.32,3.32,0,0,1-3.82,2.73h0a4.37,4.37,0,0,1-.62-.17l-4.63-1.72a17.74,17.74,0,0,0-3.52,6.08l3.81,3.15A3.33,3.33,0,0,1,15,29.75l0,0a3.05,3.05,0,0,1-.44.44l-3.81,3.15a17.88,17.88,0,0,0,3.52,6.09l4.63-1.73a3.32,3.32,0,0,1,4.44,2.56l.82,4.88a17.93,17.93,0,0,0,7,0L32,40.28a3.32,3.32,0,0,1,3.82-2.73h0a4.37,4.37,0,0,1,.62.17l4.62,1.73A18,18,0,0,0,44.57,33.36Z"/><circle class="cls-2" cx="27.65" cy="27.66" r="6.37"/><circle class="cls-5" cx="27.65" cy="27.65" r="1.25"/><path class="cls-5" d="M28.27,23.81a.63.63,0,1,1-.64-.62h0A.63.63,0,0,1,28.27,23.81Z"/><path class="cls-5" d="M28.27,31.48a.63.63,0,1,1-.63-.63h0A.63.63,0,0,1,28.27,31.48Z"/><path class="cls-5" d="M25.38,24.49a.63.63,0,1,1-.89,0h0A.64.64,0,0,1,25.38,24.49Z"/><path class="cls-5" d="M30.8,29.91a.63.63,0,1,1-.89,0h0A.64.64,0,0,1,30.8,29.91Z"/><path class="cls-5" d="M23.81,27a.63.63,0,1,1-.63.63h0A.63.63,0,0,1,23.81,27Z"/><path class="cls-5" d="M31.48,27a.63.63,0,1,1-.63.63h0A.63.63,0,0,1,31.48,27Z"/><circle class="cls-5" cx="24.93" cy="30.36" r="0.63"/><path class="cls-5" d="M29.91,24.49a.63.63,0,1,1,0,.89h0A.64.64,0,0,1,29.91,24.49Z"/><path class="cls-2" d="M59.27,27.86a5.54,5.54,0,0,1,5-6.06h0a5.57,5.57,0,0,1,1,0,6.13,6.13,0,0,1,4.51,1.57,6,6,0,0,1,1.58,4.4,7.26,7.26,0,0,1-.69,3.37,4.94,4.94,0,0,1-2,2,6.6,6.6,0,0,1-3.26.73,7.53,7.53,0,0,1-3.28-.63,4.89,4.89,0,0,1-2.1-2A6.63,6.63,0,0,1,59.27,27.86Zm3.62,0a3.91,3.91,0,0,0,.66,2.55,2.49,2.49,0,0,0,3.52.08l.08-.08a4.29,4.29,0,0,0,.64-2.73,3.51,3.51,0,0,0-.67-2.41,2.28,2.28,0,0,0-1.81-.77,2.2,2.2,0,0,0-1.76.78,3.91,3.91,0,0,0-.66,2.59Z"/><path class="cls-2" d="M72.11,22h11v2.89H79.42V33.7H75.8V24.87H72.1Z"/><path class="cls-2" d="M83.74,27.86a5.55,5.55,0,0,1,5-6.07h0a6.37,6.37,0,0,1,1.07,0,6.13,6.13,0,0,1,4.51,1.57,5.91,5.91,0,0,1,1.58,4.4,7.26,7.26,0,0,1-.69,3.37,4.82,4.82,0,0,1-2,2,6.54,6.54,0,0,1-3.25.73,7.53,7.53,0,0,1-3.28-.63,5,5,0,0,1-2.11-2A6.71,6.71,0,0,1,83.74,27.86Zm3.62,0A3.89,3.89,0,0,0,88,30.41a2.25,2.25,0,0,0,1.8.78,2.2,2.2,0,0,0,1.8-.76,4.29,4.29,0,0,0,.64-2.73,3.63,3.63,0,0,0-.66-2.41,2.28,2.28,0,0,0-1.81-.77A2.16,2.16,0,0,0,88,25.3a3.85,3.85,0,0,0-.67,2.57Z"/><path class="cls-2" d="M103.34,22h5.38a6.44,6.44,0,0,1,2.57.43,4.29,4.29,0,0,1,1.62,1.24,5.34,5.34,0,0,1,.93,1.88,8.66,8.66,0,0,1,.28,2.27,7.92,7.92,0,0,1-.46,2.89,5,5,0,0,1-1.19,1.74,4.08,4.08,0,0,1-1.63.93,8.3,8.3,0,0,1-2.16.32H103.3ZM107,24.64v6.41h.89a3.55,3.55,0,0,0,1.61-.26,1.66,1.66,0,0,0,.76-.87,5.63,5.63,0,0,0,.27-2,4,4,0,0,0-.61-2.55,2.56,2.56,0,0,0-2-.69Z"/><path class="cls-2" d="M116,22h9.7v2.5h-6.06v1.86h5.63V28.7h-5.63V31h6.25v2.69H116Z"/><path class="cls-2" d="M127.87,22h3.38l4.41,6.48V22h3.42V33.7h-3.42l-4.38-6.44V33.7h-3.41Z"/><path class="cls-2" d="M141.66,22h3.63V33.7h-3.63Zm.58-3.11h2.51v2.4h-2.51Z"/><path class="cls-2" d="M147.56,22H157.8v2.34l-6.57,6.86H158V33.7H146.93V31.27l6.5-6.79h-5.87Z"/></svg>