<svg id="katman_1" data-name="katman 1" xmlns="http://www.w3.org/2000/svg" xmlns:xlink="http://www.w3.org/1999/xlink" viewBox="0 0 2500 2499.95"><defs><style>.cls-1{fill:url(#Adsız_degrade);}.cls-2{fill:#333;}.cls-3{fill:url(#Adsız_degrade_2);}.cls-4{fill:url(#Adsız_degrade_3);}.cls-5{fill:url(#Adsız_degrade_4);}.cls-6{fill:url(#Adsız_degrade_5);}.cls-7{fill:url(#Adsız_degrade_6);}.cls-8{fill:url(#Adsız_degrade_7);}.cls-9{fill:url(#Adsız_degrade_8);}.cls-10{fill:url(#Adsız_degrade_9);}.cls-11{fill:url(#Adsız_degrade_10);}.cls-12{fill:url(#Adsız_degrade_11);}.cls-13{fill:url(#Adsız_degrade_12);}.cls-14{fill:#c2d7e8;}.cls-15{fill:url(#Adsız_degrade_13);}.cls-16{fill:#12404f;}.cls-17{fill:url(#Adsız_degrade_14);}.cls-18{fill:url(#Adsız_degrade_15);}.cls-19{fill:url(#Adsız_degrade_16);}.cls-20{fill:url(#Adsız_degrade_17);}</style><linearGradient id="Adsız_degrade" x1="-947.72" y1="-687.72" x2="127.73" y2="351.52" gradientTransform="translate(2154.25 1561.29) scale(2.47)" gradientUnits="userSpaceOnUse"><stop offset="0" stop-color="#dff4ff"/><stop offset="0.1" stop-color="#d6eaf5"/><stop offset="0.27" stop-color="#bfd0d9"/><stop offset="0.49" stop-color="#98a5ac"/><stop offset="0.75" stop-color="#646b6e"/><stop offset="1" stop-color="#2b2b2b"/></linearGradient><radialGradient id="Adsız_degrade_2" cx="-879.84" cy="-599.55" r="720.11" gradientTransform="translate(2154.25 1561.29) scale(2.47)" gradientUnits="userSpaceOnUse"><stop offset="0" stop-color="#fff"/><stop offset="0.31" stop-color="#a8a8a8"/><stop offset="0.65" stop-color="#4f4f4f"/><stop offset="0.89" stop-color="#161616"/><stop offset="1"/></radialGradient><linearGradient id="Adsız_degrade_3" x1="-410.44" y1="667.92" x2="274.51" y2="1329.8" gradientTransform="translate(1150.46 3779.13) rotate(180) scale(2.47)" gradientUnits="userSpaceOnUse"><stop offset="0" stop-color="#dff4ff"/><stop offset="0.09" stop-color="#d6eaf5"/><stop offset="0.23" stop-color="#bed0d9"/><stop offset="0.42" stop-color="#96a4ac"/><stop offset="0.65" stop-color="#5f686d"/><stop offset="0.91" stop-color="#1a1d1e"/><stop offset="1"/></linearGradient><radialGradient id="Adsız_degrade_4" cx="-1009.17" cy="-672.88" r="1730.31" gradientTransform="translate(2154.25 1561.29) scale(2.47)" gradientUnits="userSpaceOnUse"><stop offset="0" stop-color="#fff"/><stop offset="0.31" stop-color="#fdfdfd"/><stop offset="0.45" stop-color="#f6f6f6"/><stop offset="0.56" stop-color="#e9e9e9"/><stop offset="0.65" stop-color="#d7d7d7"/><stop offset="0.72" stop-color="#bfbfbf"/><stop offset="0.79" stop-color="#a2a2a2"/><stop offset="0.86" stop-color="gray"/><stop offset="0.92" stop-color="#575757"/><stop offset="0.97" stop-color="#2b2b2b"/><stop offset="1" stop-color="#141414"/></radialGradient><radialGradient id="Adsız_degrade_5" cx="-1009.24" cy="-672.88" r="1730.46" xlink:href="#Adsız_degrade_4"/><radialGradient id="Adsız_degrade_6" cx="-1009.34" cy="-673.39" r="1731.79" xlink:href="#Adsız_degrade_4"/><radialGradient id="Adsız_degrade_7" cx="-699.27" cy="-433" r="466.72" gradientTransform="translate(2154.25 1561.29) scale(2.47)" gradientUnits="userSpaceOnUse"><stop offset="0" stop-color="#e6e6e6"/><stop offset="0.1" stop-color="#d6d6d6"/><stop offset="0.31" stop-color="#adadad"/><stop offset="0.59" stop-color="#6c6c6c"/><stop offset="0.93" stop-color="#121212"/><stop offset="1"/></radialGradient><radialGradient id="Adsız_degrade_8" cx="-571.62" cy="-370.22" r="678.74" gradientTransform="translate(2154.25 1561.29) scale(2.47)" gradientUnits="userSpaceOnUse"><stop offset="0" stop-color="#fff"/><stop offset="0.34" stop-color="#fdfdfd"/><stop offset="0.48" stop-color="#f6f6f6"/><stop offset="0.58" stop-color="#eaeaea"/><stop offset="0.67" stop-color="#d8d8d8"/><stop offset="0.74" stop-color="#c2c2c2"/><stop offset="0.8" stop-color="#a6a6a6"/><stop offset="0.86" stop-color="#848484"/><stop offset="0.91" stop-color="#5f5f5f"/><stop offset="0.95" stop-color="#404040"/><stop offset="0.96" stop-color="#404040"/><stop offset="1" stop-color="#404040"/><stop offset="1"/></radialGradient><radialGradient id="Adsız_degrade_9" cx="-770.9" cy="-627.51" r="1202.06" gradientTransform="translate(2154.25 1561.29) scale(2.47)" gradientUnits="userSpaceOnUse"><stop offset="0.17" stop-color="#fff"/><stop offset="0.2" stop-color="#e0eff7"/><stop offset="0.24" stop-color="#b2d9ec"/><stop offset="0.29" stop-color="#8bc5e2"/><stop offset="0.34" stop-color="#6bb5da"/><stop offset="0.38" stop-color="#52a9d4"/><stop offset="0.44" stop-color="#41a0cf"/><stop offset="0.49" stop-color="#369bcd"/><stop offset="0.56" stop-color="#39c"/><stop offset="0.61" stop-color="#3396c8"/><stop offset="0.66" stop-color="#328ebc"/><stop offset="0.7" stop-color="#3180a8"/><stop offset="0.75" stop-color="#2f6d8c"/><stop offset="0.8" stop-color="#2d5468"/><stop offset="0.85" stop-color="#2a373d"/><stop offset="0.87" stop-color="#292929"/></radialGradient><radialGradient id="Adsız_degrade_10" cx="-770.9" cy="-627.52" r="1202.04" xlink:href="#Adsız_degrade_9"/><radialGradient id="Adsız_degrade_11" cx="-692.89" cy="-427.12" r="457.77" xlink:href="#Adsız_degrade_7"/><linearGradient id="Adsız_degrade_12" x1="-426.69" y1="-541.42" x2="19.73" y2="-110.03" gradientTransform="translate(2154.25 1561.29) scale(2.47)" gradientUnits="userSpaceOnUse"><stop offset="0" stop-color="#f0f4ff"/><stop offset="0.11" stop-color="#ebeff9"/><stop offset="0.25" stop-color="#dce0ea"/><stop offset="0.4" stop-color="#c4c7cf"/><stop offset="0.57" stop-color="#a2a4ab"/><stop offset="0.75" stop-color="#76777c"/><stop offset="0.93" stop-color="#414243"/><stop offset="1" stop-color="#2b2b2b"/></linearGradient><linearGradient id="Adsız_degrade_13" x1="-789.03" y1="-177.2" x2="-342.61" y2="254.19" xlink:href="#Adsız_degrade_12"/><linearGradient id="Adsız_degrade_14" x1="-573.06" y1="-331.03" x2="-341.57" y2="-107.34" gradientTransform="translate(2154.25 1561.29) scale(2.47)" gradientUnits="userSpaceOnUse"><stop offset="0" stop-color="#c2d7e8"/><stop offset="0.13" stop-color="#bacfe1"/><stop offset="0.34" stop-color="#a4bacd"/><stop offset="0.6" stop-color="#8098ac"/><stop offset="0.89" stop-color="#4e697f"/><stop offset="1" stop-color="#3a566d"/></linearGradient><linearGradient id="Adsız_degrade_15" x1="-688.99" y1="-276.22" x2="-247.06" y2="150.84" gradientTransform="translate(2154.25 1561.29) scale(2.47)" gradientUnits="userSpaceOnUse"><stop offset="0" stop-color="#f0f4ff"/><stop offset="0.1" stop-color="#e8ebf6"/><stop offset="0.26" stop-color="#d1d4dd"/><stop offset="0.46" stop-color="#abaeb5"/><stop offset="0.69" stop-color="#78797d"/><stop offset="0.96" stop-color="#363637"/><stop offset="1" stop-color="#2b2b2b"/></linearGradient><linearGradient id="Adsız_degrade_16" x1="-363.27" y1="-117.8" x2="-208.25" y2="31.99" gradientTransform="translate(2154.25 1561.29) scale(2.47)" gradientUnits="userSpaceOnUse"><stop offset="0" stop-color="#d9def0"/><stop offset="0.12" stop-color="#d4daec"/><stop offset="0.26" stop-color="#c7cfe2"/><stop offset="0.41" stop-color="#b0bcd1"/><stop offset="0.57" stop-color="#90a1b8"/><stop offset="0.72" stop-color="#677f99"/><stop offset="0.89" stop-color="#355674"/><stop offset="0.97" stop-color="#173d5d"/></linearGradient><linearGradient id="Adsız_degrade_17" x1="-521.84" y1="-438.29" x2="-80.39" y2="-11.71" xlink:href="#Adsız_degrade_12"/></defs><path class="cls-1" d="M1250,0C559.67,0,0,559.65,0,1250S559.67,2500,1250,2500s1250-559.63,1250-1250S1940.39,0,1250,0Zm0,2437.44C594.15,2437.47,62.55,1905.83,62.55,1250S594.15,62.51,1250,62.51,2437.49,594.18,2437.49,1250,1905.85,2437.47,1250,2437.47Z" transform="translate(0 -0.03)"/><path class="cls-2" d="M2446.45,1250c0,660.72-535.72,1196.42-1196.45,1196.42S53.61,1910.72,53.61,1250,589.27,53.58,1250,53.58,2446.45,589.24,2446.45,1250Z" transform="translate(0 -0.03)"/><path class="cls-3" d="M2437.49,1250c0,655.83-531.64,1187.47-1187.49,1187.47S62.55,1905.83,62.55,1250,594.15,62.51,1250,62.51,2437.49,594.18,2437.49,1250Z" transform="translate(0 -0.03)"/><path class="cls-4" d="M2046.12,1250c0,439.67-356.43,796.09-796.11,796.09S453.88,1689.67,453.88,1250,810.32,453.88,1250,453.88,2046.12,810.31,2046.12,1250Z" transform="translate(0 -0.03)"/><path d="M1281.89,432.37l82.7-219.19V432.37h62.81V118.46H1333l-85.86,224.75h.82l-85.85-224.76h-94.4V432.37h62.81V213.18l82.7,219.19Zm862,140.76L2036.56,729.6l168.56-82.9,45.71,54.82-265.28,133.2L1932,769.83l102.83-155.05-.61-.76-171.05,73.21-54.21-64.46,178.87-236.86,45.73,54.85-112,150.83,173.34-77.31Z" transform="translate(0 -0.03)"/><path class="cls-2" d="M694.05,513.16c-25.28-24.54-64.29-31.94-101-9.21,7-18.16,4.17-36.64.47-46.89-15.82-28.76-21.37-32.4-34.28-43.31-42.17-35.33-86.52-5.16-118.21,32.6L287.88,628.91,528.7,831,690.23,638.48c36.92-44,42.62-87.61,3.82-125.32Zm-311.53,88,92-109.66c10.68-12.69,34.79-12.18,50.25.85,17,14.29,17.09,34.53,5.65,48.18L439.43,649,382.52,601.2Zm253.85,18.23L540.45,733.75l-60.07-50.49L577,568.07c10.94-13,35.3-16.81,51.73-3,18.5,15.56,20.33,39.24,7.62,54.39Z" transform="translate(0 -0.03)"/><path class="cls-5" d="M1282.56,420.24l82.69-219.18V420.24h62.82V106.33h-94.41l-85.85,224.75h.82l-85.85-224.75h-94.4V420.24h62.81V201.06l82.71,219.18Z" transform="translate(0 -0.03)"/><path class="cls-6" d="M2144.49,552.06,2037.22,708.54l168.56-82.93,45.67,54.86-265.24,133.2-53.61-64.92,102.84-155-.6-.79-171.11,73.24-54.15-64.49,178.87-236.83,45.72,54.83-112,150.83,173.27-77.29Z" transform="translate(0 -0.03)"/><path class="cls-7" d="M682.8,507c-25.22-24.54-64.28-31.94-100.9-9.23,7-18.16,4.12-36.65.41-46.85C566.49,422.09,561,418.5,548,407.57c-42.16-35.35-86.46-5.17-118.1,32.63L276.63,622.74l240.82,202L679,632.27c36.87-44,42.62-87.57,3.81-125.29ZM371.29,595l92-109.63c10.64-12.71,34.74-12.21,50.25.79,17,14.31,17.09,34.58,5.6,48.18L428.2,642.77,371.29,595Zm253.89,18.23L529.26,727.56l-60.17-50.48,96.69-115.22c10.93-13,35.24-16.79,51.67-3,18.61,15.58,20.45,39.21,7.73,54.39Z" transform="translate(0 -0.03)"/><path class="cls-8" d="M480.38,1250C480.38,825,825,480.36,1250,480.36S2019.63,825,2019.63,1250,1675.09,2019.63,1250,2019.63,480.38,1675.06,480.38,1250Z" transform="translate(0 -0.03)"/><path class="cls-9" d="M502.51,1250c0-412.83,334.66-747.52,747.5-747.52S1997.55,837.18,1997.55,1250,1662.84,1997.54,1250,1997.54,502.51,1662.85,502.51,1250Z" transform="translate(0 -0.03)"/><path class="cls-10" d="M501.33,1250H1250V501.34c-413.5,0-748.67,335.17-748.67,748.67Z" transform="translate(0 -0.03)"/><path class="cls-11" d="M1250,1250v748.68c413.5,0,748.67-335.24,748.67-748.68Z" transform="translate(0 -0.03)"/><path class="cls-12" d="M2004.87,1236.71H1263.28V495.11h-26.56v741.6H495.13v26.55h741.59v741.62h26.56V1263.26h741.59Z" transform="translate(0 -0.03)"/><path class="cls-13" d="M1263.28,516.11c394.93,7,713.62,325.69,720.69,720.6h13.22c-7.06-402.23-331.66-726.87-733.92-733.89Z" transform="translate(0 -0.03)"/><path class="cls-14" d="M514.76,1236.61C521.78,841.17,840.93,522,1236.37,515V501.72c-402.81,7-727.81,332.12-734.88,734.89Z" transform="translate(0 -0.03)"/><path class="cls-15" d="M1236.72,1983.89c-394.93-7-713.62-325.7-720.64-720.63H502.81c7.07,402.25,331.66,726.9,733.92,733.92v-13.29Z" transform="translate(0 -0.03)"/><path class="cls-16" d="M1984,1263.26c-7.07,394.93-325.76,713.62-720.69,720.63v13.29c402.25-7,726.89-331.66,733.91-733.92Z" transform="translate(0 -0.03)"/><path class="cls-17" d="M1222.54,501.72v720.42H502.15v14.21h734.57V501.72Z" transform="translate(0 -0.03)"/><path class="cls-18" d="M1221.32,1990.21V1278.47H508.1v-14h727.26v725.78Z" transform="translate(0 -0.03)"/><path class="cls-19" d="M1278.48,1990.21V1278.47h711.75v-14H1264.5v725.78Z" transform="translate(0 -0.03)"/><path class="cls-20" d="M1278.48,508.09v711.74h711.75v14H1264.5V508.09Z" transform="translate(0 -0.03)"/></svg>