<svg id="katman_1" data-name="katman 1" xmlns="http://www.w3.org/2000/svg" xmlns:xlink="http://www.w3.org/1999/xlink" viewBox="0 0 45 45"><defs><style>.cls-1{fill:url(#Adsız_degrade);}.cls-2{fill:#333;}.cls-3{fill:url(#Adsız_degrade_2);}.cls-4{fill:url(#Adsız_degrade_3);}.cls-5{fill:url(#Adsız_degrade_4);}.cls-6{fill:#fff;}.cls-7{fill:url(#Adsız_degrade_7);}.cls-8{fill:url(#Adsız_degrade_8);}.cls-9{fill:url(#Adsız_degrade_9);}.cls-10{fill:url(#Adsız_degrade_10);}.cls-11{fill:url(#Adsız_degrade_11);}.cls-12{fill:url(#Adsız_degrade_12);}.cls-13{fill:#c2d7e8;}.cls-14{fill:url(#Adsız_degrade_13);}.cls-15{fill:#12404f;}.cls-16{fill:url(#Adsız_degrade_14);}.cls-17{fill:url(#Adsız_degrade_15);}.cls-18{fill:url(#Adsız_degrade_16);}.cls-19{fill:url(#Adsız_degrade_17);}</style><linearGradient id="Adsız_degrade" x1="-699.17" y1="2706.85" x2="-679.82" y2="2688.15" gradientTransform="matrix(2.47, 0, 0, -2.47, 1727.95, 6692.56)" gradientUnits="userSpaceOnUse"><stop offset="0" stop-color="#dff4ff"/><stop offset="0.1" stop-color="#d6eaf5"/><stop offset="0.27" stop-color="#bfd0d9"/><stop offset="0.49" stop-color="#98a5ac"/><stop offset="0.75" stop-color="#646b6e"/><stop offset="1" stop-color="#2b2b2b"/></linearGradient><radialGradient id="Adsız_degrade_2" cx="-697.96" cy="2705.26" r="12.96" gradientTransform="matrix(2.47, 0, 0, -2.47, 1727.95, 6692.56)" gradientUnits="userSpaceOnUse"><stop offset="0" stop-color="#fff"/><stop offset="0.31" stop-color="#a8a8a8"/><stop offset="0.65" stop-color="#4f4f4f"/><stop offset="0.89" stop-color="#161616"/><stop offset="1"/></radialGradient><linearGradient id="Adsız_degrade_3" x1="855.67" y1="-8.23" x2="868" y2="-20.14" gradientTransform="matrix(-2.47, 0, 0, 2.47, 2156.76, 67.8)" gradientUnits="userSpaceOnUse"><stop offset="0" stop-color="#dff4ff"/><stop offset="0.09" stop-color="#d6eaf5"/><stop offset="0.23" stop-color="#bed0d9"/><stop offset="0.42" stop-color="#96a4ac"/><stop offset="0.65" stop-color="#5f686d"/><stop offset="0.91" stop-color="#1a1d1e"/><stop offset="1"/></linearGradient><radialGradient id="Adsız_degrade_4" cx="-700.28" cy="2706.58" r="31.15" gradientTransform="matrix(2.47, 0, 0, -2.47, 1727.95, 6692.56)" gradientUnits="userSpaceOnUse"><stop offset="0" stop-color="#fff"/><stop offset="0.31" stop-color="#fdfdfd"/><stop offset="0.45" stop-color="#f6f6f6"/><stop offset="0.56" stop-color="#e9e9e9"/><stop offset="0.65" stop-color="#d7d7d7"/><stop offset="0.72" stop-color="#bfbfbf"/><stop offset="0.79" stop-color="#a2a2a2"/><stop offset="0.86" stop-color="gray"/><stop offset="0.92" stop-color="#575757"/><stop offset="0.97" stop-color="#2b2b2b"/><stop offset="1" stop-color="#141414"/></radialGradient><radialGradient id="Adsız_degrade_7" cx="-694.71" cy="2702.26" r="8.4" gradientTransform="matrix(2.47, 0, 0, -2.47, 1727.95, 6692.56)" gradientUnits="userSpaceOnUse"><stop offset="0" stop-color="#e6e6e6"/><stop offset="0.1" stop-color="#d6d6d6"/><stop offset="0.31" stop-color="#adadad"/><stop offset="0.59" stop-color="#6c6c6c"/><stop offset="0.93" stop-color="#121212"/><stop offset="1"/></radialGradient><radialGradient id="Adsız_degrade_8" cx="-692.41" cy="2701.13" r="12.22" gradientTransform="matrix(2.47, 0, 0, -2.47, 1727.95, 6692.56)" gradientUnits="userSpaceOnUse"><stop offset="0" stop-color="#fff"/><stop offset="0.34" stop-color="#fdfdfd"/><stop offset="0.48" stop-color="#f6f6f6"/><stop offset="0.58" stop-color="#eaeaea"/><stop offset="0.67" stop-color="#d8d8d8"/><stop offset="0.74" stop-color="#c2c2c2"/><stop offset="0.8" stop-color="#a6a6a6"/><stop offset="0.86" stop-color="#848484"/><stop offset="0.91" stop-color="#5f5f5f"/><stop offset="0.95" stop-color="#404040"/><stop offset="0.96" stop-color="#404040"/><stop offset="1" stop-color="#404040"/><stop offset="1"/></radialGradient><radialGradient id="Adsız_degrade_9" cx="-695.99" cy="2705.77" r="21.64" gradientTransform="matrix(2.47, 0, 0, -2.47, 1727.95, 6692.56)" gradientUnits="userSpaceOnUse"><stop offset="0.17" stop-color="#fff"/><stop offset="0.2" stop-color="#e0eff7"/><stop offset="0.24" stop-color="#b2d9ec"/><stop offset="0.29" stop-color="#8bc5e2"/><stop offset="0.34" stop-color="#6bb5da"/><stop offset="0.38" stop-color="#52a9d4"/><stop offset="0.44" stop-color="#41a0cf"/><stop offset="0.49" stop-color="#369bcd"/><stop offset="0.56" stop-color="#39c"/><stop offset="0.61" stop-color="#3396c8"/><stop offset="0.66" stop-color="#328ebc"/><stop offset="0.7" stop-color="#3180a8"/><stop offset="0.75" stop-color="#2f6d8c"/><stop offset="0.8" stop-color="#2d5468"/><stop offset="0.85" stop-color="#2a373d"/><stop offset="0.87" stop-color="#292929"/></radialGradient><radialGradient id="Adsız_degrade_10" cx="-9.54" cy="2502.15" r="21.64" gradientTransform="matrix(1, 0, 0, -1, 0, 2499.97)" xlink:href="#Adsız_degrade_9"/><radialGradient id="Adsız_degrade_11" cx="-8.13" cy="2498.54" r="8.24" gradientTransform="matrix(1, 0, 0, -1, 0, 2499.97)" xlink:href="#Adsız_degrade_7"/><linearGradient id="Adsız_degrade_12" x1="-689.8" y1="2704.21" x2="-681.77" y2="2696.45" gradientTransform="matrix(2.47, 0, 0, -2.47, 1727.95, 6692.56)" gradientUnits="userSpaceOnUse"><stop offset="0" stop-color="#f0f4ff"/><stop offset="0.11" stop-color="#ebeff9"/><stop offset="0.25" stop-color="#dce0ea"/><stop offset="0.4" stop-color="#c4c7cf"/><stop offset="0.57" stop-color="#a2a4ab"/><stop offset="0.75" stop-color="#76777c"/><stop offset="0.93" stop-color="#414243"/><stop offset="1" stop-color="#2b2b2b"/></linearGradient><linearGradient id="Adsız_degrade_13" x1="-696.31" y1="2697.67" x2="-688.28" y2="2689.9" xlink:href="#Adsız_degrade_12"/><linearGradient id="Adsız_degrade_14" x1="-692.43" y1="2700.43" x2="-688.26" y2="2696.41" gradientTransform="matrix(2.47, 0, 0, -2.47, 1727.95, 6692.56)" gradientUnits="userSpaceOnUse"><stop offset="0" stop-color="#c2d7e8"/><stop offset="0.13" stop-color="#bacfe1"/><stop offset="0.34" stop-color="#a4bacd"/><stop offset="0.6" stop-color="#8098ac"/><stop offset="0.89" stop-color="#4e697f"/><stop offset="1" stop-color="#3a566d"/></linearGradient><linearGradient id="Adsız_degrade_15" x1="-694.52" y1="2699.45" x2="-686.56" y2="2691.76" gradientTransform="matrix(2.47, 0, 0, -2.47, 1727.95, 6692.56)" gradientUnits="userSpaceOnUse"><stop offset="0" stop-color="#f0f4ff"/><stop offset="0.1" stop-color="#e8ebf6"/><stop offset="0.26" stop-color="#d1d4dd"/><stop offset="0.46" stop-color="#abaeb5"/><stop offset="0.69" stop-color="#78797d"/><stop offset="0.96" stop-color="#363637"/><stop offset="1" stop-color="#2b2b2b"/></linearGradient><linearGradient id="Adsız_degrade_16" x1="-688.65" y1="2696.59" x2="-685.86" y2="2693.9" gradientTransform="matrix(2.47, 0, 0, -2.47, 1727.95, 6692.56)" gradientUnits="userSpaceOnUse"><stop offset="0" stop-color="#d9def0"/><stop offset="0.12" stop-color="#d4daec"/><stop offset="0.26" stop-color="#c7cfe2"/><stop offset="0.41" stop-color="#b0bcd1"/><stop offset="0.57" stop-color="#90a1b8"/><stop offset="0.72" stop-color="#677f99"/><stop offset="0.89" stop-color="#355674"/><stop offset="0.97" stop-color="#173d5d"/></linearGradient><linearGradient id="Adsız_degrade_17" x1="-691.51" y1="2702.36" x2="-683.56" y2="2694.68" xlink:href="#Adsız_degrade_12"/></defs><path class="cls-1" d="M26.84,9.12a22.5,22.5,0,1,0,22.5,22.5A22.5,22.5,0,0,0,26.84,9.12Zm0,43.87A21.38,21.38,0,1,1,48.22,31.62,21.37,21.37,0,0,1,26.84,53Z" transform="translate(-4.34 -9.12)"/><path class="cls-2" d="M48.38,31.62A21.54,21.54,0,1,1,26.84,10.08,21.54,21.54,0,0,1,48.38,31.62Z" transform="translate(-4.34 -9.12)"/><path class="cls-3" d="M48.22,31.62A21.38,21.38,0,1,1,26.84,10.24,21.38,21.38,0,0,1,48.22,31.62Z" transform="translate(-4.34 -9.12)"/><path class="cls-4" d="M41.17,31.62A14.33,14.33,0,1,1,26.84,17.29,14.34,14.34,0,0,1,41.17,31.62Z" transform="translate(-4.34 -9.12)"/><path d="M27.41,16.9,28.9,13V16.9H30V11.25h-1.7l-1.54,4h0l-1.54-4h-1.7V16.9h1.13V13l1.49,3.95Zm15.52,2.53L41,22.25l3-1.49.83,1-4.78,2.4-1-1.17L41,20.18h0l-3.08,1.32-1-1.16,3.22-4.27.82,1-2,2.71,3.12-1.39Z" transform="translate(-4.34 -9.12)"/><path class="cls-2" d="M16.83,18.35A1.43,1.43,0,0,0,15,18.19a1.28,1.28,0,0,0,0-.85,2.09,2.09,0,0,0-.61-.78c-.76-.63-1.56-.09-2.13.59L9.52,20.44l4.34,3.63,2.9-3.46A1.5,1.5,0,0,0,16.83,18.35Zm-5.6,1.59,1.65-2a.67.67,0,0,1,.91,0,.61.61,0,0,1,.1.87L12.25,20.8l-1-.86Zm4.57.32-1.73,2.06L13,21.41l1.74-2.07a.71.71,0,0,1,1.06.93Z" transform="translate(-4.34 -9.12)"/><path class="cls-5" d="M27.43,16.68l1.48-3.95v3.95h1.14V11h-1.7L26.8,15.08h0L25.27,11h-1.7v5.65H24.7V12.73l1.49,3.95Z" transform="translate(-4.34 -9.12)"/><path class="cls-6" d="M42.94,19.05,41,21.87l3-1.49.83,1-4.78,2.4-1-1.17L41,19.8h0l-3.08,1.32-1-1.16,3.22-4.27.83,1-2,2.72L42.06,18Z" transform="translate(-4.34 -9.12)"/><path class="cls-6" d="M16.63,18.24a1.45,1.45,0,0,0-1.82-.16,1.23,1.23,0,0,0,0-.85,1.92,1.92,0,0,0-.62-.78c-.75-.63-1.55-.09-2.12.59L9.32,20.32,13.65,24l2.91-3.46c.67-.8.77-1.58.07-2.26ZM11,19.83l1.66-2a.66.66,0,0,1,.9,0,.58.58,0,0,1,.1.86l-1.63,2Zm4.57.32-1.72,2.06-1.09-.91,1.74-2.07a.69.69,0,0,1,.93-.05.67.67,0,0,1,.14,1Z" transform="translate(-4.34 -9.12)"/><path class="cls-7" d="M13,31.62A13.85,13.85,0,1,1,26.84,45.47,13.86,13.86,0,0,1,13,31.62Z" transform="translate(-4.34 -9.12)"/><path class="cls-8" d="M13.39,31.62A13.46,13.46,0,1,1,26.84,45.07,13.45,13.45,0,0,1,13.39,31.62Z" transform="translate(-4.34 -9.12)"/><path class="cls-9" d="M13.36,31.62H26.84V18.14A13.48,13.48,0,0,0,13.36,31.62Z" transform="translate(-4.34 -9.12)"/><path class="cls-10" d="M26.84,31.62V45.09A13.48,13.48,0,0,0,40.32,31.62Z" transform="translate(-4.34 -9.12)"/><path class="cls-11" d="M40.43,31.38H27.08V18H26.6V31.38H13.25v.47H26.6V45.2h.48V31.85H40.43Z" transform="translate(-4.34 -9.12)"/><path class="cls-12" d="M27.08,18.41a13.21,13.21,0,0,1,13,13h.24A13.45,13.45,0,0,0,27.08,18.17Z" transform="translate(-4.34 -9.12)"/><path class="cls-13" d="M13.61,31.37a13.22,13.22,0,0,1,13-13v-.24A13.45,13.45,0,0,0,13.37,31.37Z" transform="translate(-4.34 -9.12)"/><path class="cls-14" d="M26.6,44.83a13.22,13.22,0,0,1-13-13h-.24A13.45,13.45,0,0,0,26.6,45.06v-.23Z" transform="translate(-4.34 -9.12)"/><path class="cls-15" d="M40.05,31.85a13.21,13.21,0,0,1-13,13v.23A13.45,13.45,0,0,0,40.29,31.85Z" transform="translate(-4.34 -9.12)"/><path class="cls-16" d="M26.35,18.15v13h-13v.26H26.6V18.15Z" transform="translate(-4.34 -9.12)"/><path class="cls-17" d="M26.32,44.94V32.13H13.49v-.25H26.58V44.94Z" transform="translate(-4.34 -9.12)"/><path class="cls-18" d="M27.35,44.94V32.13H40.16v-.25H27.1V44.94Z" transform="translate(-4.34 -9.12)"/><path class="cls-19" d="M27.35,18.26V31.07H40.16v.25H27.1V18.26Z" transform="translate(-4.34 -9.12)"/></svg>