<svg id="katman_1" data-name="katman 1" xmlns="http://www.w3.org/2000/svg" xmlns:xlink="http://www.w3.org/1999/xlink" viewBox="0 0 60 25"><defs><style>.cls-1{fill:url(#Adsız_degrade);}.cls-2{fill:url(#Adsız_degrade_2);}.cls-3{fill:url(#Adsız_degrade_3);}.cls-4{fill:url(#Adsız_degrade_4);}.cls-5{fill:url(#Adsız_degrade_5);}.cls-6{fill:url(#Adsız_degrade_6);}.cls-7{fill:url(#Adsız_degrade_7);}.cls-8{fill:url(#Adsız_degrade_8);}.cls-9{fill:url(#Adsız_degrade_9);}.cls-10{fill:url(#Adsız_degrade_10);}.cls-11{fill:url(#Adsız_degrade_11);}.cls-12{fill:url(#Adsız_degrade_12);}.cls-13{fill:url(#Adsız_degrade_13);}.cls-14{fill:url(#Adsız_degrade_14);}.cls-15{fill:url(#Adsız_degrade_15);}.cls-16{fill:url(#Adsız_degrade_16);}.cls-17{fill:url(#Adsız_degrade_17);}.cls-18{fill:url(#Adsız_degrade_18);}.cls-19{fill:url(#Adsız_degrade_19);}.cls-20{fill:url(#Adsız_degrade_20);}.cls-21{fill:url(#Adsız_degrade_21);}.cls-22{fill:url(#Adsız_degrade_22);}.cls-23{fill:url(#Adsız_degrade_23);}.cls-24{fill:url(#Adsız_degrade_24);}.cls-25{fill:url(#Adsız_degrade_25);}.cls-26{fill:url(#Adsız_degrade_26);}.cls-27{fill:url(#Adsız_degrade_27);}.cls-28{fill:url(#Adsız_degrade_28);}.cls-29{fill:url(#Adsız_degrade_29);}.cls-30{fill:url(#Adsız_degrade_30);}.cls-31{fill:url(#Adsız_degrade_31);}.cls-32{fill:url(#Adsız_degrade_32);}.cls-33{fill:url(#Adsız_degrade_33);}.cls-34{fill:url(#Adsız_degrade_34);}.cls-35{fill:url(#Adsız_degrade_35);}.cls-36{fill:#fff;}</style><linearGradient id="Adsız_degrade" x1="-2266.28" y1="-1180.09" x2="-2266.21" y2="-1180.09" gradientTransform="matrix(-90.98, 177.8, -191.31, -0.51, -431503.66, 402515.24)" gradientUnits="userSpaceOnUse"><stop offset="0" stop-color="#c7d6ee"/><stop offset="0.18" stop-color="#91afc8"/><stop offset="1" stop-color="#002334"/></linearGradient><linearGradient id="Adsız_degrade_2" x1="398.77" y1="194.58" x2="398.84" y2="194.58" gradientTransform="matrix(111.37, -109.39, 109.39, 107.44, -86533, 43814.08)" gradientUnits="userSpaceOnUse"><stop offset="0" stop-color="#e1e8f5"/><stop offset="0.9" stop-color="#92a5c1"/><stop offset="0.95" stop-color="#476886"/><stop offset="1" stop-color="#e1e8f5"/></linearGradient><linearGradient id="Adsız_degrade_3" x1="-2266.73" y1="-1160.61" x2="-2266.66" y2="-1160.61" gradientTransform="matrix(113.94, -111.9, 111.9, 109.91, 388604.69, -125916.08)" gradientUnits="userSpaceOnUse"><stop offset="0" stop-color="#e1e8f5"/><stop offset="0.04" stop-color="#476886"/><stop offset="0.09" stop-color="#92a5c1"/><stop offset="1" stop-color="#e1e8f5"/></linearGradient><linearGradient id="Adsız_degrade_4" x1="-2257.99" y1="-1139.89" x2="-2257.91" y2="-1139.89" gradientTransform="matrix(37.1, -33.98, 33.98, 35.79, 122961.89, -35760.43)" gradientUnits="userSpaceOnUse"><stop offset="0" stop-color="#e1e8f5"/><stop offset="0.16" stop-color="#c7d6ee"/><stop offset="1" stop-color="#e1e8f5"/></linearGradient><linearGradient id="Adsız_degrade_5" x1="-2293.47" y1="-1174.95" x2="-2293.4" y2="-1174.95" gradientTransform="matrix(-39.28, -35.98, -35.98, 37.89, -131879.93, -37830.26)" xlink:href="#Adsız_degrade_4"/><linearGradient id="Adsız_degrade_6" x1="-2266.02" y1="-1161.22" x2="-2265.95" y2="-1161.22" gradientTransform="matrix(127.79, -125.51, 125.51, 123.27, 435768.09, -141089.32)" gradientUnits="userSpaceOnUse"><stop offset="0" stop-color="#476886"/><stop offset="0.13" stop-color="#92a5c1"/><stop offset="1" stop-color="#e1e8f5"/></linearGradient><linearGradient id="Adsız_degrade_7" x1="-2322.18" y1="-1126.18" x2="-2322.1" y2="-1126.18" gradientTransform="matrix(-14.97, -21.01, 21.01, -14.45, -10660.79, -64877.84)" gradientUnits="userSpaceOnUse"><stop offset="0" stop-color="#002334"/><stop offset="0.11" stop-color="#fff"/><stop offset="0.18" stop-color="#91afc8"/><stop offset="0.24" stop-color="#002334"/><stop offset="0.53" stop-color="#5e738f"/><stop offset="0.76" stop-color="#002334"/><stop offset="1" stop-color="#002334"/></linearGradient><linearGradient id="Adsız_degrade_8" x1="-2278.78" y1="-1179.94" x2="-2278.71" y2="-1179.94" gradientTransform="matrix(-115.32, 57.64, -57.64, -111.24, -330353.98, 268.35)" gradientUnits="userSpaceOnUse"><stop offset="0" stop-color="#91afc8"/><stop offset="1" stop-color="#002334"/></linearGradient><linearGradient id="Adsız_degrade_9" x1="-2284.34" y1="-1140.93" x2="-2284.27" y2="-1140.93" gradientTransform="matrix(-8.84, -49.24, 49.24, -8.53, 36435.11, -122027.33)" gradientUnits="userSpaceOnUse"><stop offset="0" stop-color="#a5b9cc"/><stop offset="1" stop-color="#002334"/></linearGradient><linearGradient id="Adsız_degrade_10" x1="-2171.7" y1="-1138.51" x2="-2171.64" y2="-1138.51" gradientTransform="translate(32360.75 16319.78) scale(14.69 14.17)" gradientUnits="userSpaceOnUse"><stop offset="0" stop-color="#5e738f"/><stop offset="0.49" stop-color="#91afc8"/><stop offset="1" stop-color="#91afc8"/></linearGradient><linearGradient id="Adsız_degrade_11" x1="-2331.86" y1="-1143.88" x2="-2331.8" y2="-1143.88" gradientTransform="matrix(-18.19, 0, 0, 17.55, -41935.84, 20262.2)" gradientUnits="userSpaceOnUse"><stop offset="0" stop-color="#5e738f"/><stop offset="0.32" stop-color="#91afc8"/><stop offset="1" stop-color="#91afc8"/></linearGradient><linearGradient id="Adsız_degrade_12" x1="-2267.18" y1="-1157.07" x2="-2267.11" y2="-1157.07" gradientTransform="matrix(49.75, -84.64, 84.64, 48, 211200.91, -136163.7)" xlink:href="#Adsız_degrade_9"/><linearGradient id="Adsız_degrade_13" x1="-2258.95" y1="-1179.64" x2="-2258.89" y2="-1179.64" gradientTransform="matrix(50.14, 85.3, -85.3, 48.37, 13103.64, 249935.12)" gradientUnits="userSpaceOnUse"><stop offset="0" stop-color="#002334"/><stop offset="0.78" stop-color="#a5b9cc"/><stop offset="1" stop-color="#a5b9cc"/></linearGradient><linearGradient id="Adsız_degrade_14" x1="-2266.79" y1="-1172.19" x2="-2266.72" y2="-1172.19" gradientTransform="matrix(223.91, 380.91, -380.91, 216, 61511.19, 1116803.68)" gradientUnits="userSpaceOnUse"><stop offset="0" stop-color="#ffefcf"/><stop offset="0.46" stop-color="#ffe4a6"/><stop offset="1" stop-color="#bc956e"/></linearGradient><linearGradient id="Adsız_degrade_15" x1="-2265.79" y1="-1157.92" x2="-2265.72" y2="-1157.92" gradientTransform="matrix(62.81, -68.76, 68.76, 60.59, 222417.27, -85450.4)" gradientUnits="userSpaceOnUse"><stop offset="0" stop-color="#5e738f"/><stop offset="0.61" stop-color="#91afc8"/><stop offset="1" stop-color="#c7dff4"/></linearGradient><linearGradient id="Adsız_degrade_16" x1="-2262.93" y1="-1173.16" x2="-2262.87" y2="-1173.16" gradientTransform="matrix(83.38, 141.85, -141.85, 80.44, 22757.87, 415532.34)" gradientUnits="userSpaceOnUse"><stop offset="0" stop-color="#e1e8f5"/><stop offset="0.81" stop-color="#7f97b4"/><stop offset="0.9" stop-color="#476886"/><stop offset="1" stop-color="#002334"/></linearGradient><linearGradient id="Adsız_degrade_17" x1="-2269.54" y1="-1165.93" x2="-2269.46" y2="-1165.93" gradientTransform="matrix(135.89, -231.17, 231.17, 131.08, 578427.33, -371633.16)" gradientUnits="userSpaceOnUse"><stop offset="0" stop-color="#8ca0b5"/><stop offset="0.14" stop-color="#e1e8f5"/><stop offset="0.81" stop-color="#7f97b4"/><stop offset="0.9" stop-color="#476886"/><stop offset="1" stop-color="#002334"/></linearGradient><linearGradient id="Adsız_degrade_18" x1="-2258.78" y1="-1153.04" x2="-2258.72" y2="-1153.04" gradientTransform="matrix(48.13, -27.29, 27.29, 46.43, 140672.39, -7922.02)" gradientUnits="userSpaceOnUse"><stop offset="0" stop-color="#002334"/><stop offset="0.81" stop-color="#a5b9cc"/><stop offset="0.89" stop-color="#002334"/><stop offset="1" stop-color="#002334"/></linearGradient><linearGradient id="Adsız_degrade_19" x1="-2262.96" y1="-1173.33" x2="-2262.89" y2="-1173.33" gradientTransform="matrix(157.42, 154.61, -154.62, 151.86, 175261.19, 528238.54)" gradientUnits="userSpaceOnUse"><stop offset="0" stop-color="#d4bc7b"/><stop offset="0.33" stop-color="#7f5f39"/><stop offset="1" stop-color="#d4bc7b"/></linearGradient><linearGradient id="Adsız_degrade_20" x1="-2271.92" y1="-1162.83" x2="-2271.85" y2="-1162.83" gradientTransform="matrix(-112.44, 110.44, 110.44, 108.47, -126543.27, 377223.97)" xlink:href="#Adsız_degrade_19"/><linearGradient id="Adsız_degrade_21" x1="-2270.45" y1="-1165.29" x2="-2270.38" y2="-1165.29" gradientTransform="matrix(-181.75, 178.51, 178.51, 175.32, -204144.18, 609763.95)" xlink:href="#Adsız_degrade_19"/><linearGradient id="Adsız_degrade_22" x1="-2209.6" y1="-1149.7" x2="-2209.53" y2="-1149.7" gradientTransform="translate(52915.18 26513.96) scale(23.74 22.9)" gradientUnits="userSpaceOnUse"><stop offset="0" stop-color="#d3bd8b"/><stop offset="1" stop-color="#7f5f39"/></linearGradient><linearGradient id="Adsız_degrade_23" x1="-2318.31" y1="-1150.03" x2="-2318.24" y2="-1150.03" gradientTransform="matrix(-23.74, 0, 0, 22.9, -54557.54, 26521.5)" xlink:href="#Adsız_degrade_22"/><linearGradient id="Adsız_degrade_24" x1="-2257.44" y1="-1180.91" x2="-2257.37" y2="-1180.91" gradientTransform="matrix(44.12, 75.06, -75.06, 42.57, 11422.94, 219901.03)" gradientUnits="userSpaceOnUse"><stop offset="0" stop-color="#7f5f39"/><stop offset="0.65" stop-color="#d3bd8b"/><stop offset="0.89" stop-color="#ffe4a6"/><stop offset="1" stop-color="#ffe4a6"/></linearGradient><linearGradient id="Adsız_degrade_25" x1="-2271.94" y1="-1183.55" x2="-2271.87" y2="-1183.55" gradientTransform="matrix(-48.2, 82, -82, -46.5, -206083.63, 131451.08)" gradientUnits="userSpaceOnUse"><stop offset="0" stop-color="#7f5f39"/><stop offset="0.46" stop-color="#d3bd8b"/><stop offset="0.89" stop-color="#ffe4a6"/><stop offset="1" stop-color="#ffe4a6"/></linearGradient><linearGradient id="Adsız_degrade_26" x1="-2266.23" y1="-1159.63" x2="-2266.16" y2="-1159.63" gradientTransform="matrix(101.9, -100.08, 100.08, 98.29, 347445.52, -112654.32)" gradientUnits="userSpaceOnUse"><stop offset="0" stop-color="#d4bc7b"/><stop offset="0.04" stop-color="#7f5f39"/><stop offset="0.11" stop-color="#d1ac75"/><stop offset="1" stop-color="#d4bc7b"/></linearGradient><linearGradient id="Adsız_degrade_27" x1="-2278.69" y1="-1172.42" x2="-2278.62" y2="-1172.42" gradientTransform="matrix(-103.68, -101.83, -101.83, 100.01, -355164.17, -114615.02)" xlink:href="#Adsız_degrade_26"/><linearGradient id="Adsız_degrade_28" x1="-2258.43" y1="-1141.1" x2="-2258.36" y2="-1141.1" gradientTransform="matrix(37.89, -34.7, 34.7, 36.55, 125627.03, -36490.45)" gradientUnits="userSpaceOnUse"><stop offset="0" stop-color="#ffe292"/><stop offset="0.16" stop-color="#d1ac75"/><stop offset="1" stop-color="#ffe292"/></linearGradient><linearGradient id="Adsız_degrade_29" x1="-2293.38" y1="-1175.38" x2="-2293.31" y2="-1175.38" gradientTransform="matrix(-39.5, -36.18, -36.18, 38.1, -132632.78, -38021.57)" xlink:href="#Adsız_degrade_28"/><linearGradient id="Adsız_degrade_30" x1="-2265.87" y1="-1160.72" x2="-2265.8" y2="-1160.72" gradientTransform="matrix(118.36, -116.25, 116.25, 114.18, 403572.3, -130701.83)" gradientUnits="userSpaceOnUse"><stop offset="0" stop-color="#7f5f39"/><stop offset="1" stop-color="#bd9b6a"/></linearGradient><linearGradient id="Adsız_degrade_31" x1="-2254.4" y1="-1173.71" x2="-2254.32" y2="-1173.71" gradientTransform="matrix(50.36, 49.46, -49.46, 48.58, 55972.63, 168697.44)" gradientUnits="userSpaceOnUse"><stop offset="0" stop-color="#7f5f39"/><stop offset="1" stop-color="#d4bc7b"/></linearGradient><linearGradient id="Adsız_degrade_32" x1="-2269.79" y1="-1165.39" x2="-2269.71" y2="-1165.39" gradientTransform="matrix(111.12, -210.22, 210.22, 107.19, 497699.32, -352051.93)" gradientUnits="userSpaceOnUse"><stop offset="0" stop-color="#a78a5e"/><stop offset="0.76" stop-color="#7f5f39"/><stop offset="0.92" stop-color="#674c2b"/><stop offset="1" stop-color="#674c2b"/></linearGradient><linearGradient id="Adsız_degrade_33" x1="-2271.87" y1="-1168.97" x2="-2271.8" y2="-1168.97" gradientTransform="matrix(-315.85, -369.7, 369.7, -304.69, -284915.03, -1195895.67)" xlink:href="#Adsız_degrade_14"/><linearGradient id="Adsız_degrade_34" x1="-2264.37" y1="-1159.77" x2="-2264.3" y2="-1159.77" gradientTransform="matrix(109.18, -107.24, 107.24, 105.32, 372037.92, -120501.53)" gradientUnits="userSpaceOnUse"><stop offset="0" stop-color="#7f5f39"/><stop offset="1" stop-color="#e9cf98"/></linearGradient><linearGradient id="Adsız_degrade_35" x1="-2265.82" y1="-1162.26" x2="-2265.75" y2="-1162.26" gradientTransform="matrix(147.03, -144.41, 144.41, 141.84, 501424.61, -162170.8)" gradientUnits="userSpaceOnUse"><stop offset="0" stop-color="#7f5f39"/><stop offset="1" stop-color="#e4cb90"/></linearGradient></defs><path class="cls-1" d="M441,182.55h.47l4.63-10.18h-.47Z" transform="translate(-439.56 -165.13)"/><path class="cls-2" d="M469.7,165.13l-.08,1H479a.57.57,0,0,1,.6.34l1-1a1,1,0,0,0-.73-.28Z" transform="translate(-439.56 -165.13)"/><path class="cls-3" d="M459.31,165.13a.9.9,0,0,0-.69.35l.67.81s.14-.2.68-.2h9.65l.08-1Z" transform="translate(-439.56 -165.13)"/><path class="cls-4" d="M458.38,166.05V169c0,.46-.09.57-.09.57l.75.87a2,2,0,0,0,.1-.48V167c0-.18,0-.45,0-.45l-.7-1a1,1,0,0,0-.08.42" transform="translate(-439.56 -165.13)"/><path class="cls-5" d="M480,166.5s0,.34,0,.52,0,2.67,0,2.85a1.4,1.4,0,0,0,.24.52l.89-.87s-.21-.07-.21-.53v-2.94a.61.61,0,0,0-.19-.42l-.73.86Z" transform="translate(-439.56 -165.13)"/><path class="cls-6" d="M457.33,170.15H447a1.92,1.92,0,0,0-1.17.36l.61.91a1,1,0,0,1,.78-.34H458a1.31,1.31,0,0,0,.66-.18l-.71-.94a1.69,1.69,0,0,1-.61.18" transform="translate(-439.56 -165.13)"/><path class="cls-7" d="M440.68,183.31l-1.1.86a.91.91,0,0,0,.08.63.62.62,0,0,0,.41.32l1.44-1.13s-.81,0-.47-.71a2.3,2.3,0,0,0,.32-.91s-.4.07-.68.94" transform="translate(-439.56 -165.13)"/><path class="cls-8" d="M443.71,175c-.88,2-3.83,8.42-3.94,8.65a4.21,4.21,0,0,0-.2.63l1.13-.92L446,171.58a11.55,11.55,0,0,0-2.33,3.37" transform="translate(-439.56 -165.13)"/><path class="cls-9" d="M441.53,184l-1.47,1.16,17.09,0a1.63,1.63,0,0,1,.6.08l.75-.94a3.64,3.64,0,0,0-1.12-.35Z" transform="translate(-439.56 -165.13)"/><path class="cls-10" d="M458.17,185.83a1.76,1.76,0,0,1,.16.61v2.43a1.75,1.75,0,0,0,.12.65l.73-1v-2.92a1.93,1.93,0,0,0-.23-.85Z" transform="translate(-439.56 -165.13)"/><path class="cls-11" d="M479.57,185.36v2.91l1.15,1.11s0-.3,0-.64V186.3a1.32,1.32,0,0,1,.08-.44l-1-1.11s-.24.14-.24.61" transform="translate(-439.56 -165.13)"/><path class="cls-12" d="M478.71,188.76h-9v1.35h10a1.65,1.65,0,0,0,.81-.31l-1.13-1.19s-.08.15-.64.15" transform="translate(-439.56 -165.13)"/><path class="cls-13" d="M458.8,190a1.52,1.52,0,0,0,.88.18h10v-1.36H460a1.36,1.36,0,0,1-.29,0Z" transform="translate(-439.56 -165.13)"/><path class="cls-14" d="M461.39,167.34a1,1,0,0,0-1.05,1v3.14c0,.64-.34.9-.75.9H448a1.1,1.1,0,0,0-1,.66c-.17.35-3.06,6.75-4,8.82-.2.45,0,.72.49.72h16.17c.69,0,.81.7.81,1.41v2.44a1,1,0,0,0,.87,1h8.14v-20Z" transform="translate(-439.56 -165.13)"/><path class="cls-15" d="M480.33,184.29l.93,1.05a3.24,3.24,0,0,1,1.32-.14h9.93a1.59,1.59,0,0,0,.49-.11l-5.25-1.17h-6.39a1.65,1.65,0,0,0-1,.37" transform="translate(-439.56 -165.13)"/><path class="cls-16" d="M480.68,170.78a2.81,2.81,0,0,0,.83.17h15.63a4.78,4.78,0,0,1,.76,0l1.26-.84a2.74,2.74,0,0,0-.81-.12H482.11a1.12,1.12,0,0,1-.57-.11Z" transform="translate(-439.56 -165.13)"/><path class="cls-17" d="M498.36,171.43a1.52,1.52,0,0,1-.07.74c-.14.3-4.86,10.57-5.07,11a1.34,1.34,0,0,1-.7.64l.54,1.19a1.83,1.83,0,0,0,.3-.32c.11-.16,5.93-13.23,6.11-13.69s0-.62,0-.62l-1.14,1Z" transform="translate(-439.56 -165.13)"/><path class="cls-18" d="M492,183.94l-4.11,0,5,1.12a1.22,1.22,0,0,0,.47-.43c.16-.29,0-.38-.18-.2s-.49-.12-.33-.32a3.54,3.54,0,0,0,.31-.82,1.67,1.67,0,0,1-1.12.62" transform="translate(-439.56 -165.13)"/><path class="cls-19" d="M445.82,183.06c-3.25.24-4.29.92-4.29.92h15.53c1.77,0,1.57.27,1.56.28l1.26-1.48s-3.07,0-5,0H454c-2.09,0-5.37.12-8.21.33m12.8,1.2Z" transform="translate(-439.56 -165.13)"/><path class="cls-20" d="M482.45,182.74c-1.38,0-3.55,0-3.55,0l1.45,1.51s.15-.35,1.42-.35l10.51,0s.16-.56-2.56-.77c-2.14-.17-5.37-.39-6.93-.39h-.34" transform="translate(-439.56 -165.13)"/><path class="cls-21" d="M479.17,172.51s2.17,0,3.56,0,9.75-.38,12.06-.62a5.64,5.64,0,0,0,3-.92l-15.93.08c-1.28,0-1.1-.28-1.1-.28Z" transform="translate(-439.56 -165.13)"/><path class="cls-22" d="M459,184.84a4.41,4.41,0,0,1,.16,1v1.93a1.65,1.65,0,0,0,.15.77l1.32-1.46a3,3,0,0,1-.2-.9V184a4,4,0,0,0-.11-.91Z" transform="translate(-439.56 -165.13)"/><path class="cls-23" d="M478.38,184c0,.5,0,1.84,0,2.23a4.8,4.8,0,0,1-.08.85l1.32,1.46a1.57,1.57,0,0,0,.16-.77v-1.93a4.68,4.68,0,0,1,.15-1l-1.41-1.8a5,5,0,0,0-.11.94" transform="translate(-439.56 -165.13)"/><path class="cls-24" d="M459.76,188.7l9.62.09h0v-1.43l-8.37,0Z" transform="translate(-439.56 -165.13)"/><path class="cls-25" d="M469.47,187.36h0v1.43l9.89-.13-1.59-1.33-8.26,0Z" transform="translate(-439.56 -165.13)"/><path class="cls-26" d="M459.9,166.09a1,1,0,0,0-.53.16l1.28,1.38s.12-.3,1-.3h7.8v-1.24Z" transform="translate(-439.56 -165.13)"/><path class="cls-27" d="M469.47,166.09v1.24h7.79c.9,0,1.08.44,1.08.44l1.28-1.39a1.1,1.1,0,0,0-.58-.29Z" transform="translate(-439.56 -165.13)"/><path class="cls-28" d="M459.13,167.3v2.51a2.41,2.41,0,0,1-.12.66l1.25,1.56a1.94,1.94,0,0,0,.08-.78c0-.65.05-3.21.05-3.21l-1.24-1.54s0,.41,0,.8" transform="translate(-439.56 -165.13)"/><path class="cls-29" d="M478.39,168.07v3.13c0,.66.28.83.28.83l1.53-1.7a1.59,1.59,0,0,1-.2-.65c0-.3,0-2.12,0-2.51s0-.75,0-.75l-1.61,1.66Z" transform="translate(-439.56 -165.13)"/><path class="cls-30" d="M458.1,171.13H447.39a1.67,1.67,0,0,0-1,.3l1,1.11a1.6,1.6,0,0,1,.93-.21h11.13a1.91,1.91,0,0,0,.63-.13l-1.25-1.41a1.11,1.11,0,0,1-.73.34" transform="translate(-439.56 -165.13)"/><path class="cls-31" d="M491.45,182.59s.6-.25.79.54c0,0,.15.25.56-.42s4.31-9.51,4.27-9.64-.83-.29-.83-.29Z" transform="translate(-439.56 -165.13)"/><path class="cls-32" d="M496.36,172.87c.19.12.37.28.11.91s-3.26,7.07-3.9,8.31-.07,1.74-.07,1.74a1.77,1.77,0,0,0,.63-.52c.15-.27,4.73-10.28,5-11s.1-.94.1-.94Z" transform="translate(-439.56 -165.13)"/><path class="cls-33" d="M469.47,167.34v20h8c.46,0,.87-.19.87-.77v-3c0-.58.35-1,.75-1h12.09a1.16,1.16,0,0,0,1-.73c1-2,3.71-7.86,3.91-8.34s.1-.9-.48-.9h-16a1.24,1.24,0,0,1-1.22-1.29v-3.27c0-.45-.24-.71-.76-.71Z" transform="translate(-439.56 -165.13)"/><path class="cls-34" d="M441.4,183.42l1.55-1s-.18-.09.1-.7l2.9-6.52-.59-.14Z" transform="translate(-439.56 -165.13)"/><path class="cls-35" d="M441.26,182.66c-.39.77-.31,1.07-.31,1.07l.93-.69s4.15-8.87,4.58-9.9-.21-1.44-.21-1.44-4.6,10.19-5,11" transform="translate(-439.56 -165.13)"/><path class="cls-36" d="M441.89,184c-.07,0-.63.12-.74,0s-.3-.22-.15-.36,2-1.33,2-1.33-.22.13,1.65.13h15a.93.93,0,0,1,.82.49c.05.19-.05.27-.18.25s-.44-.14-.51-.28.1-.24-1-.24-9.37.14-11.25.33-4.34.05-5.62,1m55.4-13c.06,0,.62-.12.74,0s.29.22.14.36-2,1.33-2,1.33.22-.13-1.65-.13h-15a.93.93,0,0,1-.82-.49c0-.19,0-.28.18-.25a1.09,1.09,0,0,1,.52.27c.07.14-.1.25,1,.25s9.38-.14,11.25-.33,4.34-.05,5.63-1m-50.56,1.58c0-.2.1-.56,0-.67s.15-.23.31-.13.48.2.52.28a.35.35,0,0,1-.23.39c-.21.08-.41.28-.74,1.07s-2.21,4.82-2.21,4.82.27-.64.16-.66-.39.51-.39.51l2.56-5.61Zm13-.38c-.16,0-.21-.18-.07-.2s.32,0,.48-.74a19,19,0,0,0,0-3.18c0-.38-.19-.83,0-1s.39.22,1,.22,1.95-.05,1.95-.05-1.9.15-2.22.2a.71.71,0,0,0-.55.84,25.37,25.37,0,0,1-.16,3.38c-.09.28-.25.53-.48.56m12.8-5c-.25,0,4.82.06,5.14.06s.68.11.75.46a11.44,11.44,0,0,1,0,1.52,6.58,6.58,0,0,1,.39-1.77c.23-.28.16-.68-.14-.6s-2.65.15-6.16.33m6.77,15.48c-.16,0-.34,0-.39.1s.21.25,0,.4-.44.24-.44.12.13-.78.61-.78l12.48,0c.18,0,.41,0,.5.22s.21.71.27.86,0,.15-.25-.15a1.35,1.35,0,0,0-1.14-.4c-.41,0-11.6-.36-11.6-.36m13,.43-.18-.45a.49.49,0,0,0-.28-.25,6.46,6.46,0,0,0,.55-1c.32-.65,1.82-3.78,2-4.2,0,0-.34,1.15.32.2l-2.28,4.78a2.67,2.67,0,0,0-.11.88M460.6,186.7s0,.37-.16.52-.27.42-.11.54.27.06.38-.12a.81.81,0,0,1,.74-.27s-.85.12-.85-.67m11.75.66,4.88.28.46,0s-.49-.08-.34-.26l-5,0Zm5.46,0s-.14.24.08.36.43.24.57.06-.11-.67-.08-1c0,0,.11.52-.57.58" transform="translate(-439.56 -165.13)"/></svg>