<svg id="Calque_1" data-name="Calque 1" xmlns="http://www.w3.org/2000/svg" xmlns:xlink="http://www.w3.org/1999/xlink" viewBox="0 0 44 45"><defs><style>.cls-1{fill:none;}.cls-2{fill:#58585a;}.cls-3{clip-path:url(#clip-path);}.cls-4{clip-path:url(#clip-path-2);}.cls-5{fill:url(#Adsız_degrade);}.cls-6{clip-path:url(#clip-path-3);}.cls-7{clip-path:url(#clip-path-4);}.cls-8{fill:url(#Adsız_degrade_2);}.cls-9{clip-path:url(#clip-path-5);}.cls-10{clip-path:url(#clip-path-6);}.cls-11{fill:url(#Adsız_degrade_3);}.cls-12{clip-path:url(#clip-path-7);}.cls-13{clip-path:url(#clip-path-8);}.cls-14{fill:url(#Adsız_degrade_4);}.cls-15{clip-path:url(#clip-path-9);}.cls-16{clip-path:url(#clip-path-10);}.cls-17{fill:url(#Adsız_degrade_5);}.cls-18{fill:#fff;}.cls-19{fill:#c6c7c8;}.cls-20{clip-path:url(#clip-path-11);}.cls-21{clip-path:url(#clip-path-12);}.cls-22{fill:url(#Adsız_degrade_6);}.cls-23{clip-path:url(#clip-path-13);}.cls-24{clip-path:url(#clip-path-14);}.cls-25{fill:url(#Adsız_degrade_7);}.cls-26{clip-path:url(#clip-path-15);}.cls-27{clip-path:url(#clip-path-16);}.cls-28{fill:url(#Adsız_degrade_8);}.cls-29{clip-path:url(#clip-path-17);}.cls-30{clip-path:url(#clip-path-18);}.cls-31{fill:url(#Adsız_degrade_9);}.cls-32{clip-path:url(#clip-path-19);}.cls-33{clip-path:url(#clip-path-20);}.cls-34{fill:url(#Adsız_degrade_10);}.cls-35{clip-path:url(#clip-path-21);}.cls-36{clip-path:url(#clip-path-22);}.cls-37{fill:url(#Adsız_degrade_11);}.cls-38{clip-path:url(#clip-path-23);}.cls-39{clip-path:url(#clip-path-24);}.cls-40{fill:url(#Adsız_degrade_12);}.cls-41{clip-path:url(#clip-path-25);}.cls-42{clip-path:url(#clip-path-26);}.cls-43{fill:url(#Adsız_degrade_13);}.cls-44{clip-path:url(#clip-path-27);}.cls-45{clip-path:url(#clip-path-28);}.cls-46{fill:url(#Adsız_degrade_14);}.cls-47{clip-path:url(#clip-path-29);}.cls-48{clip-path:url(#clip-path-30);}.cls-49{fill:url(#Adsız_degrade_15);}.cls-50{fill:#002f60;}.cls-51{clip-path:url(#clip-path-31);}.cls-52{clip-path:url(#clip-path-32);}.cls-53{fill:url(#Adsız_degrade_16);}.cls-54{clip-path:url(#clip-path-33);}.cls-55{clip-path:url(#clip-path-34);}.cls-56{fill:url(#Adsız_degrade_17);}.cls-57{clip-path:url(#clip-path-35);}.cls-58{clip-path:url(#clip-path-36);}.cls-59{fill:url(#Adsız_degrade_18);}</style><clipPath id="clip-path" transform="translate(0 -0.04)"><rect class="cls-1" x="0.23" y="0.36" width="43.54" height="44.36"/></clipPath><clipPath id="clip-path-2" transform="translate(0 -0.04)"><path class="cls-1" d="M29.78,29.85a12.38,12.38,0,0,1-2.24,4.28c-.73.77-1.77,1.48-4.16,1.58-.46,0-1.05,0-1.37,0s-.92,0-1.38,0c-2.39-.1-3.43-.81-4.16-1.58a12.42,12.42,0,0,1-2.24-4.27c-.28-.75-1.88-5.32-2.15-6.25,3.28.19,6.91.32,9.92.32s6.65-.13,9.93-.32c-.27.93-1.87,5.5-2.15,6.24M43,1.2l-.34-.06c-.26,0-.54-.08-.86-.12C38.92.73,29.71.36,22,.36S5.09.72,2.18,1l-.86.12L1,1.2a1.14,1.14,0,0,0-.7,1.23s.12.81.16,1.06Q.87,6.25,1.39,9c.34,1.81.7,3.61,1.1,5.41.24,1.09.48,2.18.74,3.27.19.8.77,3.16,1.12,4.51.39,1.51.8,3,1.21,4.5s1.89,6.38,2.15,7.14C8.88,37.28,10.13,40,12.31,42s4.35,2.76,9.7,2.76,7.58-.82,9.69-2.76,3.42-4.67,4.6-8.13c.25-.76,1.68-5.52,2.14-7.14s.82-3,1.21-4.5c.35-1.35.94-3.71,1.12-4.51q.39-1.64.75-3.27c.39-1.8.75-3.6,1.1-5.41s.65-3.66.94-5.5c0-.25.15-1,.16-1.06A1.14,1.14,0,0,0,43,1.2Z"/></clipPath><linearGradient id="Adsız_degrade" x1="-883.74" y1="883.5" x2="-883.09" y2="883.5" gradientTransform="matrix(0, 67.72, 67.72, 0, -59808.76, 59847.41)" gradientUnits="userSpaceOnUse"><stop offset="0" stop-color="#fff"/><stop offset="0.24" stop-color="#fdfdfd"/><stop offset="0.35" stop-color="#f6f6f6"/><stop offset="0.44" stop-color="#e9e9ea"/><stop offset="0.51" stop-color="#d7d8d9"/><stop offset="0.57" stop-color="#bfc1c2"/><stop offset="0.62" stop-color="#a3a5a7"/><stop offset="0.65" stop-color="#8f9294"/><stop offset="0.89" stop-color="#46494c"/><stop offset="1" stop-color="#292c30"/></linearGradient><clipPath id="clip-path-3" transform="translate(0 -0.04)"><rect class="cls-1" x="11.69" y="23.27" width="20.62" height="12.79"/></clipPath><clipPath id="clip-path-4" transform="translate(0 -0.04)"><path class="cls-1" d="M30,30h0m1.5-6c-.47,1.46-1.76,5.13-2,5.78h0a12.4,12.4,0,0,1-2.18,4.17c-.68.71-1.63,1.39-4,1.49l-1.37,0-1.36,0c-2.36-.1-3.34-.81-4-1.5a12.25,12.25,0,0,1-2.18-4.16c-.24-.66-1.53-4.32-2-5.78,3.51.19,6.88.3,9.52.3s6-.1,9.53-.3Zm-19.71-.24c.27.95,1.88,5.51,2.16,6.27a12.84,12.84,0,0,0,2.31,4.39c.72.76,1.8,1.55,4.33,1.66l1.39,0,1.38,0c2.54-.11,3.62-.9,4.34-1.66A12.92,12.92,0,0,0,30,30c.28-.76,1.88-5.32,2.15-6.27l.13-.44-.4,0c-3.66.21-7.18.32-9.91.32s-6.26-.11-9.91-.32l-.4,0Z"/></clipPath><linearGradient id="Adsız_degrade_2" x1="-902.99" y1="853.86" x2="-902.34" y2="853.86" gradientTransform="matrix(0, -17.96, -17.96, 0, 15357.39, -16182.68)" gradientUnits="userSpaceOnUse"><stop offset="0" stop-color="#58585a"/><stop offset="0.91" stop-color="#58585a"/><stop offset="1" stop-color="#1a171b"/></linearGradient><clipPath id="clip-path-5" transform="translate(0 -0.04)"><rect class="cls-1" x="2.34" y="1.36" width="39.32" height="38.61"/></clipPath><clipPath id="clip-path-6" transform="translate(0 -0.04)"><path class="cls-1" d="M32,23.73l0,0-.13.12a3.15,3.15,0,0,0-.1.32c-.08.23-.16.46-.23.7L31,26.34q-.5,1.45-1,2.88A29.83,29.83,0,0,1,28.9,32a7.8,7.8,0,0,1-1.51,2.25,4.75,4.75,0,0,1-2.23,1.21,11,11,0,0,1-2.62.24H21.47a11.57,11.57,0,0,1-2.62-.24,4.85,4.85,0,0,1-2.23-1.21A7.66,7.66,0,0,1,15.11,32,29.83,29.83,0,0,1,14,29.22q-.52-1.42-1-2.88c-.16-.48-.33-1-.49-1.45-.07-.23-.15-.46-.22-.69,0-.05-.06-.18-.1-.32L12,23.76l0,0A37.42,37.42,0,0,1,5.79,12.88,118.72,118.72,0,0,1,2.34,1.36C2.56,2.83,3,4.44,3.34,6c.09.39.18.75.27,1.11.49,2.05,1,4.13,1.55,6.2,1,4,2.14,8.16,3.49,12.26.71,2.17,1.38,4.08,2,5.85a20.29,20.29,0,0,0,2.39,4.83,8.19,8.19,0,0,0,3.8,3A14.39,14.39,0,0,0,22,40a14.33,14.33,0,0,0,5.13-.7,8.14,8.14,0,0,0,3.8-3,20.29,20.29,0,0,0,2.39-4.83c.65-1.77,1.32-3.68,2-5.85,1.35-4.1,2.44-8.22,3.49-12.26.55-2.07,1.07-4.16,1.56-6.2.07-.31.15-.64.23-1,.38-1.58.77-3.21,1-4.76-.36,1.47-1.81,7.1-3.51,11.68A35.87,35.87,0,0,1,32,23.73"/></clipPath><linearGradient id="Adsız_degrade_3" x1="-893.57" y1="868.39" x2="-892.92" y2="868.39" gradientTransform="matrix(0, -47.97, -47.97, 0, 41678.58, -42825.02)" gradientUnits="userSpaceOnUse"><stop offset="0" stop-color="#fefefe"/><stop offset="0.18" stop-color="#fefefe"/><stop offset="0.21" stop-color="#eeefef"/><stop offset="0.35" stop-color="#9c9e9f"/><stop offset="0.44" stop-color="#686b6d"/><stop offset="0.49" stop-color="#54575a"/><stop offset="0.71" stop-color="#35383c"/><stop offset="0.79" stop-color="#292c30"/><stop offset="1" stop-color="#292c30"/></linearGradient><clipPath id="clip-path-7" transform="translate(0 -0.04)"><rect class="cls-1" x="2.4" y="0.36" width="39.22" height="23.57"/></clipPath><clipPath id="clip-path-8" transform="translate(0 -0.04)"><path class="cls-1" d="M41.61,1C35.09.54,28.55.36,22,.36S8.92.54,2.4,1a95,95,0,0,0,2.47,9.81h0c.24.75.5,1.49.76,2.21a34.31,34.31,0,0,0,6.45,10.58l.83.05,1.9.1c1.25,0,2.49.1,3.74.13s2.3.05,3.46,0,2.3,0,3.45,0,2.5-.07,3.75-.13l1.9-.1.82-.05A34.11,34.11,0,0,0,38.38,13,75.27,75.27,0,0,0,40.86,4.5h0c.49-2.07.75-3.49.75-3.49"/></clipPath><linearGradient id="Adsız_degrade_4" x1="-895.63" y1="865.8" x2="-894.97" y2="865.8" gradientTransform="matrix(0, -35.99, -35.99, 0, 31182.18, -32209.72)" gradientUnits="userSpaceOnUse"><stop offset="0" stop-color="#383c40"/><stop offset="0.03" stop-color="#626569"/><stop offset="0.06" stop-color="#9a9c9e"/><stop offset="0.09" stop-color="#c5c7c8"/><stop offset="0.12" stop-color="#e5e5e6"/><stop offset="0.14" stop-color="#f8f8f8"/><stop offset="0.16" stop-color="#fff"/><stop offset="0.19" stop-color="#f0f1f1"/><stop offset="0.25" stop-color="#dcdfe0"/><stop offset="0.31" stop-color="#d1d4d5"/><stop offset="0.37" stop-color="#cdd0d2"/><stop offset="0.69" stop-color="#cbced0"/><stop offset="0.8" stop-color="#c4c8ca"/><stop offset="0.89" stop-color="#b8bcbe"/><stop offset="0.95" stop-color="#a7acaf"/><stop offset="1" stop-color="#979c9f"/></linearGradient><clipPath id="clip-path-9" transform="translate(0 -0.04)"><rect class="cls-1" x="2.4" y="0.36" width="39.22" height="11.38"/></clipPath><clipPath id="clip-path-10" transform="translate(0 -0.04)"><path class="cls-1" d="M14.22,11.52c10.7-.69,20.21-3.44,26.7-7.25.45-1.94.69-3.27.69-3.27h0C38.5.71,29.53.36,22,.36S5.51.71,2.4,1h0a95,95,0,0,0,2.47,9.81h0c.09.25.17.51.25.76a76.73,76.73,0,0,0,9.1-.06"/></clipPath><radialGradient id="Adsız_degrade_5" cx="-877.17" cy="868.9" r="11.01" gradientTransform="matrix(2.28, 0, 0, -2.66, 2005.75, 2305.01)" gradientUnits="userSpaceOnUse"><stop offset="0" stop-color="#fff"/><stop offset="0.36" stop-color="#fff"/><stop offset="0.53" stop-color="#f8f9f9"/><stop offset="0.77" stop-color="#e6e8e9"/><stop offset="0.92" stop-color="#d6d9db"/><stop offset="1" stop-color="#d6d9db"/></radialGradient><clipPath id="clip-path-11" transform="translate(0 -0.04)"><rect class="cls-1" x="32.92" y="8.98" height="0.02"/></clipPath><clipPath id="clip-path-12" transform="translate(0 -0.04)"><polyline class="cls-1" points="32.92 8.99 32.92 8.98 32.92 8.98 32.92 8.99"/></clipPath><linearGradient id="Adsız_degrade_6" x1="-949.83" y1="785.66" x2="-949.16" y2="785.66" gradientTransform="matrix(0, -4.54, -4.54, 0, 3599.81, -4300.46)" gradientUnits="userSpaceOnUse"><stop offset="0" stop-color="#3e3d40"/><stop offset="0.02" stop-color="#5e5d5f"/><stop offset="0.06" stop-color="#979698"/><stop offset="0.09" stop-color="#c4c3c4"/><stop offset="0.12" stop-color="#e4e4e4"/><stop offset="0.14" stop-color="#f8f8f8"/><stop offset="0.16" stop-color="#fff"/><stop offset="0.19" stop-color="#f2f2f2"/><stop offset="0.25" stop-color="#dfdfe0"/><stop offset="0.31" stop-color="#d4d4d5"/><stop offset="0.37" stop-color="#d0d0d1"/><stop offset="0.68" stop-color="#cececf"/><stop offset="0.79" stop-color="#c8c7c8"/><stop offset="0.86" stop-color="#bcbcbd"/><stop offset="0.93" stop-color="#acabac"/><stop offset="0.98" stop-color="#979696"/><stop offset="1" stop-color="#8d8c8c"/></linearGradient><clipPath id="clip-path-13" transform="translate(0 -0.04)"><rect class="cls-1" x="17.61" y="8.98" width="0.01" height="0.02"/></clipPath><clipPath id="clip-path-14" transform="translate(0 -0.04)"><polyline class="cls-1" points="17.61 8.99 17.61 8.98 17.61 8.98 17.61 8.99"/></clipPath><linearGradient id="Adsız_degrade_7" x1="-949.83" y1="783.04" x2="-949.16" y2="783.04" gradientTransform="matrix(0, -4.54, -4.54, 0, 3572.63, -4300.46)" xlink:href="#Adsız_degrade_6"/><clipPath id="clip-path-15" transform="translate(0 -0.04)"><rect class="cls-1" x="16.23" y="8.86" width="2.38" height="2.51"/></clipPath><clipPath id="clip-path-16" transform="translate(0 -0.04)"><path class="cls-1" d="M17.61,9h0a.18.18,0,0,0-.19-.12h0v.19h0l0,0,.88,2.11H16.48l-.25.18H18.6L17.61,9"/></clipPath><linearGradient id="Adsız_degrade_8" x1="-1192.4" y1="695.68" x2="-1191.72" y2="695.68" gradientTransform="matrix(-0.63, -1.3, -1.3, 0.63, 171.37, -1985.68)" gradientUnits="userSpaceOnUse"><stop offset="0" stop-color="#fff"/><stop offset="0.25" stop-color="#f7f7f7"/><stop offset="0.63" stop-color="#e1e2e3"/><stop offset="1" stop-color="#c6c7c9"/></linearGradient><clipPath id="clip-path-17" transform="translate(0 -0.04)"><rect class="cls-1" x="31.54" y="8.86" width="2.38" height="2.51"/></clipPath><clipPath id="clip-path-18" transform="translate(0 -0.04)"><path class="cls-1" d="M32.92,9h0c0-.05-.06-.12-.19-.12h0v.19h0l.06,0,.88,2.11H31.79l-.26.19h2.38l-1-2.4"/></clipPath><linearGradient id="Adsız_degrade_9" x1="-1187.55" y1="701.89" x2="-1186.88" y2="701.89" gradientTransform="matrix(-0.62, -1.31, -1.31, 0.62, 210.01, -1982.24)" xlink:href="#Adsız_degrade_8"/><clipPath id="clip-path-19" transform="translate(0 -0.04)"><rect class="cls-1" x="7.88" y="7.66" width="5.6" height="5.69"/></clipPath><clipPath id="clip-path-20" transform="translate(0 -0.04)"><path class="cls-1" d="M8,7.84h3.37a2.22,2.22,0,0,1,1.81.85,1.43,1.43,0,0,1,.14.2l.11-.13-.13-.2a2.35,2.35,0,0,0-1.93-.9H7.88v5.68L8,13.16V7.84"/></clipPath><linearGradient id="Adsız_degrade_10" x1="-743.56" y1="851.3" x2="-742.95" y2="851.3" gradientTransform="matrix(3.26, 1.33, 1.33, -3.26, 1302.2, 3781.01)" xlink:href="#Adsız_degrade_8"/><clipPath id="clip-path-21" transform="translate(0 -0.04)"><rect class="cls-1" x="9.38" y="9.24" width="3.01" height="2.91"/></clipPath><clipPath id="clip-path-22" transform="translate(0 -0.04)"><path class="cls-1" d="M12.08,11.61a2.16,2.16,0,0,0,.31-1.16,2.07,2.07,0,0,0-.3-1.12L12,9.24l-.11.13.05.08a1.73,1.73,0,0,1,.27,1A2,2,0,0,1,12,11.5a.92.92,0,0,1-.8.46H9.54l-.16.19h1.78a1.07,1.07,0,0,0,.92-.54"/></clipPath><linearGradient id="Adsız_degrade_11" x1="-1301.97" y1="646.55" x2="-1301.3" y2="646.55" gradientTransform="matrix(-0.51, -0.96, -0.96, 0.51, -32.45, -1573.03)" xlink:href="#Adsız_degrade_8"/><clipPath id="clip-path-23" transform="translate(0 -0.04)"><rect class="cls-1" x="13.81" y="7.63" width="7.22" height="5.71"/></clipPath><clipPath id="clip-path-24" transform="translate(0 -0.04)"><path class="cls-1" d="M19.25,13.34H21l-.65-1.69c-.36-.93-.66-1.67-.88-2.21a7,7,0,0,0-.62-1.31,1.27,1.27,0,0,0-.61-.37,3.06,3.06,0,0,0-.84-.13h0a2.74,2.74,0,0,0-.85.13,1.3,1.3,0,0,0-.62.37,9.6,9.6,0,0,0-.61,1.31l-.89,2.21-.64,1.69.24-.18c.09-.21.55-1.43.55-1.43l.89-2.2a10.73,10.73,0,0,1,.57-1.26,1.28,1.28,0,0,1,.55-.33,2.84,2.84,0,0,1,.81-.12h0a2.72,2.72,0,0,1,.8.12,1.19,1.19,0,0,1,.54.33,6.31,6.31,0,0,1,.59,1.26c.22.53.51,1.27.87,2.2l.56,1.43H19.35l-.1.19"/></clipPath><linearGradient id="Adsız_degrade_12" x1="-691.47" y1="816.32" x2="-690.88" y2="816.32" gradientTransform="matrix(2.4, 0.66, 0.66, -2.4, 1139.05, 2426.17)" xlink:href="#Adsız_degrade_8"/><clipPath id="clip-path-25" transform="translate(0 -0.04)"><rect class="cls-1" x="29.11" y="7.63" width="7.22" height="5.71"/></clipPath><clipPath id="clip-path-26" transform="translate(0 -0.04)"><path class="cls-1" d="M34.56,13.34h1.77l-.65-1.69c-.36-.93-.65-1.67-.88-2.21a7.61,7.61,0,0,0-.61-1.31,1.41,1.41,0,0,0-.61-.37,2.73,2.73,0,0,0-.85-.12h0a2.79,2.79,0,0,0-.86.12,1.42,1.42,0,0,0-.62.38,7.78,7.78,0,0,0-.6,1.31l-.89,2.2-.64,1.69.23-.18.55-1.43.89-2.2a10.73,10.73,0,0,1,.57-1.26,1.28,1.28,0,0,1,.55-.33,2.84,2.84,0,0,1,.81-.12h0a2.72,2.72,0,0,1,.8.12,1.19,1.19,0,0,1,.54.33,6.31,6.31,0,0,1,.59,1.26c.22.53.51,1.27.87,2.2l.56,1.43H34.66l-.1.19"/></clipPath><linearGradient id="Adsız_degrade_13" x1="-691.33" y1="816.47" x2="-690.73" y2="816.47" gradientTransform="matrix(2.33, 0.69, 0.69, -2.33, 1079.45, 2389.73)" xlink:href="#Adsız_degrade_8"/><clipPath id="clip-path-27" transform="translate(0 -0.04)"><rect class="cls-1" x="20.8" y="7.66" width="5.52" height="5.69"/></clipPath><clipPath id="clip-path-28" transform="translate(0 -0.04)"><path class="cls-1" d="M26.16,13.16H23.38a2.24,2.24,0,0,1-1.83-.81,2.28,2.28,0,0,1-.36-.6,3.1,3.1,0,0,1-.24-1.2,2.93,2.93,0,0,1,.61-1.86,2.22,2.22,0,0,1,1.82-.84h2.78l.16-.19H23.38a2.34,2.34,0,0,0-1.93.91,3,3,0,0,0-.65,2,3,3,0,0,0,.27,1.33,2.46,2.46,0,0,0,2.31,1.46h2.94V12l-.16.19v1"/></clipPath><linearGradient id="Adsız_degrade_14" x1="-807.49" y1="999.29" x2="-806.83" y2="999.29" gradientTransform="matrix(0, 3.51, 3.51, 0, -3483.95, 2844.12)" xlink:href="#Adsız_degrade_8"/><clipPath id="clip-path-29" transform="translate(0 -0.04)"><rect class="cls-1" x="22.4" y="7.66" width="3.92" height="4.49"/></clipPath><clipPath id="clip-path-30" transform="translate(0 -0.04)"><path class="cls-1" d="M22.82,9.45a.91.91,0,0,1,.8-.45h2.7V7.66l-.16.18v1H23.62a1,1,0,0,0-.92.51,2,2,0,0,0-.3,1.12v.1a2,2,0,0,0,.3,1,1.05,1.05,0,0,0,.92.55h2.54l.16-.19h-2.7a.89.89,0,0,1-.79-.47,1.93,1.93,0,0,1-.27-1.05v0a1.71,1.71,0,0,1,.26-1"/></clipPath><linearGradient id="Adsız_degrade_15" x1="-977.73" y1="743.53" x2="-977.08" y2="743.53" gradientTransform="matrix(0, -3.13, -3.13, 0, 2351.61, -3048.82)" xlink:href="#Adsız_degrade_8"/><clipPath id="clip-path-31" transform="translate(0 -0.04)"><rect class="cls-1" x="8.04" y="7.82" width="25.02" height="3.87"/></clipPath><clipPath id="clip-path-32" transform="translate(0 -0.04)"><path class="cls-1" d="M21.56,8.69A2.93,2.93,0,0,0,21,10.55c0,.08,0,.16,0,.24l1.44-.23v-.12a2,2,0,0,1,.3-1.11,1.07,1.07,0,0,1,.93-.51h2.54v-1H23.37a2.22,2.22,0,0,0-1.81.85M11.41,7.84H8v3.84H9.38V8.82h1.78a1.07,1.07,0,0,1,.93.51,2.07,2.07,0,0,1,.29,1.12,2.15,2.15,0,0,1-.3,1.16l0,0,1.61-.08a3.07,3.07,0,0,0,.15-1,2.92,2.92,0,0,0-.6-1.86A2.22,2.22,0,0,0,11.41,7.84ZM27.17,9.58l1.35-.35V7.84H27.17ZM18.76,8.27a1,1,0,0,0-.54-.33,2.79,2.79,0,0,0-1.62,0,1.1,1.1,0,0,0-.54.32,8.61,8.61,0,0,0-.58,1.27l-.79,2,1.54-.12,1-2.4a.24.24,0,0,1,.21-.11.18.18,0,0,1,.19.12l.89,2.15L19.92,11c-.22-.57-.41-1-.57-1.43a6,6,0,0,0-.59-1.25Zm14-.45a2.79,2.79,0,0,0-.81.12,1.13,1.13,0,0,0-.55.32.61.61,0,0,0-.09.18c.6-.19,1.2-.39,1.79-.6l-.34,0Z"/></clipPath><linearGradient id="Adsız_degrade_16" x1="-834.53" y1="940.44" x2="-833.83" y2="940.44" gradientTransform="matrix(0.84, 6.26, 6.26, -0.84, -5166.45, 6026.21)" gradientUnits="userSpaceOnUse"><stop offset="0" stop-color="#63769e"/><stop offset="0.11" stop-color="#63769e"/><stop offset="0.26" stop-color="#5a719a"/><stop offset="0.5" stop-color="#43638e"/><stop offset="0.8" stop-color="#1d4c7a"/><stop offset="1" stop-color="#003b6b"/></linearGradient><clipPath id="clip-path-33" transform="translate(0 -0.04)"><rect class="cls-1" x="1.82" y="1.02" width="40.37" height="39.34"/></clipPath><clipPath id="clip-path-34" transform="translate(0 -0.04)"><path class="cls-1" d="M4.71,13.49q1.62,6.2,3.61,12.24c.65,2,1.31,3.9,2,5.83a20.17,20.17,0,0,0,2.44,4.92C15.17,39.73,18,40.36,22,40.36s6.85-.63,9.22-3.88a20.54,20.54,0,0,0,2.44-4.92c.71-1.93,1.38-3.87,2-5.83q2-6,3.61-12.24c.54-2.06,1.06-4.14,1.55-6.22s1-4.18,1.34-6.2l-.37,0h-.1c-.24,1.66-.67,3.44-1.09,5.15-.07.32-.15.64-.23,1-.48,2-1,4.13-1.55,6.2-1.05,4-2.26,8.14-3.6,12.21-.71,2.15-1.37,4.05-2,5.8a19.59,19.59,0,0,1-2.37,4.79,8.08,8.08,0,0,1-3.77,3,14.28,14.28,0,0,1-5.08.69,14.31,14.31,0,0,1-5.09-.69,8.08,8.08,0,0,1-3.77-3,19.59,19.59,0,0,1-2.37-4.79c-.65-1.75-1.31-3.65-2-5.8-1.34-4.06-2.55-8.17-3.6-12.21-.54-2.07-1.06-4.16-1.55-6.2L3.34,6a48.67,48.67,0,0,1-1-5h-.1l-.37,0c.26,2,.86,4.21,1.33,6.2s1,4.16,1.56,6.22"/></clipPath><linearGradient id="Adsız_degrade_17" x1="-881.85" y1="873.09" x2="-881.29" y2="873.09" gradientTransform="matrix(71.66, 0, 0, -71.66, 63195.4, 62586.5)" gradientUnits="userSpaceOnUse"><stop offset="0" stop-color="#fff"/><stop offset="0.55" stop-color="#fff"/><stop offset="1" stop-color="#fff"/></linearGradient><clipPath id="clip-path-35" transform="translate(0 -0.04)"><rect class="cls-1" x="2.24" y="1" width="39.53" height="22.98"/></clipPath><clipPath id="clip-path-36" transform="translate(0 -0.04)"><path class="cls-1" d="M5.65,13A86.52,86.52,0,0,1,2.42,1L2.24,1h0A87.61,87.61,0,0,0,5.49,13.1,33.94,33.94,0,0,0,12,23.76l0,0,.2.17-.11-.35A35.15,35.15,0,0,1,5.66,13M41.59,1a86.52,86.52,0,0,1-3.24,12,34.66,34.66,0,0,1-6.42,10.6h0l-.11.35.2-.17,0,0A34.36,34.36,0,0,0,38.52,13.1,86.46,86.46,0,0,0,41.77,1h0l-.18,0Z"/></clipPath><linearGradient id="Adsız_degrade_18" x1="-880.07" y1="889.32" x2="-879.42" y2="889.32" gradientTransform="matrix(0, 36.3, 36.3, 0, -32260.26, 31946.88)" gradientUnits="userSpaceOnUse"><stop offset="0" stop-color="#58585a"/><stop offset="0.04" stop-color="#515153"/><stop offset="0.08" stop-color="#414043"/><stop offset="0.15" stop-color="#302e31"/><stop offset="0.23" stop-color="#232124"/><stop offset="0.33" stop-color="#1c191d"/><stop offset="0.54" stop-color="#1a171b"/><stop offset="0.77" stop-color="#2a282b"/><stop offset="1" stop-color="#353437"/></linearGradient></defs><path class="cls-2" d="M43.09.89h0m0,0ZM12.48,41.7c-2.17-2-3.37-4.63-4.51-8-.26-.76-1.7-5.55-2.14-7.13L4.61,22.09,3.5,17.58l-.74-3.26c-.4-1.82-.77-3.64-1.1-5.4S1,5.27.72,3.43L.56,2.38a.81.81,0,0,1,.5-.87l.3-.06.85-.11C5.19,1,14.48.68,22,.68S38.82,1,41.8,1.34l.84.12.3.06a.79.79,0,0,1,.5.87l-.15,1c-.29,1.83-.6,3.67-.94,5.49s-.71,3.59-1.1,5.4l-.74,3.26-1.12,4.51-1.21,4.49C37.73,28.16,36.29,33,36,33.7c-1.14,3.37-2.35,6-4.51,8-2,1.79-4,2.69-9.52,2.69S14.38,43.45,12.48,41.7ZM2.16.7,1.28.82.92.9A1.46,1.46,0,0,0,0,2.47L.17,3.55c.29,1.84.61,3.69,1,5.51s.7,3.6,1.1,5.42L3,17.76l1.13,4.52,1.21,4.5c.46,1.63,1.89,6.38,2.15,7.16,1.18,3.47,2.42,6.19,4.68,8.27S16.93,45,22,45s7.57-.71,9.87-2.83,3.51-4.8,4.68-8.27c.27-.77,1.69-5.53,2.15-7.16l1.22-4.5L41,17.76l.74-3.28c.4-1.81.77-3.64,1.11-5.42s.66-3.68.94-5.51L44,2.47V2.29a1.44,1.44,0,0,0-.91-1.4L42.72.82,41.85.7C38.86.4,29.54,0,22,0S5.15.4,2.16.7Z" transform="translate(0 -0.04)"/><g class="cls-3"><g class="cls-4"><rect class="cls-5" x="0.23" y="0.32" width="43.54" height="44.36"/></g></g><g class="cls-6"><g class="cls-7"><rect class="cls-8" x="11.69" y="23.22" width="20.62" height="12.79"/></g></g><g class="cls-9"><g class="cls-10"><rect class="cls-11" x="2.33" y="1.32" width="39.32" height="38.61"/></g></g><g class="cls-12"><g class="cls-13"><rect class="cls-14" x="2.39" y="0.32" width="39.22" height="23.57"/></g></g><g class="cls-15"><g class="cls-16"><rect class="cls-17" x="2.39" y="0.32" width="39.22" height="11.38"/></g></g><path class="cls-18" d="M34.25,12.18l-.09.19c0,.09.4,1,.4,1l.1-.18-.41-1" transform="translate(0 -0.04)"/><path class="cls-18" d="M31.21,12.18l-.4,1H29.35l-.24.18H30.9s.37-.88.4-1h2.85l.1-.18h-3" transform="translate(0 -0.04)"/><path class="cls-19" d="M31.21,12.18l-.4,1H29.35l-.24.18H30.9s.37-.88.4-1h2.85l.1-.18h-3" transform="translate(0 -0.04)"/><path class="cls-18" d="M35.68,11.65c-.36-.93-.66-1.67-.88-2.21a7.61,7.61,0,0,0-.61-1.31,1.32,1.32,0,0,0-.61-.37,2.73,2.73,0,0,0-.85-.12v.18a2.72,2.72,0,0,1,.8.12,1.07,1.07,0,0,1,.55.33,7.39,7.39,0,0,1,.58,1.25c.22.54.52,1.28.88,2.2,0,0,.47,1.22.55,1.44H34.66l-.1.18h1.77l-.65-1.69" transform="translate(0 -0.04)"/><polyline class="cls-18" points="32.92 8.96 32.91 8.94 32.91 8.94 32.92 8.96"/><g class="cls-20"><g class="cls-21"><rect class="cls-22" x="32.91" y="8.94" height="0.02"/></g></g><path class="cls-18" d="M19,12.18l-.1.19c0,.09.4,1,.4,1l.1-.18-.4-1" transform="translate(0 -0.04)"/><path class="cls-18" d="M15.9,12.18l-.4,1H14.05l-.24.18H15.6l.4-1h2.85l.1-.18h-3" transform="translate(0 -0.04)"/><path class="cls-19" d="M15.9,12.18l-.4,1H14.05l-.24.18H15.6l.4-1h2.85l.1-.18h-3" transform="translate(0 -0.04)"/><path class="cls-18" d="M20.38,11.65c-.37-.93-.66-1.67-.89-2.21a7.61,7.61,0,0,0-.61-1.31,1.27,1.27,0,0,0-.61-.37,2.73,2.73,0,0,0-.85-.12v.18a2.72,2.72,0,0,1,.8.12,1.07,1.07,0,0,1,.55.33,7.39,7.39,0,0,1,.58,1.25c.22.54.52,1.28.88,2.2,0,0,.47,1.22.55,1.44H19.35l-.1.18H21l-.64-1.69" transform="translate(0 -0.04)"/><path class="cls-19" d="M17.34,9.09l.07,0V8.86a.24.24,0,0,0-.2.11l-1,2.41.25-.19.86-2.1" transform="translate(0 -0.04)"/><polyline class="cls-18" points="17.61 8.96 17.61 8.94 17.6 8.94 17.61 8.96"/><g class="cls-23"><g class="cls-24"><rect class="cls-25" x="17.6" y="8.94" width="0.01" height="0.02"/></g></g><g class="cls-26"><g class="cls-27"><polygon class="cls-28" points="15.38 9.3 18.15 7.74 19.45 10.86 16.68 12.42 15.38 9.3"/></g></g><path class="cls-19" d="M32.65,9.09l.06,0V8.86a.23.23,0,0,0-.19.11l-1,2.41.26-.19c.09-.23.86-2.1.86-2.1" transform="translate(0 -0.04)"/><g class="cls-29"><g class="cls-30"><polygon class="cls-31" points="30.69 9.29 33.47 7.75 34.75 10.87 31.97 12.4 30.69 9.29"/></g></g><path class="cls-18" d="M27.18,7.84h1.34l.16-.18H27v5.68l.16-.18V7.84" transform="translate(0 -0.04)"/><path class="cls-19" d="M28.68,7.66l-.16.18v5.32H27.18l-.16.19h1.66V7.66" transform="translate(0 -0.04)"/><g class="cls-32"><g class="cls-33"><polygon class="cls-34" points="6.21 12.48 8.73 5.3 15.27 8.4 12.74 15.58 6.21 12.48"/></g></g><path class="cls-19" d="M9.54,9h1.62a.89.89,0,0,1,.75.37L12,9.24a1,1,0,0,0-.86-.42H9.38v3.33L9.54,12V9" transform="translate(0 -0.04)"/><path class="cls-19" d="M13.35,12.47A2.94,2.94,0,0,0,14,10.55a3.11,3.11,0,0,0-.51-1.79l-.11.13a3,3,0,0,1,.46,1.66,2.74,2.74,0,0,1-.59,1.79,2.25,2.25,0,0,1-1.83.82H8l-.16.18h3.53a2.38,2.38,0,0,0,1.94-.87" transform="translate(0 -0.04)"/><g class="cls-35"><g class="cls-36"><polygon class="cls-37" points="10.04 13.55 8.34 9.84 11.72 7.75 13.42 11.47 10.04 13.55"/></g></g><g class="cls-38"><g class="cls-39"><polygon class="cls-40" points="12.55 12.9 14.31 5.45 22.28 8 20.52 15.45 12.55 12.9"/></g></g><g class="cls-41"><g class="cls-42"><polygon class="cls-43" points="29.69 5.32 37.66 8.05 35.75 15.58 27.78 12.85 29.69 5.32"/></g></g><g class="cls-44"><g class="cls-45"><rect class="cls-46" x="20.79" y="7.62" width="5.52" height="5.69"/></g></g><g class="cls-47"><g class="cls-48"><rect class="cls-49" x="22.39" y="7.62" width="3.92" height="4.49"/></g></g><path class="cls-50" d="M12.08,11.61a1.07,1.07,0,0,1-.92.54H9.38V8.82h1.78a1.07,1.07,0,0,1,.93.51,2.07,2.07,0,0,1,.29,1.12,2.15,2.15,0,0,1-.3,1.16m1.14-2.92a2.23,2.23,0,0,0-1.82-.85H8v5.32h3.37a2.22,2.22,0,0,0,1.82-.81,2.74,2.74,0,0,0,.6-1.8,2.93,2.93,0,0,0-.61-1.86Z" transform="translate(0 -0.04)"/><path class="cls-50" d="M21.55,12.34A2.76,2.76,0,0,1,21,10.55a2.92,2.92,0,0,1,.6-1.86,2.23,2.23,0,0,1,1.82-.85h2.78v1H23.62a1,1,0,0,0-.92.52,1.94,1.94,0,0,0-.31,1.11,2.16,2.16,0,0,0,.31,1.16,1.05,1.05,0,0,0,.92.54h2.54v1H23.38a2.24,2.24,0,0,1-1.83-.81" transform="translate(0 -0.04)"/><path class="cls-50" d="M28.52,7.84v5.32H27.17V7.84h1.35" transform="translate(0 -0.04)"/><path class="cls-50" d="M31.53,11.38l1-2.41a.22.22,0,0,1,.2-.11c.13,0,.18.07.19.12l1,2.4H31.53m4,.35c-.35-.93-.65-1.67-.87-2.21a6.35,6.35,0,0,0-.59-1.25,1.19,1.19,0,0,0-.54-.33,2.79,2.79,0,0,0-1.62,0,1.22,1.22,0,0,0-.55.33,10.73,10.73,0,0,0-.57,1.26l-.89,2.2s-.46,1.22-.55,1.43H30.8l.4-1h3.05s.37.88.4,1h1.43l-.55-1.44Z" transform="translate(0 -0.04)"/><path class="cls-50" d="M16.23,11.38l1-2.41a.22.22,0,0,1,.21-.11.18.18,0,0,1,.19.12l1,2.4H16.23m4,.35c-.36-.93-.66-1.67-.88-2.21a8,8,0,0,0-.58-1.25,1.22,1.22,0,0,0-.55-.33,2.76,2.76,0,0,0-1.61,0,1.22,1.22,0,0,0-.55.33,8.06,8.06,0,0,0-.58,1.26l-.89,2.2-.54,1.43H15.5l.4-1h3l.4,1h1.43Z" transform="translate(0 -0.04)"/><g class="cls-51"><g class="cls-52"><polygon class="cls-53" points="7.59 7.85 32.61 3.93 33.5 11.57 8.48 15.49 7.59 7.85"/></g></g><g class="cls-54"><g class="cls-55"><rect class="cls-56" x="1.82" y="0.98" width="40.37" height="39.34"/></g></g><g class="cls-57"><g class="cls-58"><rect class="cls-59" x="2.24" y="0.96" width="39.53" height="22.98"/></g></g></svg>