<svg id="katman_1" data-name="katman 1" xmlns="http://www.w3.org/2000/svg" xmlns:xlink="http://www.w3.org/1999/xlink" viewBox="0 0 44 45"><defs><style>.cls-1{fill:none;}.cls-2{fill:#231f20;}.cls-3{fill:#bdbcbc;}.cls-4{clip-path:url(#clip-path);}.cls-5{fill:url(#Adsız_degrade);}.cls-6{stroke:#6d0115;stroke-miterlimit:33.9;stroke-width:0.25px;fill:url(#Adsız_degrade_2);}.cls-7{fill:#6d0115;}.cls-8{fill:#1a1a1a;}.cls-9{fill:url(#Adsız_degrade_3);}.cls-10{fill:url(#Adsız_degrade_5);}</style><clipPath id="clip-path" transform="translate(-1227.7 -1227.7)"><path class="cls-1" d="M1269.1,1246.82l0,.23C1269.37,1249.5,1269.48,1248.85,1269.1,1246.82Zm-35.93-10.31s1.91-1.8,3.28-3.13A11.4,11.4,0,0,0,1233.17,1236.51Zm-.51,23.93a25.38,25.38,0,0,0,2.15,3.69S1233.79,1262.56,1232.66,1260.44Zm35.47-21.46-.36-1.06,3.18,1.15-3.08-1.61,3.13-1.89-3.44,1.44.55-3.51-1.11,3.39-.81-.24c-1.69-2.57-4-3.86-6.94-5.3-5.45-2.67-12.7-2-12.7-2s8.56.11,15.11,4.08a11.89,11.89,0,0,1,3.42,3.25l-1.41.08,1.62.21c.15.22.3.44.44.67l-1.88,1.11,2-.87c.2.34.4.69.59,1l-.8,2.57.95-2.29a29.46,29.46,0,0,1,2.48,7.57,26.44,26.44,0,0,0-2-8.62l.07-.17s3.55,4.74,2.92,12.53-2.46,10.53-4.28,12.43l-.09-1s-2.64,8.07-15.75,7.88-14.11-4.55-14.11-4.55l-.73-.39s-3.09-2.46-5-9a21.35,21.35,0,0,1-.1-11.87,26,26,0,0,0-.27,8.83,27.5,27.5,0,0,0,3,7.51,22.6,22.6,0,0,1-2.13-6.75c-.73-5.6-.55-9.4.36-12.24s1.46-4.09,1.46-4.09-3.82,4.56-3.91,14.24,7.92,16.33,11.47,17.75,14.74,3.32,21.48-1.52,6.28-6.07,8.46-10.53,1.28-13.48-1.72-18.32Zm-1.6-1.78,0,0h.07Zm.31.57-.11-.22.21-.09-.1.31Zm-32-.41c.55-.94,3.37-2.65,3.37-2.65a15.07,15.07,0,0,0-3.28,3c-1.73,2.09.64-.19,3.82-2.37s7.65-2,7.65-2-1.46-1.14-7,.66l5.37-2.37s-8.19,1.8-10.56,5.22.09,1.42.64.47Zm27.4-.3c1,1.07,1.73,2,1.73,2A4.59,4.59,0,0,0,1262.21,1237.06Zm-31.13,14c1,10.06,5.19,14.34,5.19,14.34s3.18,3.22,13.1,3.7,13.11-3.52,13.39-4.18-1.28.38-1.73.19,1.45-3.7,1.45-3.7c-1,3.8.55-.57,1.55-.1s-2,1.71-1,2.66,3.09-5.79,4.46-8.83.91-6.17.82-8.16a7.3,7.3,0,0,0-.55-2.85l-.27,4.75s.18.66-1.28-2.66L1265,1243c-.82,14.81-4.1,20.41-4.1,20.41s-1.18,3.7-10.74,3.8-10.92-2.47-10.92-2.47c-3.1-4.18-4.92-13.1-4.46-19s0-7.5,4.1-9.3,10.28-2,10.28-2c7.44-.21,11.17,1.29,13,2.64-.24-.25-.48-.5-.73-.74-1.36-1.33-14-4.08-20.66-1.42s-7.1,5.22-6.65,13,2.82,14.24,4.46,16.71,7.47,3.22,7.47,3.22c-7.92-.19-8.83-4.46-9.29-5.22s-1.82-2.28-2.09-1-2.72-6.31-2.27-6.69,3.27,3.84,3.27,3.84-1-2.09-2-8,.54-8.83-.46-9,1.25,8.68-1.62,9.08c-.82.11-.14-7.85.22-9.46a5.6,5.6,0,0,1,.76-2.09s-2.54,1.71-1.54,11.77"/></clipPath><linearGradient id="Adsız_degrade" x1="-1598.73" y1="1523.97" x2="-1588.65" y2="1514.34" gradientTransform="translate(4546.6 -1892.66) scale(2.08)" gradientUnits="userSpaceOnUse"><stop offset="0" stop-color="#8c8c8c"/><stop offset="0.5" stop-color="#464646"/><stop offset="0.75" stop-color="#fff"/><stop offset="1" stop-color="#fff"/></linearGradient><radialGradient id="Adsız_degrade_2" cx="-1823.91" cy="1182.79" r="1.75" gradientTransform="translate(16497.23 -9558.67) scale(8.36 9.14)" gradientUnits="userSpaceOnUse"><stop offset="0" stop-color="#e60a47"/><stop offset="1" stop-color="#7c0626"/></radialGradient><radialGradient id="Adsız_degrade_3" cx="-1403.15" cy="1411.25" r="0.98" gradientTransform="translate(24022 -19073.14) scale(16.23 14.4)" gradientUnits="userSpaceOnUse"><stop offset="0" stop-color="#d3d1d2"/><stop offset="0.5" stop-color="#c9c7c8"/><stop offset="1" stop-color="#8d8b8c"/></radialGradient><radialGradient id="Adsız_degrade_5" cx="-1403.15" cy="1411.25" r="0.98" xlink:href="#Adsız_degrade_3"/></defs><path class="cls-2" d="M1271.7,1250.2a22,22,0,1,1-22-22.5,22.26,22.26,0,0,1,22,22.5" transform="translate(-1227.7 -1227.7)"/><path class="cls-3" d="M1270.93,1250.2a21.24,21.24,0,1,1-21.23-21.71,21.48,21.48,0,0,1,21.23,21.71" transform="translate(-1227.7 -1227.7)"/><path class="cls-2" d="M1232.62,1239.26s-2.35.39-2.35.4-.12,12.39,2,11.77c1.42-.68.65-8.72.65-7.64a57.17,57.17,0,0,0,.71,7.86c.64,4.37.37,4.92.67,5.86a4.7,4.7,0,0,0-1.77-1l1.53,5.27h1.12s0-.35,0-.37a2.47,2.47,0,0,1,1.85,1.47c4.29,8,15.57,4.94,12.62,5.11l4.65-.57c-13.62,2.38-16.18-4-16.86-5.32a2.3,2.3,0,0,0-2.44-.94s1.89.08,1.81-.43c.59.58-1.47-1-1.47-1l.1.33c.32,0,.18-.32.51-.38l-.41-.19c-.06-.07.23-.42-.79-7.43a51.44,51.44,0,0,1-.45-8.34,5.18,5.18,0,0,0-.09-1.56l-.83-.55-.16,0a2.19,2.19,0,0,1-.55-.18.6.6,0,0,0,.08-.35c0-.16,0-.38,0-.66s0-1.7-.07-1.26c-2.64,23.48,1-2.62.57-2.12l.26-.3c1.24-1.47,5.59-4.91,16.82-5.17,11.88-.29,11.93,4.15,12,4.21l3.08,1.56c0-.07-4-6.85-16.1-6.56-11.36.27-14.73,4.25-16,5.75l-.26.3c-.52.58-1.12.58-1.12,1.44,0,.46-.5,1.07-.47,1.45,1.47,2.63,1,1.33,1.17-.46Zm32.48-1.13c-.26.12-.22.55-.17,1.14a4.35,4.35,0,0,1,0,1.3l.3.07a4.67,4.67,0,0,0,0-1.4,2.54,2.54,0,0,1,0-.83s.1,3.36.77,4.16c1.07,1.27.54.54.54,2.75,0,1.09.79,2.36.76,2.8a7.51,7.51,0,0,1-.61-3c-.12-1.38-.22-2.58-.7-3,.59-.53-1.46-3.32-1.32-1.43a11.72,11.72,0,0,0-.68-2.21c-1.4-2.23-4.3-4.84-14.4-5.2-9.24-.32-13.83,3.56-15,4.74l.16-.27-1.51-.79-.42,4.6.64-1s1-1.92,1.06-2,4.54-5.32,15.07-5c11.23.4,13.28,3.66,14.15,5.05a4.93,4.93,0,0,1,.63,2.09c.13.87.26,1.69,1.21,1.56a.31.31,0,0,1,.23.06c.38.32.48,1.56.59,2.76.13,1.58.26,3.08,1,3.45l.2.1,0-.23c0-.29.64-7.15-1.26-9.4-.74-.88-1-1-1.22-.92Zm4.06,5.69a13,13,0,0,0-.86-2.65A17.09,17.09,0,0,1,1269.16,1243.82Zm-.86-2.65c0-.1-.09-.2-.13-.31A2.88,2.88,0,0,0,1268.3,1241.17Zm-1-2.27c2.51,2.47,2.06,8.86,2.06,8.86l-1.22-1.45v6.19l-.84,1.74c-1.51,8.22-5.07,15.47-19.07,15.08s-16.15-8-17.46-15.28.56-15.17.56-15.17c-4.13,12.56.75,22,.75,22s2.35,8.89,16.81,8.8,16.72-8.32,16.72-8.32l.26,2.08s3.36-3.15,4.39-9.72c.52-3.33-1.5-13.41-3-14.85Zm.83,2-.08-.16a.8.8,0,0,0,.08.16" transform="translate(-1227.7 -1227.7)"/><g class="cls-4"><path class="cls-5" d="M1269.1,1246.82Zm-35.93-10.31s1.91-1.8,3.28-3.13A11.4,11.4,0,0,0,1233.17,1236.51Zm-.51,23.93a25.38,25.38,0,0,0,2.15,3.69S1233.79,1262.56,1232.66,1260.44Zm35.47-21.46-.36-1.06,3.18,1.15-3.08-1.61,3.13-1.89-3.44,1.44.55-3.51-1.11,3.39-.81-.24c-1.69-2.57-4-3.86-6.94-5.3-5.45-2.67-12.7-2-12.7-2s8.56.11,15.11,4.08a11.89,11.89,0,0,1,3.42,3.25l-1.41.08,1.62.21c.15.22.3.44.44.67l-1.88,1.11,2-.87c.2.34.4.69.59,1l-.8,2.57.95-2.29a29.46,29.46,0,0,1,2.48,7.57,26.44,26.44,0,0,0-2-8.62l.07-.17s3.55,4.74,2.92,12.53-2.46,10.53-4.28,12.43l-.09-1s-2.64,8.07-15.75,7.88-14.11-4.55-14.11-4.55l-.73-.39s-3.09-2.46-5-9a21.35,21.35,0,0,1-.1-11.87,26,26,0,0,0-.27,8.83,27.5,27.5,0,0,0,3,7.51,22.6,22.6,0,0,1-2.13-6.75c-.73-5.6-.55-9.4.36-12.24s1.46-4.09,1.46-4.09-3.82,4.56-3.91,14.24,7.92,16.33,11.47,17.75,14.74,3.32,21.48-1.52,6.28-6.07,8.46-10.53,1.28-13.48-1.72-18.32Zm-1.6-1.78,0,0h.07Zm.31.57-.11-.22.21-.09-.1.31Zm-32-.41c.55-.94,3.37-2.65,3.37-2.65a15.07,15.07,0,0,0-3.28,3c-1.73,2.09.64-.19,3.82-2.37s7.65-2,7.65-2-1.46-1.14-7,.66l5.37-2.37s-8.19,1.8-10.56,5.22.09,1.42.64.47Zm27.4-.3c1,1.07,1.73,2,1.73,2A4.59,4.59,0,0,0,1262.21,1237.06Zm-31.13,14c1,10.06,5.19,14.34,5.19,14.34s3.18,3.22,13.1,3.7,13.11-3.52,13.39-4.18-1.28.38-1.73.19,1.45-3.7,1.45-3.7c-1,3.8.55-.57,1.55-.1s-2,1.71-1,2.66,3.09-5.79,4.46-8.83.91-6.17.82-8.16a7.3,7.3,0,0,0-.55-2.85l-.27,4.75s.18.66-1.28-2.66L1265,1243c-.82,14.81-4.1,20.41-4.1,20.41s-1.18,3.7-10.74,3.8-10.92-2.47-10.92-2.47c-3.1-4.18-4.92-13.1-4.46-19s0-7.5,4.1-9.3,10.28-2,10.28-2c7.44-.21,11.17,1.29,13,2.64-.24-.25-.48-.5-.73-.74-1.36-1.33-14-4.08-20.66-1.42s-7.1,5.22-6.65,13,2.82,14.24,4.46,16.71,7.47,3.22,7.47,3.22c-7.92-.19-8.83-4.46-9.29-5.22s-1.82-2.28-2.09-1-2.72-6.31-2.27-6.69,3.27,3.84,3.27,3.84-1-2.09-2-8,.54-8.83-.46-9,1.25,8.68-1.62,9.08c-.82.11-.14-7.85.22-9.46a5.6,5.6,0,0,1,.76-2.09s-2.54,1.71-1.54,11.77" transform="translate(-1227.7 -1227.7)"/></g><path class="cls-6" d="M1251.05,1266.54a27.77,27.77,0,0,0,4.26-.57,17.41,17.41,0,0,0,3.25-1.15h0a5.33,5.33,0,0,0,1.38-.89,3.72,3.72,0,0,0,.77-1.2s.93-2.54,1.63-5.24c.65-2.47,1.09-5.21,1.09-5.24a45.94,45.94,0,0,0,.69-5.74,41.38,41.38,0,0,0-.13-5.31,7.47,7.47,0,0,0-.78-2.78,4.25,4.25,0,0,0-1.73-1.46h0a17.69,17.69,0,0,0-3.82-1.23,38.83,38.83,0,0,0-7-.81,42.6,42.6,0,0,0-7.52.5,22.66,22.66,0,0,0-4.15,1.1h0a5.39,5.39,0,0,0-2.5,1.56,6.57,6.57,0,0,0-1,3h0s-.18,1.61-.18,3.56c0,.36,0,.72,0,1.08a54.26,54.26,0,0,0,.55,5.52s.6,3.41,1.29,6.27c.51,2.11,1.17,4,1.18,4v0h0a7.71,7.71,0,0,0,.59,1.62,3.19,3.19,0,0,0,.8.92h0a5.05,5.05,0,0,0,.81.55c.57.31,1.33.66,1.36.67a18.21,18.21,0,0,0,3.94,1A39.76,39.76,0,0,0,1251.05,1266.54Z" transform="translate(-1227.7 -1227.7)"/><path class="cls-7" d="M1241.05,1264.73l-.16-.07-.08,0v-.1a84.86,84.86,0,0,1-1.2-11.27c-.24-5.84-.24-13-.21-16.46v-.25l.2-.07v.25c0,3.44,0,10.65.21,16.52a85.71,85.71,0,0,0,1.21,11.37l0,.12Z" transform="translate(-1227.7 -1227.7)"/><path class="cls-7" d="M1241.7,1265l-.23-.1,0-.16c-.28-2.09-.79-6.37-1-11.85-.26-5.82-.22-13.13-.17-16.46v-.18l.2-.06v.2c0,3.3-.08,10.65.17,16.49.25,5.6.78,9.95,1.06,12Zm4.88-29.66c.05,6.45.2,25.05.25,30.43v.46l-.21,0v-.43c0-5.38-.2-23.93-.25-30.4v-.19h.21Zm2.7-.08.1,30.67v.43h-.21v-.49c0-6.4-.08-25.13-.1-30.68v-.14h.21v.22Zm1,0-.15,30.64v.41H1250V1266c0-5.44.12-24.5.15-30.76v-.21h.21Zm2.8,30.53c.15-2.52.43-7.87.55-13.92s.07-13.18,0-16.47v-.21l.25,0v.27c0,3.33.09,10.28,0,16.4s-.39,11.3-.54,13.85l0,.37-.26,0Zm7.09-2.5c-.1.13-.21.26-.32.38l.1-.54a86.92,86.92,0,0,0,1.27-10c.33-5,.38-11.74.37-15.6v-.37l.25.15v.49c0,3.9-.05,10.49-.37,15.35a87.72,87.72,0,0,1-1.25,9.91Zm2.4-8.33c.2-1.59.35-3.19.46-4.8.25-3.78.26-8.07.22-10.8V1239a6,6,0,0,1,.26.71v.43c0,2.73,0,6.64-.23,10.13,0,.71-.11,1.43-.17,2.14l-.08.77c-.18.95-.38,1.89-.58,2.83l.12-1Z" transform="translate(-1227.7 -1227.7)"/><path class="cls-7" d="M1259.33,1264.17c-.08,0-.17.12-.28.18l.07-.43a94.32,94.32,0,0,0,1.32-11.53c.28-5.42.28-11.87.26-15.17v-.47l.25.1v.43c0,3.32,0,9.73-.26,15.12a96.24,96.24,0,0,1-1.28,11.34l-.08.43Zm-3.06,1.07c.19-2.18.55-6.69.73-12.14.19-6.12.19-13.36.18-16.86v-.5l.26.06v.48c0,3.51,0,10.73-.18,16.83-.17,5.41-.53,9.9-.73,12.1l0,.27-.26.08Zm-.86.21c.21-1.86.57-5.45.71-10.11.21-6.8.19-15.37.16-19.33v-.44l.24,0v.46c0,4,0,12.51-.16,19.27-.14,4.6-.49,8.16-.71,10l0,.34-.25.07,0-.34Zm-.7.15c.17-2,.46-5.84.6-10.56.19-6.59.14-14.94.09-19.3v-.31l.25,0v.41c0,4.4.09,12.64-.1,19.17-.13,4.64-.41,8.48-.58,10.47l0,.36-.25,0,0-.33Zm-.81.16c.14-2.28.41-7.06.53-12.19.16-6.81.16-14.42.16-18v-.27l.25,0v.3c0,3.58,0,11.14-.16,17.92-.12,5.06-.38,9.79-.53,12.11l0,.34-.25,0,0-.32Zm-.86-30.28c0,3.64,0,11.9-.16,19-.07,3.78-.17,7.57-.32,11.35l0,.45-.21,0,0-.4c.09-2.19.24-6.49.32-11.43.12-7.08.15-15.39.16-19v-.25l.21,0v.29Zm-1-.17c0,3.21.08,9.5,0,15.43,0,6.42-.18,12.54-.24,15.18v.37h-.21V1266c.06-2.6.2-8.78.24-15.25,0-5.89,0-12.15,0-15.38v-.25h.21v.19Zm-.81,0c0,3.69.1,10.29.07,16.51,0,5.79-.15,11.33-.22,14.23v.3h-.21V1266c.08-2.91.2-8.43.22-14.19,0-6.19,0-12.75-.07-16.45v-.27h.21v.2Zm-7.34,30.46-.22-.06v-.14c-.17-1.92-.52-6.25-.67-11.33-.19-6.48-.12-14.59-.08-18.4v-.17l.21,0v.17c0,3.79-.11,11.92.08,18.42.14,5.15.5,9.52.67,11.4l0,.14Zm-1.41-.44-.22-.08,0-.16c-.31-2.71-.93-8.56-1.12-14.77-.17-5.26,0-11.12.07-14.07V1236l.2,0v.18c-.09,2.92-.24,8.84-.07,14.14.19,6.3.82,12.23,1.13,14.87l0,.15Zm-5.91-10.8c-.25-1.26-.4-2.19-.41-2.2l0-.56c-.15-1.89-.28-4-.31-5.81,0-2.13,0-4.27,0-5.86v-.21a6.39,6.39,0,0,1,.24-.74l0,1.14c0,1.57,0,3.62,0,5.67,0,2.28.24,5.07.43,7.26l.11,1.31Zm1.8,6.74-.48-1.5-.12-.74a52.54,52.54,0,0,1-.69-5.64c-.43-5.31-.45-11.43-.42-14.69v-.6l.21-.21v.56c0,3.19,0,9.49.41,14.93a61.18,61.18,0,0,0,.86,6.6Zm1,1.12a74.76,74.76,0,0,1-1.23-9c-.42-5.63-.41-12.25-.37-15.53v-.68l-.22.12v.56c0,3.29,0,9.92.37,15.55a77.71,77.71,0,0,0,1.22,8.94l.27,1.28.14.15.12.11-.31-1.54Zm3.75,3.05c-.19-1.78-.53-5.37-.67-9.71-.24-7.14-.25-16-.25-19.75v-.18l-.21,0v.15c0,3.72,0,12.61.24,19.74.14,4.24.47,7.77.66,9.59l0,.16.22.07,0-.12Z" transform="translate(-1227.7 -1227.7)"/><path class="cls-7" d="M1238.71,1236.79l-.21.08v.32c-.07,3.33-.16,10,.1,14.37a95.82,95.82,0,0,0,1.5,12.49l0,.19.25.15-.05-.23a94.2,94.2,0,0,1-1.53-12.61c-.26-4.41-.17-11.14-.1-14.44v-.33m5.27-1.3-.21,0v.18c0,3.47-.08,10.33,0,16.34.11,5.71.45,10.92.65,13.5l0,.36.21,0,0-.32c-.19-2.54-.54-7.8-.65-13.59-.11-6-.06-12.88,0-16.35v-.19Zm.89-.12-.22,0v.17c-.05,2.83-.13,8.68,0,14.51.12,6.63.46,12.89.63,15.64v.33l.22,0,0-.36c-.16-2.74-.5-9-.63-15.64-.11-5.84,0-11.7,0-14.52v-.19Zm.85-.09-.21,0v.17c0,3-.06,9.42,0,15.62.07,6,.25,11.94.34,14.66v.39l.21,0v-.42c-.09-2.72-.27-8.66-.34-14.67-.07-6.22,0-12.63,0-15.65v-.15Zm1.8-.15h-.22v.12c0,5.57.16,24.55.19,30.7v.37h.21V1266c0-6.14-.16-25.17-.2-30.72v-.12Zm.87,0h-.21v.2l0,30.57v.51h.21v-.53c0-5.72,0-24.67-.06-30.56v-.21ZM1257,1265c.3-2.58.85-7.92,1.08-14.32.17-4.77,0-11.17-.06-14.36v-.35l.25.07,0,.35c.09,3.23.22,9.56,0,14.29-.23,6.4-.78,11.74-1.08,14.33l0,.3-.27.09,0-.4Z" transform="translate(-1227.7 -1227.7)"/><path class="cls-7" d="M1258,1264.58c.25-2.25.67-6.69.93-12.24.25-5.32.23-12.2.2-15.84v-.26l-.25-.08v.32c0,3.63,0,10.52-.2,15.85-.26,5.61-.69,10.1-.93,12.31l0,.41.26-.13,0-.34Zm.77-.49c.29-2,.69-5.31.92-9.51.34-6.25.4-14.23.41-17.8v-.23l-.24-.09v.24c0,3.52-.07,11.57-.41,17.87-.24,4.37-.66,7.76-1,9.73l0,.39.27-.14.07-.46Zm2.18-2.61s.22-.63.5-1.53l.1-.7c.34-2.33.7-5.23.94-8.37.32-4.19.25-9.29.16-12.36l0-.58-.26-.24,0,.47c.09,3,.18,8.34-.15,12.69-.27,3.65-.71,7-1.1,9.44l-.19,1.18Z" transform="translate(-1227.7 -1227.7)"/><path class="cls-8" d="M1243.35,1252.33v-2.21h-1.85v-5.56h2.41v-2.23h-5l.46,17.09h2.21l0-7.09Zm1.43-10,.28,17.09h2.28l.05-17.09Zm14.65,17.09.47-14.94h1.79l0-2.15h-6.19v2.16h1.8l-.06,14.93Zm-8.6-9.18,0-5.8h1.28a19.06,19.06,0,0,1,1.24,5.8Zm-2,9.18h2.12l0-7.07h2.53c.2,1.25.25,5.1.26,7.07h2c.19-8.73-.41-13.66-2.07-17.09h-5.1l.19,17.09Z" transform="translate(-1227.7 -1227.7)"/><path class="cls-9" d="M1243.62,1249.82h-1.86v-5.56h2.43l0-2.23h-5l.46,17.08h2.21l0-7.08h1.86Z" transform="translate(-1227.7 -1227.7)"/><path class="cls-9" d="M1247.67,1242h-2.61l.28,17.08h2.28Z" transform="translate(-1227.7 -1227.7)"/><path class="cls-10" d="M1257.53,1259.11h2.21l.47-14.93H1262V1242h-6.21v2.15h1.8Z" transform="translate(-1227.7 -1227.7)"/><path class="cls-10" d="M1251.12,1249.93l0-5.8h1.28a19.06,19.06,0,0,1,1.24,5.8Zm-2,9.18h2.12l0-7.06h2.54c.19,1.24.24,5.09.26,7.06h2c.19-8.72-.41-13.65-2.07-17.08h-5.12Z" transform="translate(-1227.7 -1227.7)"/></svg>