<svg id="katman_1" data-name="katman 1" xmlns="http://www.w3.org/2000/svg" xmlns:xlink="http://www.w3.org/1999/xlink" viewBox="0 0 60 30"><defs><style>.cls-1{fill:#c9c9ca;}.cls-2{fill:url(#Adsız_degrade);}.cls-3{fill:url(#Adsız_degrade_2);}.cls-4{fill:url(#Adsız_degrade_3);}.cls-5{fill:url(#Adsız_degrade_4);}.cls-6{fill:url(#Adsız_degrade_5);}.cls-7{fill:url(#Adsız_degrade_6);}.cls-8{fill:url(#Adsız_degrade_7);}.cls-9{fill:url(#Adsız_degrade_8);}.cls-10{fill:url(#Adsız_degrade_9);}.cls-11{fill:url(#Adsız_degrade_10);}.cls-12{fill:url(#Adsız_degrade_11);}.cls-13{fill:url(#Adsız_degrade_12);}.cls-14{fill:url(#Adsız_degrade_13);}.cls-15{fill:url(#Adsız_degrade_14);}.cls-16{fill:url(#Adsız_degrade_15);}.cls-17{fill:url(#Adsız_degrade_16);}.cls-18{fill:url(#Adsız_degrade_17);}.cls-19{fill:url(#Adsız_degrade_18);}.cls-20{fill:url(#Adsız_degrade_19);}.cls-21{fill:url(#Adsız_degrade_20);}.cls-22{fill:url(#Adsız_degrade_21);}.cls-23{fill:url(#Adsız_degrade_22);}.cls-24{fill:url(#Adsız_degrade_23);}.cls-25{fill:#4b4b4b;}.cls-26{fill:url(#Adsız_degrade_24);}.cls-27{fill:url(#Adsız_degrade_25);}.cls-28{fill:#fff;}</style><radialGradient id="Adsız_degrade" cx="-4193.56" cy="213.52" r="14.98" gradientTransform="matrix(8.63, 0, 0, -5.85, 36227.06, 1297.67)" gradientUnits="userSpaceOnUse"><stop offset="0" stop-color="#00082e"/><stop offset="0.15" stop-color="#000a30"/><stop offset="0.24" stop-color="#010f39"/><stop offset="0.31" stop-color="#011946"/><stop offset="0.37" stop-color="#02275a"/><stop offset="0.41" stop-color="#03346c"/><stop offset="0.44" stop-color="#0b4f87"/><stop offset="0.48" stop-color="#1676af"/><stop offset="0.51" stop-color="#1c8ec7"/><stop offset="0.53" stop-color="#1f97d0"/><stop offset="1" stop-color="#1f97d0"/></radialGradient><linearGradient id="Adsız_degrade_2" x1="-4984.76" y1="616.12" x2="-4984.65" y2="616.12" gradientTransform="translate(-179509.54 -1452544.47) rotate(-90) scale(291.4)" gradientUnits="userSpaceOnUse"><stop offset="0" stop-color="#00082e"/><stop offset="0.32" stop-color="#010a30"/><stop offset="0.5" stop-color="#030f39"/><stop offset="0.65" stop-color="#071846"/><stop offset="0.77" stop-color="#0d245a"/><stop offset="0.81" stop-color="#0f2961"/><stop offset="0.84" stop-color="#0b386e"/><stop offset="0.9" stop-color="#054e83"/><stop offset="0.95" stop-color="#015b90"/><stop offset="1" stop-color="#006094"/></linearGradient><linearGradient id="Adsız_degrade_3" x1="-4984.76" y1="1401.89" x2="-4984.65" y2="1401.89" gradientTransform="matrix(0, -291.4, -291.4, 0, 408546.99, -1452545.01)" xlink:href="#Adsız_degrade_2"/><linearGradient id="Adsız_degrade_4" x1="-4993" y1="616.84" x2="-4992.9" y2="616.84" gradientTransform="translate(-126335.98 -1022896.05) rotate(-90) scale(204.87)" xlink:href="#Adsız_degrade_2"/><linearGradient id="Adsız_degrade_5" x1="-4993.06" y1="616.45" x2="-4992.96" y2="616.45" gradientTransform="translate(-125963.08 -1020577.23) rotate(-90) scale(204.4)" xlink:href="#Adsız_degrade_2"/><linearGradient id="Adsız_degrade_6" x1="-4993.06" y1="616.4" x2="-4992.96" y2="616.4" gradientTransform="translate(-125949.5 -1020568.69) rotate(-90) scale(204.4)" xlink:href="#Adsız_degrade_2"/><linearGradient id="Adsız_degrade_7" x1="-4993.05" y1="616.9" x2="-4992.94" y2="616.9" gradientTransform="translate(-126142.67 -1021220.02) rotate(-90) scale(204.53)" xlink:href="#Adsız_degrade_2"/><linearGradient id="Adsız_degrade_8" x1="-4993.03" y1="616.54" x2="-4992.92" y2="616.54" gradientTransform="translate(-126147.51 -1021914.49) rotate(-90) scale(204.67)" xlink:href="#Adsız_degrade_2"/><linearGradient id="Adsız_degrade_9" x1="-4993.09" y1="617.34" x2="-4992.99" y2="617.34" gradientTransform="translate(-126038.77 -1019604.34) rotate(-90) scale(204.21)" xlink:href="#Adsız_degrade_2"/><linearGradient id="Adsız_degrade_10" x1="-4993.06" y1="616.94" x2="-4992.95" y2="616.94" gradientTransform="translate(-126099.23 -1020808.77) rotate(-90) scale(204.45)" xlink:href="#Adsız_degrade_2"/><linearGradient id="Adsız_degrade_11" x1="-4992.83" y1="616.43" x2="-4992.72" y2="616.43" gradientTransform="translate(-127054.65 -1029410.58) rotate(-90) scale(206.18)" xlink:href="#Adsız_degrade_2"/><linearGradient id="Adsız_degrade_12" x1="-4992.89" y1="616.75" x2="-4992.79" y2="616.75" gradientTransform="translate(-126806.12 -1026838.55) rotate(-90) scale(205.67)" xlink:href="#Adsız_degrade_2"/><linearGradient id="Adsız_degrade_13" x1="-4993.08" y1="616.26" x2="-4992.98" y2="616.26" gradientTransform="translate(-125832.89 -1019865.68) rotate(-90) scale(204.26)" xlink:href="#Adsız_degrade_2"/><linearGradient id="Adsız_degrade_14" x1="-4993.05" y1="617.15" x2="-4992.95" y2="617.15" gradientTransform="translate(-126170.17 -1021001.63) rotate(-90) scale(204.49)" xlink:href="#Adsız_degrade_2"/><linearGradient id="Adsız_degrade_15" x1="-4993.06" y1="617.29" x2="-4992.96" y2="617.29" gradientTransform="translate(-126155.56 -1020624.44) rotate(-90) scale(204.41)" xlink:href="#Adsız_degrade_2"/><linearGradient id="Adsız_degrade_16" x1="-4993.08" y1="617.99" x2="-4992.98" y2="617.99" gradientTransform="translate(-126205.93 -1019784.26) rotate(-90) scale(204.24)" xlink:href="#Adsız_degrade_2"/><linearGradient id="Adsız_degrade_17" x1="-4992.82" y1="617.54" x2="-4992.72" y2="617.54" gradientTransform="translate(-127301.57 -1029388.37) rotate(-90) scale(206.18)" xlink:href="#Adsız_degrade_2"/><linearGradient id="Adsız_degrade_18" x1="-4993.07" y1="617.7" x2="-4992.97" y2="617.7" gradientTransform="translate(-126210.09 -1020341.36) rotate(-90) scale(204.36)" xlink:href="#Adsız_degrade_2"/><linearGradient id="Adsız_degrade_19" x1="-4992.96" y1="617.66" x2="-4992.86" y2="617.66" gradientTransform="translate(-126680.84 -1024189.83) rotate(-90) scale(205.13)" xlink:href="#Adsız_degrade_2"/><linearGradient id="Adsız_degrade_20" x1="-4993.08" y1="617.05" x2="-4992.98" y2="617.05" gradientTransform="translate(-126000.02 -1019805.73) rotate(-90) scale(204.25)" xlink:href="#Adsız_degrade_2"/><linearGradient id="Adsız_degrade_21" x1="-4993.02" y1="617.28" x2="-4992.92" y2="617.28" gradientTransform="translate(-126336.23 -1022098.55) rotate(-90) scale(204.71)" xlink:href="#Adsız_degrade_2"/><linearGradient id="Adsız_degrade_22" x1="-4993.08" y1="617.26" x2="-4992.98" y2="617.26" gradientTransform="translate(-126061.35 -1019925.63) rotate(-90) scale(204.27)" xlink:href="#Adsız_degrade_2"/><linearGradient id="Adsız_degrade_23" x1="-4993.07" y1="617.77" x2="-4992.97" y2="617.77" gradientTransform="translate(-126202.46 -1020161.31) rotate(-90) scale(204.32)" xlink:href="#Adsız_degrade_2"/><linearGradient id="Adsız_degrade_24" x1="-4981.84" y1="611.77" x2="-4981.73" y2="611.77" gradientTransform="translate(-642296.23 -1589695.55) rotate(-105) scale(341.6)" gradientUnits="userSpaceOnUse"><stop offset="0" stop-color="#a5a5a6"/><stop offset="0.35" stop-color="#d7d7d7"/><stop offset="0.65" stop-color="#d7d7d7"/><stop offset="1" stop-color="#a5a5a6"/></linearGradient><linearGradient id="Adsız_degrade_25" x1="-4192.28" y1="518.89" x2="-4193.5" y2="523.47" gradientTransform="matrix(8.63, 0, 0, -8.63, 36227.06, 4495.12)" xlink:href="#Adsız_degrade_24"/></defs><path class="cls-1" d="M30.56,0C13.91,0,.57,6.66.57,15S14,30,30.56,30s30-6.73,30-15S47.11,0,30.56,0M60.38,13.84l0,.22,0-.22" transform="translate(-0.57 0)"/><path class="cls-2" d="M30.57.6C14.25.6,1,7,1,15S14.25,29.38,30.57,29.38,60.1,23,60.1,15,46.89.6,30.57.6" transform="translate(-0.57 0)"/><path class="cls-3" d="M30.7,3.62C44.58,3.62,56,8.14,57.78,14h0C56.61,7.83,44.87,3,30.56,3,15.48,3,3.25,8.37,3.25,15a5.38,5.38,0,0,0,.24,1.59,5.16,5.16,0,0,1-.1-1C3.39,9,15.61,3.62,30.7,3.62Z" transform="translate(-0.57 0)"/><path class="cls-4" d="M58.69,13.49A6.37,6.37,0,0,1,58.87,15c0,7.25-12.67,13.13-28.31,13.13-13.91,0-25.48-4.66-27.86-10.79,1.81,6.38,13.64,11.3,28,11.32h.17c15.59,0,28.22-5.84,28.22-13a6.37,6.37,0,0,0-.38-2.15Z" transform="translate(-0.57 0)"/><path class="cls-5" d="M36,17a1.75,1.75,0,0,1,0-.69c0-.08-.07-.15-.13-.06a2.3,2.3,0,0,0-.27,2.53.7.7,0,0,0,.5.28A2.4,2.4,0,0,1,36,17Z" transform="translate(-0.57 0)"/><path class="cls-6" d="M42.43,18.72h0c0-.09.07-.18.1-.27s0-.09,0-.11a.25.25,0,0,1-.14-.16v0h0c0,.13,0,.38,0,.57Z" transform="translate(-0.57 0)"/><path class="cls-7" d="M43.15,15.26a1.81,1.81,0,0,1,.37.9c0,.15.09.16.16,0a.49.49,0,0,1,.06-.13l-.06-.1c-.17-.25-.34-.48-.53-.71Z" transform="translate(-0.57 0)"/><path class="cls-8" d="M34.37,14.71A2.68,2.68,0,0,1,34.61,16c0,.14.08.13.13,0l.08-.15h0a4.11,4.11,0,0,0-.45-1.19Z" transform="translate(-0.57 0)"/><path class="cls-9" d="M42.27,16.21c-.53-.34-1.32.28-2.05,1.46a5.74,5.74,0,0,0-.92,2.91,1.18,1.18,0,0,0,.32.92.7.7,0,0,0,.23.11,1.72,1.72,0,0,1,0-.39,5.45,5.45,0,0,1,.81-2.95c.72-1.18,1.47-1.77,2-1.44a.79.79,0,0,0-.35-.62Z" transform="translate(-0.57 0)"/><path class="cls-10" d="M26.63,18.17a4.22,4.22,0,0,1,1.88-1.78.22.22,0,0,0,.09-.24c0-.18-.13-.65-.16-.76a.17.17,0,0,1-.09.22,5.07,5.07,0,0,0-2.17,2,3.69,3.69,0,0,0-.37,3.26,1.11,1.11,0,0,0,.35.41,4.67,4.67,0,0,1,.47-3.15Z" transform="translate(-0.57 0)"/><path class="cls-11" d="M30.67,24.08h1.66a.17.17,0,0,0,.15-.12c.68-1.41,1.4-2.94,2.09-4.35A2.86,2.86,0,0,0,35.08,21a1.08,1.08,0,0,0,.94.43A2.37,2.37,0,0,0,37.14,21a2.13,2.13,0,0,0,.4-.29,6.49,6.49,0,0,1,.05-.77s0-.2-.13-.1a2.74,2.74,0,0,1-.75.54,1.74,1.74,0,0,1-.91.26,1.28,1.28,0,0,1-1.13-.85,3.19,3.19,0,0,1-.24-1.15s0-.11-.08,0c-.75,1.52-1.44,3-2.19,4.54,0,.08-.07.12-.15.13H30.55a.1.1,0,0,1-.1-.08c0,.23.1.66.12.76s.05.11.1.11Z" transform="translate(-0.57 0)"/><path class="cls-12" d="M37.94,23.23a2.06,2.06,0,0,0,.57.8c1,.64,2.36-.09,3.26-1.23,0,0,0,0,0,0,0,.21.09.46.1.49a2,2,0,0,0,.24.64c.61.92,1.9.5,3.25-.89a15.53,15.53,0,0,0,2-2.62c0-.05,0-.11,0-.21s-.1-.65-.14-.86a.36.36,0,0,1,0,.1,18.5,18.5,0,0,1-2.26,3c-1.18,1.22-2.35,1.53-2.93.75a1.94,1.94,0,0,1-.35-1.06c0-.19-.08-.2-.15-.11-.69.92-1.89,1.93-3,1.21a2.54,2.54,0,0,1-1-1.84v0a7.64,7.64,0,0,0,.35,1.81Z" transform="translate(-0.57 0)"/><path class="cls-13" d="M37.45,18.27a1.91,1.91,0,0,0,.64-1.71,4,4,0,0,0-.27-1.28,2,2,0,0,1,.11.92,1.83,1.83,0,0,1-.71,1.35.72.72,0,0,1-1-.14A1.18,1.18,0,0,1,36,17a3.59,3.59,0,0,0,.22.93A.73.73,0,0,0,37.45,18.27Z" transform="translate(-0.57 0)"/><path class="cls-14" d="M48.19,10.7c-.23.52-4.62,9.44-4.9,10.37a.86.86,0,0,0,0,.67.38.38,0,0,0,.37.22,3.28,3.28,0,0,1,.09-.37c.28-.93,4.39-9.27,4.62-9.79a.31.31,0,0,0,0-.13c0-.09-.15-1-.17-1.06a.14.14,0,0,1,0,.09Z" transform="translate(-0.57 0)"/><path class="cls-15" d="M30,14.85a.1.1,0,0,0,0,.05,5.12,5.12,0,0,1,.42,2c0,.16.07.17.12.08s.11-.15.16-.22a8.39,8.39,0,0,0-.32-1.13,3.72,3.72,0,0,0-.42-.81Z" transform="translate(-0.57 0)"/><path class="cls-16" d="M22.86,23.19a.17.17,0,0,0,.2,0,4.69,4.69,0,0,0,1-1.09c.06-.08.13,0,.15.06a4.8,4.8,0,0,0,.39,1,1.73,1.73,0,0,0,.94.9,2.28,2.28,0,0,0,2-.16,5.49,5.49,0,0,0,1.83-1.75,18.56,18.56,0,0,0,1.09-1.87,19,19,0,0,1,1.91-2.85c.31-.35.64-.57.86-.46.12-.44.06-.68-.07-.8s-.62.09-1,.44A16.94,16.94,0,0,0,30,19.73,17.9,17.9,0,0,1,29,21.6c-1,1.42-2.27,2.23-3.52,1.67a2.63,2.63,0,0,1-1.36-1.94c0-.17-.11-.22-.19-.11a6.16,6.16,0,0,1-.95,1.15s-.13.1-.21.05a2.55,2.55,0,0,1-.38-.66l0-.05h0a2.75,2.75,0,0,0,.23.93A2.07,2.07,0,0,0,22.86,23.19Z" transform="translate(-0.57 0)"/><path class="cls-17" d="M15.33,17.86a3.56,3.56,0,0,1,1.19-1.62c.19-.16.27-.31.16-.73,0-.11-.05-.33-.08-.51a.47.47,0,0,1-.18.42,4,4,0,0,0-1.49,1.83A2.9,2.9,0,0,0,15,19.57a1.18,1.18,0,0,0,.11.19h0a3.62,3.62,0,0,1,.21-1.9Z" transform="translate(-0.57 0)"/><path class="cls-18" d="M20.78,7.56c1.94-.85,4.1-.31,5.84.18a8,8,0,0,1,.67-.49c.1-.08,0-.17-.05-.17C25,6.52,22.67,5.8,20.45,6.89a3.23,3.23,0,0,0-1.89,3.49,1,1,0,0,0,.29.48,3.41,3.41,0,0,1,1.93-3.3Z" transform="translate(-0.57 0)"/><path class="cls-19" d="M14.48,23.18a2.8,2.8,0,0,0,2,.81c1.48,0,2.84-.78,4.27-2.72a41.4,41.4,0,0,0,3.75-7.06c0-.09.08-.13.28-.16.74-.13,1.4-.18,2.05-.26.19,0,.34,0,.41,0a4.27,4.27,0,0,0,.69.74.4.4,0,0,1,.3.13.41.41,0,0,0,.19-.13.5.5,0,0,0,.07-.35,5.54,5.54,0,0,0-.12-.76.41.41,0,0,1-.06.33.29.29,0,0,1-.24.15c-.08,0-.13,0-.24-.12a2.35,2.35,0,0,1-.67-.72c-.06-.1-.09-.11-.25-.09-.7.05-1.79.19-2.52.31-.18,0-.21.08-.24.16a43.42,43.42,0,0,1-3.81,7.23c-1.48,2-2.71,2.53-4,2.54-1.51,0-2.85-1.12-3.18-3.12h0a6.1,6.1,0,0,0,1.34,3Z" transform="translate(-0.57 0)"/><path class="cls-20" d="M20,14.5a.59.59,0,0,1-.05-.23,2.62,2.62,0,0,0,.16,1,.32.32,0,0,0,.54.08A2.85,2.85,0,0,1,22,14.53c.12-.22.25-.45.39-.72,0,0,0-.05,0-.06s0,0,0,0a2.58,2.58,0,0,0-1.81.85A.3.3,0,0,1,20,14.5Z" transform="translate(-0.57 0)"/><path class="cls-21" d="M38.16,8.44a4.79,4.79,0,0,1-2.92.9c-2.46,0-4.75-1.25-7.12-1.94,0,.14,0,.31-.06.39a14.12,14.12,0,0,0-3.3,4.45s0,.08,0,.08l.61,0a11.64,11.64,0,0,1,2.68-3.55c.09-.09.18-.15.15-.49,2.38.71,4.19,1.88,7.26,1.89a5.33,5.33,0,0,0,2.91-1,2.17,2.17,0,0,0,1-1.61,2.6,2.6,0,0,0,0-.5c0-.17,0-.39-.08-.55a1.55,1.55,0,0,1,0,.22,2.31,2.31,0,0,1-1.18,1.72Z" transform="translate(-0.57 0)"/><path class="cls-22" d="M27.88,10.58l-.09.12a1.54,1.54,0,0,0-.27,1.07c0,.14.05.16.1.15a.42.42,0,0,0,.14-.06.86.86,0,0,1,.2-.51.35.35,0,0,1,.33-.14.76.76,0,0,0,0-.66.28.28,0,0,0-.42,0Z" transform="translate(-0.57 0)"/><path class="cls-23" d="M28.83,11.7a1.79,1.79,0,0,1-.95,1,.1.1,0,0,0-.07.11c0,.1.26.32.42.47l.06,0a1.46,1.46,0,0,0,.66-.86,2.31,2.31,0,0,0,.13-1.16,3.9,3.9,0,0,0-.18-.95,2,2,0,0,1-.07,1.38Z" transform="translate(-0.57 0)"/><path class="cls-24" d="M22.22,9.65c-.65,2-1.9,3.66-3.41,3.72A1.9,1.9,0,0,1,17,12.07,4,4,0,0,0,18,13.52a1.68,1.68,0,0,0,1.19.41c1.58-.07,2.78-1.81,3.17-3.27a2.55,2.55,0,0,0,0-1.11A4,4,0,0,0,22.26,9h0a1,1,0,0,1,0,.64Z" transform="translate(-0.57 0)"/><path class="cls-25" d="M30.56,0C13.91,0,.57,6.66.57,15S14,30,30.56,30s30-6.73,30-15S47.11,0,30.56,0M.77,15.16A8.55,8.55,0,0,1,2.57,10C6.86,4.25,18.11.34,30.51.28,46.94.18,60.33,6.72,60.36,14.84A8.43,8.43,0,0,1,58.53,20C54.24,25.73,43,29.66,30.62,29.73,14.19,29.82.8,23.29.77,15.16m59.61-1.32,0,.22,0-.22" transform="translate(-0.57 0)"/><path class="cls-26" d="M.66,15a7.46,7.46,0,0,0,.09,1.16,6.59,6.59,0,0,1-.07-1A8.64,8.64,0,0,1,2.5,9.94C6.82,4.13,18.08.22,30.51.15c1.73,0,3.42.05,5.06.18-1.67-.14-3.34-.2-5-.21C14,.12.66,6.76.66,15Z" transform="translate(-0.57 0)"/><path class="cls-27" d="M58.6,20.05c-4.31,5.78-15.57,9.73-28,9.8-1.72,0-3.44-.05-5.15-.19,1.65.14,3.36.22,5.09.22,16.5,0,29.91-6.72,29.91-14.88a7,7,0,0,0-.06-.92,6.34,6.34,0,0,1,0,.76,8.64,8.64,0,0,1-1.85,5.21" transform="translate(-0.57 0)"/><path class="cls-28" d="M30.56,1.86C14.93,1.86,2.25,7.74,2.25,15S14.93,28.13,30.56,28.13,58.87,22.25,58.87,15,46.2,1.86,30.56,1.86Zm0,25.14C15.48,27,3.25,21.63,3.25,15S15.48,3,30.56,3,57.88,8.37,57.88,15,45.65,27,30.56,27Z" transform="translate(-0.57 0)"/><path class="cls-28" d="M48.19,10.7c0-.09,0-.16-.09-.16H46.59c-.12,0-.17,0-.23.16-.17.44-2.29,4.68-2.68,5.5-.07.12-.15.11-.16,0a1.73,1.73,0,0,0-.86-1.32,1.68,1.68,0,0,0-1.13-.17,3.8,3.8,0,0,0-1.87,1.17c-.82.83-1.53,1.91-2.45,2.71-.49.44-1.18.82-1.64.25a2.3,2.3,0,0,1,.27-2.53c.06-.09.15,0,.13.06a1.42,1.42,0,0,0,.24,1.08.72.72,0,0,0,1,.14,1.83,1.83,0,0,0,.71-1.35,1.5,1.5,0,0,0-1.06-1.76,1.87,1.87,0,0,0-1.53.74,3.76,3.76,0,0,0-.6.88c-.05.1-.13.11-.13,0,0-1.15-.33-1.8-1-1.82a2.33,2.33,0,0,0-1.6.87A19,19,0,0,0,30.53,17c-.05.09-.11.08-.12-.08a5.12,5.12,0,0,0-.42-2,.31.31,0,0,0-.46-.15,3.58,3.58,0,0,0-.54.43.53.53,0,0,0-.09.46,6.92,6.92,0,0,1-.15,3.53,3.51,3.51,0,0,1-1.66,2.21.94.94,0,0,1-1.28-.47,3.69,3.69,0,0,1,.37-3.26,5.07,5.07,0,0,1,2.17-2,.19.19,0,0,0,.09-.23c-.05-.18-.12-.42-.14-.53s-.29-.3-.54-.27a4,4,0,0,0-1.63.73,7.49,7.49,0,0,0-2.34,3.86,4.26,4.26,0,0,1-.43,1.06,9.38,9.38,0,0,1-1,1.26.27.27,0,0,0,0,.27,2.87,2.87,0,0,0,.37.66c.08,0,.18,0,.22-.06a5.81,5.81,0,0,0,.95-1.14c.08-.11.15-.06.19.11a2.63,2.63,0,0,0,1.36,1.94C26.69,23.83,28,23,29,21.6A17.9,17.9,0,0,0,30,19.73a16.94,16.94,0,0,1,2.15-3.12c.35-.35.76-.62,1-.44s.22.48,0,1.12c-1,2.36-2.39,5.12-2.65,5.79-.05.12,0,.21.09.21H32c.08,0,.11-.05.15-.12.74-1.55,1.44-3,2.19-4.55,0-.09.08,0,.08,0a3.19,3.19,0,0,0,.24,1.15,1.27,1.27,0,0,0,1.13.85,1.74,1.74,0,0,0,.91-.26,2.74,2.74,0,0,0,.75-.54c.11-.1.13.07.13.1-.17,1.23,0,2.69,1,3.29,1.09.72,2.3-.29,3-1.21.07-.08.14-.08.15.11A1.94,1.94,0,0,0,42,23.19c.58.77,1.75.47,2.93-.75a18.5,18.5,0,0,0,2.26-3,.21.21,0,0,0,0-.2c-.11-.15-.26-.32-.37-.45a.12.12,0,0,0-.17,0,21.74,21.74,0,0,1-2.34,2.86c-.32.3-.83.54-1.06.13a.88.88,0,0,1,0-.68c.28-.93,4.67-9.85,4.9-10.37m-5.81,7.48a.25.25,0,0,0,.14.16s0,0,0,.11a9.81,9.81,0,0,1-.59,1.31,4.72,4.72,0,0,1-.75,1.08c-.44.49-1.06,1-1.57.66a1.2,1.2,0,0,1-.32-.92,5.74,5.74,0,0,1,.92-2.91c.73-1.18,1.52-1.8,2.05-1.46s.36,1.18.12,1.83a.23.23,0,0,0,0,.14" transform="translate(-0.57 0)"/><path class="cls-28" d="M16.32,23.26c-1.64,0-3.08-1.34-3.25-3.68a5.9,5.9,0,0,1,.73-3.4,3.73,3.73,0,0,1,2-1.72.64.64,0,0,1,.66.18.57.57,0,0,1-.06.78,4,4,0,0,0-1.49,1.83A2.9,2.9,0,0,0,15,19.57c.66,1.33,2.49,1.37,4.2-.75a17.88,17.88,0,0,0,1.18-1.6,36.92,36.92,0,0,0,2-3.41s0-.05,0-.06,0,0,0,0a2.58,2.58,0,0,0-1.81.85.3.3,0,0,1-.5-.07.66.66,0,0,1,.15-.72,5.66,5.66,0,0,1,2.92-1.22s.07,0,.13-.1c.41-.71.73-1.35,1.17-2.08a13.65,13.65,0,0,1,1.47-1.9,6.78,6.78,0,0,1,1.41-1.24c.1-.07,0-.16-.05-.16-2.24-.56-4.57-1.29-6.79-.19a3.23,3.23,0,0,0-1.89,3.49c.23.77,1,.89,1.7.43A4.5,4.5,0,0,0,21.79,9c.22-.45.68-.13.43.65-.65,2-1.89,3.66-3.41,3.72-1.29.06-2.12-1.21-2.12-2.77A5.65,5.65,0,0,1,22,5.2c3.25-.36,6.33.79,9.56,1.32a15.86,15.86,0,0,0,7.33-.36c.29-.08.5.17.48.56a2.33,2.33,0,0,1-1.17,1.72,4.84,4.84,0,0,1-2.93.9c-2.46,0-4.75-1.25-7.12-1.94,0,.14,0,.3-.06.39a14,14,0,0,0-3.3,4.45s0,.08,0,.08c.69-.05,1.31-.07,1.95-.14.12,0,.12,0,.11-.16a2.57,2.57,0,0,1,.5-1.86c.43-.51,1-.57,1.32-.2a1.71,1.71,0,0,1,.15,1.74,1.74,1.74,0,0,1-.95,1,.11.11,0,0,0-.07.12c0,.14.5.5.55.6a.37.37,0,0,1-.06.34.28.28,0,0,1-.23.15c-.09,0-.14,0-.25-.12a2.6,2.6,0,0,1-.67-.72c-.06-.11-.09-.11-.25-.1-.7.06-1.78.2-2.52.32-.18,0-.21.07-.24.16a43.42,43.42,0,0,1-3.81,7.23c-1.48,2-2.71,2.53-4,2.55m11.2-11.49c0,.14.06.16.1.15a1.16,1.16,0,0,0,.61-.59c.14-.26.2-.63.07-.78s-.31-.09-.45.07a1.58,1.58,0,0,0-.33,1.15" transform="translate(-0.57 0)"/></svg>