<svg id="Layer_1" data-name="Layer 1" xmlns="http://www.w3.org/2000/svg" xmlns:xlink="http://www.w3.org/1999/xlink" viewBox="0 0 60 30"><defs><style>.cls-1{fill:none;}.cls-2{fill:url(#Adsız_degrade_13);}.cls-3{fill:url(#Adsız_degrade_14);}.cls-4{fill:url(#Adsız_degrade_15);}.cls-5{fill:url(#Adsız_degrade_16);}.cls-6{fill:url(#Adsız_degrade_17);}.cls-7{clip-path:url(#clip-path);}.cls-8{clip-path:url(#clip-path-2);}.cls-9{clip-path:url(#clip-path-3);}.cls-10{fill:#fff;}.cls-11{fill:url(#Adsız_degrade_18);}.cls-12{fill:url(#Adsız_degrade_19);}.cls-13{fill:url(#Adsız_degrade_20);}.cls-14{fill:url(#Adsız_degrade_21);}.cls-15{fill:url(#Adsız_degrade_22);}.cls-16{fill:url(#Adsız_degrade_23);}.cls-17{fill:url(#Adsız_degrade_24);}.cls-18{fill:url(#Adsız_degrade_25);}.cls-19{fill:url(#Adsız_degrade_26);}.cls-20{fill:url(#Adsız_degrade_27);}.cls-21{fill:url(#Adsız_degrade_28);}.cls-22{fill:url(#Adsız_degrade_29);}.cls-23{fill:url(#Adsız_degrade_30);}.cls-24{fill:url(#Adsız_degrade_31);}.cls-25{fill:url(#Adsız_degrade_32);}.cls-26{fill:url(#Adsız_degrade_33);}.cls-27{fill:url(#Adsız_degrade_34);}.cls-28{fill:url(#Adsız_degrade_35);}.cls-29{fill:url(#Adsız_degrade_36);}.cls-30{fill:url(#Adsız_degrade_37);}.cls-31{fill:url(#Adsız_degrade_38);}.cls-32{fill:url(#Adsız_degrade_39);}.cls-33{fill:url(#Adsız_degrade_40);}.cls-34{fill:url(#Adsız_degrade_41);}.cls-35{fill:url(#Adsız_degrade_42);}.cls-36{fill:url(#Adsız_degrade_43);}.cls-37{fill:url(#Adsız_degrade_44);}.cls-38{fill:url(#Adsız_degrade_45);}.cls-39{fill:url(#Adsız_degrade_46);}.cls-40{fill:url(#Adsız_degrade_47);}</style><radialGradient id="Adsız_degrade_13" cx="301.97" cy="-48.35" r="136.97" gradientTransform="matrix(0.21, 0, 0, -0.2, -30.65, -4.06)" gradientUnits="userSpaceOnUse"><stop offset="0" stop-color="#8b9394"/><stop offset="1" stop-color="#727a79"/></radialGradient><radialGradient id="Adsız_degrade_14" cx="300.66" cy="-19.52" r="169.93" gradientTransform="matrix(0.21, 0, 0, -0.2, -32.06, -3.68)" gradientUnits="userSpaceOnUse"><stop offset="0" stop-color="#969d9d"/><stop offset="0.61" stop-color="#7a8182"/><stop offset="1" stop-color="#4b5050"/></radialGradient><radialGradient id="Adsız_degrade_15" cx="239.63" cy="-42.53" r="140.45" gradientTransform="matrix(0.21, 0, 0, -0.2, -30.65, -4.06)" gradientUnits="userSpaceOnUse"><stop offset="0" stop-color="#969d9d"/><stop offset="0.46" stop-color="#828b8a"/><stop offset="1" stop-color="#c2c9c8"/></radialGradient><radialGradient id="Adsız_degrade_16" cx="300.22" cy="-109.53" r="78.14" gradientTransform="matrix(0.21, 0, 0, -0.2, -30.65, -4.06)" gradientUnits="userSpaceOnUse"><stop offset="0" stop-color="#969d9d"/><stop offset="0.61" stop-color="#828b8a"/><stop offset="1" stop-color="#727a79"/></radialGradient><radialGradient id="Adsız_degrade_17" cx="380.27" cy="-65.07" r="112.45" gradientTransform="matrix(0.21, 0, 0, -0.21, -23.25, 2.07)" xlink:href="#Adsız_degrade_16"/><clipPath id="clip-path" transform="translate(0 -0.01)"><path class="cls-1" d="M30,29.76c16.43,0,29.75-6.6,29.75-14.75S46.43.25,30,.25.25,6.86.25,15,13.57,29.76,30,29.76Zm5.6-7.23c-.49,1.11-1.35,3.5-3.31,4.44a5.1,5.1,0,0,1-2,.43,1.41,1.41,0,0,1-.29,0,53.59,53.59,0,0,1-14.64-1.92c-.31-.09-1-.25-1-.66a.61.61,0,0,1,.25-.46l.26-.23a34.78,34.78,0,0,1,9.57-5,46.9,46.9,0,0,1,7-2.17c1.52-.31,7.12-1.13,4.16,5.53Zm15-14.87a.6.6,0,0,1,.5-.35.94.94,0,0,1,.61.19c3.5,2.09,5.57,4.68,5.57,7.5,0,5.1-6.75,9.46-16.41,11.38-.62.12-1,.12-1.17,0a.36.36,0,0,1,0-.46,2.7,2.7,0,0,1,.25-.34c5.26-6,9.28-14.86,10.41-17.43a4.92,4.92,0,0,1,.24-.45ZM24.5,7.45C25,6.35,25.84,4,27.8,3a5.06,5.06,0,0,1,2-.44h.3A53.2,53.2,0,0,1,44.74,4.52c.31.09,1,.21,1,.64a.61.61,0,0,1-.25.46,1.43,1.43,0,0,1-.27.23,34.65,34.65,0,0,1-9.56,5,45.35,45.35,0,0,1-7,2.17c-1.52.32-7.11,1.14-4.15-5.52ZM19.12,3.63c.63-.12,1.1-.12,1.24,0a.35.35,0,0,1,0,.45c-.08.12-.16.24-.25.35-5.27,6-9.27,14.87-10.4,17.42l-.24.47a.68.68,0,0,1-.51.35,1.31,1.31,0,0,1-.61-.21C4.86,20.42,2.7,17.82,2.7,15c0-5.08,6.76-9.46,16.42-11.36Z"/></clipPath><clipPath id="clip-path-2" transform="translate(0 -0.01)"><path class="cls-1" d="M30,29.47C13.76,29.47.56,23,.56,15S13.76.55,30,.55,59.44,7,59.44,15,46.24,29.47,30,29.47Zm3.33-13a10.67,10.67,0,0,0-1.95.21,49.1,49.1,0,0,0-7,2.16l0,0c-6,2.21-8.91,4.39-9.66,5l-.13.11-.15.13a1,1,0,0,0-.33.68c0,.6.74.81,1.14.92l.07,0A54.29,54.29,0,0,0,30,27.69h.31a5.39,5.39,0,0,0,2.1-.46c1.89-.92,2.78-3,3.31-4.27l.14-.32c1-2.23,1.14-3.89.44-4.93A3.4,3.4,0,0,0,33.33,16.5ZM51.2,7h-.11a.87.87,0,0,0-.73.5c-.09.15-.17.31-.25.47-1.83,4.16-5.6,11.92-10.36,17.36a2.27,2.27,0,0,0-.29.4.63.63,0,0,0,0,.79.82.82,0,0,0,.67.22,5.18,5.18,0,0,0,.78-.09c10.12-2,16.65-6.58,16.65-11.67,0-2.83-2-5.51-5.71-7.75A1.36,1.36,0,0,0,51.2,7ZM19.87,3.25a4.38,4.38,0,0,0-.81.1C8.94,5.34,2.4,9.93,2.4,15c0,2.81,2,5.48,5.79,7.75A1.52,1.52,0,0,0,9,23a.93.93,0,0,0,.76-.48l.21-.39L10,22c3.28-7.36,6.86-13.36,10.36-17.36a3.37,3.37,0,0,0,.28-.38.62.62,0,0,0,0-.81.94.94,0,0,0-.71-.22Zm9.9-1a5.28,5.28,0,0,0-2.11.47c-1.87.9-2.77,3-3.3,4.23l-.15.35c-1,2.24-1.14,3.9-.44,4.94a3.38,3.38,0,0,0,3,1.21,9.08,9.08,0,0,0,1.94-.21,45.6,45.6,0,0,0,7.05-2.18,34.93,34.93,0,0,0,9.65-5l.3-.26A.91.91,0,0,0,46,5.17c0-.6-.7-.79-1.08-.88l-.12,0A53.63,53.63,0,0,0,30.08,2.3h-.31Z"/></clipPath><clipPath id="clip-path-3" transform="translate(0 -0.01)"><path class="cls-1" d="M30,29.45C13.79,29.45.59,23,.59,15S13.79.57,30,.57,59.43,7.05,59.43,15,46.22,29.45,30,29.45Zm3.32-13a10.57,10.57,0,0,0-1.94.21,47.85,47.85,0,0,0-7,2.16h0c-6,2.21-8.89,4.39-9.65,5l-.13.11-.15.14a.92.92,0,0,0-.33.67c0,.6.74.81,1.14.92l.07,0A54.15,54.15,0,0,0,30,27.67h.31a5.39,5.39,0,0,0,2.1-.46c1.89-.92,2.78-3,3.31-4.27l.14-.31c1-2.23,1.14-3.89.43-4.94a3.4,3.4,0,0,0-3-1.19ZM51.17,7h-.11a.83.83,0,0,0-.72.5,4.17,4.17,0,0,0-.26.46c-1.82,4.16-5.59,11.92-10.34,17.35a2.19,2.19,0,0,0-.29.39.65.65,0,0,0,0,.79.83.83,0,0,0,.67.22,3.48,3.48,0,0,0,.79-.09c10.1-2,16.63-6.58,16.63-11.65,0-2.83-2-5.51-5.72-7.74A1.29,1.29,0,0,0,51.17,7ZM19.89,3.27a3.75,3.75,0,0,0-.82.09C9,5.35,2.43,9.92,2.43,15c0,2.8,2,5.48,5.79,7.74A1.49,1.49,0,0,0,9,23a.94.94,0,0,0,.76-.48c.06-.1.13-.24.21-.39L10,22c3.27-7.35,6.84-13.34,10.34-17.33a3.58,3.58,0,0,0,.29-.39.64.64,0,0,0,0-.81A1,1,0,0,0,19.89,3.27Zm9.88-1a5.43,5.43,0,0,0-2.1.46c-1.87.91-2.76,3-3.29,4.23l-.16.35c-1,2.23-1.13,3.89-.43,4.94a3.35,3.35,0,0,0,3,1.21,10.57,10.57,0,0,0,1.94-.21,45.6,45.6,0,0,0,7-2.18c5.94-2.2,8.87-4.38,9.62-5a2.51,2.51,0,0,0,.31-.26A1,1,0,0,0,46,5.19c0-.6-.7-.79-1.08-.89l-.12,0A53.54,53.54,0,0,0,30.09,2.32h-.32Z"/></clipPath><linearGradient id="Adsız_degrade_18" x1="139.16" y1="8.53" x2="140.59" y2="-18.73" gradientTransform="matrix(1, 0, 0, -1, -109.87, 10.01)" gradientUnits="userSpaceOnUse"><stop offset="0" stop-color="#fff"/><stop offset="0.4" stop-color="#fff"/><stop offset="0.57" stop-color="#a4aaaa"/><stop offset="0.63" stop-color="#8f9697"/><stop offset="0.66" stop-color="#878f90"/><stop offset="0.75" stop-color="#969d9d"/><stop offset="0.81" stop-color="#fff"/></linearGradient><linearGradient id="Adsız_degrade_19" x1="145.47" y1="-18.29" x2="148.14" y2="-7.88" gradientTransform="matrix(1, 0, 0, -1, -109.87, 10.01)" gradientUnits="userSpaceOnUse"><stop offset="0" stop-color="#fff"/><stop offset="0.63" stop-color="#fff"/><stop offset="0.68" stop-color="#f1f2f2"/><stop offset="0.9" stop-color="#b7bdbe"/><stop offset="1" stop-color="#a0a8aa"/></linearGradient><linearGradient id="Adsız_degrade_20" x1="136.98" y1="-4.06" x2="131.63" y2="5.46" gradientTransform="matrix(1, 0, 0, -1, -109.87, 10.01)" gradientUnits="userSpaceOnUse"><stop offset="0" stop-color="#e5eeed"/><stop offset="0.28" stop-color="#cfd7d7"/><stop offset="0.55" stop-color="#b6bcbd"/><stop offset="1" stop-color="#a0a8aa"/></linearGradient><linearGradient id="Adsız_degrade_21" x1="141.74" y1="5.07" x2="146.43" y2="-1.66" xlink:href="#Adsız_degrade_20"/><linearGradient id="Adsız_degrade_22" x1="122.83" y1="-10.25" x2="122.83" y2="4.44" gradientTransform="matrix(1, 0, 0, -1, -109.87, 10.01)" gradientUnits="userSpaceOnUse"><stop offset="0" stop-color="#fff"/><stop offset="0.06" stop-color="#f6f7f7"/><stop offset="0.16" stop-color="#dfe1e1"/><stop offset="0.29" stop-color="#b9bcbc"/><stop offset="0.43" stop-color="#858a8a"/><stop offset="0.53" stop-color="#5f6666"/><stop offset="0.77" stop-color="#4b5050"/><stop offset="1" stop-color="#404444"/></linearGradient><linearGradient id="Adsız_degrade_23" x1="148.41" y1="-13.47" x2="131.68" y2="-9.19" gradientTransform="matrix(1, 0, 0, -1, -109.87, 10.01)" gradientUnits="userSpaceOnUse"><stop offset="0" stop-color="#8b9394"/><stop offset="0.18" stop-color="#7a8182"/><stop offset="0.34" stop-color="#646a6b"/><stop offset="0.57" stop-color="#404444"/><stop offset="1" stop-color="#333737"/></linearGradient><linearGradient id="Adsız_degrade_24" x1="121.26" y1="-16.78" x2="144.35" y2="-16.78" gradientTransform="matrix(1, 0, 0, -1, -109.87, 10.01)" gradientUnits="userSpaceOnUse"><stop offset="0" stop-color="#fff"/><stop offset="0.93" stop-color="#fff"/><stop offset="1" stop-color="#fff"/></linearGradient><linearGradient id="Adsız_degrade_25" x1="159.68" y1="2.21" x2="147.97" y2="-15.91" gradientTransform="matrix(1, 0, 0, -1, -109.87, 10.01)" gradientUnits="userSpaceOnUse"><stop offset="0" stop-color="#abb3b3"/><stop offset="0.38" stop-color="#727a79"/><stop offset="0.42" stop-color="#575d5c"/><stop offset="0.45" stop-color="#464a4a"/><stop offset="0.47" stop-color="#404444"/><stop offset="1" stop-color="#333737"/></linearGradient><linearGradient id="Adsız_degrade_26" x1="155.72" y1="5.71" x2="137.69" y2="8.14" gradientTransform="matrix(1, 0, 0, -1, -109.87, 10.01)" gradientUnits="userSpaceOnUse"><stop offset="0" stop-color="#4b5050"/><stop offset="0.11" stop-color="#434747"/><stop offset="0.39" stop-color="#323534"/><stop offset="0.68" stop-color="#282a2a"/><stop offset="1" stop-color="#252726"/></linearGradient><linearGradient id="Adsız_degrade_27" x1="161.4" y1="5.13" x2="167.01" y2="-4.19" gradientTransform="matrix(1, 0, 0, -1, -109.87, 10.01)" gradientUnits="userSpaceOnUse"><stop offset="0" stop-color="#252726"/><stop offset="0.07" stop-color="#2b2e2d"/><stop offset="0.33" stop-color="#404444"/><stop offset="0.43" stop-color="#4a4f4f"/><stop offset="0.69" stop-color="#5f6666"/><stop offset="0.74" stop-color="#666d6d"/><stop offset="0.82" stop-color="#798181"/><stop offset="0.87" stop-color="#8b9394"/><stop offset="1" stop-color="#a0a8aa"/></linearGradient><linearGradient id="Adsız_degrade_28" x1="150.09" y1="-18.26" x2="167.8" y2="-7.19" gradientTransform="matrix(1, 0, 0, -1, -109.87, 10.01)" gradientUnits="userSpaceOnUse"><stop offset="0" stop-color="#fff"/><stop offset="0.77" stop-color="#fff"/><stop offset="0.83" stop-color="#e8ebeb"/><stop offset="0.9" stop-color="#ccd4d3"/><stop offset="0.96" stop-color="#afb7b8"/><stop offset="1" stop-color="#a0a8aa"/></linearGradient><linearGradient id="Adsız_degrade_29" x1="156.58" y1="5.33" x2="156.68" y2="4.48" gradientTransform="matrix(1, 0, 0, -1, -109.87, 10.01)" gradientUnits="userSpaceOnUse"><stop offset="0" stop-color="#4b5050"/><stop offset="0.08" stop-color="#6d7373"/><stop offset="0.17" stop-color="#888f8f"/><stop offset="0.25" stop-color="#9ca3a3"/><stop offset="0.34" stop-color="#a7afaf"/><stop offset="0.42" stop-color="#abb3b3"/><stop offset="0.58" stop-color="#abb3b3"/><stop offset="0.92" stop-color="#a3abac"/><stop offset="1" stop-color="#a0a8aa"/></linearGradient><linearGradient id="Adsız_degrade_30" x1="123.13" y1="-14.25" x2="123.32" y2="-15.91" gradientTransform="matrix(1, 0, 0, -1, -109.87, 10.01)" gradientUnits="userSpaceOnUse"><stop offset="0" stop-color="#333737"/><stop offset="0.02" stop-color="#494e4e"/><stop offset="0.04" stop-color="#676e6d"/><stop offset="0.06" stop-color="#727a79"/><stop offset="0.22" stop-color="#808888"/><stop offset="0.4" stop-color="#8b9394"/><stop offset="0.48" stop-color="#9ba3a4"/><stop offset="0.5" stop-color="#a0a8aa"/><stop offset="0.79" stop-color="#abb3b3"/><stop offset="0.85" stop-color="#c2c8c8"/><stop offset="1" stop-color="#fdfefe"/><stop offset="1" stop-color="#fff"/></linearGradient><linearGradient id="Adsız_degrade_31" x1="159.71" y1="3.02" x2="160.9" y2="3.76" gradientTransform="matrix(1, 0, 0, -1, -109.87, 10.01)" gradientUnits="userSpaceOnUse"><stop offset="0" stop-color="#abb3b3"/><stop offset="0.42" stop-color="#a0a8aa"/><stop offset="0.52" stop-color="#a0a8aa"/><stop offset="0.59" stop-color="#9ba3a5"/><stop offset="0.68" stop-color="#8d9496"/><stop offset="0.77" stop-color="#777d7d"/><stop offset="0.88" stop-color="#575b5b"/><stop offset="0.98" stop-color="#2e3030"/><stop offset="1" stop-color="#252726"/></linearGradient><linearGradient id="Adsız_degrade_32" x1="137.38" y1="8.12" x2="135.58" y2="6.19" gradientTransform="matrix(1, 0, 0, -1, -109.87, 10.01)" gradientUnits="userSpaceOnUse"><stop offset="0" stop-color="#252726"/><stop offset="0.02" stop-color="#2d302f"/><stop offset="0.14" stop-color="#565b5b"/><stop offset="0.25" stop-color="#73797a"/><stop offset="0.34" stop-color="#858c8d"/><stop offset="0.4" stop-color="#8b9394"/><stop offset="0.81" stop-color="#98a0a2"/><stop offset="1" stop-color="#a0a8aa"/></linearGradient><linearGradient id="Adsız_degrade_33" x1="143.74" y1="-13.62" x2="140.06" y2="-18.67" gradientTransform="matrix(1, 0, 0, -1, -109.87, 10.01)" gradientUnits="userSpaceOnUse"><stop offset="0" stop-color="#828b8a"/><stop offset="0.51" stop-color="#f4fafc"/><stop offset="0.81" stop-color="#f8fcfd"/><stop offset="1" stop-color="#fff"/></linearGradient><linearGradient id="Adsız_degrade_34" x1="122.19" y1="-12.98" x2="129.12" y2="3.36" gradientTransform="matrix(1, 0, 0, -1, -109.87, 10.01)" gradientUnits="userSpaceOnUse"><stop offset="0" stop-color="#697070"/><stop offset="0.53" stop-color="#828b8a"/><stop offset="1" stop-color="#b2bcbc"/></linearGradient><linearGradient id="Adsız_degrade_35" x1="120.24" y1="-12.46" x2="118.17" y2="-13.98" gradientTransform="matrix(1, 0, 0, -1, -109.87, 10.01)" gradientUnits="userSpaceOnUse"><stop offset="0" stop-color="#697070"/><stop offset="0.08" stop-color="#8b9191"/><stop offset="0.2" stop-color="#bdc0c0"/><stop offset="0.31" stop-color="#e1e2e2"/><stop offset="0.4" stop-color="#f7f7f7"/><stop offset="0.45" stop-color="#fff"/><stop offset="0.63" stop-color="#fff"/><stop offset="0.64" stop-color="#fff"/><stop offset="0.98" stop-color="#fff"/><stop offset="1" stop-color="#fff"/></linearGradient><linearGradient id="Adsız_degrade_36" x1="131.32" y1="7.57" x2="131.98" y2="6.26" gradientTransform="matrix(1, 0, 0, -1, -109.87, 10.01)" gradientUnits="userSpaceOnUse"><stop offset="0" stop-color="#404444"/><stop offset="0.16" stop-color="#444848"/><stop offset="0.33" stop-color="#4f5454"/><stop offset="0.47" stop-color="#5f6666"/><stop offset="0.52" stop-color="#737b7a"/><stop offset="0.57" stop-color="#828b8a"/><stop offset="0.78" stop-color="#a3acac"/><stop offset="0.91" stop-color="#b2bcbc"/></linearGradient><linearGradient id="Adsız_degrade_37" x1="138.88" y1="8.64" x2="140.95" y2="-19.91" gradientTransform="matrix(1, 0, 0, -1, -109.87, 10.01)" gradientUnits="userSpaceOnUse"><stop offset="0" stop-color="#fff"/><stop offset="0.08" stop-color="#f8fafa"/><stop offset="0.18" stop-color="#e6eced"/><stop offset="0.26" stop-color="#d3dee0"/><stop offset="0.29" stop-color="#c9d4d6"/><stop offset="0.35" stop-color="#afb9ba"/><stop offset="0.42" stop-color="#858d8e"/><stop offset="0.5" stop-color="#4b5050"/><stop offset="0.69" stop-color="#3e4344"/><stop offset="0.73" stop-color="#2f3435"/><stop offset="0.82" stop-color="#0d1112"/><stop offset="1" stop-color="#0d1112"/></linearGradient><linearGradient id="Adsız_degrade_38" x1="132.33" y1="-0.33" x2="137.79" y2="-5.25" gradientTransform="matrix(1, 0, 0, -1, -109.87, 10.01)" gradientUnits="userSpaceOnUse"><stop offset="0.07" stop-color="#b6bcbd"/><stop offset="0.12" stop-color="#c9cece"/><stop offset="0.2" stop-color="#e1e3e4"/><stop offset="0.29" stop-color="#f2f3f3"/><stop offset="0.38" stop-color="#fcfcfc"/><stop offset="0.5" stop-color="#fff"/><stop offset="0.61" stop-color="#fcfcfc"/><stop offset="0.7" stop-color="#f2f3f3"/><stop offset="0.79" stop-color="#e1e4e4"/><stop offset="0.86" stop-color="#c9cece"/><stop offset="0.94" stop-color="#abb3b3"/></linearGradient><linearGradient id="Adsız_degrade_39" x1="145.99" y1="-10.72" x2="140.98" y2="-4.31" gradientTransform="matrix(1, 0, 0, -1, -109.87, 10.01)" gradientUnits="userSpaceOnUse"><stop offset="0" stop-color="#828b8a"/><stop offset="0.12" stop-color="#7a8182"/><stop offset="0.17" stop-color="#6b7272"/><stop offset="0.28" stop-color="#545959"/><stop offset="0.37" stop-color="#454949"/><stop offset="0.44" stop-color="#404444"/><stop offset="0.71" stop-color="#404444"/><stop offset="1" stop-color="#333737"/></linearGradient><linearGradient id="Adsız_degrade_40" x1="146.83" y1="-6" x2="147.73" y2="-7.24" gradientTransform="matrix(1, 0, 0, -1, -109.87, 10.01)" gradientUnits="userSpaceOnUse"><stop offset="0" stop-color="#3e4344"/><stop offset="0.02" stop-color="#555a5a"/><stop offset="0.05" stop-color="#7d8081"/><stop offset="0.09" stop-color="#a0a3a3"/><stop offset="0.13" stop-color="#bebfc0"/><stop offset="0.17" stop-color="#d6d7d7"/><stop offset="0.22" stop-color="#e8e9e9"/><stop offset="0.28" stop-color="#f5f6f6"/><stop offset="0.36" stop-color="#fdfdfd"/><stop offset="0.52" stop-color="#fff"/><stop offset="0.65" stop-color="#fdfdfd"/><stop offset="0.73" stop-color="#f4f5f5"/><stop offset="0.8" stop-color="#e7e8e8"/><stop offset="0.85" stop-color="#d3d5d5"/><stop offset="0.9" stop-color="#b9bdbd"/><stop offset="0.95" stop-color="#9a9f9f"/><stop offset="0.99" stop-color="#757c7c"/><stop offset="1" stop-color="#6a7171"/></linearGradient><linearGradient id="Adsız_degrade_41" x1="147.95" y1="-16.58" x2="148.49" y2="-17.68" gradientTransform="matrix(1, 0, 0, -1, -109.87, 10.01)" gradientUnits="userSpaceOnUse"><stop offset="0" stop-color="#333737"/><stop offset="0.06" stop-color="#5a5f5e"/><stop offset="0.14" stop-color="#8b9191"/><stop offset="0.22" stop-color="#b2bab9"/><stop offset="0.29" stop-color="#ced6d5"/><stop offset="0.35" stop-color="#dfe8e7"/><stop offset="0.39" stop-color="#e5eeed"/><stop offset="0.54" stop-color="#e9f1f0"/><stop offset="0.68" stop-color="#f5f8f8"/><stop offset="0.76" stop-color="#fff"/></linearGradient><linearGradient id="Adsız_degrade_42" x1="144.01" y1="-1.69" x2="145.44" y2="9.32" gradientTransform="matrix(1, 0, 0, -1, -109.87, 10.01)" gradientUnits="userSpaceOnUse"><stop offset="0" stop-color="#fff"/><stop offset="0.25" stop-color="#f2f6f6"/><stop offset="0.57" stop-color="#e8f0ef"/><stop offset="1" stop-color="#e5eeed"/></linearGradient><linearGradient id="Adsız_degrade_43" x1="134.23" y1="8.17" x2="121.7" y2="-12.12" gradientTransform="matrix(1, 0, 0, -1, -109.87, 10.01)" gradientUnits="userSpaceOnUse"><stop offset="0" stop-color="#fff"/><stop offset="0.13" stop-color="#fcfcfc"/><stop offset="0.23" stop-color="#f3f4f4"/><stop offset="0.32" stop-color="#e3e5e5"/><stop offset="0.39" stop-color="#cdd0d0"/><stop offset="0.47" stop-color="#b0b5b5"/><stop offset="0.52" stop-color="#969d9d"/><stop offset="1" stop-color="#8b9394"/></linearGradient><linearGradient id="Adsız_degrade_44" x1="158.7" y1="3.63" x2="146.36" y2="-17.3" gradientTransform="matrix(1, 0, 0, -1, -109.87, 10.01)" gradientUnits="userSpaceOnUse"><stop offset="0" stop-color="#d7e0e0"/><stop offset="0.04" stop-color="#c5cdce"/><stop offset="0.1" stop-color="#b4bcbe"/><stop offset="0.17" stop-color="#a9b1b2"/><stop offset="0.27" stop-color="#a2aaac"/><stop offset="0.55" stop-color="#a0a8aa"/><stop offset="0.94" stop-color="#a0a8aa"/><stop offset="1" stop-color="#a0a8aa"/></linearGradient><linearGradient id="Adsız_degrade_45" x1="121.15" y1="-11.52" x2="148.38" y2="-11.52" gradientTransform="matrix(1, 0, 0, -1, -109.87, 10.01)" gradientUnits="userSpaceOnUse"><stop offset="0" stop-color="#8b9394"/><stop offset="0.24" stop-color="#8b9394"/><stop offset="0.36" stop-color="#858c8d"/><stop offset="0.53" stop-color="#737a7b"/><stop offset="0.6" stop-color="#6a7171"/><stop offset="1" stop-color="#a0a8aa"/></linearGradient><linearGradient id="Adsız_degrade_46" x1="124.58" y1="6.53" x2="117.05" y2="-11.93" gradientTransform="matrix(1, 0, 0, -1, -109.87, 10.01)" gradientUnits="userSpaceOnUse"><stop offset="0" stop-color="#fff"/><stop offset="0.24" stop-color="#f8fafa"/><stop offset="0.58" stop-color="#e6ebeb"/><stop offset="0.78" stop-color="#d7e0e0"/><stop offset="1" stop-color="#8b9394"/></linearGradient><linearGradient id="Adsız_degrade_47" x1="164.49" y1="1.73" x2="153.66" y2="-18.65" gradientTransform="matrix(1, 0, 0, -1, -109.87, 10.01)" gradientUnits="userSpaceOnUse"><stop offset="0" stop-color="#d7e0e0"/><stop offset="0.16" stop-color="#d1dad9"/><stop offset="0.26" stop-color="#ccd4d3"/><stop offset="1" stop-color="#a0a8aa"/></linearGradient></defs><path class="cls-2" d="M26.77,13.4a9.65,9.65,0,0,0,1.93-.2,48.38,48.38,0,0,0,7-2.18,34.65,34.65,0,0,0,9.61-5,2.26,2.26,0,0,0,.29-.25.81.81,0,0,0,.31-.61c0-.53-.63-.7-1-.8l-.12,0A53.79,53.79,0,0,0,30.09,2.38h-.31a5.43,5.43,0,0,0-2.07.46C25.86,3.73,25,5.8,24.45,7l-.15.35c-1,2.21-1.13,3.84-.44,4.86A3.28,3.28,0,0,0,26.77,13.4ZM24.69,7.54l.16-.35c.5-1.18,1.35-3.16,3-4a4.9,4.9,0,0,1,1.89-.41h.3A53.36,53.36,0,0,1,44.68,4.73l.13,0c.26.07.7.19.7.41a.46.46,0,0,1-.19.33,1.64,1.64,0,0,1-.25.21,34.3,34.3,0,0,1-9.5,4.92,47,47,0,0,1-7,2.16,8.79,8.79,0,0,1-1.84.2,2.9,2.9,0,0,1-2.56-1c-.6-.9-.44-2.41.48-4.48Z" transform="translate(0 -0.01)"/><path class="cls-3" d="M30,0C13.46,0,0,6.74,0,15S13.46,30,30,30s30-6.73,30-15S46.54,0,30,0Zm0,29.55C13.72,29.56.47,23,.47,15S13.72.46,30,.46,59.53,7,59.53,15,46.28,29.56,30,29.56Z" transform="translate(0 -0.01)"/><path class="cls-4" d="M20.54,4.24a.53.53,0,0,0,0-.7c-.2-.23-.69-.26-1.45-.11C9,5.42,2.49,10,2.49,15c0,2.77,2,5.43,5.75,7.68a1.46,1.46,0,0,0,.74.22H9a.82.82,0,0,0,.67-.45l.2-.37L9.9,22C13.17,14.62,16.76,8.61,20.27,4.6A3.07,3.07,0,0,0,20.54,4.24ZM20.17,4a2.35,2.35,0,0,1-.23.32c-3.53,4-7.14,10.07-10.43,17.46l0,.11c-.07.14-.13.27-.17.34s-.2.24-.33.25a1,1,0,0,1-.5-.17C4.83,20.16,2.92,17.63,2.92,15c0-4.84,6.37-9.23,16.24-11.17a4.18,4.18,0,0,1,.71-.09c.26,0,.32.06.33.07S20.23,3.93,20.17,4Z" transform="translate(0 -0.01)"/><path class="cls-5" d="M33.33,16.59a9,9,0,0,0-1.93.21,47.07,47.07,0,0,0-7,2.15l-.05,0c-6,2.21-8.88,4.38-9.64,5l-.13.11-.14.12a.85.85,0,0,0-.31.62c0,.54.71.74,1.08.84l.07,0A54.12,54.12,0,0,0,30,27.61h.3a5.3,5.3,0,0,0,2.08-.46c1.86-.9,2.74-3,3.27-4.22.05-.11.09-.22.14-.32,1-2.2,1.13-3.84.44-4.85A3.24,3.24,0,0,0,33.33,16.59Zm2.07,5.86-.14.33c-.5,1.18-1.35,3.17-3.06,4a4.73,4.73,0,0,1-2.19.41,53.64,53.64,0,0,1-14.58-1.91l-.07,0c-.23-.06-.77-.22-.77-.44a.44.44,0,0,1,.18-.32l.12-.1.13-.11c.74-.61,3.6-2.75,9.5-4.94h.06a46.86,46.86,0,0,1,6.91-2.13A9.52,9.52,0,0,1,33.33,17a2.88,2.88,0,0,1,2.55,1c.6.9.44,2.4-.48,4.47Z" transform="translate(0 -0.01)"/><path class="cls-6" d="M51.86,7.33a1.25,1.25,0,0,0-.66-.23h-.08a.77.77,0,0,0-.67.44,4.67,4.67,0,0,0-.27.49C48.35,12.19,44.58,20,39.81,25.41a2.51,2.51,0,0,0-.27.37.56.56,0,0,0,0,.7.76.76,0,0,0,.61.19,3.94,3.94,0,0,0,.77-.08C51,24.59,57.52,20,57.52,15,57.52,12.2,55.56,9.54,51.86,7.33Zm-11,18.85a3.82,3.82,0,0,1-.68.07c-.24,0-.29,0-.29-.05s0-.16,0-.22a1.33,1.33,0,0,1,.23-.3c4.8-5.49,8.6-13.31,10.43-17.48a2.85,2.85,0,0,1,.25-.45.36.36,0,0,1,.33-.23h0a.87.87,0,0,1,.43.16c3.58,2.14,5.47,4.67,5.47,7.32,0,4.83-6.37,9.22-16.23,11.18Z" transform="translate(0 -0.01)"/><g class="cls-7"><g class="cls-8"><g class="cls-9"><path class="cls-10" d="M30,29.74c16.41,0,29.71-6.59,29.71-14.73S46.41.27,30,.27.29,6.87.29,15,13.6,29.74,30,29.74Zm5.58-7.22C35.1,23.63,34.24,26,32.28,27a5,5,0,0,1-2,.44H30a53.34,53.34,0,0,1-14.86-2L15,25.34c-.42-.13-.63-.3-.63-.53a.64.64,0,0,1,.24-.46l.27-.23a34.81,34.81,0,0,1,9.55-5,49.67,49.67,0,0,1,7-2.16C33,16.69,38.54,15.87,35.58,22.52Zm15-14.85a.56.56,0,0,1,.49-.35,1,1,0,0,1,.62.19c3.49,2.09,5.56,4.67,5.56,7.49,0,5.09-6.75,9.46-16.39,11.37-.62.11-1,.11-1.17,0a.36.36,0,0,1,0-.46,1.66,1.66,0,0,1,.25-.34c5.26-6,9.26-14.85,10.39-17.41a3.25,3.25,0,0,1,.25-.45ZM24.5,7.46C25,6.36,25.84,4,27.81,3a5.34,5.34,0,0,1,2-.44h.3a52.81,52.81,0,0,1,14.85,2,.43.43,0,0,1,.16.05c.4.13.6.3.61.52a.65.65,0,0,1-.25.47l-.27.23a35.13,35.13,0,0,1-9.54,5,46.73,46.73,0,0,1-7,2.16c-1.52.32-7.11,1.14-4.16-5.51ZM19.13,3.65c.63-.12,1.1-.12,1.24,0a.35.35,0,0,1,0,.45c-.08.12-.16.24-.25.35-5.26,6-9.25,14.84-10.39,17.39-.09.18-.17.36-.24.48a.66.66,0,0,1-.5.34,1.39,1.39,0,0,1-.62-.21C4.89,20.41,2.73,17.81,2.73,15,2.73,9.93,9.49,5.55,19.13,3.65Z" transform="translate(0 -0.01)"/><path class="cls-11" d="M30,29.74c16.41,0,29.71-6.59,29.71-14.73S46.41.27,30,.27.29,6.87.29,15,13.6,29.74,30,29.74Zm5.58-7.22C35.1,23.63,34.24,26,32.28,27a5,5,0,0,1-2,.44H30a53.34,53.34,0,0,1-14.86-2L15,25.34c-.42-.13-.63-.3-.63-.53a.64.64,0,0,1,.24-.46l.27-.23a34.81,34.81,0,0,1,9.55-5,49.67,49.67,0,0,1,7-2.16C33,16.69,38.54,15.87,35.58,22.52Zm15-14.85a.56.56,0,0,1,.49-.35,1,1,0,0,1,.62.19c3.49,2.09,5.56,4.67,5.56,7.49,0,5.09-6.75,9.46-16.39,11.37-.62.11-1,.11-1.17,0a.36.36,0,0,1,0-.46,1.66,1.66,0,0,1,.25-.34c5.26-6,9.26-14.85,10.39-17.41a3.25,3.25,0,0,1,.25-.45ZM24.5,7.46C25,6.36,25.84,4,27.81,3a5.34,5.34,0,0,1,2-.44h.3a52.81,52.81,0,0,1,14.85,2,.43.43,0,0,1,.16.05c.4.13.6.3.61.52a.65.65,0,0,1-.25.47l-.27.23a35.13,35.13,0,0,1-9.54,5,46.73,46.73,0,0,1-7,2.16c-1.52.32-7.11,1.14-4.16-5.51ZM19.13,3.65c.63-.12,1.1-.12,1.24,0a.35.35,0,0,1,0,.45c-.08.12-.16.24-.25.35-5.26,6-9.25,14.84-10.39,17.39-.09.18-.17.36-.24.48a.66.66,0,0,1-.5.34,1.39,1.39,0,0,1-.62-.21C4.89,20.41,2.73,17.81,2.73,15,2.73,9.93,9.49,5.55,19.13,3.65Z" transform="translate(0 -0.01)"/><path class="cls-1" d="M30,29.74c16.41,0,29.71-6.59,29.71-14.73S46.41.27,30,.27.29,6.87.29,15,13.6,29.74,30,29.74Zm5.58-7.22C35.1,23.63,34.24,26,32.28,27a5,5,0,0,1-2,.44H30a53.83,53.83,0,0,1-14.62-1.92c-.31-.09-1-.25-1-.66a.61.61,0,0,1,.25-.46l.27-.23a34.81,34.81,0,0,1,9.55-5,49.51,49.51,0,0,1,7-2.16C33,16.69,38.54,15.87,35.58,22.52Zm15-14.85a.56.56,0,0,1,.49-.35.94.94,0,0,1,.61.19c3.5,2.09,5.57,4.67,5.57,7.49,0,5.09-6.75,9.46-16.39,11.37-.62.11-1,.11-1.17,0a.36.36,0,0,1,0-.46,2.13,2.13,0,0,1,.25-.34c5.26-6,9.26-14.85,10.39-17.41a3.25,3.25,0,0,1,.25-.45ZM24.5,7.46C25,6.36,25.84,4,27.81,3a5.34,5.34,0,0,1,2-.44h.3A53,53,0,0,1,44.72,4.53c.31.09,1,.21,1,.64a.65.65,0,0,1-.25.47,3,3,0,0,1-.27.23,35.13,35.13,0,0,1-9.54,5,46.73,46.73,0,0,1-7,2.16c-1.52.32-7.11,1.14-4.16-5.51ZM19.13,3.65c.63-.12,1.1-.12,1.24,0a.35.35,0,0,1,0,.45c-.08.12-.16.24-.25.35-5.26,6-9.25,14.84-10.39,17.39-.09.18-.17.36-.24.48a.66.66,0,0,1-.5.34,1.35,1.35,0,0,1-.62-.21C4.89,20.41,2.73,17.81,2.73,15,2.73,9.93,9.49,5.55,19.13,3.65Z" transform="translate(0 -0.01)"/></g></g><path class="cls-12" d="M38.77,25.59a71.46,71.46,0,0,0,6.56-10.24l-7.67,2.51a11.68,11.68,0,0,1-4.61,9.72,15.28,15.28,0,0,1-4.27.5l-.71,1.09a52.63,52.63,0,0,0,14.66-1.26h0l.68-1.51C41.32,27.19,36.22,28.61,38.77,25.59Z" transform="translate(0 -0.01)"/><path class="cls-13" d="M29.19,12.87l-.54.12c-.81.17-2.8.48-4-.29s-1.52-2.15-.14-5.24c.46-1,1.24-3.2,3-4.25L25.57,1.67a.83.83,0,0,0-.3.23,25.83,25.83,0,0,0-2.2,3.29,28,28,0,0,0-1.63,3.35,13.75,13.75,0,0,0-1,3.57c-.15,1.46.21,2.81,1.84,3.29l.38.1c1,.23,2.79.41,6.9-.67Z" transform="translate(0 -0.01)"/><path class="cls-14" d="M48.66,4.84l-2.94.3v0a.62.62,0,0,1-.25.47,1.49,1.49,0,0,1-.27.23,34.51,34.51,0,0,1-9.55,5c-1.36.51-2.95,1.1-4.66,1.58h0c-.59.18-1.2.34-1.82.48l-.53.11a6.62,6.62,0,0,1-3.76-.15l-2.56,2.59.34.09c.95.23,2.78.42,6.89-.67a68.57,68.57,0,0,0,7.14-2.36c5-1.91,10.93-5.19,12-7.47A.23.23,0,0,0,48.66,4.84Z" transform="translate(0 -0.01)"/><path class="cls-15" d="M9,22.71a1.31,1.31,0,0,1-.61-.21C4.86,20.42,2.7,17.82,2.7,15c0-5.09,6.77-9.47,16.42-11.37.63-.13,1.1-.13,1.24,0l.05.07,4.19-2c0-.07-.12-.11-.27-.11A43.64,43.64,0,0,0,9.48,5.48c-5.26,2.59-8.16,6-8.16,9.51s2.9,6.91,8.16,9.5l.7.34a.53.53,0,0,0,.41,0L9.16,22.64Z" transform="translate(0 -0.01)"/><path class="cls-16" d="M37.77,14.6c-1.16-.34-4-1-14.43,2.93-5,1.91-10.92,5.18-11.95,7.47a.3.3,0,0,0,0,.23l3-.34v-.07a.68.68,0,0,1,.24-.47,2.94,2.94,0,0,0,.27-.22,34.51,34.51,0,0,1,9.57-5,48,48,0,0,1,7-2.16c1.52-.31,7.12-1.13,4.16,5.53-.48,1.09-1.33,3.42-3.23,4.39l2.1,1.42a1,1,0,0,0,.31-.23A25.86,25.86,0,0,0,37,24.81a26.55,26.55,0,0,0,1.63-3.35,14.14,14.14,0,0,0,1-3.57C39.76,16.44,39.4,15.08,37.77,14.6Z" transform="translate(0 -0.01)"/><path class="cls-17" d="M32.29,27a5.1,5.1,0,0,1-2,.43,1.41,1.41,0,0,1-.29,0,53.43,53.43,0,0,1-14.88-2,.59.59,0,0,1-.13-.05c-.36-.12-.57-.26-.61-.47l-3,.34a.76.76,0,0,0,.43.31A50.2,50.2,0,0,0,30,28.69c1.06,0,2.12,0,3.17-.08a3.21,3.21,0,0,0,1.29-.27l-2.11-1.42A.35.35,0,0,1,32.29,27Z" transform="translate(0 -0.01)"/><path class="cls-18" d="M39.73,25.88a2.7,2.7,0,0,1,.25-.34c5.26-6,9.28-14.86,10.41-17.43a4.92,4.92,0,0,1,.24-.45A.61.61,0,0,1,51,7.34L49.45,5.13a.39.39,0,0,0-.19.19A128.07,128.07,0,0,1,38.57,23.8c-1,1.44-2.1,2.85-3.09,4.32-.07.11-.07.2,0,.25l4.23-2.06A.38.38,0,0,1,39.73,25.88Z" transform="translate(0 -0.01)"/><path class="cls-19" d="M27.8,3a5.43,5.43,0,0,1,2-.44h.3A53,53,0,0,1,45,4.59l.16,0c.39.12.58.29.6.5l2.94-.3c0-.16-.21-.27-.43-.37A50,50,0,0,0,30,1.31q-1.61,0-3.18.09a3.13,3.13,0,0,0-1.28.27l1.88,1.54Z" transform="translate(0 -0.01)"/><path class="cls-20" d="M58.72,15c0-3.54-2.9-6.92-8.16-9.51l-.7-.34a.58.58,0,0,0-.41,0L51,7.34a.4.4,0,0,1,.15,0,.94.94,0,0,1,.61.19c3.5,2.09,5.57,4.68,5.57,7.5v.3h1.41Z" transform="translate(0 -0.01)"/><path class="cls-21" d="M57.3,15.28c-.25,5-6.93,9.22-16.4,11.1-.62.12-1,.12-1.17,0l0,0-4.23,2.05a.32.32,0,0,0,.25.07,43.93,43.93,0,0,0,14.85-3.91c5.11-2.52,8-5.81,8.15-9.24Z" transform="translate(0 -0.01)"/><path class="cls-22" d="M48.66,4.84c0-.16-.21-.27-.43-.37-.7-.28-1.41-.54-2.15-.78l-1.27.86.15,0,.16,0c.39.12.58.29.6.5v0a.62.62,0,0,1-.25.47,1.49,1.49,0,0,1-.27.23l-.26.21,2.51.43A5.18,5.18,0,0,0,48.64,5,.35.35,0,0,0,48.66,4.84Z" transform="translate(0 -0.01)"/><path class="cls-23" d="M15.13,25.41c-.26-.09-.68-.2-.75-.51v-.08a.64.64,0,0,1,.24-.46l.27-.23a3.92,3.92,0,0,1,.32-.25l-2.43-.55A5.59,5.59,0,0,0,11.4,25a.3.3,0,0,0,0,.23.82.82,0,0,0,.43.32q1,.38,2,.72l1.55-.79Z" transform="translate(0 -0.01)"/><path class="cls-24" d="M50.56,5.5l-.7-.34a.58.58,0,0,0-.41,0,.39.39,0,0,0-.19.19c-.26.52-.51,1-.77,1.57l1.79,1.47c0-.09.07-.17.11-.25a4.92,4.92,0,0,1,.24-.45.57.57,0,0,1,.5-.35.94.94,0,0,1,.61.19l.34.21.14-1.32C51.7,6.08,51.14,5.79,50.56,5.5Z" transform="translate(0 -0.01)"/><path class="cls-25" d="M26.85,1.4a3.13,3.13,0,0,0-1.28.27.87.87,0,0,0-.31.23c-.36.44-.69.9-1,1.38l1.81,1.23a5.38,5.38,0,0,1,1.39-1.3L27.8,3A4.8,4.8,0,0,1,29,2.65V1.32C28.3,1.33,27.57,1.36,26.85,1.4Z" transform="translate(0 -0.01)"/><path class="cls-26" d="M32.37,26.93l-.08,0a5.1,5.1,0,0,1-2,.43,1.41,1.41,0,0,1-.29,0c-1,0-2,0-3-.08l-.25,1.29q1.62.09,3.27.09c1.07,0,2.13,0,3.18-.08a3.49,3.49,0,0,0,1.28-.27,1.19,1.19,0,0,0,.31-.23A26.59,26.59,0,0,0,37,24.82l.17-.32-1.92-1.09A7,7,0,0,1,32.37,26.93Z" transform="translate(0 -0.01)"/><path class="cls-27" d="M20.41,3.74a.39.39,0,0,1-.05.39c-.08.12-.16.23-.25.34-5.27,6-9.27,14.87-10.4,17.42l-.24.47a.75.75,0,0,1-.31.3l1.43,2.22a.31.31,0,0,0,.19-.18A128.57,128.57,0,0,1,21.47,6.21c1-1.44,2.1-2.84,3.08-4.31a.23.23,0,0,0,.05-.21Z" transform="translate(0 -0.01)"/><path class="cls-28" d="M10,21.17l-.32.72-.24.47a.75.75,0,0,1-.31.3l-.2.05a1.31,1.31,0,0,1-.61-.21c-.28-.17-.56-.34-.82-.52l.12,1.54q.84.51,1.83,1c.23.11.46.23.7.33a.49.49,0,0,0,.41,0,.31.31,0,0,0,.19-.18c.38-.78.76-1.56,1.14-2.32Z" transform="translate(0 -0.01)"/><path class="cls-29" d="M24.6,1.69c0-.07-.12-.11-.27-.1q-2.41.22-4.71.66l-1,1.49.54-.1c.63-.13,1.1-.13,1.24,0l.05.07a.39.39,0,0,1-.05.39c-.08.12-.16.23-.25.34l-.1.11h2.63c.65-.88,1.31-1.77,1.91-2.67A.2.2,0,0,0,24.6,1.69Z" transform="translate(0 -0.01)"/><path class="cls-30" d="M30,.25C13.57.25.25,6.86.25,15S13.57,29.76,30,29.76,59.75,23.16,59.75,15,46.43.25,30,.25ZM50.59,24.58C45.12,27.3,37.81,28.8,30,28.8S14.93,27.3,9.45,24.59C4.19,22,1.3,18.57,1.3,15s2.9-7,8.16-9.57C14.94,2.74,22.25,1.24,30,1.24s15.1,1.5,20.57,4.21c5.27,2.61,8.17,6,8.17,9.57S55.86,22,50.59,24.58Z" transform="translate(0 -0.01)"/><path class="cls-31" d="M29.19,12.87l-.54.12c-.81.17-2.8.48-4-.29a2.5,2.5,0,0,1-.93-2.77L20.62,11a8.16,8.16,0,0,0-.19,1.1c-.15,1.46.21,2.81,1.84,3.29l.39.11c.95.22,2.78.41,6.89-.67l1.36-.38L31,12.41C30.41,12.58,29.8,12.73,29.19,12.87Z" transform="translate(0 -0.01)"/><path class="cls-32" d="M39.6,17.9c.15-1.46-.21-2.81-1.84-3.29-1-.3-3.33-.88-10.9,1.66l.23,2A35.9,35.9,0,0,1,31.44,17c1.43-.29,6.48-1,4.57,4.45l2.8-.55A12.11,12.11,0,0,0,39.6,17.9Z" transform="translate(0 -0.01)"/><path class="cls-33" d="M38.47,14.91,35.28,17.2a2,2,0,0,1,1,1.2l3.15-2.28A2.26,2.26,0,0,0,38.47,14.91Z" transform="translate(0 -0.01)"/><path class="cls-34" d="M40.9,26.38c-.62.12-1,.12-1.17,0l0,0a.4.4,0,0,1,0-.43,2.7,2.7,0,0,1,.25-.34c.2-.22.4-.45.59-.69l-2.52-.32c-.86,1.19-1.75,2.37-2.57,3.58-.07.11-.07.21,0,.25a.3.3,0,0,0,.24.07,54.62,54.62,0,0,0,5.71-.87V26.27Z" transform="translate(0 -0.01)"/><path class="cls-1" d="M19.12,3.64C9.47,5.54,2.7,9.92,2.7,15c0,2.81,2.16,5.41,5.65,7.5a1.2,1.2,0,0,0,.61.2.64.64,0,0,0,.51-.34l.24-.47c1.13-2.56,5.13-11.42,10.4-17.43.09-.11.17-.22.25-.34a.36.36,0,0,0,0-.46C20.22,3.51,19.74,3.51,19.12,3.64Z" transform="translate(0 -0.01)"/><path class="cls-1" d="M45.12,4.64l-.16,0a53,53,0,0,0-14.87-2h-.3a5.43,5.43,0,0,0-2,.44c-2,1-2.81,3.34-3.3,4.44-3,6.66,2.63,5.84,4.15,5.53a47.65,47.65,0,0,0,7-2.17,34.65,34.65,0,0,0,9.56-5,2.76,2.76,0,0,0,.27-.23.62.62,0,0,0,.25-.47C45.72,5,45.53,4.77,45.12,4.64Z" transform="translate(0 -0.01)"/><path class="cls-35" d="M24.29,15.78h0a7,7,0,0,1-2-.28c-1.45-.43-2.09-1.57-1.91-3.39a14.51,14.51,0,0,1,1-3.59A26.8,26.8,0,0,1,23,5.15a26,26,0,0,1,2.2-3.31,2.31,2.31,0,0,1,1.66-.53C27.91,1.25,29,1.23,30,1.23A50.11,50.11,0,0,1,48.26,4.38c.16.07.64.28.46.66-1,2.32-6.95,5.61-12,7.52C31.15,14.69,27,15.78,24.29,15.78ZM30,1.4c-1,0-2.1,0-3.16.08-.82.05-1.29.19-1.53.47a24.74,24.74,0,0,0-2.19,3.29,26.48,26.48,0,0,0-1.62,3.35,14.42,14.42,0,0,0-1,3.54c-.17,1.73.43,2.81,1.79,3.21a6.64,6.64,0,0,0,2,.27c2.65,0,6.81-1.08,12.37-3.2,5-1.9,10.89-5.14,11.9-7.43,0-.11,0-.25-.37-.43A49.51,49.51,0,0,0,30,1.4Z" transform="translate(0 -0.01)"/><path class="cls-36" d="M22.69,4.37c-.42.58-.87,1.19-1.29,1.8A125.72,125.72,0,0,0,11.12,23.81l.16.07A127,127,0,0,1,21.54,6.26c.42-.6.87-1.21,1.3-1.79L24.1,2.7l-.18,0C23.52,3.24,23.1,3.81,22.69,4.37Z" transform="translate(0 -0.01)"/><path class="cls-37" d="M37.34,25.66c.43-.59.88-1.19,1.3-1.8A125.61,125.61,0,0,0,48.84,6.38l-.19,0A126.21,126.21,0,0,1,38.5,23.76c-.43.6-.87,1.21-1.3,1.79s-.78,1.07-1.16,1.61h.21Z" transform="translate(0 -0.01)"/><path class="cls-38" d="M30,28.8a49.93,49.93,0,0,1-18.24-3.16c-.16-.07-.64-.28-.46-.65,1-2.32,7-5.61,12-7.52,5.58-2.13,9.77-3.21,12.44-3.21a6.41,6.41,0,0,1,2,.28c1.45.42,2.09,1.56,1.91,3.38a14.38,14.38,0,0,1-1,3.59A26.08,26.08,0,0,1,37,24.87a24.31,24.31,0,0,1-2.19,3.31,2.26,2.26,0,0,1-1.66.53C32.14,28.77,31.07,28.8,30,28.8Zm5.73-14.37c-2.65,0-6.82,1.07-12.38,3.19-5,1.9-10.88,5.16-11.9,7.44,0,.11,0,.24.38.43A49.73,49.73,0,0,0,30,28.63c1.06,0,2.12,0,3.16-.08.82-.05,1.29-.19,1.53-.47a24.67,24.67,0,0,0,2.18-3.29,25.77,25.77,0,0,0,1.63-3.34,14.17,14.17,0,0,0,1-3.55c.18-1.73-.42-2.81-1.78-3.2a6.39,6.39,0,0,0-2-.28Z" transform="translate(0 -0.01)"/><path class="cls-39" d="M24.67,1.64c0-.07-.11-.14-.32-.14h0A43.83,43.83,0,0,0,9.44,5.42C4.15,8,1.23,11.44,1.23,15s2.92,7,8.21,9.58l.71.34a.64.64,0,0,0,.28.06.45.45,0,0,0,.43-.26c.14-.28.28-.57.43-.85l-.16-.07c-.14.28-.28.57-.43.85a.34.34,0,0,1-.47.12h0l-.7-.34C4.29,21.86,1.41,18.51,1.41,15S4.29,8.15,9.52,5.57a43.48,43.48,0,0,1,14.83-3.9c.11,0,.16,0,.17,0a.18.18,0,0,1,0,.14l-.56.81.19,0L24.63,2A.29.29,0,0,0,24.67,1.64Z" transform="translate(0 -0.01)"/><path class="cls-40" d="M50.61,5.44,49.9,5.1a.53.53,0,0,0-.71.19v0c-.17.36-.34.72-.52,1.07l.18,0c.17-.34.33-.68.5-1a.31.31,0,0,1,.28-.16.54.54,0,0,1,.21,0l.7.34c5.22,2.57,8.1,5.93,8.1,9.42s-2.88,6.85-8.11,9.43a43.59,43.59,0,0,1-14.74,3.91c-.14,0-.34,0-.22-.18s.46-.67.7-1h-.21c-.21.3-.43.6-.64.91a.27.27,0,0,0,0,.3c.08.15.31.14.46.12a43.66,43.66,0,0,0,14.78-3.9c5.29-2.61,8.2-6,8.2-9.58S55.9,8.05,50.61,5.44Z" transform="translate(0 -0.01)"/></g></svg>