<svg id="katman_1" data-name="katman 1" xmlns="http://www.w3.org/2000/svg" viewBox="0 0 2500 2500"><defs><style>.cls-1{fill:#fff;}.cls-1,.cls-2{fill-rule:evenodd;}.cls-2{fill:#cc2229;}</style></defs><path class="cls-1" d="M0,0H2500V2500H0Z"/><path class="cls-2" d="M829.29,1236.52,1003,982.33c6.66-10-1.33-21.3-15.3-21.3l-134.08-1c-10,0-30,12.65-38.6,23.62l-60.54,78.86-84.18,110.13.67-190.32c0-13-13.65-21.3-22-21.3H495.24c-10.65,0-20.3,4-20.62,23.62-.33,19.3,23.61,23.29,23.61,28.61V1522c0,9.65,13.31,24.28,22.64,24.28l131.74-.67c9.33-.33,17.3-13.64,17.3-22.63l.33-211.94,84.17,104.14L843.58,1525c7.31,8.65,21.62,20.63,36.6,20.63l143.07-1c13.64,0,12.31-16.65,9-21Q930.21,1380.47,829.29,1236.52ZM1323,961.05H1171c-18,0-22,10.64-25,22,3.32,20.63,25,26.28,25,26.62V1523c0,13.64,8.32,22.63,20,22.63l54.56-.34,81.18-.66c15,0,19-9,19-21.63V982.33C1345.64,969.36,1334.67,961.05,1323,961.05Z"/><path class="cls-2" d="M1785.82,698.86c-161.69-40.92-343.67-63.87-536-63.87-1.33,0-2.67.32-4.32.32-174.34,0-340.7,19.3-491.08,53.57C332.21,785.37,36.76,1001,36.76,1250.17S332.21,1715,754.41,1811.45C904.8,1845.73,1071.15,1865,1245.5,1865h4.32c192.31,0,374.29-22.62,536-63.54,400.92-100.47,677.41-310.08,677.41-551.3s-276.47-450.83-677.4-551.31Zm0,968.53c-159.36,36.94-342,57.9-536,57.9-1.33,0-2.67-.32-4.32-.32-175.67,0-342.36-17.64-491.08-48.59-372.31-77.52-629.17-239.55-629.17-426.2S382.12,901.5,754.43,824c148.72-30.94,315.41-48.58,491.08-48.91h4.32c194,0,376.63,21,536,57.89,350.34,80.51,588.9,237.55,588.9,417.21s-238.56,336.71-588.9,417.22Z"/><path class="cls-2" d="M1890.62,983c-5-11.32-13.64-22-25-22H1660.05c-7.31,0-17.3,6-17.3,16-.32,29.28,30.3,28.29,28.62,32.61L1498,1521c-3,8.65,4.66,24.62,15.31,24.62l120.77-1c10.64,0,25.62-9,30-22L1721.28,1351q29-85.85,57.56-171.68c1-2.32,4-3.66,7-3.66,4.66,0,9.65,1.66,10.64,5l112.13,344c2.34,7.65,18,20,26.27,20l125.77,1c7.31,0,16-14.64,13.65-21.3L1890.62,983Z"/></svg>