<svg id="katman_1" data-name="katman 1" xmlns="http://www.w3.org/2000/svg" viewBox="0 0 60 30"><defs><style>.cls-1{fill:#cc2229;fill-rule:evenodd;}</style></defs><path class="cls-1" d="M56.36,649.66l4.29-6.2c.17-.24,0-.52-.38-.52l-3.31,0a1.78,1.78,0,0,0-1,.57l-1.49,1.93-2.08,2.68v-4.64a.57.57,0,0,0-.54-.52H48.1c-.27,0-.51.1-.51.58s.58.57.58.7v12.4a.74.74,0,0,0,.56.6l3.26,0c.23,0,.43-.33.43-.55v-5.17L54.51,654l2.2,2.68a1.35,1.35,0,0,0,.91.5l3.53,0c.34,0,.31-.41.23-.52Q58.85,653.18,56.36,649.66Zm12.21-6.72H64.81c-.45,0-.55.26-.62.54a.91.91,0,0,0,.62.65v12.52a.5.5,0,0,0,.49.55h3.36c.37,0,.47-.22.47-.53V643.46A.54.54,0,0,0,68.57,642.94Z" transform="translate(-36.76 -634.99)"/><path class="cls-1" d="M80,636.55A55,55,0,0,0,66.76,635h-.11a56,56,0,0,0-12.14,1.3c-10.44,2.36-17.75,7.62-17.75,13.69s7.31,11.34,17.75,13.69A55.37,55.37,0,0,0,66.65,665h.11A55,55,0,0,0,80,663.44C89.92,661,96.76,655.88,96.76,650S89.92,639,80,636.55Zm0,23.62a60.17,60.17,0,0,1-13.25,1.41h-.11a61.2,61.2,0,0,1-12.14-1.18C45.3,658.5,39,654.55,39,650s6.35-8.5,15.56-10.39a61.92,61.92,0,0,1,12.14-1.19h.11A60.17,60.17,0,0,1,80,639.82c8.66,2,14.56,5.79,14.56,10.17s-5.9,8.22-14.56,10.18Z" transform="translate(-36.76 -634.99)"/><path class="cls-1" d="M82.6,643.48c-.12-.28-.34-.54-.62-.54H76.9a.43.43,0,0,0-.43.39c0,.72.75.69.71.8L72.89,656.6c-.07.21.12.6.38.6l3,0a.87.87,0,0,0,.74-.54l1.41-4.19c.48-1.39,1-2.79,1.43-4.18a.18.18,0,0,1,.17-.09c.12,0,.24,0,.26.12l2.78,8.39a.94.94,0,0,0,.65.49l3.11,0c.18,0,.39-.36.33-.52Z" transform="translate(-36.76 -634.99)"/></svg>