<svg id="katman_1" data-name="katman 1" xmlns="http://www.w3.org/2000/svg" xmlns:xlink="http://www.w3.org/1999/xlink" viewBox="0 0 57.91 45.25"><defs><style>.cls-1,.cls-4{fill:#1a1a1a;}.cls-2,.cls-5{fill:#8c8c8c;}.cls-3{fill:url(#Adsız_degrade);}.cls-4,.cls-5,.cls-6,.cls-8{stroke:#f2f2f2;}.cls-16,.cls-4,.cls-5,.cls-6,.cls-8,.cls-9{stroke-miterlimit:35.15;stroke-width:0.25px;}.cls-6{fill:#c2c2c2;}.cls-7{fill:url(#Adsız_degrade_2);}.cls-16,.cls-8,.cls-9{fill:none;}.cls-16,.cls-9{stroke:#1a1a1a;}.cls-10{fill:url(#Adsız_degrade_3);}.cls-11{fill:url(#Adsız_degrade_4);}.cls-12{fill:url(#Adsız_degrade_5);}.cls-13{fill:url(#Adsız_degrade_6);}.cls-14{fill:url(#Adsız_degrade_7);}.cls-15{fill:url(#Adsız_degrade_8);}.cls-16{stroke-linecap:square;}</style><linearGradient id="Adsız_degrade" x1="257.73" y1="1565.49" x2="262.2" y2="1565.49" gradientTransform="matrix(8.79, 0, 0, -8.79, -2258.3, 13777.16)" gradientUnits="userSpaceOnUse"><stop offset="0" stop-color="#8c8c8c"/><stop offset="1" stop-color="#4d4d4d"/></linearGradient><linearGradient id="Adsız_degrade_2" x1="258.86" y1="1566.62" x2="262.72" y2="1563.38" gradientTransform="matrix(8.79, 0, 0, -8.79, -2258.3, 13777.16)" gradientUnits="userSpaceOnUse"><stop offset="0" stop-color="#e0e0e0"/><stop offset="0.15" stop-color="#939393"/><stop offset="0.17" stop-color="#9f9f9f"/><stop offset="0.23" stop-color="#c1c1c1"/><stop offset="0.3" stop-color="#dcdcdc"/><stop offset="0.37" stop-color="#f0f0f0"/><stop offset="0.44" stop-color="#fbfbfb"/><stop offset="0.51" stop-color="#fff"/><stop offset="0.58" stop-color="#fbfbfb"/><stop offset="0.64" stop-color="#f0f0f0"/><stop offset="0.7" stop-color="#dcdcdc"/><stop offset="0.76" stop-color="#c1c1c1"/><stop offset="0.82" stop-color="#9e9e9e"/><stop offset="0.85" stop-color="#8c8c8c"/><stop offset="1" stop-color="#fafafa"/></linearGradient><linearGradient id="Adsız_degrade_3" x1="258.23" y1="1563.81" x2="263.3" y2="1563.81" gradientTransform="matrix(8.79, 0, 0, -8.79, -2258.3, 13777.16)" gradientUnits="userSpaceOnUse"><stop offset="0.01" stop-color="#1a1a1a"/><stop offset="0.01" stop-color="#282828"/><stop offset="0.03" stop-color="#5d5d5d"/><stop offset="0.05" stop-color="#888"/><stop offset="0.06" stop-color="#a6a6a6"/><stop offset="0.08" stop-color="#b9b9b9"/><stop offset="0.08" stop-color="#bfbfbf"/><stop offset="0.14" stop-color="#999"/><stop offset="0.21" stop-color="#777"/><stop offset="0.28" stop-color="#5a5a5a"/><stop offset="0.36" stop-color="#424242"/><stop offset="0.45" stop-color="#303030"/><stop offset="0.56" stop-color="#232323"/><stop offset="0.7" stop-color="#1c1c1c"/><stop offset="1" stop-color="#1a1a1a"/></linearGradient><linearGradient id="Adsız_degrade_4" x1="258.27" y1="1566.18" x2="263.35" y2="1566.18" gradientTransform="matrix(8.79, 0, 0, -8.79, -2258.3, 13777.16)" gradientUnits="userSpaceOnUse"><stop offset="0" stop-color="#e0e0e0"/><stop offset="0.12" stop-color="#dbdbdb"/><stop offset="0.26" stop-color="#ccc"/><stop offset="0.42" stop-color="#b2b2b2"/><stop offset="0.59" stop-color="#8f8f8f"/><stop offset="0.77" stop-color="#626262"/><stop offset="0.84" stop-color="#4d4d4d"/><stop offset="1" stop-color="#1a1a1a"/></linearGradient><linearGradient id="Adsız_degrade_5" x1="258.34" y1="1563.87" x2="263.19" y2="1563.87" gradientTransform="matrix(8.79, 0, 0, -8.79, -2258.3, 13777.16)" gradientUnits="userSpaceOnUse"><stop offset="0" stop-color="#fff"/><stop offset="0" stop-color="#ececec"/><stop offset="0" stop-color="#dbdbdb"/><stop offset="0" stop-color="#d0d0d0"/><stop offset="0" stop-color="#c9c9c9"/><stop offset="0.01" stop-color="#c7c7c7"/><stop offset="0.18" stop-color="#c9c9c9"/><stop offset="0.28" stop-color="#d2d2d2"/><stop offset="0.36" stop-color="#e0e0e0"/><stop offset="0.43" stop-color="#f4f4f4"/><stop offset="0.47" stop-color="#fff"/><stop offset="0.64" stop-color="#fdfdfd"/><stop offset="0.73" stop-color="#f5f5f5"/><stop offset="0.81" stop-color="#e7e7e7"/><stop offset="0.87" stop-color="#d4d4d4"/><stop offset="0.93" stop-color="#bcbcbc"/><stop offset="0.98" stop-color="#9d9d9d"/><stop offset="1" stop-color="#8c8c8c"/></linearGradient><linearGradient id="Adsız_degrade_6" x1="258.97" y1="1566.87" x2="263.23" y2="1564.81" gradientTransform="matrix(8.79, 0, 0, -8.79, -2258.3, 13777.16)" gradientUnits="userSpaceOnUse"><stop offset="0.01" stop-color="#c7c7c7"/><stop offset="0.03" stop-color="#d2d2d2"/><stop offset="0.06" stop-color="#ddd"/><stop offset="0.09" stop-color="#e0e0e0"/><stop offset="0.1" stop-color="#e9e9e9"/><stop offset="0.12" stop-color="#f6f6f6"/><stop offset="0.14" stop-color="#fdfdfd"/><stop offset="0.2" stop-color="#fff"/><stop offset="0.71" stop-color="#8c8c8c"/><stop offset="1" stop-color="#8c8c8c"/></linearGradient><linearGradient id="Adsız_degrade_7" x1="263.08" y1="1566.06" x2="258.53" y2="1566.06" gradientTransform="matrix(8.79, 0, 0, -8.79, -2258.3, 13777.16)" gradientUnits="userSpaceOnUse"><stop offset="0" stop-color="#e0e0e0"/><stop offset="0" stop-color="#e0e0e0"/><stop offset="0.01" stop-color="#e0e0e0"/><stop offset="0.18" stop-color="#c2c2c2"/><stop offset="0.57" stop-color="#757575"/><stop offset="1" stop-color="#1a1a1a"/></linearGradient><linearGradient id="Adsız_degrade_8" x1="263.04" y1="1563.93" x2="258.49" y2="1563.93" gradientTransform="matrix(8.79, 0, 0, -8.79, -2258.3, 13777.16)" gradientUnits="userSpaceOnUse"><stop offset="0" stop-color="#1a1a1a"/><stop offset="0.02" stop-color="#303030"/><stop offset="0.06" stop-color="#656565"/><stop offset="0.1" stop-color="#929292"/><stop offset="0.15" stop-color="#b4b4b4"/><stop offset="0.18" stop-color="#ccc"/><stop offset="0.22" stop-color="#dbdbdb"/><stop offset="0.25" stop-color="#e0e0e0"/><stop offset="0.36" stop-color="#ddd"/><stop offset="0.47" stop-color="#d1d1d1"/><stop offset="0.57" stop-color="#bdbdbd"/><stop offset="0.68" stop-color="#a2a2a2"/><stop offset="0.78" stop-color="#7e7e7e"/><stop offset="0.89" stop-color="#535353"/><stop offset="0.99" stop-color="#212121"/><stop offset="1" stop-color="#1a1a1a"/></linearGradient></defs><path class="cls-1" d="M42.54,20.77l3.18-1.1-7.34,5.41-2.82.84Z" transform="translate(-4.34 -2.47)"/><path class="cls-2" d="M61.93,26.43l-1.79.9L35.56,25.92l2.82-.84Z" transform="translate(-4.34 -2.47)"/><path class="cls-1" d="M60.11,29.2,20.58,30.49l3.19-1.1,35.79-1.18Z" transform="translate(-4.34 -2.47)"/><path class="cls-2" d="M20.58,30.49l3.19-1.1,7-5.15-2.82.84Z" transform="translate(-4.34 -2.47)"/><path class="cls-1" d="M30.76,24.24l-2.82.84L4.65,23.73l1.79-.9Z" transform="translate(-4.34 -2.47)"/><path class="cls-2" d="M6.47,21,7,22l-.58.88-1.79.9Z" transform="translate(-4.34 -2.47)"/><path class="cls-3" d="M6.47,21,7,22l35.52-1.18,3.18-1.1" transform="translate(-4.34 -2.47)"/><path class="cls-4" d="M38.38,25.08l-2.82.84,7-5.15" transform="translate(-4.34 -2.47)"/><path class="cls-5" d="M61.93,26.43l-1.79.9L35.56,25.92" transform="translate(-4.34 -2.47)"/><path class="cls-4" d="M20.58,30.49l3.19-1.1,35.79-1.18.55,1" transform="translate(-4.34 -2.47)"/><path class="cls-1" d="M60.11,29.2l-.55-1,.58-.88,1.79-.9" transform="translate(-4.34 -2.47)"/><path class="cls-6" d="M20.58,30.49l3.19-1.1,7-5.15-2.82.84" transform="translate(-4.34 -2.47)"/><path class="cls-7" d="M7,22l-.58.88,24.32,1.41-7,5.15,35.79-1.18.58-.88L35.56,25.92l7-5.15L7,22Z" transform="translate(-4.34 -2.47)"/><path class="cls-4" d="M4.65,23.73l1.79-.9,24.32,1.41-3.12.93" transform="translate(-4.34 -2.47)"/><path class="cls-8" d="M6.47,21,7,22l-.58.88-1.79.9" transform="translate(-4.34 -2.47)"/><path class="cls-8" d="M6.47,21,7,22l35.52-1.18,3.18-1.1" transform="translate(-4.34 -2.47)"/><path class="cls-9" d="M45.72,19.62,6.44,20.92,4.56,23.77,27.8,25.12l-7.37,5.42,39.71-1.3L62,26.39,38.52,25l7.35-5.42Z" transform="translate(-4.34 -2.47)"/><path class="cls-10" d="M54.44,29a21.23,21.23,0,0,1-3.83,8.87A21.49,21.49,0,0,1,11.87,23.51l-1,.58A22.51,22.51,0,0,0,55.4,29.35l-1-.38Z" transform="translate(-4.34 -2.47)"/><path class="cls-11" d="M55.78,26.08a22.5,22.5,0,0,0-44.57-5.27l.92.54A21.49,21.49,0,0,1,54.72,26.8l1.06-.72Z" transform="translate(-4.34 -2.47)"/><path class="cls-12" d="M53.06,29.09A20.16,20.16,0,0,1,13.18,23.8l-1.32-.27A21.49,21.49,0,0,0,54.44,29l-1.38.12Z" transform="translate(-4.34 -2.47)"/><path class="cls-13" d="M54.73,26.8a21.49,21.49,0,0,0-42.59-5.45l1.33.11A20.16,20.16,0,0,1,53.4,26.64l1.33.16Z" transform="translate(-4.34 -2.47)"/><path class="cls-14" d="M53.41,26.64c0-.51.05-1,.05-1.55a20.16,20.16,0,0,0-40-3.62l1.18-.78a19.17,19.17,0,0,1,37.82,4.4c0,.38,0,.76,0,1.13l1,.42Z" transform="translate(-4.34 -2.47)"/><path class="cls-15" d="M52,29.51a19.16,19.16,0,0,1-37.81-4.42c0-.31,0-.61,0-.91l-1-.38c0,.43,0,.86,0,1.29a20.16,20.16,0,0,0,39.93,4Z" transform="translate(-4.34 -2.47)"/><path class="cls-8" d="M54.73,26.8c.05-.56.07-1.13.07-1.71a21.5,21.5,0,0,0-42.67-3.74m-.27,2.18q-.06.78-.06,1.56A21.5,21.5,0,0,0,54.45,29" transform="translate(-4.34 -2.47)"/><path class="cls-9" d="M10.82,24.09l1-.58,1.31.29,1,.38c0,.31,0,.61,0,.91a19.16,19.16,0,0,0,37.8,4.44l1.13-.44L54.45,29l.95.38" transform="translate(-4.34 -2.47)"/><path class="cls-16" d="M55.39,29.38A22.5,22.5,0,0,1,10.8,25.09c0-.32,0-.64,0-1" transform="translate(-4.34 -2.47)"/><path class="cls-9" d="M14.64,20.69a19.17,19.17,0,0,1,37.82,4.4c0,.25,0,.5,0,.75" transform="translate(-4.34 -2.47)"/><path class="cls-16" d="M11.22,20.76A22.5,22.5,0,0,1,55.8,25.09c0,.32,0,.63,0,.94" transform="translate(-4.34 -2.47)"/></svg>