<svg id="katman_1" data-name="katman 1" xmlns="http://www.w3.org/2000/svg" xmlns:xlink="http://www.w3.org/1999/xlink" viewBox="0 0 44 45"><defs><style>.cls-1{fill:#231f20;}.cls-2{fill:url(#Adsız_degrade);}.cls-3{fill:url(#Adsız_degrade_2);}.cls-4{fill:url(#Adsız_degrade_3);}.cls-5{fill:url(#Adsız_degrade_4);}.cls-6{fill:url(#Adsız_degrade_5);}.cls-7{fill:url(#Adsız_degrade_6);}.cls-8{fill:url(#Adsız_degrade_7);}.cls-9{fill:url(#Adsız_degrade_8);}.cls-10{fill:url(#Adsız_degrade_9);}.cls-11{fill:url(#Adsız_degrade_10);}.cls-12{fill:#7f7d7e;}.cls-13{fill:url(#Adsız_degrade_11);}.cls-14{fill:url(#Adsız_degrade_12);}.cls-15{fill:url(#Adsız_degrade_13);}.cls-16{fill:url(#Adsız_degrade_14);}.cls-17{fill:url(#Adsız_degrade_15);}.cls-18{fill:url(#Adsız_degrade_16);}.cls-19{fill:url(#Adsız_degrade_17);}.cls-20{fill:url(#Adsız_degrade_18);}.cls-21{fill:url(#Adsız_degrade_19);}.cls-22{fill:url(#Adsız_degrade_20);}.cls-23{fill:url(#Adsız_degrade_21);}.cls-24{fill:url(#Adsız_degrade_22);}.cls-25{fill:url(#Adsız_degrade_23);}.cls-26{fill:url(#Adsız_degrade_24);}.cls-27{fill:url(#Adsız_degrade_25);}.cls-28{fill:url(#Adsız_degrade_26);}.cls-29{fill:url(#Adsız_degrade_27);}</style><linearGradient id="Adsız_degrade" x1="267.63" y1="63.04" x2="265.24" y2="66.7" gradientTransform="translate(-5572.47 -1467.49) scale(20.98 23.37)" gradientUnits="userSpaceOnUse"><stop offset="0" stop-color="#d3d3d3"/><stop offset="0.37" stop-color="#4f4c4c"/><stop offset="0.81" stop-color="#b0afaf"/><stop offset="1" stop-color="#231f20"/></linearGradient><linearGradient id="Adsız_degrade_2" x1="265.85" y1="63.7" x2="266.29" y2="62.68" gradientTransform="translate(-5572.47 -1467.49) scale(20.98 23.37)" gradientUnits="userSpaceOnUse"><stop offset="0" stop-color="#b2b1b1"/><stop offset="0.2" stop-color="#b2b1b1"/><stop offset="0.99" stop-color="#656263"/><stop offset="1" stop-color="#656263"/></linearGradient><linearGradient id="Adsız_degrade_3" x1="267.45" y1="63.12" x2="266.88" y2="63.06" gradientTransform="translate(-5572.47 -1467.49) scale(20.98 23.37)" gradientUnits="userSpaceOnUse"><stop offset="0" stop-color="#4f4c4c"/><stop offset="0.36" stop-color="#fff"/><stop offset="0.82" stop-color="#4f4c4c"/><stop offset="1" stop-color="#393536"/></linearGradient><linearGradient id="Adsız_degrade_4" x1="266.14" y1="63.82" x2="266.59" y2="62.81" gradientTransform="translate(-5572.47 -1467.49) scale(20.98 23.37)" gradientUnits="userSpaceOnUse"><stop offset="0" stop-color="#d3d3d3"/><stop offset="0.37" stop-color="#b2b1b1"/><stop offset="0.99" stop-color="#231f20"/><stop offset="1" stop-color="#231f20"/></linearGradient><linearGradient id="Adsız_degrade_5" x1="267.27" y1="65" x2="259.16" y2="56.75" gradientTransform="translate(-5572.47 -1467.49) scale(20.98 23.37)" gradientUnits="userSpaceOnUse"><stop offset="0" stop-color="#918f90"/><stop offset="0.12" stop-color="#9c9a9b"/><stop offset="0.17" stop-color="#7b7979"/><stop offset="0.31" stop-color="#918f90"/><stop offset="0.47" stop-color="#f4f4f4"/><stop offset="0.84" stop-color="#7f7d7e"/><stop offset="0.96" stop-color="#4f4c4c"/><stop offset="1" stop-color="#4f4c4c"/></linearGradient><radialGradient id="Adsız_degrade_6" cx="278.4" cy="71.62" r="31.58" gradientTransform="translate(-336.23 -82.37) scale(1.27 1.31)" gradientUnits="userSpaceOnUse"><stop offset="0" stop-color="#fff"/><stop offset="0.47" stop-color="#fff"/><stop offset="0.75" stop-color="#9c9a9b"/><stop offset="0.85" stop-color="#7b7979"/><stop offset="1" stop-color="#4f4c4c"/></radialGradient><radialGradient id="Adsız_degrade_7" cx="280.2" cy="76.08" r="11.15" gradientTransform="translate(-336.23 -86.55) scale(1.27 1.26)" gradientUnits="userSpaceOnUse"><stop offset="0" stop-color="#fff"/><stop offset="0.23" stop-color="#fff"/><stop offset="1" stop-color="#231f20"/></radialGradient><radialGradient id="Adsız_degrade_8" cx="278.43" cy="65.89" r="13.14" gradientTransform="translate(-336.23 -82.37) scale(1.27 1.31)" gradientUnits="userSpaceOnUse"><stop offset="0" stop-color="#fff"/><stop offset="0.57" stop-color="#f7f7f7"/><stop offset="0.86" stop-color="#231f20"/><stop offset="1" stop-color="#231f20"/></radialGradient><radialGradient id="Adsız_degrade_9" cx="284.03" cy="72.06" r="43.54" gradientTransform="translate(-336.23 -82.37) scale(1.27 1.31)" gradientUnits="userSpaceOnUse"><stop offset="0" stop-color="#fff"/><stop offset="0.25" stop-color="#fff"/><stop offset="0.35" stop-color="#a7a6a6"/><stop offset="0.41" stop-color="#7b7979"/><stop offset="0.47" stop-color="#4f4c4c"/><stop offset="1" stop-color="#4f4c4c"/></radialGradient><linearGradient id="Adsız_degrade_10" x1="266.25" y1="63.65" x2="264.95" y2="63.97" gradientTransform="translate(-5572.47 -1467.49) scale(20.98 23.37)" gradientUnits="userSpaceOnUse"><stop offset="0" stop-color="#f4f4f4"/><stop offset="0.26" stop-color="#bdbcbc"/><stop offset="0.65" stop-color="#f4f4f4"/><stop offset="0.9" stop-color="#fff"/><stop offset="1" stop-color="#fff"/></linearGradient><linearGradient id="Adsız_degrade_11" x1="676" y1="236.51" x2="689.18" y2="252.57" gradientTransform="translate(-6205.77 -2422.14) scale(9.2 10.25)" gradientUnits="userSpaceOnUse"><stop offset="0" stop-color="#fff"/><stop offset="0.07" stop-color="#e3e2e2"/><stop offset="0.16" stop-color="#fff"/><stop offset="0.33" stop-color="#d3d3d3"/><stop offset="0.5" stop-color="#fff"/><stop offset="0.98" stop-color="#bbbaba"/><stop offset="1" stop-color="#bbbaba"/></linearGradient><linearGradient id="Adsız_degrade_12" x1="265.92" y1="63.16" x2="271.87" y2="68.81" gradientTransform="translate(-5572.47 -1467.49) scale(20.98 23.37)" gradientUnits="userSpaceOnUse"><stop offset="0" stop-color="#dedede"/><stop offset="0.51" stop-color="#4f4c4c"/><stop offset="1" stop-color="#dedede"/></linearGradient><linearGradient id="Adsız_degrade_13" x1="266.56" y1="63.84" x2="264.29" y2="67.24" gradientTransform="translate(-5572.47 -1467.49) scale(20.98 23.37)" gradientUnits="userSpaceOnUse"><stop offset="0" stop-color="#c8c7c8"/><stop offset="0.1" stop-color="#fff"/><stop offset="0.35" stop-color="#f0f0f0"/><stop offset="0.54" stop-color="#fff"/><stop offset="0.71" stop-color="#393536"/><stop offset="0.84" stop-color="#fff"/><stop offset="0.91" stop-color="#514e4f"/><stop offset="1" stop-color="#868484"/></linearGradient><linearGradient id="Adsız_degrade_14" x1="266.53" y1="64.27" x2="267.18" y2="64.65" gradientTransform="translate(-5572.47 -1467.49) scale(20.98 23.37)" gradientUnits="userSpaceOnUse"><stop offset="0" stop-color="#fff"/><stop offset="0.52" stop-color="#cfcece"/><stop offset="0.83" stop-color="#4f4c4c"/><stop offset="1" stop-color="#393536"/></linearGradient><linearGradient id="Adsız_degrade_15" x1="266.59" y1="63.93" x2="267.34" y2="63.04" gradientTransform="translate(-5572.47 -1467.49) scale(20.98 23.37)" gradientUnits="userSpaceOnUse"><stop offset="0" stop-color="#fff"/><stop offset="0.21" stop-color="#fff"/><stop offset="0.5" stop-color="#dedede"/><stop offset="0.94" stop-color="#9c9a9b"/><stop offset="1" stop-color="#959494"/></linearGradient><linearGradient id="Adsız_degrade_16" x1="267.01" y1="62.89" x2="267.84" y2="63.74" gradientTransform="translate(-5572.47 -1467.49) scale(20.98 23.37)" gradientUnits="userSpaceOnUse"><stop offset="0" stop-color="#231f20"/><stop offset="0.18" stop-color="#f4f4f4"/><stop offset="0.58" stop-color="#444041"/><stop offset="1" stop-color="#231f20"/></linearGradient><linearGradient id="Adsız_degrade_17" x1="267.01" y1="63.73" x2="267.98" y2="63.1" xlink:href="#Adsız_degrade_16"/><linearGradient id="Adsız_degrade_18" x1="267.22" y1="63.02" x2="268.51" y2="63.02" gradientTransform="translate(-5572.47 -1467.49) scale(20.98 23.37)" gradientUnits="userSpaceOnUse"><stop offset="0" stop-color="#656263"/><stop offset="0.29" stop-color="#d3d3d3"/><stop offset="0.53" stop-color="#656263"/><stop offset="0.76" stop-color="#393536"/><stop offset="1" stop-color="#231f20"/></linearGradient><linearGradient id="Adsız_degrade_19" x1="265.88" y1="64.53" x2="268.86" y2="64.53" gradientTransform="translate(-5572.47 -1467.49) scale(20.98 23.37)" gradientUnits="userSpaceOnUse"><stop offset="0" stop-color="#231f20"/><stop offset="0.18" stop-color="#9e9d9d"/><stop offset="0.58" stop-color="#444041"/><stop offset="1" stop-color="#231f20"/></linearGradient><linearGradient id="Adsız_degrade_20" x1="266.84" y1="64.27" x2="268.17" y2="64.27" xlink:href="#Adsız_degrade_19"/><linearGradient id="Adsız_degrade_21" x1="267.07" y1="64.3" x2="269.51" y2="64.3" xlink:href="#Adsız_degrade_19"/><linearGradient id="Adsız_degrade_22" x1="265.84" y1="63.78" x2="268.4" y2="63.78" gradientTransform="translate(-5572.47 -1467.49) scale(20.98 23.37)" gradientUnits="userSpaceOnUse"><stop offset="0" stop-color="#7b7979"/><stop offset="0.18" stop-color="#d3d3d3"/><stop offset="1" stop-color="#231f20"/></linearGradient><linearGradient id="Adsız_degrade_23" x1="265.86" y1="63.43" x2="266.74" y2="63.43" gradientTransform="translate(-5572.47 -1467.49) scale(20.98 23.37)" gradientUnits="userSpaceOnUse"><stop offset="0" stop-color="#444041"/><stop offset="0.18" stop-color="#d3d3d3"/><stop offset="1" stop-color="#231f20"/></linearGradient><linearGradient id="Adsız_degrade_24" x1="265.66" y1="63.72" x2="266.26" y2="63.72" gradientTransform="translate(-5572.47 -1467.49) scale(20.98 23.37)" gradientUnits="userSpaceOnUse"><stop offset="0" stop-color="#7b7979"/><stop offset="0.18" stop-color="#bdbcbc"/><stop offset="1" stop-color="#444041"/></linearGradient><linearGradient id="Adsız_degrade_25" x1="266.46" y1="62.9" x2="266.53" y2="63.04" gradientTransform="translate(-5572.47 -1467.49) scale(20.98 23.37)" gradientUnits="userSpaceOnUse"><stop offset="0" stop-color="#fff"/><stop offset="0.12" stop-color="#eee"/><stop offset="0.91" stop-color="#5a5758"/><stop offset="1" stop-color="#5a5758"/></linearGradient><linearGradient id="Adsız_degrade_26" x1="266.25" y1="63.22" x2="268.67" y2="63.22" gradientTransform="translate(-5572.47 -1467.49) scale(20.98 23.37)" gradientUnits="userSpaceOnUse"><stop offset="0" stop-color="#fff"/><stop offset="0.98" stop-color="#231f20"/><stop offset="1" stop-color="#231f20"/></linearGradient><linearGradient id="Adsız_degrade_27" x1="266.21" y1="64.57" x2="267.05" y2="61.59" gradientTransform="translate(-5572.47 -1467.49) scale(20.98 23.37)" gradientUnits="userSpaceOnUse"><stop offset="0" stop-color="#e9e9e9"/><stop offset="0.07" stop-color="#5a5758"/><stop offset="0.35" stop-color="#918f90"/><stop offset="0.6" stop-color="#b7b5b6"/><stop offset="0.96" stop-color="#706d6e"/><stop offset="1" stop-color="#b2b1b1"/></linearGradient></defs><path class="cls-1" d="M44,41.36a61.09,61.09,0,0,0-6.9-12.2c-.55-.72-.37-1.17-.09-1.35a31.11,31.11,0,0,0,2.48-2.44c1.2-1.36,1.47-2.89.65-5.06s-3.59-7.32-4.15-9c-.64-2-.73-2.8-.36-3.88C36,6.12,36.77,6,37.23,6.12a.49.49,0,0,1,.46.46,6.67,6.67,0,0,0,.55,2.71,8.41,8.41,0,0,0,3.87,4.06c.46.18.55-.18.55-.36s-.83-3-1.38-5.15-.83-2.71-1.38-3.16A5,5,0,0,0,36.77,3.5,4.26,4.26,0,0,0,33.27,6c-.1.18-.18.27-.37.18-.64-.44-2.67-2.07-2.85-3.07-.09-.63-.19-.72-.83-.9A34.93,34.93,0,0,0,22.59.16a3.09,3.09,0,0,0-2,0,12.8,12.8,0,0,0-4.23,1.45,2.58,2.58,0,0,0-1,.81.6.6,0,0,1-.46.36,21.5,21.5,0,0,0-2.67,1.09c-.36.18-.55.45-.36.81a10.86,10.86,0,0,0,1.65,2.53,3.48,3.48,0,0,0,1,.36c.18,0,.27.09.27,0s.09-.27.37-.54a4.38,4.38,0,0,1,1.75-.54,1.64,1.64,0,0,1,.74.09,2.33,2.33,0,0,1,.73,1c.19.45.09.54-.18.72a8.83,8.83,0,0,1-1.84.37c-.83.09-1.1-.19-1.1-.19s-.19-.09-.28,0a3,3,0,0,1-.64.45c-.19.09-.28.27-.1.55.56.9,1.2,1.89,1.84,2.07s.83,0,1.38-.45.83-.36,1-.27.46.36.36.63a9.14,9.14,0,0,1-1.28,1.72c-.19.18-.37.36-.65.18-.46-.18-7.08-3.61-8-4a9.2,9.2,0,0,0-2.58-.55A11.2,11.2,0,0,0,3.82,9a2.15,2.15,0,0,0-1.19.73C2,10.28,1.34,11,1.34,11.54A5.63,5.63,0,0,0,1.8,12.9a.47.47,0,0,0,.37.18,5.72,5.72,0,0,1,1.75-.27c.73.09.83.63.83,1.08a.29.29,0,0,0,.27.27,2.73,2.73,0,0,1,1.29.28,12.12,12.12,0,0,1,2.12,1.44c.18.18.18.36-.18.36a34.78,34.78,0,0,0-5.16,1c-.83.27-1.75.63-2,1.17a9.55,9.55,0,0,0-1,2.44,2.79,2.79,0,0,0,.82,1.81c.19.18.28.18.46.09a5.12,5.12,0,0,1,2.21-.81c.56,0,.74.45.92.63s.28.09.74-.09a49.54,49.54,0,0,1,7.45-.09,7.43,7.43,0,0,1,2.67.54,14.43,14.43,0,0,1,2.21,1.81S15.61,27.9,14.6,29.8c-.92,1.71-1.66,3-2,3.79A7.42,7.42,0,0,0,12,36c.09,1.08.09,1.72.09,2.17s-.46.45-1,.63c-.83.18-2.49.36-3.86.72-1.2.27-1.66.55-1.93,1.54a18.93,18.93,0,0,0-.46,3.34c0,.36,0,.54.36.45a7,7,0,0,1,1.84-.18c1.11-.09,2.4-.09,3.32-.09,1.75,0,6.9.27,7.27.36s.55,0,.46-.27S18,43.07,18,42.26A2.68,2.68,0,0,1,18.56,40c.73-.72,6-6.5,6.25-6.77s.46-.54.83-.18,4.69,3.43,5.61,4.06a4.19,4.19,0,0,0,2.67.82c.74,0,.92,1.26.28,1.35a20.11,20.11,0,0,0-2.21.45c-1,.28-1.38.55-1.66,1.27a18.79,18.79,0,0,0-.55,3.61c0,.18,0,.45.27.36a24.07,24.07,0,0,1,5.44-.27c2.48.09,4.87.27,5.15.27s.37,0,.55-.27a10.43,10.43,0,0,1,2-2.16c.92-.55.92-.73.73-1.18m-9.39-17a1.16,1.16,0,0,1-1.28-.28c-.28-.27-2.77-3.25-3.59-4.06a1.11,1.11,0,0,1,.46-1.9c1-.36,2.76-.9,3.22-1.17a1.48,1.48,0,0,0,.83-1V14.71c0-.18.27-.36.36-.09s.56,1,1.11,2c.83,1.44,1.84,3.34,2.21,4.15a1.78,1.78,0,0,1-.28,1.9,12.49,12.49,0,0,1-3,1.72" transform="translate(-0.05 0.01)"/><path class="cls-2" d="M37.05,3.87c-1.93,0-3.86,2.17-3.5,5.42a14.74,14.74,0,0,0,1.11,4.24c.27.64,3.59,6.78,3.77,7.41a2,2,0,0,1-.74,2.17,9.56,9.56,0,0,1-3,1.81,1.2,1.2,0,0,1-.56.09c-.18,0-.73-.09-1.65-1.27l4.23,5.61c-.55-.73-.83-1.27-.73-1.72s.92-1,1.75-1.63A6.68,6.68,0,0,0,40,23.29a3.83,3.83,0,0,0,.18-1A9.5,9.5,0,0,0,39,18.59c-.83-1.81-3.22-5.6-4-8.31a7,7,0,0,1-.27-1.81c0-1.53.64-2.53,1.47-2.8a2.21,2.21,0,0,1,1-.18,2,2,0,0,1,.92.18.68.68,0,0,1,.28.63v.46a7.12,7.12,0,0,0,.83,3.34A6.64,6.64,0,0,0,42.39,13c.09,0-1.48-5.51-1.75-6.5C40.45,5.13,39.53,4,37.05,3.87Z" transform="translate(-0.05 0.01)"/><path class="cls-3" d="M10.54,16.15c.37.37-.27.37-2.2.55a19.13,19.13,0,0,0-5.07,1,2.31,2.31,0,0,0-1.56,1.17A7.55,7.55,0,0,0,1,20.76a1.53,1.53,0,0,0,.09.63c.1.09.28-3.52,5.07-3.79,4.23-.18,5.33-.63,4.51-1.45Z" transform="translate(-0.05 0.01)"/><path class="cls-4" d="M37.33,5.58a4.18,4.18,0,0,0-.93.18,2.57,2.57,0,0,0-1.28,2.53v.37a7.24,7.24,0,0,1,.27-1.45c.46-1.26,1.2-1.44,1.75-1.44.37,0,.56.09.65.27a.67.67,0,0,1,.18.45,6.34,6.34,0,0,0,.55,2.62c0,.09.09.18.09.27a7.64,7.64,0,0,1-.55-2.71V6.31c.09-.54-.37-.73-.74-.73Z" transform="translate(-0.05 0.01)"/><path class="cls-5" d="M10.73,16.33c.18.37-.46.28-2.39.46a24.56,24.56,0,0,0-5.07.9,2.31,2.31,0,0,0-1.56,1.17A7.55,7.55,0,0,0,1,20.76a.82.82,0,0,0,.19.63c.18.37.36.37.64.18a4.76,4.76,0,0,1,2-.72.94.94,0,0,1,1,.72c.09.19.37.1.37.1a3.89,3.89,0,0,1,1.56-.19c1.2-.09,5.8,0,7.55,0,1.56,0,7.54,4.7,7.63,4.7l.28-.63c-2-1.63-9.66-7.59-11.5-9.31Z" transform="translate(-0.05 0.01)"/><path class="cls-6" d="M4.65,9.47a1.72,1.72,0,0,0-1,.45c-.37.36-1.1.81-1.29,1.35-.09.18-.18.36-.09.45,0,.28.18.45.18.55s.19.09.37.09a8.2,8.2,0,0,1,1.56-.18,1.56,1.56,0,0,1,.92.27.89.89,0,0,1,.28.72c0,.09,0,.18.18.18a3.67,3.67,0,0,1,.93.09,7.1,7.1,0,0,1,3.22,2c2.11,2,4.87,4.88,7.45,6.86,1.29,1,3.41,2.26,4.14,3,.09.09-.18.18-.37.09a11.07,11.07,0,0,0-1.56-1.09c-.18-.09-.46,0-.74.36a63.92,63.92,0,0,0-5.33,9.49,5.53,5.53,0,0,0-.37,1.72c0,.63.09,1.8.09,2.34s-.09.73-.83.91c-1.2.18-3.86.63-4.51.81a1.27,1.27,0,0,0-1.1.9,13.52,13.52,0,0,0-.56,2.44c0,.18.1.37.28.28a15.16,15.16,0,0,1,4.6-.37c2.12,0,5.8.37,6.26.45.18,0,.37,0,.37-.18s-.09-1.17-.09-2.44,1.1-2.17,2.67-3.79,5.33-5.24,5.43-5.33.18-.18,0-.37-1.48-1.44-1.57-1.62a.68.68,0,0,1-.18-.36c.09-.09.18,0,.37.18.73.54,8.65,6.86,9.2,7a4.48,4.48,0,0,0,1.38.36,1.23,1.23,0,0,1,.74,1c.09.45,0,1-.56,1.08s-2,.36-2.48.54a1.64,1.64,0,0,0-1.11.91c-.18.54-.46,2.17-.55,2.26,0,.36.09.36.37.27a10.74,10.74,0,0,1,2.21-.27c2.58-.09,6.44.27,6.9.27.18,0,.28-.18.37-.27.55-.91.37-1.18,1.1-1.72.37-.27.56-.36.28-.9a56.28,56.28,0,0,0-8.28-13.46c-2.3-3-5.06-6.24-6-7.23L17,13.44c-.65-.27-5.71-2.89-6.63-3.25a9.52,9.52,0,0,0-2.48-1A6.78,6.78,0,0,0,6,9a2.49,2.49,0,0,1-1.38.45" transform="translate(-0.05 0.01)"/><path class="cls-7" d="M16.89,4.41c-1.56.45-3.58,1.26-3.68,1.26v.09l.18.37a1,1,0,0,0,.38.45,2.28,2.28,0,0,0,.64.27c.09,0,.09,0,.18-.09A2,2,0,0,1,16,5.86a3.5,3.5,0,0,1,1.2-.18,2.25,2.25,0,0,1,1,.36A3.54,3.54,0,0,1,19,7.39a.74.74,0,0,1-.27.82A6.63,6.63,0,0,1,17,8.65a2.59,2.59,0,0,1-1.48-.18h-.18a2.76,2.76,0,0,1-.46.37c-.09,0-.09.09,0,.18a6.89,6.89,0,0,0,1.2,1.53c.46.27.64.18,1.1-.09a2.76,2.76,0,0,1,1.38-.63,1,1,0,0,1,1,1c.1.64-.27,1-.55,1.45s-.73.9-1,1.26a1.15,1.15,0,0,1-.92.28l4.6,2.25c.64.37,1.75,0,2.39-1.26.19-.27,1.2-2.53,1.48-3.16a2.62,2.62,0,0,0,0-2.62,34.48,34.48,0,0,0-3.23-4.43,2.31,2.31,0,0,0-1.84-.81h-.36a25.24,25.24,0,0,0-3.23.63" transform="translate(-0.05 0.01)"/><path class="cls-8" d="M17,8.84a2.59,2.59,0,0,1-1.48-.18h-.09a1,1,0,0,1-.46.27c-.09,0-.09.09,0,.18a8.34,8.34,0,0,0,1.11,1.44c.46.27.64.18,1.19-.09s.83-.63,1.38-.54l.1-1.44c-.28.08-1.2.27-1.75.36" transform="translate(-0.05 0.01)"/><path class="cls-9" d="M13.4,5.76v.18l.18.37a1.16,1.16,0,0,0,.37.36c.28.18.55.18.64.27s.1,0,.18-.09a2,2,0,0,1,1.39-.91,3.94,3.94,0,0,1,1.19-.18l-.46-1.17a17.16,17.16,0,0,0-3.5,1.17" transform="translate(-0.05 0.01)"/><path class="cls-10" d="M19.1,12.45c-.27.36-.73.9-1,1.26a1,1,0,0,1-.82.28s2.76,1.35,4.41,2.26c.65.36,1.66.09,2.4-1.18.18-.27,1.19-2.53,1.47-3.16l-6-.81a1.49,1.49,0,0,1-.46,1.35" transform="translate(-0.05 0.01)"/><path class="cls-11" d="M10.08,19.77A23.65,23.65,0,0,0,7.23,20a4,4,0,0,0-1.29.81c-.18.18-.18.37,0,.37H6.5a37.89,37.89,0,0,1,3.95-.1h4.24C14,20.4,13.4,19.5,13.21,19.5a29.06,29.06,0,0,0-3.13.27" transform="translate(-0.05 0.01)"/><path class="cls-12" d="M5.85,21.3c-.09,0-.09-.09-.09-.18s.09-.18.18-.27A3.59,3.59,0,0,1,7.32,20a23.63,23.63,0,0,1,2.86-.27c.18,0,2.67-.18,3-.27.09,0,.19.09.28.18s.18.27.37.36a8.82,8.82,0,0,0,.92,1.08l.09.09H10.54c-1.84,0-3.4.09-3.95.09ZM6,21.21H6.4c.56-.09,2.21-.09,4-.09H14.5c-.46-.54-.92-1.17-1.19-1.44l-.19-.18c-.37,0-2.76.18-2.94.18A23.63,23.63,0,0,0,7.32,20,3.81,3.81,0,0,0,6,20.76a.31.31,0,0,0-.1.27c0,.09,0,.09.1.09-.1.09-.1.09,0,.09" transform="translate(-0.05 0.01)"/><path class="cls-13" d="M16.62,2.06c-.65.36-.65.81-1.1,1.08S14,3.59,13,4.05c-.55.27-.55.27-.46.63.09.09.46.81.64.81a1.71,1.71,0,0,0,.65-.18,37,37,0,0,1,4.05-1.26c1.84-.36,3.77-.45,4.51.27a29.25,29.25,0,0,1,3.5,4.61A2.66,2.66,0,0,1,26,11.55a35.86,35.86,0,0,1-2,4.15c-.37.54-.83.82-1.93.36s-5.52-2.71-6.44-3.16c-.64-.27-3.31-1.63-5.34-2.62a11.81,11.81,0,0,0-2-.81,11.39,11.39,0,0,0-3.87-.09c-.36.09-.55.63-.55.81s.37.18.83.09H5.3a15.45,15.45,0,0,1,3.41.63c1.1.45,6.63,3.35,8,4.07,10.67,5.69,15.18,9.31,23.37,22.86.37.63.55,1.35,0,1.53-.83.27-4.32.91-5.43,1.27-.92.27-1,.36-1.1.81a3.92,3.92,0,0,0-.28,1.63c0,.09-.09.18.09.18,1,0,4.51,0,7.27.27.37,0,.37,0,.56-.27A11,11,0,0,1,43,41.36c.27-.18.09-.54,0-.63a59.42,59.42,0,0,0-6-10.48c-2.95-4.25-8-10-8.65-11s-.92-2,.46-2.44c.92-.27,3.13-.73,4-1s.92-.54,1-1.17a30.51,30.51,0,0,0-.55-6.33,1.78,1.78,0,0,0-.74-1.08,19.55,19.55,0,0,1-2.21-2,6.6,6.6,0,0,1-1.28-2.35c-.19-.63,0-.09-.19-.27l-.18-.18a30,30,0,0,0-7-2.17H21.6a19.25,19.25,0,0,0-5,1.81" transform="translate(-0.05 0.01)"/><path class="cls-14" d="M4,10.55H5.67a14.85,14.85,0,0,1,3,.64c1.11.45,6.35,3.52,7.73,4.24a72,72,0,0,1,10.13,6.69C31,25.64,34.84,29.71,39.63,38a1.74,1.74,0,0,1,.27.9.6.6,0,0,1-.55.63c-.83.27-4.23,1-5.24,1.36-.83.27-1,.45-1.11.9A2.84,2.84,0,0,1,32.63,43a1.49,1.49,0,0,1-1,.27c-.27,0-.37,0-.37-.27a11.25,11.25,0,0,1,.28-1.45,1.45,1.45,0,0,1,.64-1,14,14,0,0,1,2.58-.64c.83-.18.83-.54.83-1.17,0,.63-.18.81-1,.9a11.8,11.8,0,0,0-2.57.64,1.26,1.26,0,0,0-.65,1,15.67,15.67,0,0,0-.46,2.17c0,.27.1.27.37.27s.92-.09,2-.18c.27,0,.27-.36.27-.72a2.84,2.84,0,0,1,.09-.82,1.24,1.24,0,0,1,.46-.45c.56-.18,3.78-1,5.34-1.44.74-.18,1-.45.92-1.09a9.9,9.9,0,0,0-1.47-2.8c-.92-1.44-2.12-3.34-3.59-5.51a45.91,45.91,0,0,0-8.74-9.39,58.94,58.94,0,0,0-7-4.52C17.63,15.7,9.62,11.37,8.43,11a13.21,13.21,0,0,0-2.85-.54,8.11,8.11,0,0,0-1.48,0c-.46,0-.27-.37-.27-.55.09.09-.18.64.18.64" transform="translate(-0.05 0.01)"/><path class="cls-15" d="M18.64,24.74c-.27.36-1.84,2.8-3.13,5.15a35,35,0,0,0-2.2,4.6,3.18,3.18,0,0,0-.19,1.63,19.33,19.33,0,0,0,.19,2.17c0,.63-.1.9-.83,1.08-.56.09-3.68.64-4.42.82a1.48,1.48,0,0,0-1.2,1.08,10.43,10.43,0,0,0-.36,1.81c0,.27,0,.27.27.27s.74-.09.92-.09.18-.18.18-.36a5.42,5.42,0,0,0,.19-1A1.32,1.32,0,0,1,9,40.82c.64-.18,3.77-.72,4.23-.81s.83-.36.92-.91S14,37.48,14,36.66a4.49,4.49,0,0,1,.46-2.35,80.6,80.6,0,0,1,6.26-9c2.11-2.62-.18-.18-.46-.36s-.74-.55-.92-.55H19.2a.67.67,0,0,0-.56.37" transform="translate(-0.05 0.01)"/><path class="cls-16" d="M18.28,37.93a6.53,6.53,0,0,0-.74,2.53,1.84,1.84,0,0,0,.09.72,2.71,2.71,0,0,1,.55-1.54,21,21,0,0,1,2.12-2.25c1.56-1.63,5.34-5.24,5.52-5.43s.19-.18,0-.36l-1.19-1.17c-.37-.36-.65-.54-.65-.72-.09,0-4.32,4.69-5.7,8.22" transform="translate(-0.05 0.01)"/><path class="cls-17" d="M4.1,10.55l35.16,29a.65.65,0,0,0,.55-.54,1.78,1.78,0,0,0-.18-.9C34.75,29.7,31.07,25.82,26.56,22.3a23.43,23.43,0,0,0-2.39-1.81,81.44,81.44,0,0,0-7.73-4.88c-.83-.45-3.32-1.9-5.25-3a16.62,16.62,0,0,0-2.48-1.26,13.16,13.16,0,0,0-3-.73c-.37,0-.65-.09-1-.09-.1-.09-.37,0-.56,0" transform="translate(-0.05 0.01)"/><path class="cls-18" d="M29,2.42c.09.09.18.09.28.18a.59.59,0,0,1,.27.45,4.63,4.63,0,0,0,1.2,2.17,18,18,0,0,0,2.21,2,2,2,0,0,1,.46.36,3.91,3.91,0,0,1,.46-1.36c0,.09-.09.09-.09.18a.49.49,0,0,1-.37.18A.47.47,0,0,1,33,6.39c-.74-.54-2.67-2-2.95-3.34-.18-.63,0-.36-.55-.63A1.32,1.32,0,0,0,29,2.24c-.09.09-.09.09,0,.18" transform="translate(-0.05 0.01)"/><path class="cls-19" d="M33.09,16.43c-.92.27-3.22.72-4.14,1-.64.27-.74.45-.74.72a2.89,2.89,0,0,0,.46,1.18c.37.45,2,2.34,3.87,4.6a3,3,0,0,0,.46.55c-.1-.1-2.67-3.35-3.5-4.25A1.91,1.91,0,0,1,29,19.13a1.57,1.57,0,0,1,1.1-1.35c1-.36,2.76-.9,3.22-1.17s.55-.37.55-.64a3.71,3.71,0,0,1-.82.45" transform="translate(-0.05 0.01)"/><path class="cls-20" d="M37.14,3.87a3.69,3.69,0,0,0-3.31,2.89,3.54,3.54,0,0,1,3.31-2.71c2.3,0,3.22.81,3.59,2.07a3.17,3.17,0,0,0-3.4-2.34.34.34,0,0,1-.19.09" transform="translate(-0.05 0.01)"/><path class="cls-21" d="M20.48,37.57c-1.75,1.8-2.57,2.34-2.57,3.43,0,.63.09,2.26.09,2.53s0,.36-.28.45a1,1,0,0,1-.45.09c-.46,0-5.16-.45-6.81-.45A19.23,19.23,0,0,0,6.59,44,.88.88,0,0,1,6,43.8a.31.31,0,0,1-.1-.27c0,.27-.09.72-.09.81a7.94,7.94,0,0,1,1.93-.18c1.2-.09,2.49-.09,3.32-.09s7.36.36,7.36.36c0-.45-.09-1.62-.09-2.35v-.72a2.47,2.47,0,0,1,.64-1.81c.28-.36,1.47-1.62,2.76-3a7.67,7.67,0,0,0-1.2,1" transform="translate(-0.05 0.01)"/><path class="cls-22" d="M25.91,32.24a.48.48,0,0,1,.46.27c.37.27,4.7,3.43,5.53,4A3,3,0,0,0,33,37c-.28-.18-.74-.54-1.29-1-.83-.63-1.93-1.45-2.94-2.26s-1.84-1.44-2.58-2c0,.27-.18.46-.28.46" transform="translate(-0.05 0.01)"/><path class="cls-23" d="M36.31,27.81a3.9,3.9,0,0,0-.09.45,1.69,1.69,0,0,0,.46,1.08,5,5,0,0,0,.65.81,55,55,0,0,1,5.89,10.58c.18.45.18.72,0,.9s-1.57,1.63-1.75,1.9l-.28.27a1.08,1.08,0,0,1-.64.18c-2.31-.18-4.88-.27-6.17-.27-1.66,0-2.58.18-3.13.18a3.17,3.17,0,0,1-.55-.09v.45A22.69,22.69,0,0,1,34.56,44H36c2.48.09,5.33.27,5.33.27a25.74,25.74,0,0,1,2.21-2.44c.19-.09.19-.09.19-.18a1.1,1.1,0,0,0-.1-.45,63.09,63.09,0,0,0-6.8-11.93,1.84,1.84,0,0,1-.47-1.08.94.94,0,0,1,.47-.81c.18-.18.64-.54,1.19-1.09a12.43,12.43,0,0,0-1.75,1.54" transform="translate(-0.05 0.01)"/><path class="cls-24" d="M6.77,21.76c-1,.09-1.47.18-1.56.18H5a.31.31,0,0,1,.09.18h.09a15.64,15.64,0,0,1,3.59-.27c1.56,0,3.31,0,4.23.09a6.9,6.9,0,0,1,2.86.63c.82.45,2.66,1.72,2.76,1.63-.74-.55-1.57-1-2.21-1.45a7.84,7.84,0,0,0-2.12-1H9.81c-1.29-.09-2.58,0-3,0" transform="translate(-0.05 0.01)"/><path class="cls-25" d="M5.48,13.81h.18A2.6,2.6,0,0,1,6.77,14a21.81,21.81,0,0,1,2.85,2c.37.36.74.36.37.09a10.73,10.73,0,0,0-3.5-2.25,2.92,2.92,0,0,0-.92-.1c-.28,0-.18-.27-.28-.36s0,.45.18.45" transform="translate(-0.05 0.01)"/><path class="cls-26" d="M3.83,21.21a8.62,8.62,0,0,0-2,.73c-.27.18-.46.18-.64,0,.09.18.27.36.37.27a7.06,7.06,0,0,1,2.39-.81.86.86,0,0,1,.46.09.56.56,0,0,0-.55-.27Z" transform="translate(-0.05 0.01)"/><path class="cls-27" d="M18.83,2.15c-.37.09-1.48.36-1.57.36s-.18.09-.27.18-.1.36-.1.55a.18.18,0,0,0,.28.09c.28-.09,1.66-.64,1.84-.64a.2.2,0,0,0,.19-.18V2.24A.21.21,0,0,0,19,2.06c0,.09-.09.09-.18.09" transform="translate(-0.05 0.01)"/><path class="cls-1" d="M18.83,2.24c.18,0,.27,0,.27.09v.18A.09.09,0,0,1,19,2.6c-.18.09-1.2.45-1.38.54s-.37,0-.37-.09,0-.27.09-.27.1-.09.19-.18,1-.27,1.28-.36" transform="translate(-0.05 0.01)"/><path class="cls-28" d="M20.3,3.69a20.79,20.79,0,0,0-6.81,1.8,19.55,19.55,0,0,1,6.17-1.44c1.47-.09,2.11,0,2.66.63A29.32,29.32,0,0,1,25.64,9.2,2.46,2.46,0,0,1,26,10.46a5.08,5.08,0,0,1-.46,1.36c-.28.63-1.39,2.71-1.57,3.07A1.83,1.83,0,0,1,21.68,16c-.83-.18.37.18.74.36.92.37,1.47-.18,2-1.08.19-.27,1.29-2.62,1.57-3.34a3.38,3.38,0,0,0,.36-1.36A2.76,2.76,0,0,0,26,9.2a37.21,37.21,0,0,0-3.32-4.61,2.42,2.42,0,0,0-2.11-.9Z" transform="translate(-0.05 0.01)"/><path class="cls-29" d="M17,30.16c-1,1.63-2.49,4-2.76,4.51A3.67,3.67,0,0,0,14,36.12c0,.54.09,2.53.09,2.62a2.15,2.15,0,0,1-.18.81,1.83,1.83,0,0,1-.83.36c-.65.1-3.5.55-4.24.64a1.67,1.67,0,0,0-1.28,1,7.19,7.19,0,0,0-.28,1.27V43c0,.27.09.27.09.27a39.85,39.85,0,0,1,5.25-.09c1.93.09,4.69.36,4.69.36a43.26,43.26,0,0,0-4.79-.63c-1-.09-2.11,0-2.94,0A7.28,7.28,0,0,1,8,42.9a.64.64,0,0,1,0-.45c0-.18.09-.36.09-.54a1.34,1.34,0,0,1,1.1-1.09c.74-.18,3.5-.63,4.05-.72a1,1,0,0,0,.92-.72v-.73c0-.54-.09-2-.09-2.08a4,4,0,0,1,.64-2.35,82.77,82.77,0,0,1,6.08-8.49.47.47,0,0,1,.37-.18H21a1.36,1.36,0,0,1-.36-.27A31.57,31.57,0,0,0,17,30.16" transform="translate(-0.05 0.01)"/></svg>