<svg id="katman_1" data-name="katman 1" xmlns="http://www.w3.org/2000/svg" xmlns:xlink="http://www.w3.org/1999/xlink" viewBox="0 0 44 45"><defs><style>.cls-1{fill:url(#Adsız_degrade_2);}.cls-2{fill:url(#Adsız_degrade_3);}.cls-3{fill:url(#Adsız_degrade_4);}.cls-4{fill:url(#Adsız_degrade_5);}.cls-5{fill:url(#Adsız_degrade_6);}.cls-6{fill:url(#Adsız_degrade_7);}.cls-7{fill:url(#Adsız_degrade_8);}.cls-8{fill:url(#Adsız_degrade_9);}.cls-9{fill:url(#Adsız_degrade_10);}.cls-10{fill:url(#Adsız_degrade_11);}.cls-11{fill:url(#Adsız_degrade_12);}.cls-12{fill:url(#Adsız_degrade_13);}.cls-13{fill:url(#Adsız_degrade_14);}.cls-14{fill:url(#Adsız_degrade_15);}.cls-15{fill:url(#Adsız_degrade_16);}.cls-16{fill:url(#Adsız_degrade_17);}.cls-17{fill:#fff;}</style><linearGradient id="Adsız_degrade_2" x1="-761.91" y1="-1128.84" x2="-761.91" y2="-1135.97" gradientTransform="translate(4646.77 6895.72) scale(6.07)" gradientUnits="userSpaceOnUse"><stop offset="0" stop-color="#e5e5e5"/><stop offset="0.69" stop-color="#fff"/><stop offset="1" stop-color="#919191"/></linearGradient><radialGradient id="Adsız_degrade_3" cx="-742.92" cy="-1120.65" r="28.89" gradientTransform="translate(698.31 852.31) scale(0.91 0.75)" gradientUnits="userSpaceOnUse"><stop offset="0.4" stop-color="#fff"/><stop offset="1" stop-color="#919191"/></radialGradient><linearGradient id="Adsız_degrade_4" x1="-763.63" y1="-1128.87" x2="-763.63" y2="-1132.39" gradientTransform="translate(4646.77 6895.72) scale(6.07)" gradientUnits="userSpaceOnUse"><stop offset="0.01" stop-color="#e5e5e5"/><stop offset="0.34" stop-color="#a6a6a6"/><stop offset="0.69" stop-color="#333"/><stop offset="0.84" stop-color="#1a1a1a"/><stop offset="0.95" stop-color="#111"/><stop offset="0.96" stop-color="#141414"/><stop offset="0.97" stop-color="#1d1d1d"/><stop offset="0.98" stop-color="#2d2d2d"/><stop offset="0.99" stop-color="#444"/><stop offset="1" stop-color="#616161"/><stop offset="1" stop-color="#666"/></linearGradient><linearGradient id="Adsız_degrade_5" x1="-762.87" y1="-1128.79" x2="-762.87" y2="-1128.79" xlink:href="#Adsız_degrade_4"/><linearGradient id="Adsız_degrade_6" x1="-760.67" y1="-1128.87" x2="-760.67" y2="-1132.39" gradientTransform="translate(4646.77 6895.72) scale(6.07)" gradientUnits="userSpaceOnUse"><stop offset="0.01" stop-color="#e5e5e5"/><stop offset="0.34" stop-color="#a6a6a6"/><stop offset="0.69" stop-color="#333"/><stop offset="0.84" stop-color="#1a1a1a"/><stop offset="0.95" stop-color="#111"/><stop offset="0.97" stop-color="#141414"/><stop offset="0.98" stop-color="#1d1d1d"/><stop offset="0.98" stop-color="#2d2d2d"/><stop offset="0.99" stop-color="#444"/><stop offset="1" stop-color="#616161"/><stop offset="1" stop-color="#666"/></linearGradient><linearGradient id="Adsız_degrade_7" x1="-762.09" y1="-1132.43" x2="-762.09" y2="-1135.97" gradientTransform="translate(4646.77 6895.72) scale(6.07)" gradientUnits="userSpaceOnUse"><stop offset="0" stop-color="#333"/><stop offset="0.01" stop-color="#292929"/><stop offset="0.02" stop-color="#1e1e1e"/><stop offset="0.04" stop-color="#1a1a1a"/><stop offset="0.12" stop-color="#151515"/><stop offset="0.23" stop-color="#050505"/><stop offset="0.25"/></linearGradient><linearGradient id="Adsız_degrade_8" x1="-761.24" y1="-1132.4" x2="-761.24" y2="-1134.45" gradientTransform="translate(4646.77 6895.72) scale(6.07)" gradientUnits="userSpaceOnUse"><stop offset="0" stop-color="#737373"/><stop offset="0.15" stop-color="#6e6e6e"/><stop offset="0.33" stop-color="#5e5e5e"/><stop offset="0.54" stop-color="#454545"/><stop offset="0.75" stop-color="#222"/><stop offset="0.8" stop-color="#1a1a1a"/><stop offset="0.92"/></linearGradient><linearGradient id="Adsız_degrade_9" x1="-762.57" y1="-1130.35" x2="-762.57" y2="-1132.4" gradientTransform="translate(4646.77 6895.72) scale(6.07)" gradientUnits="userSpaceOnUse"><stop offset="0.36" stop-color="#bfbfbf"/><stop offset="0.47" stop-color="#bababa"/><stop offset="0.61" stop-color="#acacac"/><stop offset="0.75" stop-color="#959595"/><stop offset="0.9" stop-color="#757575"/><stop offset="0.96" stop-color="#666"/><stop offset="1" stop-color="#333"/></linearGradient><linearGradient id="Adsız_degrade_10" x1="-761.71" y1="-1130.95" x2="-763.79" y2="-1131.89" gradientTransform="translate(4646.77 6895.72) scale(6.07)" gradientUnits="userSpaceOnUse"><stop offset="0.01" stop-color="#f2f2f2" stop-opacity="0.8"/><stop offset="0.11" stop-color="#ededed" stop-opacity="0"/></linearGradient><linearGradient id="Adsız_degrade_11" x1="-761.72" y1="-1128.88" x2="-761.72" y2="-1132.42" gradientTransform="translate(4646.77 6895.72) scale(6.07)" gradientUnits="userSpaceOnUse"><stop offset="0" stop-color="#fff"/><stop offset="0.22" stop-color="#f9f9f9"/><stop offset="0.51" stop-color="#e7e7e7"/><stop offset="0.85" stop-color="#cbcbcb"/><stop offset="0.97" stop-color="#bfbfbf"/><stop offset="0.99" stop-color="#737373"/></linearGradient><linearGradient id="Adsız_degrade_12" x1="-764.26" y1="-1128.74" x2="-764.26" y2="-1132.4" gradientTransform="translate(4646.77 6895.72) scale(6.07)" gradientUnits="userSpaceOnUse"><stop offset="0" stop-color="#666"/><stop offset="0.18" stop-color="#5e5e5e"/><stop offset="0.58" stop-color="#515151"/><stop offset="0.97" stop-color="#4d4d4d"/><stop offset="0.99" stop-color="#757575"/><stop offset="1" stop-color="#8c8c8c"/></linearGradient><linearGradient id="Adsız_degrade_13" x1="-762.8" y1="-1129.22" x2="-761.09" y2="-1128.23" gradientTransform="translate(4646.77 6895.72) scale(6.07)" gradientUnits="userSpaceOnUse"><stop offset="0.02" stop-color="#666"/><stop offset="0.04" stop-color="#4a4a4a"/><stop offset="0.06" stop-color="#363636"/><stop offset="0.08" stop-color="#292929"/><stop offset="0.1" stop-color="#252525"/></linearGradient><linearGradient id="Adsız_degrade_14" x1="-761.33" y1="-1135.1" x2="-757.85" y2="-1133.2" gradientTransform="translate(4646.77 6895.72) scale(6.07)" gradientUnits="userSpaceOnUse"><stop offset="0" stop-color="#595959"/><stop offset="1" stop-color="#737373"/></linearGradient><linearGradient id="Adsız_degrade_15" x1="-760.92" y1="-1135.65" x2="-762.99" y2="-1136.25" gradientTransform="translate(4646.77 6895.72) scale(6.07)" gradientUnits="userSpaceOnUse"><stop offset="0.01" stop-color="#595959"/><stop offset="0.03" stop-color="#757575"/><stop offset="0.04" stop-color="#909090"/><stop offset="0.06" stop-color="#a0a0a0"/><stop offset="0.07" stop-color="#a6a6a6"/><stop offset="0.5" stop-color="#bebebe"/><stop offset="1" stop-color="#bfbfbf"/></linearGradient><linearGradient id="Adsız_degrade_16" x1="-765.95" y1="-1133.49" x2="-762.52" y2="-1134.8" gradientTransform="translate(4646.77 6895.72) scale(6.07)" gradientUnits="userSpaceOnUse"><stop offset="0" stop-color="#8c8c8c"/><stop offset="0.99" stop-color="#737373"/><stop offset="1" stop-color="#bfbfbf"/></linearGradient><linearGradient id="Adsız_degrade_17" x1="-759.57" y1="-1128.73" x2="-759.57" y2="-1132.41" gradientTransform="translate(4646.77 6895.72) scale(6.07)" gradientUnits="userSpaceOnUse"><stop offset="0.02" stop-color="#252525"/><stop offset="0.22" stop-color="#2e2e2e"/><stop offset="0.6" stop-color="#3b3b3b"/><stop offset="0.97" stop-color="#3f3f3f"/><stop offset="0.99" stop-color="#5c5c5c"/><stop offset="1" stop-color="#737373"/></linearGradient></defs><path class="cls-1" d="M42.67,21.65c-.93-1.62-3.13-5.13-5.36-8.44C34.17,8.54,29.25,1.89,28.75,1.32A1.59,1.59,0,0,0,28.39,1a.5.5,0,0,0-.2-.08,2,2,0,0,0-.6,0h-.35C25.49.87,23.75.84,22,.85c-2.55,0-5.63.06-6,.09a1.17,1.17,0,0,0-.37.08,1,1,0,0,0-.37.29c-.48.59-5.41,7.22-8.55,11.89C4.46,16.51,2.26,20,1.33,21.65a1.76,1.76,0,0,0-.29.84,1.8,1.8,0,0,0,.29.85c.93,1.62,3.13,5.13,5.36,8.44,3.14,4.67,8.05,11.32,8.56,11.89l.22.22a.76.76,0,0,0,.33.18,1.88,1.88,0,0,0,.58,0h.36c1.26,0,3.2.08,5.26.08,2.55,0,5.53-.06,6-.1h.08a1.12,1.12,0,0,0,.31,0c.11,0,.19-.11.4-.34.51-.57,5.4-7.19,8.54-11.86,2.23-3.31,4.43-6.82,5.37-8.44a2,2,0,0,0,.28-.9,1.6,1.6,0,0,0-.28-.8ZM28.18,23.38c-2.1,3.85-3.6,6.25-5.81,9.73-.13.2-.23.33-.38.34s-.24-.14-.37-.34c-2.22-3.48-3.71-5.88-5.81-9.73a1.82,1.82,0,0,1-.3-.89,1.78,1.78,0,0,1,.3-.86c2.1-3.86,3.59-6.26,5.81-9.74.12-.2.23-.33.37-.33h0c.15,0,.25.13.38.33,2.21,3.48,3.71,5.88,5.81,9.74a1.78,1.78,0,0,1,.3.88,1.75,1.75,0,0,1-.3.86Z" transform="translate(0 0)"/><path class="cls-2" d="M42.67,21.65c-.93-1.62-3.13-5.13-5.36-8.44C34.17,8.54,29.25,1.89,28.75,1.32A1.59,1.59,0,0,0,28.39,1a.5.5,0,0,0-.2-.08,2,2,0,0,0-.6,0h-.35C25.49.87,23.75.84,22,.85c-2.55,0-5.63.06-6,.09a1.17,1.17,0,0,0-.37.08,1,1,0,0,0-.37.29c-.48.59-5.41,7.22-8.55,11.89C4.46,16.51,2.26,20,1.33,21.65a1.76,1.76,0,0,0-.29.84,1.8,1.8,0,0,0,.29.85c.93,1.62,3.13,5.13,5.36,8.44,3.14,4.67,8.05,11.32,8.56,11.89l.22.22a.76.76,0,0,0,.33.18,1.88,1.88,0,0,0,.58,0h.36c1.26,0,3.2.08,5.26.08,2.55,0,5.53-.06,6-.1h.08a1.12,1.12,0,0,0,.31,0c.11,0,.19-.11.4-.34.51-.57,5.4-7.19,8.54-11.86,2.23-3.31,4.43-6.82,5.37-8.44a2,2,0,0,0,.28-.9,1.6,1.6,0,0,0-.28-.8ZM28.18,23.38c-2.1,3.85-3.6,6.25-5.81,9.73-.13.2-.23.33-.38.34s-.24-.14-.37-.34c-2.22-3.48-3.71-5.88-5.81-9.73a1.82,1.82,0,0,1-.3-.89,1.78,1.78,0,0,1,.3-.86c2.1-3.86,3.59-6.26,5.81-9.74.12-.2.23-.33.37-.33h0c.15,0,.25.13.38.33,2.21,3.48,3.71,5.88,5.81,9.74a1.78,1.78,0,0,1,.3.88,1.75,1.75,0,0,1-.3.86Z" transform="translate(0 0)"/><path class="cls-3" d="M14.21,23.9a4.78,4.78,0,0,1-.64-1.31.24.24,0,0,1,0-.12c0-.09,0-.06-.14,0a2,2,0,0,1-1.27.28H2.81c-.41,0-1,0-1,.5a5.81,5.81,0,0,0,1,2c3.71,5.93,7.82,11.85,12.24,17.64,0,0,.67.89.74,1a.37.37,0,0,0,.32.1,91.5,91.5,0,0,0,5.06-8.76Q17.52,29.65,14.21,23.9Z" transform="translate(0 0)"/><path class="cls-4" d="M16.16,44Z" transform="translate(0 0)"/><path class="cls-5" d="M42.44,22.55a1.62,1.62,0,0,1-1,.21h-7.7c-3.53,0-3.17-.07-4.08,1.45-.41.68-.83,1.49-1.26,2.14-3.09,5.27-10.61,15.88-11.62,17.2-.39.49-.44.52-.15.52,0,0,2.55.07,5.39.07,4.43,0,6-.1,6-.1A224.67,224.67,0,0,0,41.11,25.27c1-1.65,1.52-2.37,1.47-2.73,0-.07-.09,0-.13,0Z" transform="translate(0 0)"/><path class="cls-6" d="M27.82,1c-.19,0-.33.11-.59.44-2.18,2.76-9.69,14.34-12.76,19.74a3.1,3.1,0,0,0-.56,1.3h1.6a1.85,1.85,0,0,1,.3-.87c2.1-3.85,3.59-6.25,5.81-9.73.12-.2.23-.33.37-.34h0l.62-1.48A99,99,0,0,1,27.82,1Z" transform="translate(0 0)"/><path class="cls-7" d="M30.08,22.5a2.88,2.88,0,0,0-.56-1.28q-3.25-5.65-6.9-11.15L22,11.55h0c.15,0,.25.13.37.34,2.22,3.48,3.71,5.88,5.81,9.73a1.82,1.82,0,0,1,.3.89h1.6Z" transform="translate(0 0)"/><path class="cls-8" d="M22,33.45h0c-.15,0-.25-.13-.38-.34-2.21-3.48-3.71-5.88-5.81-9.73a1.82,1.82,0,0,1-.3-.89h-1.6a3,3,0,0,0,.56,1.31q3.26,5.65,6.9,11.14Z" transform="translate(0 0)"/><path class="cls-9" d="M22,33.45h0c-.15,0-.25-.13-.38-.34-2.21-3.48-3.71-5.88-5.81-9.73a1.82,1.82,0,0,1-.3-.89h-1.6a3,3,0,0,0,.56,1.31q3.26,5.65,6.9,11.14Z" transform="translate(0 0)"/><path class="cls-10" d="M16.16,44c.17,0,.38-.17.63-.47l.26-.34C18.69,40.89,26.59,29,29.51,23.82a3,3,0,0,0,.57-1.32H28.49a1.78,1.78,0,0,1-.3.87c-2.11,3.85-3.6,6.26-5.81,9.74-.13.2-.23.33-.38.33l-.63,1.49A89.34,89.34,0,0,1,16.16,44Z" transform="translate(0 0)"/><path class="cls-11" d="M15.46,43.9l-.21-.22c-.51-.57-5.42-7.22-8.56-11.89C4.46,28.48,2.26,25,1.32,23.34A1.86,1.86,0,0,1,1,22.5H0a2.44,2.44,0,0,0,.39,1.21C1.12,25,3.16,28.3,5.78,32.2c2.86,4.25,8.05,11.33,8.63,12a2.38,2.38,0,0,0,.64.53Z" transform="translate(0 0)"/><path class="cls-12" d="M15.05,44.71a2,2,0,0,0,.85.18c.77.06,4.15.11,6.1.11s5.6-.07,6.1-.11a2.62,2.62,0,0,0,.68-.12L28.37,44a1.65,1.65,0,0,1-.32.06H28c-.45,0-3.43.09-6,.1-2.06,0-4,0-5.27-.08h-.35a1.88,1.88,0,0,1-.58,0,.76.76,0,0,1-.33-.18Z" transform="translate(0 0)"/><path class="cls-13" d="M44,22.5a2.43,2.43,0,0,0-.38-1.21c-.78-1.33-3.28-5.36-5.39-8.49-2.83-4.19-8-11.32-8.63-12a2.06,2.06,0,0,0-.8-.6l-.4.78a1.59,1.59,0,0,1,.36.32c.51.57,5.42,7.22,8.56,11.89,2.23,3.31,4.43,6.82,5.36,8.44a1.63,1.63,0,0,1,.29.8Z" transform="translate(0 0)"/><path class="cls-14" d="M15.2.23l.41.8A.9.9,0,0,1,16,1c.4,0,3.48-.1,6-.1,2.08,0,4.19,0,5.23.08h.36a2,2,0,0,1,.6,0,.41.41,0,0,1,.19.08l.4-.78a2.85,2.85,0,0,0-.71-.12C27.26.06,23.81,0,22,0c-1.6,0-5.3,0-6.17.11a2.6,2.6,0,0,0-.63.11Z" transform="translate(0 0)"/><path class="cls-15" d="M15.2.23a2,2,0,0,0-.82.62c-.61.64-5.8,7.82-8.6,12-2,2.9-5.1,7.94-5.39,8.49A2.55,2.55,0,0,0,0,22.5H1a1.9,1.9,0,0,1,.28-.85c.94-1.62,3.14-5.13,5.37-8.44,3.14-4.67,8.07-11.3,8.55-11.89A1,1,0,0,1,15.61,1Z" transform="translate(0 0)"/><path class="cls-16" d="M28.78,44.78a2,2,0,0,0,.81-.6c.56-.63,6.15-8.28,8.63-12s5.1-8,5.39-8.5A2.27,2.27,0,0,0,44,22.5l-1-.05a1.88,1.88,0,0,1-.29.9c-.93,1.62-3.13,5.13-5.36,8.44-3.14,4.67-8,11.29-8.54,11.86-.21.24-.3.31-.4.34h0Z" transform="translate(0 0)"/><path class="cls-17" d="M27.59.92h.05a1.79,1.79,0,0,1-.93.16c-.79,0-2.45,0-3.77,0-2.44,0-5.34,0-6.7.07a1.42,1.42,0,0,0-1.23.5h0l.23-.29A.82.82,0,0,1,15.61,1,.9.9,0,0,1,16,1c.4,0,3.48-.1,6-.1,2.08,0,4.19,0,5.23.07h.36" transform="translate(0 0)"/><path d="M28.19,21.62c-.85-1.54-1.72-3.08-2.62-4.6-1-1.72-2.1-3.44-3.19-5.14-.13-.2-.24-.33-.38-.33s-.24.12-.38.33S19.87,14.63,18.43,17s-2.54,4.47-2.61,4.6a1.8,1.8,0,0,0-.31.87,2,2,0,0,0,.31.88c.08.15,1.27,2.35,2.62,4.62,1.47,2.47,3.12,5,3.17,5.12s.24.33.38.33.25-.13.38-.33,1.7-2.66,3.17-5.12c.91-1.53,1.78-3.07,2.63-4.62a1.71,1.71,0,0,0,.3-.86,1.88,1.88,0,0,0-.3-.89Zm-.27,1.64v0c-.84,1.55-1.72,3.08-2.63,4.61Q23.75,30.44,22.14,33l0,0c-.05.08-.09.14-.11.14s-.07,0-.12-.14l-.07-.12c-1.07-1.65-2.1-3.32-3.11-5s-1.78-3.06-2.62-4.61v0a1.74,1.74,0,0,1-.27-.77,1.84,1.84,0,0,1,.28-.77l.07-.12c.81-1.51,1.65-3,2.54-4.47,1-1.72,2.11-3.43,3.19-5.13.05-.07.09-.14.12-.14s.07.07.12.14,1.67,2.6,3.18,5.13c1.33,2.23,2.49,4.36,2.61,4.59a1.58,1.58,0,0,1,.28.79,1.53,1.53,0,0,1-.27.75Z" transform="translate(0 0)"/><path d="M43.61,21.29c-.8-1.36-3.28-5.37-5.39-8.49-2.89-4.29-8-11.34-8.63-12A1.76,1.76,0,0,0,28.15.11h-.08C27.29,0,24,0,22,0c-1.7,0-5.32,0-6.16.11a1.8,1.8,0,0,0-1.47.74c-.62.67-5.86,7.91-8.59,12-2,2.91-5.11,8-5.4,8.49A2.63,2.63,0,0,0,0,22.5a2.44,2.44,0,0,0,.39,1.21C1,24.87,3,28.09,5.78,32.2c2.88,4.29,8.08,11.36,8.63,12a1.8,1.8,0,0,0,1.49.72c.8.06,4.25.1,6.1.1s5.6-.07,6.1-.1a1.82,1.82,0,0,0,1.49-.72c.52-.59,6.12-8.22,8.63-12,2.41-3.6,5.08-7.92,5.39-8.49A2.4,2.4,0,0,0,44,22.5a2.44,2.44,0,0,0-.39-1.21Zm-.27,2.32c-.3.56-3,4.88-5.38,8.47-2.51,3.76-8.09,11.37-8.61,12a1.56,1.56,0,0,1-1.28.62c-.47,0-4.08.1-6.07.1s-5.29,0-6.07-.1A1.51,1.51,0,0,1,14.65,44c-.55-.62-5.74-7.68-8.61-12C3.28,28,1.31,24.77.66,23.61A2.28,2.28,0,0,1,.3,22.5a2.33,2.33,0,0,1,.36-1.11C1,20.85,4.07,15.82,6,12.91,8.77,8.89,14,1.66,14.61,1A1.5,1.5,0,0,1,15.86.35C16.7.28,20.3.24,22,.24c2,0,5.27,0,6,.1h.08A1.43,1.43,0,0,1,29.35,1c.58.64,5.73,7.67,8.61,12C40.06,16,42.55,20,43.34,21.4a2.24,2.24,0,0,1,.36,1.1,2.13,2.13,0,0,1-.36,1.11Z" transform="translate(0 0)"/></svg>