<svg id="katman_1" data-name="katman 1" xmlns="http://www.w3.org/2000/svg" xmlns:xlink="http://www.w3.org/1999/xlink" viewBox="0 0 44.26 45.25"><defs><style>.cls-1{fill:#b3b3b3;stroke:#b3b3b3;}.cls-1,.cls-2{stroke-miterlimit:51.88;stroke-width:0.25px;}.cls-2{fill:#4d4d4d;stroke:#4d4d4d;}.cls-3{fill:url(#Adsız_degrade);}.cls-4{fill:url(#Adsız_degrade_2);}.cls-5{fill:url(#Adsız_degrade_3);}</style><linearGradient id="Adsız_degrade" x1="468.92" y1="-2.05" x2="472.6" y2="-2.05" gradientTransform="translate(-5450.68 45.24) scale(11.67)" gradientUnits="userSpaceOnUse"><stop offset="0" stop-color="#929496"/><stop offset="0.07" stop-color="#97999b"/><stop offset="0.17" stop-color="#a4a6a8"/><stop offset="0.27" stop-color="#bbbdbf"/><stop offset="0.39" stop-color="#dcddde"/><stop offset="0.49" stop-color="#fff"/><stop offset="0.56" stop-color="#f8f8f8"/><stop offset="0.66" stop-color="#eaeaeb"/><stop offset="0.77" stop-color="#d4d5d7"/><stop offset="0.88" stop-color="#b6b8ba"/><stop offset="1" stop-color="#929496"/></linearGradient><linearGradient id="Adsız_degrade_2" x1="468.92" y1="-1.11" x2="472.6" y2="-1.11" xlink:href="#Adsız_degrade"/><linearGradient id="Adsız_degrade_3" x1="468.92" y1="-0.16" x2="472.6" y2="-0.16" xlink:href="#Adsız_degrade"/></defs><path class="cls-1" d="M21.28,23.11s-.13-7.06,3.14-9.22c4-2.64,14.39-4.94,39.48-1.32,0,0,.29,9.22.29,9.88,0,0-18.68-1.85-22.1-1.53-2.42.22-1.28,1.7,0,1.91,0,0,18.82,3.58,22.1,4.4V31S34.68,24.26,21.28,23.11Zm-.14,2.64s33.07,5.92,43.05,8.72v3.46S30.55,29.2,21.28,28.22ZM21.28,31s32.36,5.76,42.91,10.54c0,0,.85,7.9-2.57,10.37-4.89,3.54-23.38,3.46-39.91,1.15a132.74,132.74,0,0,1,0-13.5S40,41.14,44,41.72c2.28.33,2.28-1,.85-2,0,0-17.67-5.6-23.38-6.42L21.28,31Z" transform="translate(-21 -10.58)"/><path class="cls-2" d="M22.14,24.1S22,17,25.27,14.88c4-2.64,14.4-4.94,39.49-1.32,0,0,.28,9.22.28,9.88,0,0-18.68-1.85-22.09-1.54-2.43.22-1.28,1.7,0,1.92,0,0,18.82,3.57,22.09,4.39V32S35.53,25.25,22.14,24.1ZM22,26.73S55.07,32.66,65,35.46v3.46S31.4,30.19,22.14,29.2ZM22.14,32S54.49,37.77,65,42.54c0,0,.86,7.91-2.56,10.38-4.9,3.53-23.38,3.45-39.92,1.15,0,0-.42-9.06,0-13.51,0,0,18.26,1.57,22.24,2.15,2.28.33,2.28-1,.86-2,0,0-17.68-5.6-23.38-6.42L22.14,32Z" transform="translate(-21 -10.58)"/><path class="cls-3" d="M21.71,23.61s-.13-7.07,3.13-9.23c4-2.63,14.4-4.94,39.49-1.31,0,0,.29,9.22.29,9.88,0,0-18.68-1.85-22.1-1.54-2.42.22-1.28,1.7,0,1.92,0,0,18.82,3.57,22.1,4.39v3.79S35.11,24.76,21.71,23.61Z" transform="translate(-21 -10.58)"/><path class="cls-4" d="M21.57,26.24S54.64,32.17,64.62,35v3.46S31,29.7,21.71,28.71l-.14-2.47Z" transform="translate(-21 -10.58)"/><path class="cls-5" d="M21.71,31.51s32.36,5.77,42.9,10.54c0,0,.86,7.9-2.56,10.37C57.16,56,38.67,55.88,22.14,53.58a132.94,132.94,0,0,1,0-13.51s18.25,1.57,22.23,2.14c2.28.33,2.29-1,.86-2,0,0-17.68-5.6-23.38-6.43l-.14-2.3Z" transform="translate(-21 -10.58)"/></svg>