<svg id="Layer_1" data-name="Layer 1" xmlns="http://www.w3.org/2000/svg" xmlns:xlink="http://www.w3.org/1999/xlink" viewBox="0 0 45.25 45.25"><defs><style>.cls-1,.cls-4,.cls-8{stroke:#141414;stroke-width:0.25px;}.cls-1{stroke-linecap:square;fill:url(#Adsız_degrade);}.cls-2{fill:#141414;}.cls-3,.cls-8{fill:#fff;}.cls-4{fill:url(#Adsız_degrade_2);}.cls-5{fill:#42bd3b;}.cls-6{fill:url(#Adsız_degrade_3);}.cls-7{fill:url(#Adsız_degrade_4);}</style><linearGradient id="Adsız_degrade" x1="-3352.09" y1="646.5" x2="-3339.74" y2="646.5" gradientTransform="matrix(-0.01, -3.66, -3.63, 0.01, 2418.35, -11846.75)" gradientUnits="userSpaceOnUse"><stop offset="0" stop-color="#99a2a7"/><stop offset="0.48" stop-color="#98a3a8"/><stop offset="0.54" stop-color="#e6e6e6"/><stop offset="1" stop-color="#e6e6e6"/></linearGradient><linearGradient id="Adsız_degrade_2" x1="-3105.38" y1="1298.97" x2="-3100.15" y2="1294.18" gradientTransform="translate(17822.62 -6998.49) scale(5.71)" gradientUnits="userSpaceOnUse"><stop offset="0" stop-color="#151313"/><stop offset="0.09" stop-color="#151313"/><stop offset="0.13" stop-color="#f8f1f1"/><stop offset="0.23" stop-color="#151313"/><stop offset="0.3" stop-color="#141414"/><stop offset="0.38" stop-color="#f8f1f1"/><stop offset="0.45" stop-color="#151313"/><stop offset="0.56" stop-color="#f8f1f4"/><stop offset="0.63" stop-color="#141414"/><stop offset="0.79" stop-color="#f8f1f1"/><stop offset="1" stop-color="#f8f1f2"/></linearGradient><linearGradient id="Adsız_degrade_3" x1="-2893.02" y1="1632.64" x2="-2892.5" y2="1631.7" gradientTransform="matrix(4.37, -0.64, -0.64, -4.37, 13794.82, 5692.51)" gradientUnits="userSpaceOnUse"><stop offset="0" stop-color="#151313"/><stop offset="0.16" stop-color="#ccc4c4"/><stop offset="0.5" stop-color="#b7acad"/><stop offset="1" stop-color="#151313"/></linearGradient><linearGradient id="Adsız_degrade_4" x1="-3871.02" y1="1915.37" x2="-3870.29" y2="1914.61" gradientTransform="translate(-18977.46 1179.41) rotate(-155.98) scale(4.42)" gradientUnits="userSpaceOnUse"><stop offset="0" stop-color="#151313"/><stop offset="0.25" stop-color="#ccc4c4"/><stop offset="0.5" stop-color="#b7acad"/><stop offset="1" stop-color="#151313"/></linearGradient></defs><path class="cls-1" d="M104.92,382.9A22.5,22.5,0,1,1,82.5,405.47,22.49,22.49,0,0,1,104.92,382.9Z" transform="translate(-82.37 -382.77)"/><path class="cls-2" d="M105,425.59a20.2,20.2,0,1,1,14.28-5.91A20,20,0,0,1,105,425.59" transform="translate(-82.37 -382.77)"/><path class="cls-3" d="M105,424a18.56,18.56,0,1,1,13.13-5.44A18.48,18.48,0,0,1,105,424" transform="translate(-82.37 -382.77)"/><path class="cls-4" d="M119.09,414.31a9.53,9.53,0,0,0-5-2.45.44.44,0,0,0-.5.37.17.17,0,0,0,0,.07V413a.43.43,0,0,1-.36.44h-.45c-.52,0-.62-.66-.51-1a29.91,29.91,0,0,0,1.38-8.23,17.87,17.87,0,0,0-.91-6.25c-.82-2.39-1.57-4.74-5.52-8.32a1.47,1.47,0,0,0-.9-.39c-.39,0-.71,0-1.11,0a16.39,16.39,0,0,0-4.72.69c-.56.17-.48.56-.17.83a22.7,22.7,0,0,1,4.92,5.59,2.74,2.74,0,0,1-2.14-.95,27.1,27.1,0,0,0-5.35-3.91.77.77,0,0,0-.8-.06,14.82,14.82,0,0,0-4.2,3.49c-.23.26-.08.47.14.59a31,31,0,0,1,5.91,4.2c-.43.37-1.11.24-2.11-.27a23.46,23.46,0,0,0-5.14-2,.68.68,0,0,0-.78.28A15.67,15.67,0,0,0,89,403a.66.66,0,0,0,.54.75h0c3.27.57,9.08,2.1,10,8.8a.76.76,0,0,1-1.15.78l-3-1.38a.63.63,0,0,0-.33-.09H90.52A.64.64,0,0,0,90,413a28.16,28.16,0,0,1,3,4.12.33.33,0,0,0,.32.18h2a.69.69,0,0,0,.37-.1l1.91-1.12A.65.65,0,0,1,98,416h15.21a.34.34,0,0,1,.37.34v.75a.45.45,0,0,0,.45.44h.06a9.53,9.53,0,0,0,5-2.45.52.52,0,0,0,0-.73h0l0,0" transform="translate(-82.37 -382.77)"/><path class="cls-5" d="M107.76,412.12a2.71,2.71,0,1,1,2.71-2.7,2.71,2.71,0,0,1-2.71,2.7Zm10,2.57a7.69,7.69,0,0,0-3.43-1.66q-.18,0-.18.15v.06a.75.75,0,0,1-.64.71h-.86a1.14,1.14,0,0,1-1.1-1.55c3.09-11-.36-17.86-4.73-21.68-1.18-1-1.29-1.09-2.47-1.05a16.31,16.31,0,0,0-2.94.37c-.18,0-.34.19-.1.39a20.61,20.61,0,0,1,6.67,10.2c0,.18-.06.17-.19.17a2.25,2.25,0,0,1-2.12-1.2A30.94,30.94,0,0,0,97,392.33c-.24-.14-.28-.14-.46,0a13.21,13.21,0,0,0-2.86,2.29c-.16.17-.12.26.06.35a28.63,28.63,0,0,1,8.68,7.46c.2.25.21.36.1.43a2.68,2.68,0,0,1-2.7-.33,34.43,34.43,0,0,0-8.35-3.85c-.25-.07-.3-.06-.4.16A16.93,16.93,0,0,0,89.65,403c0,.18,0,.2.13.23,6.5,1.32,10.07,4.89,10.47,9.66a1.38,1.38,0,0,1-1.79,1.32c-1-.32-2-.68-3-1a1.26,1.26,0,0,0-.33-.05h-4.2c-.18,0-.3.12-.11.36a27.62,27.62,0,0,1,2.41,3.34.32.32,0,0,0,.32.18h1.54a1,1,0,0,0,.56-.16l1.68-1a1,1,0,0,1,.53-.17h15.6a.76.76,0,0,1,.66.71v.11c0,.12.06.17.17.14a7.87,7.87,0,0,0,3.44-1.74c.09-.08.09-.16,0-.23" transform="translate(-82.37 -382.77)"/><path class="cls-6" d="M110.58,409.1a3.06,3.06,0,1,1-3.47-2.58,3.05,3.05,0,0,1,3.47,2.58" transform="translate(-82.37 -382.77)"/><path class="cls-7" d="M108.05,406.52l-.92,6.05a3.06,3.06,0,0,0,1.67-5.82,3.83,3.83,0,0,0-.75-.23Z" transform="translate(-82.37 -382.77)"/><path class="cls-8" d="M110.14,409.47a2,2,0,1,1-2-2.05,2.05,2.05,0,0,1,2,2.05" transform="translate(-82.37 -382.77)"/></svg>