<svg id="Layer_1" data-name="Layer 1" xmlns="http://www.w3.org/2000/svg" xmlns:xlink="http://www.w3.org/1999/xlink" viewBox="0 0 1164.06 1382.49"><defs><style>.cls-1{fill:#141414;}.cls-2,.cls-4,.cls-8{stroke:#141414;}.cls-2{stroke-linecap:square;stroke-width:0.97px;fill:url(#Adsız_degrade);}.cls-3,.cls-8{fill:#fff;}.cls-4,.cls-8{stroke-width:1.14px;}.cls-4{fill:url(#Adsız_degrade_2);}.cls-5{fill:#42bd3b;}.cls-6{fill:url(#Adsız_degrade_3);}.cls-7{fill:url(#Adsız_degrade_4);}</style><linearGradient id="Adsız_degrade" x1="-3279.72" y1="608.51" x2="-3005.63" y2="608.51" gradientTransform="matrix(-0.01, -3.66, 3.63, -0.01, -1669.41, -10605.62)" gradientUnits="userSpaceOnUse"><stop offset="0" stop-color="#99a2a7"/><stop offset="0.48" stop-color="#98a3a8"/><stop offset="0.54" stop-color="#e6e6e6"/><stop offset="1" stop-color="#e6e6e6"/></linearGradient><linearGradient id="Adsız_degrade_2" x1="-2762.96" y1="-227.38" x2="-2646.7" y2="-121.01" gradientTransform="matrix(5.71, 0, 0, -5.71, 16046.95, -120.48)" gradientUnits="userSpaceOnUse"><stop offset="0" stop-color="#151313"/><stop offset="0.09" stop-color="#151313"/><stop offset="0.13" stop-color="#f8f1f1"/><stop offset="0.23" stop-color="#151313"/><stop offset="0.3" stop-color="#141414"/><stop offset="0.38" stop-color="#f8f1f1"/><stop offset="0.45" stop-color="#151313"/><stop offset="0.56" stop-color="#f8f1f4"/><stop offset="0.63" stop-color="#141414"/><stop offset="0.79" stop-color="#f8f1f1"/><stop offset="1" stop-color="#f8f1f2"/></linearGradient><linearGradient id="Adsız_degrade_3" x1="-2504.32" y1="-237.48" x2="-2492.77" y2="-216.71" gradientTransform="matrix(4.37, -0.64, 0.64, 4.37, 11736.49, 403.32)" gradientUnits="userSpaceOnUse"><stop offset="0" stop-color="#151313"/><stop offset="0.16" stop-color="#ccc4c4"/><stop offset="0.5" stop-color="#b7acad"/><stop offset="1" stop-color="#151313"/></linearGradient><linearGradient id="Adsız_degrade_4" x1="-3598.31" y1="-554.92" x2="-3582.2" y2="-538.15" gradientTransform="matrix(-4.04, -1.8, -1.8, 4.04, -14861.58, -3266.23)" gradientUnits="userSpaceOnUse"><stop offset="0" stop-color="#151313"/><stop offset="0.25" stop-color="#ccc4c4"/><stop offset="0.5" stop-color="#b7acad"/><stop offset="1" stop-color="#151313"/></linearGradient></defs><path class="cls-1" d="M60.8,4.2,82,28.4a4.82,4.82,0,0,0,4.2,1.9h44.5a4.82,4.82,0,0,0,4.2-1.9L156.1,4.2c1.8-2.1,1.2-4.2-1.9-4.2h-30A4.87,4.87,0,0,0,120,2.1l-9.1,13.1H106L96.9,2.1A5.1,5.1,0,0,0,92.5,0H62.7c-3.1,0-3.8,2.1-1.9,4.2M453.5,125.8v2.3c0,81.3,13.3,86.2,110.9,86.2s110.9-4.9,110.9-86.5v-2.1c0-81.3-13.3-86.2-110.9-86.2s-110.9,5-110.9,86.3m-9.9,80.8L350.8,116,438,47.3c2.6-1.9,1.6-4.2-1.6-4.2H379.6a6.33,6.33,0,0,0-4.2,1.6l-89,71.1V46.6c0-2.3-1.2-3.5-3.5-3.5H239.6c-2.3,0-3.5,1.2-3.5,3.5V207.4c0,2.3,1.2,3.5,3.5,3.5h43.3c2.3,0,3.5-1.2,3.5-3.5V166.9l26.3-20.7,63.8,62.9a5.57,5.57,0,0,0,4.4,1.9H442c3-.2,3.9-2.3,1.6-4.4M803.5,43.1H710.6c-2.3,0-3.5,1.2-3.5,3.5V207.4c0,2.3,1.2,3.5,3.5,3.5h93c99.5,0,112.5-4.9,112.5-83.2v-1.4C916,48,903,43.1,803.5,43.1m360.1,163.5-80.4-161a3.91,3.91,0,0,0-4-2.6H1008a3.8,3.8,0,0,0-4,2.6l-80.4,161c-1.2,2.6-.2,4.2,2.5,4.2h46.4a3.68,3.68,0,0,0,3.9-2.6l12.1-23.8h110l12.1,23.8a3.8,3.8,0,0,0,4,2.6H1161c2.8,0,3.7-1.6,2.6-4.2M621.2,125.8v2.3c0,47.1-1.9,47.8-56.9,47.8s-56.9-.7-56.9-47.8v-2.3c0-47.1,1.9-47.7,56.9-47.7s56.9.6,56.9,47.7m241.9,0v2.3c0,43.1-3.5,44.5-59.4,44.5H757.6V81.3h46.1c55.9,0,59.4,1.4,59.4,44.5m217.8,23.5h-74.6l34.3-67.8h6.1ZM5.6,211.1c24.7,1.1,65,2.3,88.3,2.3,101.6,0,113.7-.2,113.7-55.4,0-43.6-12.8-47.1-66.6-48.7l-62.4-1.9c-28.6-.9-29.1-4-29.1-16.8,0-13.3,3.5-13.3,72.2-13.3,13,0,54.5.7,76.4,1.2,2.3,0,3.5-1.2,3.5-3.5V46.6a3.32,3.32,0,0,0-3.3-3.7c-21.7-1.2-57.1-2.4-82.5-2.4C16.1,40.5,0,42.4,0,93.9c0,44,9.8,49.9,73.6,52l57.3,1.9c26.8.9,27.3,4.2,27.3,14.2,0,13.8-1.2,14.5-64.6,14.5-29.6,0-60.1-1.2-87.8-2.1-2.3-.2-3.5.9-3.5,3.3v29.8c0,2.2,1.2,3.3,3.3,3.6" transform="translate(0 0)"/><path class="cls-2" d="M580.3,382.9c275.9-1,500.3,221.9,501.2,497.8S859.6,1381,583.7,1382,83.5,1160,82.5,884.1,304.4,383.8,580.3,382.9Z" transform="translate(0 0)"/><path class="cls-1" d="M582,1330.9c-119.8,0-232.5-46.6-317.2-131.4S133.4,1002.1,133.4,882.3s46.7-232.5,131.4-317.2S462.2,433.7,582,433.7s232.5,46.7,317.2,131.4,131.4,197.3,131.4,317.2-46.7,232.4-131.4,317.2S701.9,1330.9,582,1330.9" transform="translate(0 0)"/><path class="cls-3" d="M582,1294.5c-110.1,0-213.6-42.9-291.4-120.7S169.9,992.5,169.9,882.4,212.8,668.8,290.6,591,471.9,470.3,582,470.3,795.6,513.1,873.5,591,994.2,772.3,994.2,882.4,951.3,1096,873.5,1173.8,692.1,1294.5,582,1294.5" transform="translate(0 0)"/><path class="cls-4" d="M894.9,1080.4A210.44,210.44,0,0,0,784.2,1026a9.92,9.92,0,0,0-11.3,8.2,7.57,7.57,0,0,0-.1,1.5v15.2c0,4.5-3.5,9.6-8,9.6-3.3,0-6.6.1-9.9,0-11.7-.2-13.8-14.5-11.5-23,24.9-89.2,31-143.3,30.7-182.7-.3-41.9-1.4-83.6-20.2-138.8-18.2-53.1-34.8-105.2-122.6-184.7a31.36,31.36,0,0,0-20-8.6c-8.6-.6-15.7-.9-24.5-.9a367,367,0,0,0-104.9,15.3c-12.4,3.8-10.6,12.4-3.7,18.3,33.2,28.4,78.1,71,109.1,124.2-19.6,1.9-34.6-9-47.3-21.1-41.4-39.4-84.6-67.6-118.9-86.8-6-3.3-11.9-4.7-17.8-1.3-37.8,22-63.2,42.6-93.2,77.4-5.1,5.9-1.8,10.5,3.2,13.2,32.8,17.4,84.1,50.4,131.2,93.2-9.6,8.1-24.8,5.4-46.9-6.1C355.2,725.8,314.5,713,283.4,705c-6.7-1.7-13.8.2-17.2,6.1-19.9,34.6-33.6,76-40.1,117.9a14.56,14.56,0,0,0,12.3,16.6c72.5,12.7,201.6,46.7,223.1,195.5,1.9,13-10,24.5-25.6,17.2-21.8-10.2-43.5-20.4-65.3-30.6a17.79,17.79,0,0,0-7.4-2H260.6c-14.6,0-20.6,14-11.1,24.8a640.23,640.23,0,0,1,66.7,91.6,7.16,7.16,0,0,0,7,4H368a15.31,15.31,0,0,0,8.3-2.3c14.1-8.3,28.2-16.5,42.3-24.8,2.6-1.6,5.2-1.5,8.3-1.5H764.6c4.5,0,8.2,2.9,8.2,7.5v16.6a9.88,9.88,0,0,0,11.4,9.7,210.08,210.08,0,0,0,110.7-54.4,11.39,11.39,0,0,0,.6-16.1c-.2,0-.4-.2-.6-.4" transform="translate(0 0)"/><path class="cls-5" d="M643.3,1031.8a60.15,60.15,0,1,1,60.2-60.1,60.11,60.11,0,0,1-60.2,60.1Zm221.2,56.9c-22.8-18.6-46.9-30.7-76.2-36.7-2.6-.5-3.9.5-3.9,3.2v1.5c0,7.2-7.2,15.6-14.4,15.6H751c-16,0-30.4-13.2-24.4-34.4,68.7-245-8.1-396.5-104.9-481.3-26.3-23-28.7-24.3-54.9-23.3-20.7.8-44.9,3.3-65.4,8.3-4,1-7.4,4.2-2.1,8.6,49.7,41.9,116.2,114.1,148,226.5,1.1,3.9-1.2,3.6-4.2,3.8-28.5,1.7-38.1-15.7-47-26.8C531.5,673.3,459.2,624.5,405,592.4c-5.4-3.2-6.3-3.2-10.4-.8-21.8,12.6-46.2,32.6-63.4,50.9-3.6,3.9-2.7,5.7,1.3,7.8,49,26.3,123.5,78,192.8,165.7,4.3,5.4,4.6,7.9,2.2,9.4-13.3,7.9-35.6,7.8-59.9-7.3-66-41.2-133.1-70.3-185.5-85.5-5.6-1.6-6.6-1.3-8.9,3.5-12.8,26.9-26.7,61.8-31.8,92.1-.6,4-1,4.3,2.7,5,144.4,29.3,223.6,108.5,232.6,214.4,1.6,18.4-19.2,36.1-39.9,29.5-22.4-7.1-44.2-15.1-66.7-22.2a20.79,20.79,0,0,0-7.4-1.1H269.5c-4.1,0-6.6,2.6-2.5,7.8,23.4,29.7,37.1,46.5,53.6,74.2,1.7,2.9,3.6,4,7,4h34.3a22.74,22.74,0,0,0,12.4-3.4c12.4-7.3,24.8-14.1,37.2-21.4,4-2.3,7.3-3.7,11.9-3.7H769.7c7.2,0,14.6,8.4,14.6,15.6v2.5c0,2.7,1.3,3.7,3.9,3.2,29.3-6.1,53.3-20.1,76.2-38.7,2.1-1.8,2.1-3.5.1-5.2" transform="translate(0 0)"/><path class="cls-6" d="M706,964.7a67.92,67.92,0,1,1-77.1-57.3A67.93,67.93,0,0,1,706,964.7" transform="translate(0 0)"/><path class="cls-7" d="M649.7,907.5l-20.4,134.3a67.89,67.89,0,0,0,37.2-129.2,69.48,69.48,0,0,0-16.8-5.1Z" transform="translate(0 0)"/><path class="cls-8" d="M696.2,972.8a45.5,45.5,0,1,1-45.5-45.5,45.54,45.54,0,0,1,45.5,45.5" transform="translate(0 0)"/></svg>