<svg id="katman_1" data-name="katman 1" xmlns="http://www.w3.org/2000/svg" viewBox="0 0 45 45"><defs><style>.cls-1{fill:#295ca7;}.cls-1,.cls-2{fill-rule:evenodd;}.cls-2{fill:#fff;}</style></defs><path class="cls-1" d="M233.37,210.86a22.5,22.5,0,1,1-22.51,22.51,22.53,22.53,0,0,1,22.51-22.51Z" transform="translate(-210.86 -210.86)"/><path class="cls-2" d="M233.37,213.72a19.63,19.63,0,1,1-19.63,19.65,19.69,19.69,0,0,1,19.63-19.65Zm-13.15,9.09,7.05,18.27,2.58-6.68h6.76l2.58,6.68,7.12-18.5a16.73,16.73,0,0,0-4.46-3.79l-4.94,13.6h-7l-5-13.66a17.23,17.23,0,0,0-4.76,4.08Zm28.93,4.59-8,20.92a16.92,16.92,0,0,0,8-20.92Zm-11.52,22.28-.06-.42L233.22,238l-4.35,11.28,0,.35a16.44,16.44,0,0,0,4.52.61A17,17,0,0,0,237.63,249.68Zm-12.35-1.54-7.82-20.38a16.57,16.57,0,0,0-1,5.61,16.84,16.84,0,0,0,8.78,14.77Zm8.09-31.64a17.15,17.15,0,0,1,4.31.55l-4.26,11.78L229.15,217a16.73,16.73,0,0,1,4.22-.54Z" transform="translate(-210.86 -210.86)"/></svg>