<svg id="katman_1" data-name="katman 1" xmlns="http://www.w3.org/2000/svg" viewBox="0 0 2500 2500"><defs><style>.cls-1{fill:#fff;}.cls-1,.cls-2{fill-rule:evenodd;}.cls-2{fill:#295ca7;}</style></defs><path class="cls-1" d="M0,0H2500V2500H0Z"/><path class="cls-2" d="M1250.43,210.86c572.16,0,1038.71,466.58,1038.71,1039.57,0,571.29-466.56,1038.72-1038.71,1038.72S210.86,1821.72,210.86,1250.43c0-573,467.42-1039.57,1039.57-1039.57Z"/><path class="cls-1" d="M1250.43,342.83c498.92,0,906.77,407.82,906.77,907.61,0,498.93-407.84,905.9-906.77,905.9s-906.74-407-906.74-905.91c0-499.78,407.8-907.6,906.74-907.6ZM643.37,762.57l325.24,843.75L1087.8,1298.1h312.47l119.18,308.22,328.65-854a783.52,783.52,0,0,0-206-175.38l-228.16,628.34H1092L863,574.4c-84.29,48.54-158.36,112.4-219.66,188.17Zm1335.87,212-370.38,966.36c248.63-130.27,419.74-390.8,419.74-690.49C2028.6,1153.38,2011.58,1060.56,1979.24,974.57ZM1447.09,2003.92l-2.53-19.58-201-521.07-200.93,521.07-.84,16.18c66.4,18.72,136.22,28.09,208.59,28.09A787.19,787.19,0,0,0,1447.09,2003.92ZM876.65,1932.4l-361-940.8c-28.94,80.88-44.27,167.73-44.27,258.83,0,292.88,163.47,550,405.26,682Zm373.78-1461c68.1,0,135.36,8.52,199.23,25.53L1253,1041l-197.53-544.9A774.46,774.46,0,0,1,1250.43,471.39Z"/></svg>