<svg id="katman_1" data-name="katman 1" xmlns="http://www.w3.org/2000/svg" xmlns:xlink="http://www.w3.org/1999/xlink" viewBox="0 0 150 150"><defs><style>.cls-1{fill:none;}.cls-2{opacity:0.35;}.cls-3{fill:#a4a3e0;}.cls-4{clip-path:url(#clip-path);}.cls-5{fill:#1b2a2f;}.cls-6{fill:#c8c9ca;}.cls-7{fill:#00253e;}.cls-8{fill:#fab676;}.cls-9{fill:#ffd9aa;}.cls-10{fill:#fbc28c;}.cls-11{fill:#fdcf94;}.cls-12{fill:#fdf9d6;}.cls-13{fill:#fff;}.cls-14{fill:#ececed;}.cls-15{fill:#00496a;}.cls-16{fill:#00415f;}.cls-17{fill:#324348;}.cls-18{fill:#28393d;}.cls-19{fill:#197242;}.cls-20{fill:#2fac67;}</style><clipPath id="clip-path" transform="translate(-884.9 -473.59)"><rect class="cls-1" x="912.02" y="509.59" width="96" height="96"/></clipPath></defs><g class="cls-2"><circle class="cls-3" cx="75" cy="75" r="75"/></g><g class="cls-4"><g id="Group_2922" data-name="Group 2922"><g id="Group_2921" data-name="Group 2921"><path id="Path_4259" data-name="Path 4259" class="cls-5" d="M923.84,567.25c2.37.76,8.08-5.46,8.94-11.41.73-5.07,1.23-11.05-1-12.71S915.13,564.41,923.84,567.25Z" transform="translate(-884.9 -473.59)"/><path id="Path_4260" data-name="Path 4260" class="cls-6" d="M927.47,564.11s1.83,1,5.41-5.94,3.91-11.34,2.29-12.32-8.16,11.91-7.67,17.6" transform="translate(-884.9 -473.59)"/><path id="Path_4261" data-name="Path 4261" class="cls-7" d="M994.94,567.25c-2.4.64-7.58-6-8.13-12-.47-5.1-.67-11.09,1.66-12.64S1003.79,564.86,994.94,567.25Z" transform="translate(-884.9 -473.59)"/><path id="Path_4262" data-name="Path 4262" class="cls-6" d="M991.69,563.82s-1.89.88-5.11-6.21-3.33-11.54-1.66-12.42,7.54,12.31,6.76,18" transform="translate(-884.9 -473.59)"/><g id="Group_2920" data-name="Group 2920"><path id="Path_4263" data-name="Path 4263" class="cls-8" d="M982.65,562.28c-2.55,1.41-3.9,3.57-6,4.68s-14.2-6.88-14.2-6.88l.52-2.81,5.69-2.88S983.72,561.69,982.65,562.28Z" transform="translate(-884.9 -473.59)"/><path id="Path_4264" data-name="Path 4264" class="cls-9" d="M933.36,545.19s8.09,6.1,11.86,6.54,9,0,11.31.78,6.66,5.43,9.76,7,8.76,4.33,10,5.77a7.06,7.06,0,0,1,1.22,5.1c-.11,1.67-3,3.33-3,3.33a3.93,3.93,0,0,1-1,2.89,3.72,3.72,0,0,1-3.22,1.11,2.49,2.49,0,0,1-.77,2.66,3.62,3.62,0,0,1-3.11.78,7.36,7.36,0,0,1-1.55,2c-1.22,1.22-2.22,1.33-4.55.33s-16-8.43-18.07-10-11.2-9.31-16.42-11.75Z" transform="translate(-884.9 -473.59)"/><path id="Path_4265" data-name="Path 4265" class="cls-10" d="M943.25,571.69s2.06-2,4.06-1.08a3.64,3.64,0,0,1,1.82,3.66c-.07.22,2.86-1.69,4.4-.36a3.47,3.47,0,0,1,1.11,3.25l2.37-.88a2.74,2.74,0,0,1,2,3.36,2.15,2.15,0,0,1-.18.48l2.68-.4s2.14,2,1.17,3.58C962.63,583.3,947.1,578.26,943.25,571.69Z" transform="translate(-884.9 -473.59)"/><path id="Path_4266" data-name="Path 4266" class="cls-10" d="M965.33,558.94a50.35,50.35,0,0,1-4.7-3.64l-4,13.51s.45,3.1,3,3.21a4.69,4.69,0,0,0,5-4.35,6.26,6.26,0,0,0,0-.75,32,32,0,0,1-.67-5.76A5.19,5.19,0,0,1,965.33,558.94Z" transform="translate(-884.9 -473.59)"/><g id="Group_2919" data-name="Group 2919"><path id="Path_4267" data-name="Path 4267" class="cls-10" d="M969.51,580.34c-1.92.45-3.4-1.26-5.25-2.81a7.62,7.62,0,0,0-3.92-1.7,10,10,0,0,0,3.7,2.81,4,4,0,0,1,2.36,2.48A3.65,3.65,0,0,0,969.51,580.34Z" transform="translate(-884.9 -473.59)"/><path id="Path_4268" data-name="Path 4268" class="cls-10" d="M925.81,561.71c5.22,2.44,14.31,10.2,16.42,11.76s15.74,9,18.07,10,3.34.88,4.55-.34a7.79,7.79,0,0,1-4.07-.92s-9.09-5.55-13.38-8.43a114.85,114.85,0,0,1-12.79-10.94,20.92,20.92,0,0,1-5.14-9.13Z" transform="translate(-884.9 -473.59)"/><path id="Path_4269" data-name="Path 4269" class="cls-10" d="M973.5,576.57c-.74.52-1.41.67-2.51-.59s-1.56-2.29-3.18-2.59a14.87,14.87,0,0,1-4-1.77,4.23,4.23,0,0,0,2.44,2.36,9.59,9.59,0,0,1,4,3.7A3.71,3.71,0,0,0,973.5,576.57Z" transform="translate(-884.9 -473.59)"/><path id="Path_4270" data-name="Path 4270" class="cls-10" d="M972.24,570.29a6.48,6.48,0,0,1,2.26,3.4s2.62-1.52,3-3.1a.79.79,0,0,0-.34.29c-1,1.48-2.29,1.63-3,.15a5.28,5.28,0,0,0-3.62-3,5.74,5.74,0,0,1-2.88-1.92C968.1,567.85,970.47,569,972.24,570.29Z" transform="translate(-884.9 -473.59)"/></g><path id="Path_4271" data-name="Path 4271" class="cls-8" d="M944.78,577.68a3.45,3.45,0,0,1,2.27.39c.67.44,3.27,2.83,3.27,2.83a2.72,2.72,0,0,1,2.55.27,8.32,8.32,0,0,0,2.55,1.5,3,3,0,0,1,2.5.28c.72.67,1.66-1,1.66-1s-2.83-2.83-3.33-2.77-4.66-2.11-4.88-2.11a35.45,35.45,0,0,1-3.94-2.33C947.22,574.52,944.78,577.68,944.78,577.68Z" transform="translate(-884.9 -473.59)"/><path id="Path_4272" data-name="Path 4272" class="cls-11" d="M944.92,570.49c-1.4.38-2.49,2.35-2.8,4a3,3,0,0,0,2.49,3.18,4.94,4.94,0,0,0,3.61-2.76C948.84,573.47,948.77,569.46,944.92,570.49Z" transform="translate(-884.9 -473.59)"/><path id="Path_4273" data-name="Path 4273" class="cls-12" d="M946.91,571.47c-1.39-1-2.68.48-2.92,1.17s1.86,1.8,2.36,2.28S949,573,946.91,571.47Z" transform="translate(-884.9 -473.59)"/><path id="Path_4274" data-name="Path 4274" class="cls-8" d="M947.73,571c.4.87,1.13,3-.32,4.37a5.17,5.17,0,0,1-4.06,1.81,2.54,2.54,0,0,0,1.26.54,4.94,4.94,0,0,0,3.61-2.76A4.11,4.11,0,0,0,947.73,571Z" transform="translate(-884.9 -473.59)"/><path id="Path_4275" data-name="Path 4275" class="cls-11" d="M959.19,579.34a4.2,4.2,0,0,0-2.27,3.24,2.46,2.46,0,0,0,2,2.57,4,4,0,0,0,2.92-2.24C962.36,581.74,962.31,578.5,959.19,579.34Z" transform="translate(-884.9 -473.59)"/><path id="Path_4276" data-name="Path 4276" class="cls-12" d="M960.8,580.12c-1.12-.83-2.16.39-2.36,1s1.51,1.45,1.91,1.84S962.46,581.35,960.8,580.12Z" transform="translate(-884.9 -473.59)"/><path id="Path_4277" data-name="Path 4277" class="cls-8" d="M961.47,579.72a3.13,3.13,0,0,1-.27,3.53,4.2,4.2,0,0,1-3.28,1.46,2,2,0,0,0,1,.44,4,4,0,0,0,2.92-2.23A3.3,3.3,0,0,0,961.47,579.72Z" transform="translate(-884.9 -473.59)"/><path id="Path_4278" data-name="Path 4278" class="cls-11" d="M954.91,576c-1.35.36-2.41,2.27-2.71,3.88a2.92,2.92,0,0,0,2.41,3.08,4.72,4.72,0,0,0,3.5-2.68C958.71,578.92,958.65,575,954.91,576Z" transform="translate(-884.9 -473.59)"/><path id="Path_4279" data-name="Path 4279" class="cls-12" d="M956.85,577c-1.36-1-2.6.47-2.84,1.14s1.81,1.74,2.29,2.21S958.84,578.45,956.85,577Z" transform="translate(-884.9 -473.59)"/><path id="Path_4280" data-name="Path 4280" class="cls-8" d="M957.64,576.49c.39.84,1.09,2.88-.31,4.24a5.06,5.06,0,0,1-3.94,1.75,2.51,2.51,0,0,0,1.22.52,4.77,4.77,0,0,0,3.5-2.68A4,4,0,0,0,957.64,576.49Z" transform="translate(-884.9 -473.59)"/><path id="Path_4281" data-name="Path 4281" class="cls-11" d="M986.47,545.52s-7.54,1.55-9.76,2.11a44.48,44.48,0,0,1-6.21.66c-2.88.34-7.54-.44-9.75,1s-6.1,7.88-6.66,10.2.11,3.44,1,5.55.78,6.54,4.1,6.1,4.55-4.33,4.44-6.43a9.35,9.35,0,0,0-1.33-4,13.51,13.51,0,0,1,1.55-2.21s2.1-1.34,3.88-2.22,12.42,6.43,14.53,6.1,9.65-2.67,9.65-2.67S991.35,548.74,986.47,545.52Z" transform="translate(-884.9 -473.59)"/><path id="Path_4282" data-name="Path 4282" class="cls-12" d="M956.2,566.67c-.24-.81,1.26,0,2.36-.45s1.41-.89,2-.44,1.41,3.92-1,4.58S956.79,568.66,956.2,566.67Z" transform="translate(-884.9 -473.59)"/><path id="Path_4283" data-name="Path 4283" class="cls-8" d="M990.84,553.11c-.8,1.13-2,2.88-2.7,3.86-1,1.56-4.36,3.48-4.59,1.7a20.75,20.75,0,0,0-2.88-5.69,8.18,8.18,0,0,1,.81,3.92c-.22,1.33-.59,2.29-3.84,1.63s-7.91-7.47-8.35-6.66a13.17,13.17,0,0,1-3.7,3.55,3,3,0,0,1-3,.15,6.05,6.05,0,0,1-.59,3,4.43,4.43,0,0,1-2.81,2,6.71,6.71,0,0,0,1.11.88c.59.37,2.14,1.93,2.07,6a3.84,3.84,0,0,1-1,2.74,7.17,7.17,0,0,0,2.21-5.44,9.31,9.31,0,0,0-1.33-4,13.59,13.59,0,0,1,1.55-2.22s2.11-1.33,3.88-2.21,12.42,6.43,14.53,6.09,9.65-2.66,9.65-2.66A35.91,35.91,0,0,0,990.84,553.11Z" transform="translate(-884.9 -473.59)"/><path id="Path_4284" data-name="Path 4284" class="cls-11" d="M949.77,573.39c-1.66.4-3,2.52-3.34,4.29s1.7,3.33,3,3.4a5.81,5.81,0,0,0,4.29-3C954.43,576.57,954.35,572.28,949.77,573.39Z" transform="translate(-884.9 -473.59)"/><path id="Path_4285" data-name="Path 4285" class="cls-12" d="M952.13,574.43c-1.65-1.11-3.18.51-3.47,1.25s2.22,1.93,2.81,2.44S954.57,576.05,952.13,574.43Z" transform="translate(-884.9 -473.59)"/><path id="Path_4286" data-name="Path 4286" class="cls-8" d="M953.11,573.89c.47.94,1.34,3.18-.39,4.68a6.53,6.53,0,0,1-4.82,1.93,3.15,3.15,0,0,0,1.5.58,5.81,5.81,0,0,0,4.28-3A4,4,0,0,0,953.11,573.89Z" transform="translate(-884.9 -473.59)"/></g><path id="Path_4287" data-name="Path 4287" class="cls-13" d="M1008.87,536.32l2,20.18s-18.07,6.87-19.18,7.32c-.2-2.22-1.78-12.87-6.76-18.63C984.92,545.19,999.89,538.42,1008.87,536.32Z" transform="translate(-884.9 -473.59)"/><path id="Path_4288" data-name="Path 4288" class="cls-14" d="M991.69,563.82c1.08-.43,18.35-7,19.15-7.31l-.6-6.06a34.11,34.11,0,0,1-19.87,6.36A46.32,46.32,0,0,1,991.69,563.82Z" transform="translate(-884.9 -473.59)"/><path id="Path_4289" data-name="Path 4289" class="cls-15" d="M988.47,542.64a51.44,51.44,0,0,1,6.47,24.61s16.83-4.52,17.94-5.4-3.67-29.3-3.89-29S990.58,540.64,988.47,542.64Z" transform="translate(-884.9 -473.59)"/><path id="Path_4290" data-name="Path 4290" class="cls-16" d="M1012.41,553.83a31.66,31.66,0,0,1-9.75,5.34,17.25,17.25,0,0,1-8.32.56,47.37,47.37,0,0,1,.6,7.52s16.83-4.51,17.94-5.4C1013.25,561.55,1013,558.18,1012.41,553.83Z" transform="translate(-884.9 -473.59)"/><path id="Path_4291" data-name="Path 4291" class="cls-13" d="M911.71,535.77l-3,20.05s17.7,7.79,18.79,8.29c.3-2.2,2.43-12.75,7.7-18.26C935.17,545.85,920.57,538.33,911.71,535.77Z" transform="translate(-884.9 -473.59)"/><path id="Path_4292" data-name="Path 4292" class="cls-14" d="M927.47,564.11c-1.06-.48-18-7.93-18.76-8.27l.91-6a34.09,34.09,0,0,0,19.52,7.37A47.25,47.25,0,0,0,927.47,564.11Z" transform="translate(-884.9 -473.59)"/><path id="Path_4293" data-name="Path 4293" class="cls-17" d="M931.76,543.13a49.73,49.73,0,0,0-7.92,24.12s-16.45-5.06-17.52-6,5.25-29.26,5.45-28.92S929.76,541,931.76,543.13Z" transform="translate(-884.9 -473.59)"/><path id="Path_4294" data-name="Path 4294" class="cls-18" d="M916.74,558.9a32.72,32.72,0,0,1-9.57-5.37c-.75,4.19-1.19,7.41-.84,7.72,1.06.94,17.52,6,17.52,6a46.14,46.14,0,0,1,1-7.32A17.65,17.65,0,0,1,916.74,558.9Z" transform="translate(-884.9 -473.59)"/></g></g></g><path class="cls-19" d="M974.2,507.82h0a2.92,2.92,0,0,0-4.27.73L959.19,524.5,953,519.68a2.93,2.93,0,0,0-4.28.73h0a3.48,3.48,0,0,0,.68,4.61l8.63,6.76h0a2.92,2.92,0,0,0,4.27-.73h0l12.54-18.62a3.48,3.48,0,0,0-.68-4.61Z" transform="translate(-884.9 -473.59)"/><path class="cls-20" d="M974.27,515.1l-2.62,3.83a12.76,12.76,0,1,1-5.11-6.95l2.1-3.24a16.15,16.15,0,0,0-2.75-1.48,16.61,16.61,0,0,0-12.93,0,16.68,16.68,0,0,0-5.28,3.56,16.63,16.63,0,0,0,0,23.49,16.84,16.84,0,0,0,5.28,3.56,16.6,16.6,0,0,0,18.21-3.56,16.6,16.6,0,0,0,3.56-18.21c-.14-.34-.3-.68-.46-1Z" transform="translate(-884.9 -473.59)"/></svg>