<svg id="katman_1" data-name="katman 1" xmlns="http://www.w3.org/2000/svg" xmlns:xlink="http://www.w3.org/1999/xlink" viewBox="0 0 150 150"><defs><style>.cls-1{opacity:0.35;}.cls-2{fill:#20c997;}.cls-3{fill:url(#Adsız_degrade_7);}.cls-4{opacity:0.4;}.cls-5{fill:#27366a;}.cls-6{fill:url(#Adsız_degrade_8);}.cls-7{fill:#230e00;}.cls-8{fill:#fff;}.cls-9{fill:#da2434;}.cls-10{fill:#f15a29;}.cls-11{fill:#27aae1;}.cls-12{fill:#f2e0e0;}.cls-13{fill:#30323f;}.cls-14{fill:#53586b;}.cls-15{fill:#0e0906;}.cls-16{fill:#6b7289;}.cls-17{fill:url(#Adsız_degrade_18);}.cls-18{fill:#b3b3b3;}.cls-19{fill:#ec644c;}.cls-20{fill:#fbdb38;}.cls-21{fill:#4fc517;}.cls-22{fill:#bcc0cc;}.cls-23{fill:url(#Adsız_degrade_32);}.cls-24{fill:url(#Adsız_degrade_32-2);}.cls-25{fill:url(#Adsız_degrade_32-3);}.cls-26{fill:url(#Adsız_degrade_32-8);}.cls-27{fill:url(#Adsız_degrade_32-9);}.cls-28{fill:url(#Adsız_degrade_32-10);}.cls-29{fill:url(#Adsız_degrade_32-11);}.cls-30{fill:url(#Adsız_degrade_32-12);}.cls-31{fill:url(#Adsız_degrade_32-13);}</style><radialGradient id="Adsız_degrade_7" cx="-1443.32" cy="-1629.23" r="29.53" gradientTransform="matrix(0, 1, 1, 0, 2428.29, 1818.6)" gradientUnits="userSpaceOnUse"><stop offset="0" stop-color="#e7928e"/><stop offset="1" stop-color="#3961bd"/></radialGradient><linearGradient id="Adsız_degrade_8" x1="-1465.42" y1="-1636.16" x2="-1465.42" y2="-1639.93" gradientTransform="matrix(0, 1, 1, 0, 2428.29, 1818.6)" gradientUnits="userSpaceOnUse"><stop offset="0" stop-color="#e3bf1f"/><stop offset="0.26" stop-color="#d1a21d"/><stop offset="0.77" stop-color="#a65e18"/><stop offset="0.8" stop-color="#ac6719"/><stop offset="1" stop-color="#d2a320"/></linearGradient><linearGradient id="Adsız_degrade_18" x1="831.48" y1="736.48" x2="831.48" y2="718.21" gradientTransform="matrix(1, 0, 0, -1, 0, 1082)" gradientUnits="userSpaceOnUse"><stop offset="0" stop-color="#387eaf"/><stop offset="1" stop-color="#1149aa"/></linearGradient><radialGradient id="Adsız_degrade_32" cx="831.45" cy="727.27" r="11.57" gradientTransform="matrix(1, 0, 0, -1, 0, 1082)" gradientUnits="userSpaceOnUse"><stop offset="0" stop-color="#fbdb38"/><stop offset="1" stop-color="#e1cb45" stop-opacity="0"/></radialGradient><radialGradient id="Adsız_degrade_32-2" cx="831.45" cy="727.27" r="11.57" xlink:href="#Adsız_degrade_32"/><radialGradient id="Adsız_degrade_32-3" cx="831.45" cy="727.27" r="11.57" xlink:href="#Adsız_degrade_32"/><radialGradient id="Adsız_degrade_32-8" cx="798.63" cy="730.94" r="19.91" xlink:href="#Adsız_degrade_32"/><radialGradient id="Adsız_degrade_32-9" cx="798.63" cy="730.94" r="19.91" xlink:href="#Adsız_degrade_32"/><radialGradient id="Adsız_degrade_32-10" cx="798.63" cy="730.94" r="19.91" xlink:href="#Adsız_degrade_32"/><radialGradient id="Adsız_degrade_32-11" cx="798.63" cy="730.94" r="19.91" xlink:href="#Adsız_degrade_32"/><radialGradient id="Adsız_degrade_32-12" cx="798.63" cy="730.94" r="19.91" xlink:href="#Adsız_degrade_32"/><radialGradient id="Adsız_degrade_32-13" cx="798.63" cy="730.94" r="19.91" xlink:href="#Adsız_degrade_32"/></defs><g class="cls-1"><circle class="cls-2" cx="75" cy="75" r="75"/></g><path class="cls-3" d="M779.46,378.34V351.42a2.46,2.46,0,0,1,2.46-2.46H797a2.46,2.46,0,0,1,2.46,2.46v26.92A2.46,2.46,0,0,1,797,380.8H781.92A2.46,2.46,0,0,1,779.46,378.34Z" transform="translate(-741.25 -286.58)"/><g class="cls-4"><path class="cls-5" d="M788.43,374.36c-.23.06-.44.14-.67.19,0,0,0,0,0,0s0,0-.07,0a.29.29,0,0,1-.13,0,.28.28,0,0,0-.13,0s0,0,0,.05,0,.05,0,.06l-.26.16H787a.13.13,0,0,0-.16,0,.48.48,0,0,0-.21.25.09.09,0,0,1-.06.06s-.06,0-.07.09.17,0,.25-.08a.24.24,0,0,1,.12,0,.14.14,0,0,0,.13,0,1,1,0,0,0,.28-.29s0-.06.08-.06a.18.18,0,0,0,.17-.08.1.1,0,0,1,.09,0,2,2,0,0,0,.35.07,0,0,0,0,1,0,0s0,0,0,0h-.09c.05.08,0,.13-.07.18a.3.3,0,0,0-.08.08.08.08,0,0,1-.07.05s0,0,0,0,0,.08-.08.06-.08,0-.12,0,.08.13.14.16a.2.2,0,0,1,.11.14c0,.05.07.12.12.13a.59.59,0,0,0,.41-.07,2.62,2.62,0,0,0,.25-.22l.18-.15a.13.13,0,0,1,.16,0,.77.77,0,0,1,.16.15c0,.05,0,.11,0,.18s-.06,0-.08,0h0a.06.06,0,0,0-.06.06s0,0,.07,0,.09,0,.08.06a.05.05,0,0,0,0,0,0,0,0,0,1,0,.05c0,.05,0,.08,0,.11a.09.09,0,0,1,0,0c0,.1.08.17.1.27l0,0a.67.67,0,0,1,.18.16.23.23,0,0,0,.1.07,2.67,2.67,0,0,0,.26.09,1.27,1.27,0,0,0,.34.05l0-.06a0,0,0,0,1,0-.07s0,0,0,0l0,0s0,0,0,0,0-.06.06,0,0,0,0,0,.27-.19.33-.34,0,0,0,0a1.15,1.15,0,0,1,.19.14s0,0,0,.07,0,0,0,0,0,0,0,0,.05-.19,0-.27,0-.07,0-.09,0,0,.05,0a1,1,0,0,0,0-.1s0,0,0,0,0,0,.05,0a.24.24,0,0,0,.12.14l.06.06s0,0,0,.06,0,0-.07,0a.06.06,0,0,0-.09,0l0,0s0,0,0,0,0,0,0,0l0,0c.06,0,.06.08.07.13s0,.15-.07.14-.17,0-.18.16v0s0,.06-.06,0,0,0-.07,0a.14.14,0,0,1-.18,0s-.1,0-.09.07a.57.57,0,0,0,.11.22s0,0,.06,0a.44.44,0,0,0,.33-.26l.07-.09c0-.06,0-.06.1,0a.17.17,0,0,0,.18.07.14.14,0,0,1,.11,0c.06,0,.07.09,0,.16s0,0,0,.06.08.14.17.15l.09,0a.85.85,0,0,0,.68-.08l.08,0a.5.5,0,0,0,.3-.29c0-.11,0-.12,0-.19h0c0-.06.11-.07.17-.12h-.12c.1,0,.06-.15.12-.21.08.12.21.13.35.15a.13.13,0,0,1,.11.13,5,5,0,0,1,0,.55s0,.1,0,.12,0,0,0,0a.8.8,0,0,0,0,.27.17.17,0,0,0,.07-.1s0-.05.06,0a.28.28,0,0,0,.13,0s0,0,0,0a.24.24,0,0,1-.08.24s-.08.07-.07.1a.36.36,0,0,0,.11.1s0,0,.05,0,0,0,0,0a.08.08,0,0,1,0,.07.26.26,0,0,1-.22.06.47.47,0,0,0-.17,0,.14.14,0,0,1-.12-.08s0,0,0,0-.16,0-.22.11a2.92,2.92,0,0,1-.34.37l-.16.18s0,0,0,.06a.17.17,0,0,0,.14,0s0,0,.07,0,0,.05,0,.07a.46.46,0,0,1,.1-.07s.06,0,.06.07a.32.32,0,0,1,.17-.11s0,.06,0,.07,0,0,0,0,0,0,0-.06,0-.07,0-.07.09-.08.09-.13,0-.07.06-.07.09,0,.14-.05,0,.08,0,.13,0,.06,0,.07,0,0,0,.08a.12.12,0,0,1,0,.15.61.61,0,0,0,0,.12.29.29,0,0,1,.26.39,0,0,0,0,0,0,.05s0,0,0,0,0,0,0-.06a1.46,1.46,0,0,1,.14-.31.56.56,0,0,0,0,.08c0,.05.06,0,.1,0s0,.19-.06.28,0,0,0,.05,0,.07-.06.12a.91.91,0,0,0,0,.17s0,0,0,.05a.05.05,0,0,0,.07,0s0,0,0,0,0,.05,0,.07a.19.19,0,0,0,.07-.12c.05-.23.08-.44.15-.66a6.37,6.37,0,0,0,.24-1.29,0,0,0,0,0,0-.06s0,0,0,0a.45.45,0,0,1-.11.13s0-.06,0-.09a2.65,2.65,0,0,0,.06-.69v-.09a.12.12,0,0,1,0-.1.17.17,0,0,0,.06-.12,2.67,2.67,0,0,0,0-.5,1,1,0,0,1,.08-.42.42.42,0,0,0,0-.15,3.89,3.89,0,0,1,0-.47.55.55,0,0,0,0-.18l-.08.11a1.26,1.26,0,0,1,0-.51h-.09s0,0,0-.05.06-.2.15-.28.07-.06.08-.1,0-.25.07-.39,0-.05,0-.06,0,0,0,0h0c0-.11,0-.22,0-.33s0,0,0,0,0-.06,0-.09v-.16a.25.25,0,0,1,.06-.2.12.12,0,0,0,0-.17c-.08-.06,0-.14-.06-.22a2.39,2.39,0,0,1,.13.21s0,.05,0,0a.13.13,0,0,0,.08-.07,1.27,1.27,0,0,0,0-.48s0-.08.05-.09,0,0,0,0a.67.67,0,0,0,0-.28s0-.12-.07-.06h0a.15.15,0,0,1-.06-.1,1.88,1.88,0,0,0-.06-.58,1.21,1.21,0,0,0,0-.18s0,.07-.07.08,0-.26,0-.39l-.08.1s-.08.07,0,.13,0,0,0,0,0,0,0,0a.13.13,0,0,1,0-.12.43.43,0,0,0,0-.25s0-.07,0-.06-.08,0,0,.08a0,0,0,0,1,0,0l0,0a.13.13,0,0,1,0-.06.17.17,0,0,1,.14-.12c.09,0,.1,0,.07-.12l-.1.11a.13.13,0,0,0-.1-.09h0c0,.06-.09.08-.15.11h0l.15-.11s0,0,0,0,.06-.09.12-.07a0,0,0,0,0,.06-.06.12.12,0,0,1,0-.1s.06,0,0-.06,0-.06-.05-.07,0,0-.07,0a.11.11,0,0,1-.12-.07s0,.07-.08.07-.08,0-.1.09l0,.09s0,.05-.07,0,0,0,0-.06a1.49,1.49,0,0,0,.13-.49.28.28,0,0,1,.07-.21s0-.06,0-.09a.37.37,0,0,0-.07.14s0,.05-.05.05a0,0,0,0,1,0,0s0,0,0-.05,0,0,0,0,0-.23-.13-.34h.05s.06,0,0-.05a0,0,0,0,0,0,0c0-.11-.09-.21-.12-.32s0,0,0-.05a.06.06,0,0,1,0-.09s0-.06.07,0,0,0,0,0,0-.15.05-.23a.14.14,0,0,1-.13.06l0,0s0,.05-.06,0,0,0,0-.06,0-.1,0-.15a.13.13,0,0,1,0-.07s0-.05-.06,0,0,0,0,0,0,0,0,0a.56.56,0,0,0,0-.12s0-.09,0-.1,0,0-.05.08,0,.05,0,0,0,0,0-.06l.07-.15c0-.08.07-.09.14-.06s0-.08.06-.1,0,.1,0,.16a.48.48,0,0,0,0,.37.11.11,0,0,0,.09.05.06.06,0,0,0,0-.06c0-.05,0-.11,0-.16a5.32,5.32,0,0,0,.16-.69s0,.06.06,0,.09-.18,0-.28a.12.12,0,0,1,0-.1.37.37,0,0,0,0-.21,3.37,3.37,0,0,0-.22-.68s0,0,0,0,0,0,0,0-.11-.08-.16-.13a.36.36,0,0,0-.23-.15.19.19,0,0,1-.1-.08s0,0,0-.06a0,0,0,0,0,0-.05.42.42,0,0,0-.12-.25c-.05,0-.09-.08-.14-.07s-.13,0-.16.05h0s-.06,0-.09,0a.19.19,0,0,0,0,.28.77.77,0,0,1,.1.18.44.44,0,0,0-.22.1c-.1.06-.12,0-.15-.07a.19.19,0,0,1,0-.08s.06.06.09,0,.05,0,.09,0a0,0,0,0,0,0,0,.75.75,0,0,0-.06-.13c-.07-.07-.15-.07-.27,0s-.1,0-.1-.05a2.27,2.27,0,0,0-.06-.25.08.08,0,0,0-.07-.07.12.12,0,0,1-.11,0c0-.06-.09-.11-.09-.18s0-.05-.06-.07a.19.19,0,0,1-.09-.26s0,0,0-.06a.51.51,0,0,1-.17,0,.32.32,0,0,0,0-.21.08.08,0,0,0-.06-.08s-.05,0-.06.06l0,.07s0,.09-.08.11a.4.4,0,0,1-.32.05c-.06,0-.09-.05-.09-.11s0-.26,0-.39a.19.19,0,0,1,0-.07s0-.06,0-.09l0,0c0-.07,0-.06-.08-.05a.41.41,0,0,1-.34-.05.11.11,0,0,0-.15,0,.14.14,0,0,1-.11,0c-.07,0-.05,0-.05.05a.07.07,0,0,0,0,.06s0,0,0,.07-.1,0-.12.08-.06,0-.09,0-.12,0-.16-.09l-.11-.16a.29.29,0,0,0-.25-.15.29.29,0,0,1-.25-.12l-.05,0s-.06,0-.06-.08,0-.12-.11-.16,0,0-.07-.06a.22.22,0,0,0-.19-.09.06.06,0,0,1-.06,0s0-.08-.11-.09a.4.4,0,0,1-.21-.09l0,0c-.06,0-.1,0-.15.05s0,0-.06,0-.05,0-.07,0l0,0c-.14,0-.27-.05-.4-.07s0,0,0,0-.06,0-.08,0a.08.08,0,0,1-.11,0,.19.19,0,0,0-.24.11l-.06.08a.67.67,0,0,1-.33.18.15.15,0,0,0-.09.07c-.12.13-.2.29-.31.42s-.06.1,0,.16a.53.53,0,0,1,0,.49.07.07,0,0,0,0,.06,3,3,0,0,0,.15.32.06.06,0,0,1,0,0c0,.05,0,.1,0,.16a.2.2,0,0,1-.11.2.53.53,0,0,0-.1.06s0,0,0,.07a1.34,1.34,0,0,1,0,.2.23.23,0,0,1-.14.15,1,1,0,0,1-.4-.08.11.11,0,0,0-.14,0,2.55,2.55,0,0,1-.8.42s0,0-.06,0-.07,0-.11,0a.48.48,0,0,1-.42,0,.91.91,0,0,0-.3-.11.66.66,0,0,0-.37,0l-.5.22a.23.23,0,0,1-.11,0,.89.89,0,0,0-.55.14.75.75,0,0,1-.13.06,2.24,2.24,0,0,0-.27.13s-.09,0-.12,0,0,0,0,0a.52.52,0,0,1-.13.06.1.1,0,0,0-.07.14.77.77,0,0,1,.06.33.26.26,0,0,0,0,.21.2.2,0,0,1,0,.11.11.11,0,0,0,0,.08,3.68,3.68,0,0,0,.35.33.76.76,0,0,1,.21.19l0,0a.6.6,0,0,0,.26.05.12.12,0,0,1,.12.06l.08.16a.12.12,0,0,0,.08.06.65.65,0,0,0,.39,0,.12.12,0,0,1,.12,0c.11.14.27.24.33.43a.19.19,0,0,0,.16.14,1.4,1.4,0,0,0,.67,0l.23-.07a.55.55,0,0,1,.25,0,1.09,1.09,0,0,1,.48.24c.12.12.27.22.38.35a1.27,1.27,0,0,0,.41.35l.27.17a1,1,0,0,0,.52.15s0,0,0,0a.06.06,0,0,0,0-.07.1.1,0,0,1,0-.07,1.72,1.72,0,0,0-.11-.5s0,0,0,0a.94.94,0,0,1,.1-.1s0,0,.07,0,0,0,.06,0a3,3,0,0,0,.44-.43.14.14,0,0,1,.08-.05.37.37,0,0,0,.26-.15.08.08,0,0,1,.08,0,.43.43,0,0,0,.29-.08,7.43,7.43,0,0,1,.69-.35c0,.05,0,.11,0,.15a2.1,2.1,0,0,1-.3.22l-.22.13-.09,0a.41.41,0,0,0-.29.15s0,.08-.09.09a.46.46,0,0,0-.23.16.24.24,0,0,1-.14.05l.06-.07s0,0,0,0a0,0,0,0,0,0,0l0,0a.37.37,0,0,1-.2.12l-.14,0s-.09.05-.09.08,0,.13.06.17.05,0,0,.08a.41.41,0,0,0,.08.27c.05.09.1.18.14.27s0,.08.09.07,0,0,0,.05l.06.19a.13.13,0,0,0,.07.06s.06,0,.06.07a.05.05,0,0,0,0,.06s0,0,0,0,.08.09.14.09,0,0,0,0,0,.08.07.06l0,0,.1.07s.06,0,.07,0,.15-.11.15-.23,0-.09.09-.12a.54.54,0,0,1,.22,0l-.06-.06c-.08-.09-.2-.17-.21-.32s0-.09.07-.09a.22.22,0,0,0,.19-.08l-.09-.05s.06-.06.09-.06a.38.38,0,0,0,.21-.14l.06-.05a.14.14,0,0,1,.19.05.12.12,0,0,1-.05.17.55.55,0,0,0-.26.19s0,.09-.07.13-.07.16,0,.27a.07.07,0,0,1-.05.11s-.08,0-.08.07,0,.16,0,.23a1.61,1.61,0,0,0,0,.39,1.93,1.93,0,0,1,0,.24.09.09,0,0,1,0,.09.76.76,0,0,0-.23.31h0c0-.09-.07,0-.1,0a.73.73,0,0,0-.14.16,0,0,0,0,0,0,0s0,.14.13.11,0,0,0,0,0,0,0,0h0a2.45,2.45,0,0,0-.7.16,7.81,7.81,0,0,1-.84.35s-.06.07-.07.11,0,.05.06.06l0,0s.06,0,0,.07,0,.09-.1.08a.69.69,0,0,0-.2,0,.12.12,0,0,0-.09.08s0,.05,0,.07.15.08.18.06a.75.75,0,0,0,.2-.15s.06-.07,0-.07h0s0-.05,0-.06.06,0,.07,0,0,.05.08,0h.18a.6.6,0,0,0,.3,0c.07,0,.09,0,.11.06a.17.17,0,0,0,.11.12.13.13,0,0,1,.09.07.56.56,0,0,0,.25.23,0,0,0,0,1,0,.05.12.12,0,0,0,.15.1s.11.1.08.13,0,.05,0,.07a.29.29,0,0,1,0,.09c0,.07,0,.12.09.13a.22.22,0,0,1-.16.09.26.26,0,0,0-.19.2h-.06a0,0,0,0,0-.06,0,.14.14,0,0,1-.16.09h-.1c-.07,0-.09,0-.1.09a.06.06,0,0,0,0,.07,1.13,1.13,0,0,1,.1.13C788.47,374.33,788.48,374.35,788.43,374.36Zm5.93-4.13a.07.07,0,0,1-.09,0,.09.09,0,0,1,0-.1l0,0c.05,0,.1,0,.14,0l0,0a.13.13,0,0,0,0,.12.09.09,0,0,1,0,0C794.45,370.21,794.43,370.19,794.36,370.23Z" transform="translate(-741.25 -286.58)"/><path class="cls-5" d="M785.76,360.52s0,0,0-.06a.27.27,0,0,1,.08-.16,1.55,1.55,0,0,0,.24-.27s0,0,0,0a.55.55,0,0,1,0-.36.06.06,0,0,0,0-.06s0,0,0,0,0,0,0,0,.09,0,.1-.06a.39.39,0,0,1,.06-.15.12.12,0,0,0,0-.19v0c.09,0,.14,0,.17-.09s0-.07.1,0,.08,0,.1-.05a.11.11,0,0,1,.09-.06.38.38,0,0,0,.28-.14.4.4,0,0,0,.1-.28.64.64,0,0,1,.14-.35l0,0c.13,0,.16-.14.21-.23s0,0,0,0,.09-.06.11-.11,0-.06.06-.06,0,0,0,.06,0,0,0,0,0,0,0,0v0h0v0c0-.07,0-.17-.07-.23v0a.38.38,0,0,0,0-.15c0-.14,0-.29.19-.36a.3.3,0,0,1-.2-.16s0,0-.08,0,.06,0,.09,0,.13,0,.16.05,0,0,0,0,0,0,0,0l0-.06a.8.8,0,0,1-.13-.24c0-.05-.07-.13-.12-.13s-.11-.05-.16-.09,0-.07,0-.11a.24.24,0,0,0,.06-.31.13.13,0,0,1,0-.18.29.29,0,0,1,.26-.13c.11,0,.22,0,.33.07s.1,0,.13,0,.07-.07.06-.13a2.16,2.16,0,0,1,0-.36c.21.09.42.18.65.26,0,0,0-.1,0-.14a.2.2,0,0,0-.15-.24l-.09,0a.06.06,0,0,1-.05-.05c0-.1,0-.21-.08-.31a.08.08,0,0,1,0-.07.54.54,0,0,1,.53-.21,1.22,1.22,0,0,0,.49.12s0,0,0,0,.14.21.21.31a.27.27,0,0,1,.06.26s0,.05,0,.07,0,0,0,.05a.17.17,0,0,0,.06.14.1.1,0,0,1,0,.13.33.33,0,0,0,0,.14s0,.08,0,.12,0,0,0,.09a.19.19,0,0,1,0,.07c0,.06-.14.12-.2.1a.34.34,0,0,0-.35.09s0,.05,0,.07a.52.52,0,0,0,.35.05l.11,0s.11,0,.16,0a1.22,1.22,0,0,1,.32.32c0,.07.08.16.14.23s.17.23.34.2c0,0,0,0,0,0s.07.07.12.1,0,0,0,0a.09.09,0,0,0,.05.1.31.31,0,0,1,.17.23,1.05,1.05,0,0,1,.05.19c0,.08,0,.09.09.05h0c.06,0,.14.06.16.13a1.81,1.81,0,0,1,.17.46s0,0,0,0l0-.06s0,0-.09,0,0,0,0,.07a1.38,1.38,0,0,1,.15.4,0,0,0,0,0,0,0c.06,0,.06.08.08.12s0,.05,0,0,.06,0,.1,0a.11.11,0,0,0-.05-.09.21.21,0,0,1-.08-.23.14.14,0,0,1,.17-.08.78.78,0,0,0,.2.11c.09-.18-.07-.31-.11-.48.06.09.15.14.15.25l0,0a.23.23,0,0,1,.08.22v.23a.85.85,0,0,0,.14.52s0,0,0,0,0,0,0,0l-.28-.28a.26.26,0,0,0-.11-.07.66.66,0,0,0,0,.24c0,.07-.09.12,0,.19s0,0,0,0,0,0-.07,0l.08.1s0,0,0,0a.22.22,0,0,1,.21,0c0-.08,0-.16.08-.18h0s0,0,.06,0,0,.05.05,0,.06,0,.08,0a.15.15,0,0,0,.21,0h0a.12.12,0,0,0,.11-.1c0-.07.09-.11.14-.16s.08,0,.12,0h0l.34-.06a1.36,1.36,0,0,1-.22-.33.12.12,0,0,1,.09-.14c.07,0,.11,0,.16.09a.41.41,0,0,1,.12-.19s.12-.07.05-.15,0,0,0,0,0-.12,0-.18,0-.07,0-.1-.31-.11-.39-.27c0,0-.06.08-.09.08s-.14,0-.17-.07a.73.73,0,0,1-.15-.32.05.05,0,0,0-.06-.06l-.22-.05a.12.12,0,0,1-.07,0l-.08-.14a.89.89,0,0,0,.19-.07s0,0,0,.06,0,0,0,0,0,0,0,0,0,0,0,0,.11.06.17.08,0-.13,0-.2,0,0,0-.05a.1.1,0,0,0,0-.1s0,0,0-.05a.22.22,0,0,0,.12-.22c0-.07,0-.09.07-.08h0c.05,0,.06,0,.06,0s0,0,0,0a.93.93,0,0,1,.3.41,1.1,1.1,0,0,0,.2.35s0,0,0,.06a.23.23,0,0,0,0,.11,1.28,1.28,0,0,0,.17.3s0,0,0,0a.49.49,0,0,1-.16-.21s0,.1-.06.08,0,0,0,0a.38.38,0,0,0,0,.1c.07.08.07.08,0,.18s0,.09,0,.11.07,0,.1,0a.44.44,0,0,1,.08-.11s.06-.07.11-.07a.12.12,0,0,1,0,.1s0,0,0,.05,0,.09.06.15a.21.21,0,0,0,.1.16.29.29,0,0,1,.13.08s0,0,0,0a.06.06,0,0,1,0,0c0,.13,0,.27,0,.39s0,0,0,0-.06.12-.1.11,0-.09,0-.14,0-.09-.09-.1a.14.14,0,0,0,.06.2h0s0,.11,0,.12-.09,0-.12,0l-.07-.13s0,0,0,0-.07,0-.07-.06v-.13s0-.07,0-.11a.23.23,0,0,0-.07-.1s0,0-.05.05,0,0,0,.05l.06.12a.09.09,0,0,1,0,.09.57.57,0,0,1-.15.12l0,0a2.92,2.92,0,0,0-.1.35c.07,0,.1-.05.15-.08s0,0,0,0a0,0,0,0,1,0,.05l-.1.15s0,0,0,0a.11.11,0,0,1,.09.06s0,0,.07,0a.31.31,0,0,1,.11-.08.07.07,0,0,1,.1,0s0,.06,0,.09a.24.24,0,0,0-.08.06s-.07.07,0,.11a.1.1,0,0,1,.06.1v0c.06,0,0,.07.07.11a1,1,0,0,0,.14-.17s0-.05,0-.08,0-.06,0-.08,0,0,0,0,.13.07.17,0a.19.19,0,0,0,0-.07s0,0,0,0,0-.05,0-.09a.11.11,0,0,1,.05-.09l.07-.06c.05,0,.06-.07.06-.14s0-.17,0-.26,0,0,0,0a.47.47,0,0,0-.14-.31c.09,0,.09.07.14.09a.21.21,0,0,0,0-.11.86.86,0,0,0-.2-.36.09.09,0,0,0-.1,0s0,0,0,.06a.66.66,0,0,1,0,.15s-.08,0-.1-.07-.12-.17-.16-.26,0,0,0-.06a0,0,0,0,1,.07,0c0,.05,0,.05.09,0s0-.05,0-.08,0,0,0,0a.47.47,0,0,0,.17,0s0,0,.05,0,.06.06.06.11a.57.57,0,0,0,.14.34,1.71,1.71,0,0,0,0-.32.07.07,0,0,0,0-.06,1.1,1.1,0,0,1-.29-.38.08.08,0,0,0-.1-.05s0,0,0-.05a.32.32,0,0,0,0-.25s0-.06-.07-.05-.05,0-.05,0,0-.18,0-.27a.22.22,0,0,1,.08-.21.06.06,0,0,0,0-.07c0-.05,0-.11,0-.16s0,0,0,0,0,0,0-.05a.86.86,0,0,0,0-.32s0-.05,0-.08,0,0,0,0,0,.07.05.1a.39.39,0,0,0,.06-.17.71.71,0,0,1,0-.2.37.37,0,0,0,0-.18s0-.07,0-.08,0,0,0,0l0-.06c0-.05,0-.08,0-.09s.05,0,0,0a1.94,1.94,0,0,1-.12-.43.06.06,0,0,1,0-.06.16.16,0,0,0,0-.15.36.36,0,0,1,0-.27.55.55,0,0,0,.07-.3.67.67,0,0,1,0-.2c.05-.18.05-.36.11-.54,0,0,0,0,0-.08s0-.31-.1-.46a2.41,2.41,0,0,1-.16-.54c0-.15,0-.15-.17-.1s-.05,0-.06,0,0-.11,0-.11,0,0,0-.05l-.09-.33s0,0,0,0-.07,0-.1,0-.05.2,0,.32-.11,0-.12-.06a2.74,2.74,0,0,0,0-.28,1.24,1.24,0,0,0-.14-.38.26.26,0,0,0-.16-.11c-.07,0-.08,0-.06.06s0,.05,0,.08l-.11-.08c0,.1,0,.19,0,.27-.16-.39-.31-.78-.45-1.18a.08.08,0,0,0,0,0,3.1,3.1,0,0,0,.33,1.07.44.44,0,0,1,.05.15.76.76,0,0,0,.11.36c0,.05.06.08.11,0a1.33,1.33,0,0,0,.09.38s0,0,0,0l-.11-.15,0,0s0,0,0,0a0,0,0,0,0,0,0h0a1.5,1.5,0,0,0,.12.45.08.08,0,0,1,0,.07.93.93,0,0,0-.1.38.06.06,0,0,1,0,.06.23.23,0,0,1-.21.07,2.11,2.11,0,0,0-.26,0s0,0,0,0,0,.07,0,.12a.6.6,0,0,0-.35,0c-.12,0-.12,0-.1-.11a.13.13,0,0,0-.16,0l0,.05s-.07.07-.13,0-.07,0-.11-.05a.72.72,0,0,1-.2-.09l-.23-.2a.24.24,0,0,0-.11-.06.22.22,0,0,1-.15-.08.14.14,0,0,0-.18-.06h0a.25.25,0,0,0-.12,0l-.28,0a.22.22,0,0,0-.24.14.23.23,0,0,1-.19.13.85.85,0,0,0-.45.09s0,0-.05,0,0-.05,0,0a.3.3,0,0,0-.14.1c-.05.09-.08.11-.18.09s0,0-.06,0a.38.38,0,0,1-.23.15c0,.07.08.07.15,0l.18-.08c.13,0,.24-.08.37-.12s.18-.1.28,0,.07,0,0,0,0,.1-.06.11l-.15,0a.68.68,0,0,0-.31.17.11.11,0,0,1-.11,0,.09.09,0,0,0-.11,0l-.29.24a.21.21,0,0,1-.23,0,.13.13,0,0,0-.19,0l-.18.29a3.72,3.72,0,0,0-.19.34.29.29,0,0,0,0,.27.17.17,0,0,1,0,.19.27.27,0,0,1-.08.07.33.33,0,0,0-.16.25c0,.05,0,.11,0,.17s0,.15-.13.16,0,0-.06.05a.2.2,0,0,1-.14.05s0,0-.06,0-.08.09-.12.14-.13.1-.11.2,0,.09-.08.13,0,0,0,.07,0,0,.08,0a.09.09,0,0,1,.11.08.09.09,0,0,1-.09.11l-.06,0a.3.3,0,0,1-.22.06h-.16a.25.25,0,0,1-.24-.12.11.11,0,0,0-.09-.06s-.05,0-.06,0-.06-.08-.11-.09l-.16-.06c-.06,0-.12,0-.15,0s-.08.05-.12,0-.07-.08-.12-.07-.22,0-.28.14l0,0c-.32.15-.59.37-.92.5a.16.16,0,0,0-.07.07l-.34.46s0,.05,0,.06a4.34,4.34,0,0,1-.52.08l-.74,0-.14,0a.59.59,0,0,1-.22.05,2.88,2.88,0,0,1-.59-.05.09.09,0,0,0-.07,0,.62.62,0,0,1-.32.09,1.31,1.31,0,0,0-.27.06s0,0,0,.06,0,0,0,0h0s0,0,0,0,0,0,0,0a1.84,1.84,0,0,1-.25,0c.05-.06,0-.07,0-.1s0,0-.06,0,0,0-.05,0l-.09,0s-.09,0-.09.06,0,.09-.1.05-.05,0-.08,0a3,3,0,0,0-.49.36.83.83,0,0,0-.24.4,2.1,2.1,0,0,1-.06.24.21.21,0,0,0,.11.22l.09-.21s0,0,0-.06l.2-.19a.22.22,0,0,1,.11-.05s0,0,.05.05h0a.26.26,0,0,1,.24.07s0,0,0,0a.33.33,0,0,1,.09-.11.14.14,0,0,1,.22,0,0,0,0,0,0,0,0,.21.21,0,0,1,.22.08h0a.12.12,0,0,1,.08-.15s.07,0,.1,0,0,0,0,.07,0,.18.14.15.11,0,.11.1a.93.93,0,0,0,0,.24s0,0,0,0a.31.31,0,0,0,.25.05.05.05,0,0,0,.06,0s0-.05.07-.06.11,0,.1-.09,0,0,0,.09l0,.05a.26.26,0,0,0,0,.21.29.29,0,0,0,.15.14,1.5,1.5,0,0,0,.34.11s.06,0,.05.06,0,0,0,.06a.55.55,0,0,0,.46.1.16.16,0,0,1,.13,0,1.76,1.76,0,0,1,.23.37.54.54,0,0,0,.07.19.48.48,0,0,0,.31.19,2.56,2.56,0,0,0,.67.08.29.29,0,0,1,.23.08,2.2,2.2,0,0,0,.45.26c0-.12.11-.13.24-.18Z" transform="translate(-741.25 -286.58)"/><path class="cls-5" d="M783.78,379.72s0,0,0,0,.08-.08.12-.08a.18.18,0,0,0,.15-.05l0-.05a.47.47,0,0,1,.35-.15.54.54,0,0,0,.22,0s0,0,0-.06,0-.07.07-.07a1.13,1.13,0,0,0,.32-.06s0,0,0,0,0,0,0,0L785,379a1.14,1.14,0,0,1-.56-.17.09.09,0,0,1,0-.1.33.33,0,0,1,.14-.19.28.28,0,0,0,.1-.09.47.47,0,0,1,.1-.1s0,0,0,0,.15.07.2.15a.06.06,0,0,0,.09,0s0,0,0-.08-.06-.08,0-.14a.51.51,0,0,1,.12-.2s0,0,0-.07,0,0-.07,0-.09,0-.09-.07a.18.18,0,0,0-.09-.14c-.06,0-.11-.09-.19-.08h0a.7.7,0,0,1,0-.14s0,0,.08-.06a.12.12,0,0,0,0-.19.32.32,0,0,0-.09,0s-.05,0,0-.05,0-.06,0-.08-.07,0-.08-.06a.18.18,0,0,0-.11-.1s0,0,.08,0a.28.28,0,0,0-.14-.1c-.11,0-.18-.11-.23-.19a1.32,1.32,0,0,1-.15-.39.72.72,0,0,0-.12-.25s-.09,0,0-.08v0a.12.12,0,0,0-.1,0s-.09,0-.12,0-.09,0-.16,0-.06,0-.07,0,0-.06-.08,0a.12.12,0,0,1-.12,0c-.11,0-.22.08-.33,0h0a.46.46,0,0,1-.34-.07.1.1,0,0,1,0,0s-.1-.05-.11,0a.3.3,0,0,0,0,.28.83.83,0,0,0,.07.13.41.41,0,0,1,0,.27c0,.08,0,.16.06.21s0,0,0,.06a1.58,1.58,0,0,1,.15.48.49.49,0,0,1-.07.45c-.07.08-.12.15-.23.12s0,0-.06,0,0,0,0,0a.69.69,0,0,1,.16.22,0,0,0,0,1,0,0c-.05,0-.06-.08-.11-.11s0,0,0,0,0,0,0,.05,0,.05,0,.09-.08,0-.1,0a.39.39,0,0,1-.07-.16s0,0,0,0,0,0,0,.06,0,0,0,0a.24.24,0,0,1,.1.12s-.08,0-.11,0-.13,0-.19,0-.14.28-.1.35l0,0s0,0,0,.06h0c-.1,0-.1.06,0,.14s.14.15.13.27,0,.09.07.12l.44.36s0,0,0,.06a1.09,1.09,0,0,0,.48.34c.13,0,.27.07.4.11a.08.08,0,0,0,.08,0A.7.7,0,0,1,783.78,379.72Z" transform="translate(-741.25 -286.58)"/><path class="cls-5" d="M794.57,362.76c0,.11,0,.11.11.12h0c.11,0,.15.05.19.12a.61.61,0,0,1,.07.14s0,0,0,0,0-.06,0-.05.09,0,.13.05,0,.09.12,0h0c.07,0,.09,0,.11.05s0,.13,0,.18.1.21.14.31h0s0,0,0,0v-.06l0-.33s0-.09,0-.1,0,0,0-.05.07-.3.1-.46v-.11l0-.82a.33.33,0,0,0-.05-.22.13.13,0,0,1,0-.06,6.38,6.38,0,0,0-.09-1.08,1,1,0,0,0-.05-.25s0,.07-.08.05,0-.06,0-.09l-.06-.46s0-.05-.05-.06,0,0,0,0a.13.13,0,0,0,0,.09,2.41,2.41,0,0,0-.08.44.77.77,0,0,1-.1.23.07.07,0,0,1-.06,0,.24.24,0,0,1-.18-.07s0,0,0,0a.08.08,0,0,0,0,0c0,.06,0,.1,0,.15s0-.09,0-.13,0-.09-.11-.08l0,.17c-.05,0-.07,0-.07-.06a.17.17,0,0,0-.07-.13.25.25,0,0,0-.22-.08h-.13a1.19,1.19,0,0,0-.45.08.06.06,0,0,0,0,.06.4.4,0,0,1-.07.18.1.1,0,0,0,0,.07.23.23,0,0,0,.12.23l0,0c.15.08.23.24.38.31s0,0,0,0a.9.9,0,0,1,.08.28.91.91,0,0,0,.15.37.72.72,0,0,1,.13.28c.05.16.09.31.14.46A.2.2,0,0,1,794.57,362.76Z" transform="translate(-741.25 -286.58)"/><path class="cls-5" d="M785.88,379.5a.15.15,0,0,0,.11-.07,2.76,2.76,0,0,0,.3-.68s0,0,0-.07-.11-.11-.16-.17,0-.09,0-.12.07,0,.09-.08a.08.08,0,0,1,.09,0c.09,0,.09,0,.08-.07v0c.05-.08,0-.15,0-.23s0,0,0,0-.08,0-.09.1a.11.11,0,0,1-.13.09.14.14,0,0,0-.13.13.09.09,0,0,1,0,.05,2.12,2.12,0,0,0-.11.29c0,.1-.12.11-.2.14s-.09,0-.13-.06,0,0,0,0,0,0,0,.05a.17.17,0,0,1,0,.18l-.06.12a.18.18,0,0,0,.05.23.45.45,0,0,1,.11.13s0,0,0,0-.06.11-.13.14-.19.25-.22.42a.21.21,0,0,0,.12-.08.65.65,0,0,1,.31-.26s0,.06,0,.08,0,0,0,0,.13-.07.12-.15S785.83,379.51,785.88,379.5Z" transform="translate(-741.25 -286.58)"/><path class="cls-5" d="M787,376.72s.05,0,.08,0a2.18,2.18,0,0,0,.21-.22.45.45,0,0,1-.27-.22.43.43,0,0,0-.15-.15.11.11,0,0,1-.06-.09.16.16,0,0,0-.09-.11s-.1,0-.11-.07a.32.32,0,0,1,0-.13v0a.08.08,0,0,1-.08,0,.23.23,0,0,0-.25,0,.16.16,0,0,1-.17,0,.1.1,0,0,0-.1,0,.1.1,0,0,0,0,.12.17.17,0,0,1,0,.12c0,.08-.06.14-.07.22s0,.19.15.17a.12.12,0,0,1,.14.06.12.12,0,0,0,.12.07h.1s0,0,0,0,0,.08.1,0a.1.1,0,0,0,0,0,.13.13,0,0,1,.13,0A2.11,2.11,0,0,1,787,376.72Z" transform="translate(-741.25 -286.58)"/><path class="cls-5" d="M795,357.61v0c0,.06,0,.13,0,.19a.13.13,0,0,0,.08.18c.06,0,0,0,0,.07s0,0-.08,0a1,1,0,0,0,0,.43,1,1,0,0,1,0,.29.11.11,0,0,0,.07.11.87.87,0,0,0,0-.53.15.15,0,0,1,.1.15,2.16,2.16,0,0,1,0,.36c0,.05,0,.1.06.12-.08,0,0,.08,0,.13s.14.27.2.43a3.53,3.53,0,0,1,.16.66c0,.11.07.23.08.34s0,0,0,0v-.76a1.22,1.22,0,0,0,0-.33,3.37,3.37,0,0,1-.09-.77.48.48,0,0,0-.08-.28s0-.09,0-.11a.1.1,0,0,0-.08,0c-.12,0-.18.08-.14.2s0,.05,0,.07a.19.19,0,0,1-.07-.13.83.83,0,0,0-.06-.21.06.06,0,0,1,0-.09.13.13,0,0,0,0-.12c0-.12,0-.12-.11-.13s-.06,0,0,0a.25.25,0,0,1,0-.12h0c.11,0,.1,0,.11-.09s0-.07,0-.09-.1-.09-.14-.08S795,357.56,795,357.61Z" transform="translate(-741.25 -286.58)"/><path class="cls-5" d="M784.73,369.18a.28.28,0,0,1-.11-.13.87.87,0,0,1-.07-.17s0,0,0,0a.33.33,0,0,0-.3,0h-.05a.32.32,0,0,1-.25-.06.29.29,0,0,0-.2-.07h-.1a.24.24,0,0,0-.25.18.29.29,0,0,0,.2.25l.33.1a4.28,4.28,0,0,1,.51.15h.1s.08,0,.08.05,0,0,0,0a.5.5,0,0,0,.37-.07A3.39,3.39,0,0,0,784.73,369.18Z" transform="translate(-741.25 -286.58)"/><path class="cls-5" d="M794.66,355.36a.48.48,0,0,0,.07.3s.07.08.07.15-.09,0-.14-.06l-.12-.08c-.06,0,0,0-.06,0s0,.1-.09.11,0,0,0,.06a.73.73,0,0,1,.09.35.82.82,0,0,1,0,.38.26.26,0,0,0,.07.22,0,0,0,0,0,0,0l.06,0s0,0,0,0,.15,0,.23.05a.34.34,0,0,0-.15-.23s0,0,0,0,.08-.18.1-.27a.14.14,0,0,1,.07-.11s.08,0,.08-.08a2.64,2.64,0,0,0,0-.4s0-.07-.06-.07-.06,0-.07-.08-.06-.18-.1-.27C794.75,355.33,794.68,355.31,794.66,355.36Z" transform="translate(-741.25 -286.58)"/><path class="cls-5" d="M785.89,375.35a.23.23,0,0,1,.2,0s0,.05,0,0,0-.05,0-.07,0-.05,0-.06a.33.33,0,0,0,.18-.17s0,0,.08,0,0,0,0,0a.92.92,0,0,0,.17-.22.47.47,0,0,1,.22-.24.13.13,0,0,0,.07-.06c.05-.11.11-.23.17-.34s0-.07,0-.08,0,0-.05,0a.27.27,0,0,1-.16.17.24.24,0,0,0-.14.14s0,0,0,0-.12.07-.18.1a1.74,1.74,0,0,1-.36.13.45.45,0,0,0-.28.21.43.43,0,0,0-.12.17C785.74,375.27,785.82,375.37,785.89,375.35Z" transform="translate(-741.25 -286.58)"/><path class="cls-5" d="M787.26,377.43c0,.08,0,.07.06.06a.49.49,0,0,1,.24,0s0,0,.06,0l.06-.07a.08.08,0,0,1,.09-.05.13.13,0,0,0,.16,0s.07-.09,0-.15l.08,0s.05,0,.06,0a.29.29,0,0,0,0-.13c0-.13,0-.15.15-.14a.2.2,0,0,1,.11,0,.1.1,0,0,0,.09,0l.13,0a.08.08,0,0,0,0-.11s0,0-.08,0a.58.58,0,0,1-.19,0c-.1-.05-.18-.05-.24,0s0,.05,0,0-.11,0-.16.06l0,0s0,0,0,0a.17.17,0,0,1,.1,0,.32.32,0,0,1-.11.19.29.29,0,0,0-.11.11s0,0-.05,0a.14.14,0,0,1,0-.15s0-.06,0-.06-.13,0-.15.08,0,0,0,0-.06,0-.07,0a.11.11,0,0,0,.05.11.07.07,0,0,0,.09,0h0s0,0,0,0a.1.1,0,0,1,0,.06s0,0,0,0-.1,0-.14,0-.06.06-.09,0-.07-.05,0-.1a.07.07,0,0,0-.05-.11h0c0-.07-.09-.05-.15-.05a.13.13,0,0,1,.09.14s0,.06-.05.05a.15.15,0,0,0-.14.05s-.08.07-.06.11.08,0,.12,0h0S787.27,377.4,787.26,377.43Z" transform="translate(-741.25 -286.58)"/><path class="cls-5" d="M793,363.9s0,0,0,0-.05,0,0,.06,0,.06,0,.07l-.09,0s-.06,0-.06,0a.09.09,0,0,0-.07-.1s0,.05,0,.05,0,0,0,0,0,0,0,0,0-.05,0,0,0,0,0,0,0,.07,0,.09-.1-.12-.15-.19a.77.77,0,0,1,0,.15,0,0,0,0,0,0,0c.07.07.05.16,0,.26a.38.38,0,0,0,0,.15c0,.06,0,.07.1,0s.05.08.09.07,0-.06,0-.09,0,0,0,0a.78.78,0,0,0,.3-.18c.08-.05.07-.07.14,0h0a0,0,0,0,0,.05,0,0,0,0,0,0,0,0v-.07s0,0,0,0,0,0,0,0,.07.05.11.08,0,0,0,0a.21.21,0,0,1-.07-.18h0a.73.73,0,0,1-.08-.09.13.13,0,0,0-.18,0s0-.05,0-.05S793,363.87,793,363.9Z" transform="translate(-741.25 -286.58)"/><path class="cls-5" d="M785.39,376.2a.26.26,0,0,0,0,.21l0,0a0,0,0,0,1,0,.06c-.07.07,0,.16,0,.23a.48.48,0,0,1,0,.17.2.2,0,0,0,0,.15c0,.08,0,.17,0,.25l-.1-.12c-.05-.07-.05-.07-.13-.07a2,2,0,0,1,.29.4.2.2,0,0,0,0-.15.31.31,0,0,1,0-.31,0,0,0,0,0,0-.05.3.3,0,0,1,0-.29.58.58,0,0,0,0-.37.09.09,0,0,1,0-.07c0-.05,0-.1,0-.16s0,0,0-.05,0,0,0,0,0,0,0,0,0,0,0,0,0-.05,0-.07a.18.18,0,0,1,0-.17c0-.05,0-.07,0-.09h0a.28.28,0,0,1,0-.2.17.17,0,0,0,0-.3c0,.06,0,.13,0,.19a.42.42,0,0,0-.13.31A1.82,1.82,0,0,1,785.39,376.2Z" transform="translate(-741.25 -286.58)"/><path class="cls-5" d="M786.52,377.05h0a.22.22,0,0,0,0,.22.13.13,0,0,0,.17.1c0-.05,0-.09-.07-.13a.19.19,0,0,1,0-.07,1.7,1.7,0,0,1,0-.22c0-.07,0-.15-.1-.15a1,1,0,0,1-.35-.09h0a.5.5,0,0,1-.32,0h0s0,.11,0,.11a.23.23,0,0,0,.18,0l.1,0s0,0,0,0a.08.08,0,0,1-.1.06,0,0,0,0,0,0,0l-.1,0c-.07,0,0,.06-.07.09s0,.06.06.07a.2.2,0,0,0,.1,0s.08-.06.12-.06a.15.15,0,0,0,.13-.07c0,.05,0,.13.13.14s0-.12,0-.17,0-.05,0-.08a.16.16,0,0,1,.2,0A.16.16,0,0,1,786.52,377.05Z" transform="translate(-741.25 -286.58)"/><path class="cls-5" d="M795.12,356.09c0,.07,0,.15-.08.19a0,0,0,0,0,0,0,.14.14,0,0,1,0,.15.14.14,0,0,0,0,.15.69.69,0,0,1,.06.4.11.11,0,0,0,.05.12s0,0,0,0,0,0,0,0,.05,0,0-.07l-.1-.14a.11.11,0,0,1,0-.12.44.44,0,0,0,.09-.22l0,.05s0,0,.07,0,0,0,0-.07a1.7,1.7,0,0,0-.1-.37s0,0,0-.06a.15.15,0,0,0,0-.11S795.13,356.05,795.12,356.09Z" transform="translate(-741.25 -286.58)"/><path class="cls-5" d="M794,362.71s0,0,0,0,0,.05-.05.06,0,0,0,.07a1.64,1.64,0,0,0,.1.38.15.15,0,0,0,.1.09s0,0,.06-.06a.12.12,0,0,0,0-.1,2.7,2.7,0,0,0,0-.28.25.25,0,0,1,0-.21.06.06,0,0,0,0-.09l-.06-.11v0s-.06.07,0,.12S794,362.65,794,362.71Z" transform="translate(-741.25 -286.58)"/><path class="cls-5" d="M788.89,356.57s0,0,0-.06a.33.33,0,0,1,.14-.21.24.24,0,0,0,.06-.08,1.85,1.85,0,0,0,.08-.46.23.23,0,0,0-.06-.19c0-.05-.08-.07-.14,0a.22.22,0,0,0,.1.11s.07.08,0,.1a.73.73,0,0,0-.07.19c0,.11-.09.19-.21.19s-.07,0-.06.06l0,.29,0,0S788.87,356.58,788.89,356.57Z" transform="translate(-741.25 -286.58)"/><path class="cls-5" d="M792.88,363.87a.06.06,0,0,0,.1,0,.74.74,0,0,0,0-.12.09.09,0,0,0-.08-.1s0,0,0-.06,0-.07,0-.07-.09-.05-.11,0,0,0-.06,0l0,0a.06.06,0,0,0-.06,0s0,0,0,.05,0,0,0,.05a.29.29,0,0,0,.05.13s0,0,0,.05,0,.07,0,.08a.18.18,0,0,0,.1,0h0A.07.07,0,0,1,792.88,363.87Z" transform="translate(-741.25 -286.58)"/><path class="cls-5" d="M788.59,356.53a.37.37,0,0,0,0,.15s0,0,0,.05a.06.06,0,0,0,0,.1.08.08,0,0,1,0,.07.33.33,0,0,1,0,.14v0s0,.06,0,.07a.07.07,0,0,0,.08,0s0-.09.07-.12,0,0,0-.06a.28.28,0,0,1,0-.18s0-.07,0-.06-.11,0-.11-.1a.17.17,0,0,0,0-.07s0,0,0,0S788.59,356.52,788.59,356.53Z" transform="translate(-741.25 -286.58)"/><path class="cls-5" d="M781.66,378.28l-.35-.1s0,0,0,0a.29.29,0,0,0,0,.16c.06.14.19.18.31.26C781.61,378.5,781.52,378.39,781.66,378.28Z" transform="translate(-741.25 -286.58)"/><path class="cls-5" d="M794.84,357.2a.07.07,0,0,1,0-.05c.09,0,0-.06,0-.11s-.05.1-.1.12,0,0,0,.06a1.6,1.6,0,0,0,.1.23s0,0,0,0,0,0,.07,0,0,0,0,0a1.34,1.34,0,0,1,0-.2s0-.09-.07-.07Z" transform="translate(-741.25 -286.58)"/><path class="cls-5" d="M789.48,376.7c-.05-.15-.27-.16-.4,0A.4.4,0,0,0,789.48,376.7Z" transform="translate(-741.25 -286.58)"/><path class="cls-5" d="M788.8,375.71s0,0,0,0a.21.21,0,0,0-.08-.18.08.08,0,0,0-.12.06A.17.17,0,0,0,788.8,375.71Z" transform="translate(-741.25 -286.58)"/><path class="cls-5" d="M795.35,357.6a1.41,1.41,0,0,0-.06.22.17.17,0,0,0,0,.1s0,0,0,0a1,1,0,0,0,.06-.26.1.1,0,0,0,0,0,.05.05,0,0,0,0,0S795.35,357.59,795.35,357.6Z" transform="translate(-741.25 -286.58)"/><path class="cls-5" d="M795.27,358.13c0,.05,0,.07.07.06s.11,0,.12-.06-.05-.12-.07-.12A.16.16,0,0,0,795.27,358.13Z" transform="translate(-741.25 -286.58)"/><path class="cls-5" d="M795.37,357.2s0,0,0,0,0-.05,0-.08-.1-.14-.14-.22A.32.32,0,0,0,795.37,357.2Z" transform="translate(-741.25 -286.58)"/></g><path class="cls-6" d="M788.35,354.51v-2.66a.5.5,0,0,1,.5-.5h2.67a.5.5,0,0,1,.5.5v2.66a.5.5,0,0,1-.5.5h-2.67A.5.5,0,0,1,788.35,354.51Z" transform="translate(-741.25 -286.58)"/><polygon class="cls-7" points="49.05 67.54 49.05 66.18 49.59 65.77 49.59 64.77 49.62 64.77 49.62 65.79 49.09 66.2 49.09 67.52 49.62 67.92 49.62 68.43 49.59 68.43 49.59 67.94 49.05 67.54"/><polygon class="cls-7" points="47.54 65.68 47.54 64.77 47.58 64.77 47.58 65.66 48.09 66.17 49.07 66.17 49.07 66.21 48.07 66.21 47.54 65.68"/><polygon class="cls-7" points="47.63 68.43 47.63 67.98 48.1 67.5 49.07 67.5 49.07 67.55 48.13 67.55 47.66 68.01 47.66 68.43 47.63 68.43"/><rect class="cls-7" x="48.06" y="66.19" width="0.04" height="1.34"/><rect class="cls-7" x="48.5" y="66.19" width="0.04" height="1.34"/><polygon class="cls-7" points="47.09 66.2 47.12 66.18 47.57 66.84 48.08 66.84 48.08 66.88 47.55 66.88 47.09 66.2"/><rect class="cls-7" x="788.27" y="353.64" width="0.63" height="0.04" transform="translate(-760.35 374.62) rotate(-45)"/><polygon class="cls-7" points="49.07 66.91 49.07 66.87 49.94 66.87 50.76 66.06 50.78 66.09 49.96 66.91 49.07 66.91"/><path class="cls-8" d="M785.8,351.08a1.72,1.72,0,0,1,.63.09.77.77,0,0,1,.34.25.61.61,0,0,1,.11.36.61.61,0,0,1-.11.35.68.68,0,0,1-.35.26,2.15,2.15,0,0,1-1.23,0,.72.72,0,0,1-.35-.26.59.59,0,0,1-.11-.36.64.64,0,0,1,.11-.36.84.84,0,0,1,.34-.25A2,2,0,0,1,785.8,351.08Zm0,.2a1.79,1.79,0,0,0-.53.06.59.59,0,0,0-.27.18.37.37,0,0,0-.1.26.36.36,0,0,0,.1.25.62.62,0,0,0,.27.19,1.64,1.64,0,0,0,.53.08,1.46,1.46,0,0,0,.51-.07.6.6,0,0,0,.29-.2.4.4,0,0,0,.09-.25.41.41,0,0,0-.09-.26.54.54,0,0,0-.27-.18A1.75,1.75,0,0,0,785.8,351.28Z" transform="translate(-741.25 -286.58)"/><path class="cls-8" d="M785.8,352.68a1.72,1.72,0,0,1,.63.09.69.69,0,0,1,.34.24.64.64,0,0,1,.11.36.66.66,0,0,1-.11.36.72.72,0,0,1-.35.25,2.15,2.15,0,0,1-1.23,0,.77.77,0,0,1-.35-.25.64.64,0,0,1-.11-.37.66.66,0,0,1,.11-.36.74.74,0,0,1,.34-.24A2,2,0,0,1,785.8,352.68Zm0,.19a1.79,1.79,0,0,0-.53.06.59.59,0,0,0-.27.18.41.41,0,0,0-.1.26.36.36,0,0,0,.1.25.49.49,0,0,0,.27.19,1.64,1.64,0,0,0,.53.08,1.46,1.46,0,0,0,.51-.07.49.49,0,0,0,.29-.2.4.4,0,0,0,.09-.25.45.45,0,0,0-.09-.26.54.54,0,0,0-.27-.18A1.75,1.75,0,0,0,785.8,352.87Z" transform="translate(-741.25 -286.58)"/><path class="cls-8" d="M786.88,355.39v0h-1.43v.25h-.19v-.25h-.48v-.2h.48v-1Zm-1.44-.16h.87l-.87-.61Z" transform="translate(-741.25 -286.58)"/><path class="cls-8" d="M786.83,357.16h-.19v-.74l-.56-.1a.77.77,0,0,1,0,.25.58.58,0,0,1-.19.45.62.62,0,0,1-.48.19.74.74,0,0,1-.36-.09.55.55,0,0,1-.26-.26.72.72,0,0,1-.09-.37.59.59,0,0,1,.15-.41.63.63,0,0,1,.4-.21v.22a.47.47,0,0,0-.19.08.64.64,0,0,0-.13.15.47.47,0,0,0,.12.54.56.56,0,0,0,.39.14.42.42,0,0,0,.33-.13.5.5,0,0,0,.13-.35,1.18,1.18,0,0,0-.11-.43l1,.19v.88Z" transform="translate(-741.25 -286.58)"/><path class="cls-8" d="M786.35,358.52v-.22a.65.65,0,0,1,.39.22.57.57,0,0,1,.13.38.6.6,0,0,1-.07.3.55.55,0,0,1-.19.21.44.44,0,0,1-.26.08.5.5,0,0,1-.42-.27.74.74,0,0,1-.17.25.56.56,0,0,1-.37.13.68.68,0,0,1-.33-.09.69.69,0,0,1-.25-.26.68.68,0,0,1-.08-.36.67.67,0,0,1,.15-.44.78.78,0,0,1,.45-.23v.2a.51.51,0,0,0-.28.16.51.51,0,0,0,0,.68.42.42,0,0,0,.31.13.39.39,0,0,0,.23-.07.34.34,0,0,0,.15-.18,1,1,0,0,0,.06-.36H786a.71.71,0,0,0,0,.26.3.3,0,0,0,.12.16.3.3,0,0,0,.16.05.33.33,0,0,0,.24-.1.41.41,0,0,0,.1-.27.32.32,0,0,0-.07-.22A.61.61,0,0,0,786.35,358.52Z" transform="translate(-741.25 -286.58)"/><path class="cls-8" d="M786.88,360.77l-.11.18-.84-.56a.63.63,0,0,1,.05.22.6.6,0,0,1-.18.42.65.65,0,0,1-.75.09.49.49,0,0,1-.23-.24.61.61,0,0,1-.08-.32.72.72,0,0,1,.08-.32.52.52,0,0,1,.24-.22.68.68,0,0,1,.31-.08.91.91,0,0,1,.27.05,1.64,1.64,0,0,1,.34.18Zm-1.09-.22a.43.43,0,0,0-.12-.31.41.41,0,0,0-.31-.12.41.41,0,0,0-.3.12.4.4,0,0,0-.13.31.44.44,0,0,0,.43.43.39.39,0,0,0,.31-.13A.44.44,0,0,0,785.79,360.55Z" transform="translate(-741.25 -286.58)"/><path class="cls-8" d="M786.83,362.71h-.19V362l-.56-.1a.75.75,0,0,1,0,.24.6.6,0,0,1-.19.46.65.65,0,0,1-.48.18.74.74,0,0,1-.36-.09.53.53,0,0,1-.26-.25.78.78,0,0,1-.09-.37.62.62,0,0,1,.15-.42.67.67,0,0,1,.4-.2v.21a.47.47,0,0,0-.19.08.53.53,0,0,0-.13.16.43.43,0,0,0,0,.19.46.46,0,0,0,.16.35.56.56,0,0,0,.39.14.42.42,0,0,0,.33-.13.54.54,0,0,0,.13-.35,1.23,1.23,0,0,0-.11-.44l1,.19v.87Z" transform="translate(-741.25 -286.58)"/><path class="cls-8" d="M786.88,364.11v0h-1.43v.25h-.19v-.25h-.48V364h.48v-1Zm-1.44-.16h.87l-.87-.61Z" transform="translate(-741.25 -286.58)"/><path class="cls-8" d="M786.83,365.81v.4h-2.05V366h1.86v-.33Z" transform="translate(-741.25 -286.58)"/><path class="cls-8" d="M785.9,368a.74.74,0,0,1-.23.3.54.54,0,0,1-.31.09.66.66,0,0,1-.42-.15.68.68,0,0,1-.22-.55.62.62,0,0,1,.62-.69.56.56,0,0,1,.31.09.8.8,0,0,1,.24.31.57.57,0,0,1,.2-.23.44.44,0,0,1,.24-.07.56.56,0,0,1,.27.08.74.74,0,0,1,.2.23.63.63,0,0,1-.2.82.53.53,0,0,1-.27.08.4.4,0,0,1-.24-.07A1.55,1.55,0,0,1,785.9,368Zm-.1-.3a.49.49,0,0,0-.13-.35.44.44,0,0,0-.32-.15.35.35,0,0,0-.21.07.44.44,0,0,0-.16.17.51.51,0,0,0-.05.25.44.44,0,0,0,.14.36.41.41,0,0,0,.3.13.43.43,0,0,0,.31-.14A.54.54,0,0,0,785.8,367.66Zm.88,0a.36.36,0,0,0-.1-.27.34.34,0,0,0-.24-.11.31.31,0,0,0-.24.12.4.4,0,0,0-.11.27.42.42,0,0,0,0,.2.35.35,0,0,0,.13.14.37.37,0,0,0,.17.05.3.3,0,0,0,.23-.1A.37.37,0,0,0,786.68,367.65Z" transform="translate(-741.25 -286.58)"/><path class="cls-8" d="M785.9,369.54a.68.68,0,0,1-.23.3.54.54,0,0,1-.31.09.63.63,0,0,1-.64-.69.67.67,0,0,1,.19-.52.65.65,0,0,1,.43-.18.56.56,0,0,1,.31.09.88.88,0,0,1,.24.31.54.54,0,0,1,.2-.22.46.46,0,0,1,.24-.08.58.58,0,0,1,.27.09.61.61,0,0,1,.2.22.64.64,0,0,1,.07.31.59.59,0,0,1-.07.29.48.48,0,0,1-.2.22.53.53,0,0,1-.27.08.4.4,0,0,1-.24-.07A.81.81,0,0,1,785.9,369.54Zm-.1-.29a.5.5,0,0,0-.13-.36.43.43,0,0,0-.32-.14.42.42,0,0,0-.21.06.44.44,0,0,0-.16.17.55.55,0,0,0-.05.26.43.43,0,0,0,.14.35.39.39,0,0,0,.3.14.4.4,0,0,0,.31-.15A.53.53,0,0,0,785.8,369.25Zm.88,0a.37.37,0,0,0-.1-.28.34.34,0,0,0-.24-.11.31.31,0,0,0-.24.12.43.43,0,0,0-.11.28.41.41,0,0,0,0,.19.35.35,0,0,0,.13.14.29.29,0,0,0,.17.06.31.31,0,0,0,.23-.11A.35.35,0,0,0,786.68,369.24Z" transform="translate(-741.25 -286.58)"/><path class="cls-8" d="M786.88,371.09l-.11.17-.84-.55a.54.54,0,0,1,.05.21.58.58,0,0,1-.18.42.65.65,0,0,1-.75.09.51.51,0,0,1-.23-.23.64.64,0,0,1-.08-.33.76.76,0,0,1,.08-.32.52.52,0,0,1,.24-.22.68.68,0,0,1,.31-.08.91.91,0,0,1,.27.05,1.64,1.64,0,0,1,.34.18Zm-1.09-.23a.45.45,0,0,0-.12-.31.41.41,0,0,0-.31-.12.41.41,0,0,0-.3.12.42.42,0,0,0-.13.31.4.4,0,0,0,.13.31.41.41,0,0,0,.3.12.41.41,0,0,0,.31-.12A.47.47,0,0,0,785.79,370.86Z" transform="translate(-741.25 -286.58)"/><path class="cls-8" d="M786.88,373.63v0h-1.43v.24h-.19v-.24h-.48v-.21h.48v-1Zm-1.44-.17h.87l-.87-.61Z" transform="translate(-741.25 -286.58)"/><path class="cls-8" d="M786.83,375.4h-.19v-.73l-.56-.1a.75.75,0,0,1,0,.24.59.59,0,0,1-.19.46.7.7,0,0,1-.84.09.53.53,0,0,1-.26-.25.92.92,0,0,1-.09-.37.62.62,0,0,1,.15-.42.67.67,0,0,1,.4-.2v.21a.47.47,0,0,0-.19.08.7.7,0,0,0-.13.16.43.43,0,0,0,0,.19.44.44,0,0,0,.16.35.56.56,0,0,0,.39.14.42.42,0,0,0,.33-.13.52.52,0,0,0,.13-.35,1.28,1.28,0,0,0-.11-.44l1,.2v.87Z" transform="translate(-741.25 -286.58)"/><path class="cls-8" d="M786.83,375.79v1.31l-2.1-1.1.09-.18,1.83.95v-1Z" transform="translate(-741.25 -286.58)"/><path class="cls-8" d="M785.9,378.27a.68.68,0,0,1-.23.3.54.54,0,0,1-.31.09.63.63,0,0,1-.64-.69.67.67,0,0,1,.19-.52.65.65,0,0,1,.43-.18.5.5,0,0,1,.31.1.76.76,0,0,1,.24.3.54.54,0,0,1,.2-.22.44.44,0,0,1,.24-.07.56.56,0,0,1,.27.08.61.61,0,0,1,.2.22.64.64,0,0,1,.07.31.59.59,0,0,1-.07.29.48.48,0,0,1-.2.22.53.53,0,0,1-.27.08.4.4,0,0,1-.24-.07A1.18,1.18,0,0,1,785.9,378.27Zm-.1-.3a.5.5,0,0,0-.13-.36.43.43,0,0,0-.32-.14.42.42,0,0,0-.21.06.44.44,0,0,0-.16.17.55.55,0,0,0-.05.26.43.43,0,0,0,.14.35.39.39,0,0,0,.3.14.4.4,0,0,0,.31-.15A.53.53,0,0,0,785.8,378Zm.88,0a.39.39,0,0,0-.1-.28.34.34,0,0,0-.24-.11.31.31,0,0,0-.24.12.43.43,0,0,0-.11.28.41.41,0,0,0,0,.19.35.35,0,0,0,.13.14.29.29,0,0,0,.17.06.28.28,0,0,0,.23-.11A.36.36,0,0,0,786.68,378Z" transform="translate(-741.25 -286.58)"/><path class="cls-7" d="M797.77,352.09v1a2.34,2.34,0,0,1,0,.45.63.63,0,0,1-.1.25.49.49,0,0,1-.22.14.51.51,0,0,1-.3,0,.75.75,0,0,1-.34-.18,1,1,0,0,1-.23-.33.5.5,0,0,1-.23.31.52.52,0,0,1-.39,0,.94.94,0,0,1-.35-.17.89.89,0,0,1-.26-.29.81.81,0,0,1-.12-.38c0-.09,0-.3,0-.63v-.88Zm-.43.42-.6-.15v.35a3,3,0,0,0,0,.37.43.43,0,0,0,.09.24.37.37,0,0,0,.2.12.26.26,0,0,0,.2,0,.22.22,0,0,0,.09-.17,4.16,4.16,0,0,0,0-.45Zm-1-.25-.7-.18v.48a2.51,2.51,0,0,0,0,.37.53.53,0,0,0,.11.21.42.42,0,0,0,.22.14.27.27,0,0,0,.2,0,.24.24,0,0,0,.12-.14,1.7,1.7,0,0,0,0-.44v-.43Z" transform="translate(-741.25 -286.58)"/><path class="cls-7" d="M795.19,356.39v-.57l.59-.08v-1l-.59-.36v-.55l2.59,1.65V356Zm1-.7,1-.12-1-.59Z" transform="translate(-741.25 -286.58)"/><path class="cls-7" d="M795.19,356.68l2.59.64v.51l-1.73.62,1.73.43v.49l-2.59-.64v-.52l1.68-.62-1.68-.42Z" transform="translate(-741.25 -286.58)"/><path class="cls-7" d="M795.19,359.29l2.59.65v.52l-1.15-.29,1.15,1.35v.7l-1-1.22-1.58.63V361l1.21-.41L796,360l-.78-.2v-.53Z" transform="translate(-741.25 -286.58)"/><path class="cls-8" d="M798,352v1a2.34,2.34,0,0,1,0,.45.69.69,0,0,1-.1.25.46.46,0,0,1-.21.14.54.54,0,0,1-.31,0,.86.86,0,0,1-.34-.18.91.91,0,0,1-.22-.33.5.5,0,0,1-.24.31.49.49,0,0,1-.38,0,1,1,0,0,1-.35-.17,1.06,1.06,0,0,1-.27-.29.85.85,0,0,1-.12-.38c0-.09,0-.3,0-.63v-.88Zm-.42.41-.61-.15v.34a3.06,3.06,0,0,0,0,.38.43.43,0,0,0,.1.24.37.37,0,0,0,.2.12.24.24,0,0,0,.19,0,.23.23,0,0,0,.1-.18,3.93,3.93,0,0,0,0-.44Zm-1-.26-.69-.17v.48a2.62,2.62,0,0,0,0,.37.41.41,0,0,0,.1.21.64.64,0,0,0,.23.14.24.24,0,0,0,.19,0,.33.33,0,0,0,.12-.14,1.74,1.74,0,0,0,0-.45v-.43Z" transform="translate(-741.25 -286.58)"/><path class="cls-8" d="M795.46,356.3v-.57l.59-.08v-1l-.59-.36v-.55l2.59,1.65v.55Zm1-.71,1-.12-1-.59Z" transform="translate(-741.25 -286.58)"/><path class="cls-8" d="M795.46,356.58l2.59.64v.51l-1.72.62,1.72.43v.49l-2.59-.64v-.52l1.69-.63-1.69-.41Z" transform="translate(-741.25 -286.58)"/><path class="cls-8" d="M795.46,359.19l2.59.64v.52l-1.15-.28,1.15,1.35v.7l-1-1.23-1.58.64v-.68l1.22-.4-.43-.54-.79-.19v-.53Z" transform="translate(-741.25 -286.58)"/><circle class="cls-9" cx="41.06" cy="66.11" r="1.19"/><circle class="cls-10" cx="41.06" cy="67.66" r="1.19"/><circle class="cls-11" cx="41.06" cy="69.47" r="1.19"/><path class="cls-12" d="M788.79,369.64c1-.23,2.66.16,3,1.27.25.78-.67,2.66-1.54,2.81-1.34.24-2.62-.65-2.34-2A4.17,4.17,0,0,1,788.79,369.64Z" transform="translate(-741.25 -286.58)"/><path class="cls-13" d="M846.8,350.15h6.28a1.15,1.15,0,0,1,1.15,1.15V394a1.15,1.15,0,0,1-1.15,1.14H846.8Z" transform="translate(-741.25 -286.58)"/><path class="cls-14" d="M852.49,350.15h.59a1.15,1.15,0,0,1,1.15,1.15V394a1.15,1.15,0,0,1-1.15,1.14h-.59Z" transform="translate(-741.25 -286.58)"/><rect class="cls-15" x="110.15" y="63.57" width="1.09" height="44.97"/><path class="cls-14" d="M816.88,346.61h29.18a4,4,0,0,1,4,4v42.62a4,4,0,0,1-4,4H816.88a4,4,0,0,1-4-4V350.64A4,4,0,0,1,816.88,346.61Z" transform="translate(-741.25 -286.58)"/><path class="cls-16" d="M839.84,400.2H823.11a3.82,3.82,0,0,1-3.81-3.81V361h24.35v35.43A3.82,3.82,0,0,1,839.84,400.2Z" transform="translate(-741.25 -286.58)"/><path class="cls-13" d="M844.91,372.22H818a3.46,3.46,0,0,1-3.46-3.46V341.88a3.46,3.46,0,0,1,3.46-3.46H844.9a3.46,3.46,0,0,1,3.46,3.46v26.88A3.45,3.45,0,0,1,844.91,372.22Z" transform="translate(-741.25 -286.58)"/><path class="cls-17" d="M843.79,366.2H819.16a1.22,1.22,0,0,1-1.22-1.22V345.66a1.23,1.23,0,0,1,1.22-1.23h24.63a1.23,1.23,0,0,1,1.22,1.23V365A1.22,1.22,0,0,1,843.79,366.2Z" transform="translate(-741.25 -286.58)"/><rect class="cls-15" x="79.78" y="54.85" width="20.88" height="0.54"/><rect class="cls-13" x="79.39" y="81.64" width="21.66" height="25.82"/><path class="cls-18" d="M826.38,375.73h-3.21a.43.43,0,0,1-.43-.43v-2.23a.43.43,0,0,1,.43-.43h3.21a.43.43,0,0,1,.43.43v2.23A.43.43,0,0,1,826.38,375.73Z" transform="translate(-741.25 -286.58)"/><path class="cls-18" d="M833.08,375.73h-3.22a.43.43,0,0,1-.43-.43v-2.23a.43.43,0,0,1,.43-.43h3.21a.43.43,0,0,1,.43.43v2.23A.42.42,0,0,1,833.08,375.73Z" transform="translate(-741.25 -286.58)"/><path class="cls-18" d="M839.77,375.73h-3.21a.43.43,0,0,1-.43-.43v-2.23a.43.43,0,0,1,.43-.43h3.21a.43.43,0,0,1,.43.43v2.23A.43.43,0,0,1,839.77,375.73Z" transform="translate(-741.25 -286.58)"/><path class="cls-18" d="M826.38,379.57h-3.21a.43.43,0,0,1-.43-.43v-2.23a.43.43,0,0,1,.43-.43h3.21a.43.43,0,0,1,.43.43v2.23A.43.43,0,0,1,826.38,379.57Z" transform="translate(-741.25 -286.58)"/><path class="cls-18" d="M833.08,379.57h-3.22a.43.43,0,0,1-.43-.43v-2.23a.43.43,0,0,1,.43-.43h3.21a.43.43,0,0,1,.43.43v2.23A.42.42,0,0,1,833.08,379.57Z" transform="translate(-741.25 -286.58)"/><path class="cls-18" d="M839.77,379.57h-3.21a.43.43,0,0,1-.43-.43v-2.23a.43.43,0,0,1,.43-.43h3.21a.43.43,0,0,1,.43.43v2.23A.43.43,0,0,1,839.77,379.57Z" transform="translate(-741.25 -286.58)"/><path class="cls-18" d="M826.38,383.42h-3.21a.43.43,0,0,1-.43-.43v-2.23a.43.43,0,0,1,.43-.43h3.21a.43.43,0,0,1,.43.43V383A.43.43,0,0,1,826.38,383.42Z" transform="translate(-741.25 -286.58)"/><path class="cls-18" d="M833.08,383.42h-3.22a.43.43,0,0,1-.43-.43v-2.23a.43.43,0,0,1,.43-.43h3.21a.43.43,0,0,1,.43.43V383A.42.42,0,0,1,833.08,383.42Z" transform="translate(-741.25 -286.58)"/><path class="cls-18" d="M839.77,383.42h-3.21a.43.43,0,0,1-.43-.43v-2.23a.43.43,0,0,1,.43-.43h3.21a.43.43,0,0,1,.43.43V383A.43.43,0,0,1,839.77,383.42Z" transform="translate(-741.25 -286.58)"/><path class="cls-18" d="M826.38,387.27h-3.21a.43.43,0,0,1-.43-.43V384.6a.43.43,0,0,1,.43-.42h3.21a.43.43,0,0,1,.43.42v2.24A.43.43,0,0,1,826.38,387.27Z" transform="translate(-741.25 -286.58)"/><path class="cls-18" d="M833.08,387.27h-3.22a.43.43,0,0,1-.43-.43V384.6a.43.43,0,0,1,.43-.42h3.21a.43.43,0,0,1,.43.42v2.24A.42.42,0,0,1,833.08,387.27Z" transform="translate(-741.25 -286.58)"/><path class="cls-18" d="M839.77,387.27h-3.21a.43.43,0,0,1-.43-.43V384.6a.43.43,0,0,1,.43-.42h3.21a.43.43,0,0,1,.43.42v2.24A.43.43,0,0,1,839.77,387.27Z" transform="translate(-741.25 -286.58)"/><path class="cls-19" d="M826.38,391.12h-3.21a.43.43,0,0,1-.43-.43v-2.24a.43.43,0,0,1,.43-.42h3.21a.43.43,0,0,1,.43.42v2.24A.43.43,0,0,1,826.38,391.12Z" transform="translate(-741.25 -286.58)"/><path class="cls-20" d="M833.08,391.12h-3.22a.43.43,0,0,1-.43-.43v-2.24a.43.43,0,0,1,.43-.42h3.21a.43.43,0,0,1,.43.42v2.24A.42.42,0,0,1,833.08,391.12Z" transform="translate(-741.25 -286.58)"/><path class="cls-21" d="M839.77,391.12h-3.21a.43.43,0,0,1-.43-.43v-2.24a.43.43,0,0,1,.43-.42h3.21a.43.43,0,0,1,.43.42v2.24A.43.43,0,0,1,839.77,391.12Z" transform="translate(-741.25 -286.58)"/><rect class="cls-22" x="82.74" y="36.38" width="14.96" height="18.75"/><rect class="cls-8" x="84.14" y="38.16" width="4.36" height="0.3"/><rect class="cls-8" x="84.14" y="40.61" width="11.59" height="0.3"/><rect class="cls-8" x="84.14" y="43.06" width="10.37" height="0.3"/><rect class="cls-8" x="84.14" y="45.51" width="12.13" height="0.3"/><rect class="cls-8" x="84.14" y="47.97" width="6.08" height="0.3"/><rect class="cls-8" x="84.14" y="50.42" width="9.41" height="0.3"/><rect class="cls-8" x="84.14" y="52.87" width="10.99" height="0.3"/><path class="cls-23" d="M831.45,352.32a2.53,2.53,0,1,0,2.53,2.53A2.53,2.53,0,0,0,831.45,352.32Zm0,4.59a2.06,2.06,0,1,1,2.06-2.05A2.05,2.05,0,0,1,831.45,356.91Z" transform="translate(-741.25 -286.58)"/><path class="cls-24" d="M831.45,350.77a4.08,4.08,0,1,0,4.08,4.08A4.08,4.08,0,0,0,831.45,350.77Zm0,7.69a3.61,3.61,0,1,1,3.61-3.6A3.61,3.61,0,0,1,831.45,358.46Z" transform="translate(-741.25 -286.58)"/><path class="cls-25" d="M831.45,349.23a5.63,5.63,0,1,0,5.64,5.62A5.64,5.64,0,0,0,831.45,349.23Zm0,10.78a5.16,5.16,0,1,1,5.16-5.16A5.16,5.16,0,0,1,831.45,360Z" transform="translate(-741.25 -286.58)"/><path class="cls-25" d="M831.45,347.68a7.18,7.18,0,1,0,7.18,7.18A7.18,7.18,0,0,0,831.45,347.68Zm0,13.87a6.7,6.7,0,1,1,6.71-6.7A6.71,6.71,0,0,1,831.45,361.55Z" transform="translate(-741.25 -286.58)"/><path class="cls-25" d="M831.45,346.12a8.73,8.73,0,1,0,8.73,8.73A8.74,8.74,0,0,0,831.45,346.12Zm0,17a8.25,8.25,0,1,1,8.26-8.25A8.26,8.26,0,0,1,831.45,363.1Z" transform="translate(-741.25 -286.58)"/><path class="cls-25" d="M831.45,344.57a10.28,10.28,0,1,0,10.28,10.28A10.29,10.29,0,0,0,831.45,344.57Zm0,20.09a9.81,9.81,0,1,1,9.81-9.8A9.82,9.82,0,0,1,831.45,364.66Z" transform="translate(-741.25 -286.58)"/><path class="cls-25" d="M831.45,343a11.82,11.82,0,1,0,11.83,11.82A11.83,11.83,0,0,0,831.45,343Zm0,23.18a11.35,11.35,0,1,1,11.35-11.35A11.36,11.36,0,0,1,831.45,366.21Z" transform="translate(-741.25 -286.58)"/><path class="cls-26" d="M798.63,346.93a4.35,4.35,0,1,0,4.35,4.35A4.35,4.35,0,0,0,798.63,346.93Zm0,7.89a3.54,3.54,0,1,1,3.53-3.53A3.54,3.54,0,0,1,798.63,354.82Z" transform="translate(-741.25 -286.58)"/><path class="cls-27" d="M798.63,344.26a7,7,0,1,0,7,7A7,7,0,0,0,798.63,344.26Zm0,13.22a6.2,6.2,0,1,1,6.19-6.19A6.2,6.2,0,0,1,798.63,357.48Z" transform="translate(-741.25 -286.58)"/><path class="cls-28" d="M798.63,341.6a9.69,9.69,0,1,0,9.69,9.69A9.7,9.7,0,0,0,798.63,341.6Zm0,18.55a8.88,8.88,0,1,1,8.87-8.87A8.89,8.89,0,0,1,798.63,360.15Z" transform="translate(-741.25 -286.58)"/><path class="cls-29" d="M798.63,338.93A12.36,12.36,0,1,0,811,351.29,12.38,12.38,0,0,0,798.63,338.93Zm0,23.88a11.54,11.54,0,1,1,11.54-11.53A11.55,11.55,0,0,1,798.63,362.81Z" transform="translate(-741.25 -286.58)"/><path class="cls-30" d="M798.63,336.26a15,15,0,1,0,15,15A15,15,0,0,0,798.63,336.26Zm0,29.22a14.21,14.21,0,1,1,14.2-14.2A14.22,14.22,0,0,1,798.63,365.48Z" transform="translate(-741.25 -286.58)"/><path class="cls-31" d="M798.63,333.59a17.69,17.69,0,1,0,17.68,17.69A17.71,17.71,0,0,0,798.63,333.59Zm0,34.56a16.87,16.87,0,1,1,16.87-16.87A16.88,16.88,0,0,1,798.63,368.15Z" transform="translate(-741.25 -286.58)"/><path class="cls-31" d="M798.63,330.93A20.35,20.35,0,1,0,819,351.28,20.36,20.36,0,0,0,798.63,330.93Zm0,39.89a19.54,19.54,0,1,1,19.53-19.53A19.55,19.55,0,0,1,798.63,370.82Z" transform="translate(-741.25 -286.58)"/></svg>