<svg id="katman_1" data-name="katman 1" xmlns="http://www.w3.org/2000/svg" xmlns:xlink="http://www.w3.org/1999/xlink" viewBox="0 0 900.74 333.62"><defs><style>.cls-1{fill:none;}.cls-2{clip-path:url(#clip-path);}.cls-3{fill:#c7d6ee;}.cls-4{fill:url(#Adsız_degrade);}.cls-5{fill:#e9cf98;}.cls-6{fill:#fff;}.cls-7{fill:url(#Adsız_degrade_2);}.cls-8{fill:url(#Adsız_degrade_3);}.cls-9{fill:url(#Adsız_degrade_4);}.cls-10{fill:url(#Adsız_degrade_5);}.cls-11{fill:url(#Adsız_degrade_6);}.cls-12{fill:url(#Adsız_degrade_7);}.cls-13{fill:url(#Adsız_degrade_8);}.cls-14{fill:url(#Adsız_degrade_9);}.cls-15{fill:url(#Adsız_degrade_10);}.cls-16{fill:url(#Adsız_degrade_11);}.cls-17{fill:url(#Adsız_degrade_12);}.cls-18{fill:url(#Adsız_degrade_13);}.cls-19{fill:url(#Adsız_degrade_14);}.cls-20{fill:url(#Adsız_degrade_15);}.cls-21{fill:url(#Adsız_degrade_16);}.cls-22{fill:url(#Adsız_degrade_17);}.cls-23{fill:url(#Adsız_degrade_18);}.cls-24{fill:url(#Adsız_degrade_19);}.cls-25{fill:url(#Adsız_degrade_20);}.cls-26{fill:url(#Adsız_degrade_21);}.cls-27{fill:url(#Adsız_degrade_22);}.cls-28{fill:url(#Adsız_degrade_23);}.cls-29{fill:url(#Adsız_degrade_24);}.cls-30{fill:url(#Adsız_degrade_25);}.cls-31{fill:url(#Adsız_degrade_26);}.cls-32{fill:url(#Adsız_degrade_27);}.cls-33{fill:url(#Adsız_degrade_28);}.cls-34{fill:url(#Adsız_degrade_29);}.cls-35{fill:url(#Adsız_degrade_30);}.cls-36{fill:url(#Adsız_degrade_31);}.cls-37{fill:url(#Adsız_degrade_32);}.cls-38{fill:url(#Adsız_degrade_33);}.cls-39{fill:url(#Adsız_degrade_34);}.cls-40{fill:url(#Adsız_degrade_35);}</style><clipPath id="clip-path" transform="translate(-449.63 -1018.76)"><rect class="cls-1" x="-293.11" y="-377.76" width="2386.21" height="3255.52"/></clipPath><linearGradient id="Adsız_degrade" x1="-1759.78" y1="1882.42" x2="-1758.78" y2="1882.42" gradientTransform="matrix(-90.98, 177.8, 191.31, 0.51, -519683.68, 313044.71)" gradientUnits="userSpaceOnUse"><stop offset="0" stop-color="#c7d6ee"/><stop offset="0.18" stop-color="#91afc8"/><stop offset="1" stop-color="#002334"/></linearGradient><linearGradient id="Adsız_degrade_2" x1="-1754.13" y1="518" x2="-1753.13" y2="518" gradientTransform="matrix(111.37, -109.39, -109.39, -107.44, -64813.58, 176951.88)" gradientUnits="userSpaceOnUse"><stop offset="0" stop-color="#e1e8f5"/><stop offset="0.9" stop-color="#92a5c1"/><stop offset="0.95" stop-color="#476886"/><stop offset="1" stop-color="#e1e8f5"/></linearGradient><linearGradient id="Adsız_degrade_3" x1="-1758.3" y1="1873.75" x2="-1757.3" y2="1873.75" gradientTransform="matrix(113.94, -111.9, -111.9, -109.91, 410793.07, 10248.06)" gradientUnits="userSpaceOnUse"><stop offset="0" stop-color="#e1e8f5"/><stop offset="0.04" stop-color="#476886"/><stop offset="0.09" stop-color="#92a5c1"/><stop offset="1" stop-color="#e1e8f5"/></linearGradient><linearGradient id="Adsız_degrade_4" x1="-1752.4" y1="1864.86" x2="-1751.4" y2="1864.86" gradientTransform="matrix(37.1, -33.98, -33.98, -35.79, 129094.46, 8265.47)" gradientUnits="userSpaceOnUse"><stop offset="0" stop-color="#e1e8f5"/><stop offset="0.16" stop-color="#c7d6ee"/><stop offset="1" stop-color="#e1e8f5"/></linearGradient><linearGradient id="Adsız_degrade_5" x1="-1773.49" y1="1885.17" x2="-1772.49" y2="1885.17" gradientTransform="matrix(-39.28, -35.98, 35.98, -37.89, -136401.62, 8700.44)" xlink:href="#Adsız_degrade_4"/><linearGradient id="Adsız_degrade_6" x1="-1758.57" y1="1874.21" x2="-1757.57" y2="1874.21" gradientTransform="matrix(127.79, -125.51, -125.51, -123.27, 460542.69, 11461.19)" gradientUnits="userSpaceOnUse"><stop offset="0" stop-color="#476886"/><stop offset="0.13" stop-color="#92a5c1"/><stop offset="1" stop-color="#e1e8f5"/></linearGradient><linearGradient id="Adsız_degrade_7" x1="-1783.32" y1="1857.97" x2="-1782.32" y2="1857.97" gradientTransform="matrix(-14.97, -21.01, -21.01, 14.45, 12792.65, -63023.59)" gradientUnits="userSpaceOnUse"><stop offset="0" stop-color="#002334"/><stop offset="0.11" stop-color="#fff"/><stop offset="0.18" stop-color="#91afc8"/><stop offset="0.24" stop-color="#002334"/><stop offset="0.53" stop-color="#5e738f"/><stop offset="0.76" stop-color="#002334"/><stop offset="1" stop-color="#002334"/></linearGradient><linearGradient id="Adsız_degrade_8" x1="-1765.36" y1="1881.99" x2="-1764.36" y2="1881.99" gradientTransform="matrix(-115.32, 57.64, 57.64, 111.24, -311506.59, -106437.57)" gradientUnits="userSpaceOnUse"><stop offset="0" stop-color="#91afc8"/><stop offset="1" stop-color="#002334"/></linearGradient><linearGradient id="Adsız_degrade_9" x1="-1767.01" y1="1863.71" x2="-1766.01" y2="1863.71" gradientTransform="matrix(-8.84, -49.24, -49.24, 8.53, 76755.22, -101612.65)" gradientUnits="userSpaceOnUse"><stop offset="0" stop-color="#a5b9cc"/><stop offset="1" stop-color="#002334"/></linearGradient><linearGradient id="Adsız_degrade_10" x1="-1709.25" y1="1865" x2="-1708.25" y2="1865" gradientTransform="matrix(14.69, 0, 0, -14.17, 25842.17, 27742.9)" gradientUnits="userSpaceOnUse"><stop offset="0" stop-color="#5e738f"/><stop offset="0.49" stop-color="#91afc8"/><stop offset="1" stop-color="#91afc8"/></linearGradient><linearGradient id="Adsız_degrade_11" x1="-1802.44" y1="1867.49" x2="-1801.44" y2="1867.49" gradientTransform="translate(-31718.5 34078.36) rotate(180) scale(18.19 17.55)" gradientUnits="userSpaceOnUse"><stop offset="0" stop-color="#5e738f"/><stop offset="0.32" stop-color="#91afc8"/><stop offset="1" stop-color="#91afc8"/></linearGradient><linearGradient id="Adsız_degrade_12" x1="-1758.63" y1="1870.31" x2="-1757.63" y2="1870.31" gradientTransform="matrix(49.75, -84.64, -84.64, -48, 246761.91, -57707.18)" xlink:href="#Adsız_degrade_9"/><linearGradient id="Adsız_degrade_13" x1="-1755.41" y1="1883.68" x2="-1754.41" y2="1883.68" gradientTransform="matrix(50.14, 85.3, 85.3, -48.37, -71851.39, 242154.14)" gradientUnits="userSpaceOnUse"><stop offset="0" stop-color="#002334"/><stop offset="0.78" stop-color="#a5b9cc"/><stop offset="1" stop-color="#a5b9cc"/></linearGradient><linearGradient id="Adsız_degrade_14" x1="-1759.6" y1="1879.25" x2="-1758.6" y2="1879.25" gradientTransform="matrix(223.91, 380.91, 380.91, -216, -321184.66, 1077239.19)" gradientUnits="userSpaceOnUse"><stop offset="0" stop-color="#ffefcf"/><stop offset="0.46" stop-color="#ffe4a6"/><stop offset="1" stop-color="#bc956e"/></linearGradient><linearGradient id="Adsız_degrade_15" x1="-1756.91" y1="1870.52" x2="-1755.91" y2="1870.52" gradientTransform="matrix(62.81, -68.76, -68.76, -60.59, 240087.69, -6163.08)" gradientUnits="userSpaceOnUse"><stop offset="0" stop-color="#5e738f"/><stop offset="0.61" stop-color="#91afc8"/><stop offset="1" stop-color="#c7dff4"/></linearGradient><linearGradient id="Adsız_degrade_16" x1="-1757.56" y1="1881.41" x2="-1756.56" y2="1881.41" gradientTransform="matrix(83.38, 141.85, 141.85, -80.44, -119153.72, 401672.98)" gradientUnits="userSpaceOnUse"><stop offset="0" stop-color="#e1e8f5"/><stop offset="0.81" stop-color="#7f97b4"/><stop offset="0.9" stop-color="#476886"/><stop offset="1" stop-color="#002334"/></linearGradient><linearGradient id="Adsız_degrade_17" x1="-1760.01" y1="1875.17" x2="-1759.01" y2="1875.17" gradientTransform="matrix(135.89, -231.17, -231.17, -131.08, 673886.31, -159772.24)" gradientUnits="userSpaceOnUse"><stop offset="0" stop-color="#8ca0b5"/><stop offset="0.14" stop-color="#e1e8f5"/><stop offset="0.81" stop-color="#7f97b4"/><stop offset="0.9" stop-color="#476886"/><stop offset="1" stop-color="#002334"/></linearGradient><linearGradient id="Adsız_degrade_18" x1="-1750.69" y1="1868.07" x2="-1749.69" y2="1868.07" gradientTransform="matrix(48.13, -27.29, -27.29, -46.43, 136454.17, 40231.79)" gradientUnits="userSpaceOnUse"><stop offset="0" stop-color="#002334"/><stop offset="0.81" stop-color="#a5b9cc"/><stop offset="0.89" stop-color="#002334"/><stop offset="1" stop-color="#002334"/></linearGradient><linearGradient id="Adsız_degrade_19" x1="-1757.8" y1="1879.82" x2="-1756.8" y2="1879.82" gradientTransform="matrix(157.42, 154.61, 154.62, -151.86, -13377.92, 558449.71)" gradientUnits="userSpaceOnUse"><stop offset="0" stop-color="#d4bc7b"/><stop offset="0.33" stop-color="#7f5f39"/><stop offset="1" stop-color="#d4bc7b"/></linearGradient><linearGradient id="Adsız_degrade_20" x1="-1763.34" y1="1873.7" x2="-1762.34" y2="1873.7" gradientTransform="matrix(-112.44, 110.44, -110.44, -108.47, 9838.84, 399197.54)" xlink:href="#Adsız_degrade_19"/><linearGradient id="Adsız_degrade_21" x1="-1762.37" y1="1875.33" x2="-1761.37" y2="1875.33" gradientTransform="matrix(-181.75, 178.51, -178.51, -175.32, 15710.28, 644419.68)" xlink:href="#Adsız_degrade_19"/><linearGradient id="Adsız_degrade_22" x1="-1728.9" y1="1869.95" x2="-1727.9" y2="1869.95" gradientTransform="matrix(23.74, 0, 0, -22.9, 41790.15, 44117.92)" gradientUnits="userSpaceOnUse"><stop offset="0" stop-color="#d3bd8b"/><stop offset="1" stop-color="#7f5f39"/></linearGradient><linearGradient id="Adsız_degrade_23" x1="-1792.7" y1="1869.95" x2="-1791.7" y2="1869.95" gradientTransform="translate(-41515.25 44125.46) rotate(180) scale(23.74 22.9)" xlink:href="#Adsız_degrade_22"/><linearGradient id="Adsız_degrade_24" x1="-1754.67" y1="1884.46" x2="-1753.67" y2="1884.46" gradientTransform="matrix(44.12, 75.06, 75.06, -42.57, -63217.99, 213225.82)" gradientUnits="userSpaceOnUse"><stop offset="0" stop-color="#7f5f39"/><stop offset="0.65" stop-color="#d3bd8b"/><stop offset="0.89" stop-color="#ffe4a6"/><stop offset="1" stop-color="#ffe4a6"/></linearGradient><linearGradient id="Adsız_degrade_25" x1="-1763.05" y1="1885.89" x2="-1762.05" y2="1885.89" gradientTransform="matrix(-48.2, 82, 82, 46.5, -238647.2, 58181.84)" gradientUnits="userSpaceOnUse"><stop offset="0" stop-color="#7f5f39"/><stop offset="0.46" stop-color="#d3bd8b"/><stop offset="0.89" stop-color="#ffe4a6"/><stop offset="1" stop-color="#ffe4a6"/></linearGradient><linearGradient id="Adsız_degrade_26" x1="-1758.01" y1="1873.26" x2="-1757.01" y2="1873.26" gradientTransform="matrix(101.9, -100.08, -100.08, -98.29, 367393.68, 9266.48)" gradientUnits="userSpaceOnUse"><stop offset="0" stop-color="#d4bc7b"/><stop offset="0.04" stop-color="#7f5f39"/><stop offset="0.11" stop-color="#d1ac75"/><stop offset="1" stop-color="#d4bc7b"/></linearGradient><linearGradient id="Adsız_degrade_27" x1="-1765.36" y1="1880.77" x2="-1764.36" y2="1880.77" gradientTransform="matrix(-103.68, -101.83, 101.83, -100.01, -373528.05, 9414.29)" xlink:href="#Adsız_degrade_26"/><linearGradient id="Adsız_degrade_28" x1="-1752.58" y1="1865.13" x2="-1751.58" y2="1865.13" gradientTransform="matrix(37.89, -34.7, -34.7, -36.55, 131867.25, 8440.01)" gradientUnits="userSpaceOnUse"><stop offset="0" stop-color="#ffe292"/><stop offset="0.16" stop-color="#d1ac75"/><stop offset="1" stop-color="#ffe292"/></linearGradient><linearGradient id="Adsız_degrade_29" x1="-1773.42" y1="1885.13" x2="-1772.42" y2="1885.13" gradientTransform="matrix(-39.5, -36.18, 36.18, -38.1, -137184.1, 8759.61)" xlink:href="#Adsız_degrade_28"/><linearGradient id="Adsız_degrade_30" x1="-1758.39" y1="1873.91" x2="-1757.4" y2="1873.91" gradientTransform="matrix(118.36, -116.25, -116.25, -114.18, 426590.69, 10699.62)" gradientUnits="userSpaceOnUse"><stop offset="0" stop-color="#7f5f39"/><stop offset="1" stop-color="#bd9b6a"/></linearGradient><linearGradient id="Adsız_degrade_31" x1="-1751.42" y1="1883.74" x2="-1750.42" y2="1883.74" gradientTransform="matrix(50.36, 49.46, 49.46, -48.58, -3719.66, 179307.71)" gradientUnits="userSpaceOnUse"><stop offset="0" stop-color="#7f5f39"/><stop offset="1" stop-color="#d4bc7b"/></linearGradient><linearGradient id="Adsız_degrade_32" x1="-1760.05" y1="1874.77" x2="-1759.05" y2="1874.77" gradientTransform="matrix(111.12, -210.22, -210.22, -107.19, 590933.6, -167768.67)" gradientUnits="userSpaceOnUse"><stop offset="0" stop-color="#a78a5e"/><stop offset="0.76" stop-color="#7f5f39"/><stop offset="0.92" stop-color="#674c2b"/><stop offset="1" stop-color="#674c2b"/></linearGradient><linearGradient id="Adsız_degrade_33" x1="-1762.09" y1="1877.02" x2="-1761.09" y2="1877.02" gradientTransform="matrix(-315.85, -369.7, -369.7, 304.69, 138558.86, -1222048.14)" xlink:href="#Adsız_degrade_14"/><linearGradient id="Adsız_degrade_34" x1="-1758.19" y1="1873.57" x2="-1757.19" y2="1873.57" gradientTransform="matrix(109.18, -107.24, -107.24, -105.32, 393349.84, 10040.95)" gradientUnits="userSpaceOnUse"><stop offset="0" stop-color="#7f5f39"/><stop offset="1" stop-color="#e9cf98"/></linearGradient><linearGradient id="Adsız_degrade_35" x1="-1758.86" y1="1874.7" x2="-1757.86" y2="1874.7" gradientTransform="matrix(147.03, -144.41, -144.41, -141.84, 529787.28, 13147.37)" gradientUnits="userSpaceOnUse"><stop offset="0" stop-color="#7f5f39"/><stop offset="1" stop-color="#e4cb90"/></linearGradient></defs><g class="cls-2"><path class="cls-3" d="M534.54,1102.29c4.07-9.16,7.56-16.6,33.19-16.6H715.67c8.15,0,16.3-4,16.3-15.43v-40.6c0-4.6,4.67-10.9,16.89-10.9h306.36c8.73,0,15.74,4.58,15.74,15.45v32c0,8.58,4.06,17.73,16.88,17.73h245.78c8.73,0,20.38,2.28,15.15,13.16s-85,169.84-90.45,180.46c-2.08,4.07-3.69,9.5-19.85,9.5H1087.38c-7.16,0-18.92,0-18.92,13.6v37.84c0,5.44-4.15,13.6-17.31,13.6H748c-9.47,0-16.38-4.77-16.38-14.06v-33.3c0-7.26-3.93-17.9-15-17.9H462.22c-8.08,0-15.69-6.12-10.85-17.89s83.16-166.7,83.16-166.7" transform="translate(-449.63 -1018.76)"/></g><path class="cls-4" d="M470.82,1251.3l7.07,0,69.52-135.85-7.07,0L470.82,1251.3Z" transform="translate(-449.63 -1018.76)"/><g class="cls-2"><path class="cls-5" d="M717.26,1270.49h-238c-8.3,0-11.21-3.73-8-10.07,18-35.2,77.28-151,78.81-154,1.8-3.61,6.17-8,14.22-8H724c16.57,0,19.39-7.12,19.39-20v-38.26c0-5.15,3.48-8.57,9.59-8.57h292.48c7.86,0,11.33,2.55,11.33,7.7v28.26c0,11.14-2.14,29.12,23.13,29.12h241.68c10.86,0,13.68,7.19,7.93,18.57-21.39,42.37-74,142.84-75.65,146.25-2.07,4.34-8.51,8.15-18.79,8.15H1076.48c-13.09,0-26.16,8.56-26.16,21.42v32.65c0,5.94-3.63,10.15-10.1,10.15H756.42c-8.78,0-12.13-4.88-12.13-11.39v-29.71c0-10.27-7-22.25-27-22.25" transform="translate(-449.63 -1018.76)"/><path class="cls-6" d="M1034.62,1262.82l33.33,34.12a15.11,15.11,0,0,1,11.42-9.33l-37.33-34.2s-6,3.33-7.42,9.41M718,1287.13s13.33.48,13.33,17.77L762.31,1260l-8.57-6.08-35.7,33.2Zm328.88-170,35.15-33.65s-4.77-.57-9.55-8.18l-34.85,34.81Zm-15.2-68.75,32.47-27.2a13.75,13.75,0,0,1,5.07,5.27l-34,30.71-3.58-8.78ZM732.2,1031c0-5.64,5.33-12.28,14-12.28l24.64,29.91s-7.38,0-8.53,2.67a57,57,0,0,0-2.34,8.4L732.2,1031Zm-10.63,53.87s10.53-1.64,10.53-12.69l24.42,28.22-15.57,11Z" transform="translate(-449.63 -1018.76)"/></g><path class="cls-7" d="M902.14,1018.76,901,1031.63h140.71c4.62,0,7.22,1.14,9,4.54l15.58-13.61a16.58,16.58,0,0,0-11-3.8Z" transform="translate(-449.63 -1018.76)"/><path class="cls-8" d="M746.25,1018.76a14.17,14.17,0,0,0-10.38,4.65l10.1,10.77s2-2.55,10.09-2.55H901l1.12-12.87Z" transform="translate(-449.63 -1018.76)"/><path class="cls-9" d="M732.2,1031v39.22c0,6.15-1.25,7.66-1.25,7.66l11.14,11.63s1.59-4,1.59-6.48v-38.86c0-2.45.23-6,.23-6l-10.46-12.72a12.29,12.29,0,0,0-1.25,5.58" transform="translate(-449.63 -1018.76)"/><path class="cls-10" d="M1057.05,1037s-.3,4.56-.3,7,.3,35.58.3,38,3.64,7,3.64,7l13.33-11.59s-3.16-1-3.16-7.19V1031a7.86,7.86,0,0,0-2.8-5.58l-11,11.53Z" transform="translate(-449.63 -1018.76)"/><path class="cls-11" d="M716.51,1085.74l-155.38.16c-11.1,0-17.63,4.81-17.63,4.81l9.13,12.07s3.65-4.43,11.71-4.43h162a21.33,21.33,0,0,0,9.88-2.5l-10.59-12.49s-5.19,2.38-9.11,2.38" transform="translate(-449.63 -1018.76)"/><path class="cls-12" d="M466.53,1261.47,450,1272.88s-1.31,4.71,1.16,8.43a10.07,10.07,0,0,0,6.26,4.29L479,1270.49s-12.2-.57-7.12-9.44,4.8-12.21,4.8-12.21-5.92,1-10.1,12.63" transform="translate(-449.63 -1018.76)"/><path class="cls-13" d="M512,1149.83c-13.2,26.68-57.53,112.4-59.08,115.47a61,61,0,0,0-3.11,8.38l17.08-12.21,80.06-156.64s-21.74,18.3-34.95,45" transform="translate(-449.63 -1018.76)"/><path class="cls-14" d="M479.29,1270.85l-22,15.52s250.13.61,256.45.61,9,1.18,9,1.18L734,1275.59s-10.76-4.74-16.73-4.74Z" transform="translate(-449.63 -1018.76)"/><path class="cls-15" d="M729.15,1295s2.31,4.54,2.31,8.17v32.48a23.43,23.43,0,0,0,1.84,8.68l11-12.71v-38.92a23.1,23.1,0,0,0-3.48-11.43L729.15,1295Z" transform="translate(-449.63 -1018.76)"/><path class="cls-16" d="M1050.29,1288.72v38.92l17.25,14.82s.42-4,.42-8.59v-32.5a15.05,15.05,0,0,1,1.07-5.9L1054,1280.66s-3.66,1.84-3.66,8.06" transform="translate(-449.63 -1018.76)"/><path class="cls-17" d="M1037.39,1334.13H901.79v18.07h150c5.1,0,11-3.33,12.17-4.17l-17-15.84s-1.12,1.94-9.62,1.94" transform="translate(-449.63 -1018.76)"/><path class="cls-18" d="M738.47,1350s3.49,2.43,13.25,2.43,150.07-.17,150.07-.17v-18.08H757a18.56,18.56,0,0,1-4.38-.47Z" transform="translate(-449.63 -1018.76)"/><path class="cls-19" d="M777.42,1048.3c-7.85,0-15.7,4.29-15.7,12.86v42c0,8.56-5.23,12-11.33,12H576.75c-7,0-12.51,2.89-15.64,8.72-2.57,4.79-45.93,90.14-59.95,117.73-3,6-.38,9.62,7.42,9.62H751.27c10.45,0,12.2,9.43,12.2,18.84v32.61c0,6,6.1,12.86,13.08,12.86H898.64V1048.3Z" transform="translate(-449.63 -1018.76)"/><path class="cls-20" d="M1061.72,1274.44l14,14.11s3.49-1.9,19.8-1.9h149.1a27.37,27.37,0,0,0,7.37-1.53l-78.81-15.63s-91.25.06-95.52,0h-.48a26.58,26.58,0,0,0-15.44,5" transform="translate(-449.63 -1018.76)"/><path class="cls-21" d="M1067,1094.15s6.81,2.24,12.38,2.24h234.76a101.31,101.31,0,0,1,11.31.52l19-11.11a52,52,0,0,0-12.18-1.7h-243.8c-6.09,0-8.63-1.4-8.63-1.4L1067,1094.15Z" transform="translate(-449.63 -1018.76)"/><path class="cls-22" d="M1332.34,1102.91s1.07,5.85-1,9.83-73,141-76.18,147.33-10.45,8.61-10.45,8.61l8.08,15.88a28.25,28.25,0,0,0,4.56-4.29c1.68-2.15,89-176.64,91.69-182.76s.32-8.34.32-8.34l-17.06,13.74Z" transform="translate(-449.63 -1018.76)"/><path class="cls-23" d="M1237.22,1269.86c-9.32,0-61.74.39-61.74.39l74.55,14.87s4.67-1.89,7-5.72,0-5-2.72-2.67-7.37-1.51-5-4.18,4.66-11.07,4.66-11.07-7.37,8.38-16.7,8.38" transform="translate(-449.63 -1018.76)"/><path class="cls-24" d="M543.7,1258.06c-48.82,3.21-64.41,12.27-64.41,12.27H712.43c26.51,0,23.49,3.56,23.34,3.72l19-19.71s-46.11,0-75.41-.53c-3.73-.07-7.9-.1-12.47-.1-31.31,0-80.55,1.57-123.17,4.35m192.06,16h0Z" transform="translate(-449.63 -1018.76)"/><path class="cls-25" d="M1093.6,1253.81c-20.74.53-53.4.53-53.4.53l21.77,20.13s2.24-4.71,21.44-4.71,157.7-.47,157.7-.47,2.34-7.44-38.44-10.29c-32.12-2.26-80.59-5.24-104-5.24-1.68,0-3.37,0-5.05,0" transform="translate(-449.63 -1018.76)"/><path class="cls-26" d="M1044.27,1117.21s32.67,0,53.42.53,146.5-5.06,181.08-8.27,45.62-12.25,45.62-12.25-219.87,1.15-239.08,1.15-16.52-3.74-16.52-3.74Z" transform="translate(-449.63 -1018.76)"/><path class="cls-27" d="M742,1281.89s2.33,7.43,2.33,13.15v25.74c0,6.86,2.34,10.3,2.34,10.3l19.8-19.46s-3-6.86-3-12v-29a45.54,45.54,0,0,0-1.7-12.17L742,1281.89Z" transform="translate(-449.63 -1018.76)"/><path class="cls-28" d="M1032.52,1270.43c0,6.71-.46,24.67-.46,29.83a71.22,71.22,0,0,1-1.21,11.36l19.8,19.46s2.34-3.44,2.34-10.3V1295c0-5.72,2.32-13.15,2.32-13.15l-21.2-24a53.15,53.15,0,0,0-1.59,12.55" transform="translate(-449.63 -1018.76)"/><path class="cls-29" d="M753,1333.36l144.43,1.14h.59v-19L772.25,1315,753,1333.36Z" transform="translate(-449.63 -1018.76)"/><path class="cls-30" d="M898.64,1315.49h-.58v19l148.51-1.69L1022.7,1315l-124.06.45Z" transform="translate(-449.63 -1018.76)"/><path class="cls-31" d="M755,1031.52a18.06,18.06,0,0,0-7.86,2.16l19.15,18.5s1.88-4,15.37-4h117v-16.64Z" transform="translate(-449.63 -1018.76)"/><path class="cls-32" d="M898.64,1031.52v16.64h117c13.49,0,16.28,5.77,16.28,5.77l19.14-18.49s-4.67-3.92-8.75-3.92Z" transform="translate(-449.63 -1018.76)"/><path class="cls-33" d="M743.48,1047.68v33.6a29.56,29.56,0,0,1-1.78,8.7l18.75,20.9s1.27-1.74,1.27-10.44.75-42.79.75-42.79L743.73,1037s-.25,5.46-.25,10.68" transform="translate(-449.63 -1018.76)"/><path class="cls-34" d="M1032.68,1058.05v41.77c0,8.71,4.15,11.06,4.15,11.06l22.91-22.67s-3-4.74-3-8.71-.19-28.28-.19-33.5.23-10,.23-10l-24.11,22.1Z" transform="translate(-449.63 -1018.76)"/><path class="cls-35" d="M728,1098.82H567.24c-4.66,0-12.23,1.72-14.56,4l14.56,14.87s4.08-2.85,14-2.85H748.37a30.71,30.71,0,0,0,9.32-1.73l-18.63-18.87s-4.67,4.57-11.07,4.57" transform="translate(-449.63 -1018.76)"/><path class="cls-36" d="M1228.64,1251.81s9-3.32,11.82,7.18c0,0,2.25,3.32,8.43-5.53s64.7-127,64.12-128.72-12.38-3.87-12.38-3.87Z" transform="translate(-449.63 -1018.76)"/><path class="cls-37" d="M1302.33,1122c2.82,1.65,5.63,3.87,1.69,12.15s-48.93,94.47-58.49,111-1.13,23.21-1.13,23.21,7.32-3.33,9.52-6.91,70.92-137.28,75.65-146.26,1.45-12.57,1.45-12.57L1302.33,1122Z" transform="translate(-449.63 -1018.76)"/><path class="cls-38" d="M898.64,1048.3v267.19h120.29c7,0,13.07-2.57,13.07-10.29v-39.85c0-7.71,5.23-13.69,11.34-13.69H1224.8c6.37,0,12.09-3.66,15.4-9.68,14.83-26.93,55.67-105,58.76-111.31,3.77-7.69,1.44-12.14-7.31-12.14H1051.18c-10.46,0-18.32-7.7-18.32-17.12v-43.68c0-6-3.49-9.42-11.33-9.42H898.64Z" transform="translate(-449.63 -1018.76)"/><path class="cls-39" d="M477.32,1262.9,500.6,1249s-2.66-1.14,1.53-9.38,43.5-87,43.5-87l-8.77-1.87L477.32,1262.9Z" transform="translate(-449.63 -1018.76)"/><path class="cls-40" d="M475.22,1252.7c-5.83,10.3-4.66,14.3-4.66,14.3l14-9.15s62.31-118.41,68.72-132.14-3.14-19.32-3.14-19.32-69.08,136-74.9,146.31" transform="translate(-449.63 -1018.76)"/><path class="cls-6" d="M484.65,1270.82c-.93.61-9.44,1.64-11.11,0s-4.45-2.9-2.23-4.72,29.62-17.82,29.62-17.82-3.32,1.81,24.82,1.81H750.9c5.93,0,11.48,4,12.22,6.55s-.74,3.63-2.59,3.28-6.67-1.83-7.78-3.65,1.49-3.27-14.81-3.27-140.72,1.83-168.85,4.37-65.19.73-84.44,13.45m831.6-173.13c.93-.6,9.45-1.63,11.12,0s4.44,2.91,2.22,4.73-29.62,17.82-29.62,17.82,3.32-1.82-24.82-1.82H1050c-5.93,0-11.48-4-12.22-6.54s.74-3.65,2.58-3.28,6.67,1.82,7.79,3.63-1.49,3.27,14.81,3.27,140.71-1.81,168.86-4.35,65.19-.73,84.43-13.46m-758.91,21c0-2.58,1.45-7.43.29-8.86s2.33-3.15,4.66-1.73,7.28,2.58,7.86,3.73-.29,4-3.49,5.14-6.12,3.72-11.07,14.29-33.2,64.36-33.2,64.36,4.08-8.57,2.33-8.87-5.82,6.87-5.82,6.87l38.44-74.93Zm194.71-5.06c-2.41.24-3.08-2.35-1-2.69s4.8-.5,7.2-9.78.69-37.4.34-42.45-2.74-11.12.7-13.81,5.83,3,14.75,3,29.16-.67,29.16-.67-28.48,2-33.29,2.69-8.92,4.38-8.23,11.12-1,41.45-2.39,45.15-3.79,7.07-7.22,7.41m192.11-66.16c-3.78.17,72.34.87,77.14.87s10.29,1.44,11.32,6.15.3,20.19.3,20.19,2.36-19.85,5.8-23.56,2.4-9.09-2.06-8.1-39.78,2.11-92.5,4.45m101.64,206.57c-2.39-.35-5.13-.67-5.82,1.34s3.08,3.36-.69,5.37-6.55,3.26-6.55,1.57,1.94-10.31,9.13-10.31,184.6-.34,187.35-.34,6.16.34,7.52,3,3.08,9.41,4.11,11.43-.68,2-3.77-2-10.94-5.71-17.1-5.37-174.18-4.7-174.18-4.7m195.73,5.71s-1.7-3.69-2.73-6.06-4.11-3.34-4.11-3.34a85.05,85.05,0,0,0,8.21-12.78c4.79-8.73,27.38-50.42,29.77-56.13,0,0-5.13,15.47,4.79,2.69,0,0-32.16,59.81-34.22,63.85s-1.71,11.77-1.71,11.77m-475.93,47s.41,4.84-2.45,6.84-4.09,5.63-1.63,7.24,4.09.8,5.72-1.61,7.37-4.42,11-3.62c0,0-12.69,1.59-12.69-8.85M942,1315.44s69,3.57,73.14,3.76l6.95.31s-7.32-1.14-5.16-3.45l-74.93-.62Zm81.84-.56s-2,3.21,1.23,4.81,6.55,3.21,8.6.8-1.64-8.83-1.23-13.25c0,0,1.63,6.83-8.6,7.64" transform="translate(-449.63 -1018.76)"/></svg>