<svg id="Calque_1" data-name="Calque 1" xmlns="http://www.w3.org/2000/svg" xmlns:xlink="http://www.w3.org/1999/xlink" viewBox="0 0 859.58 756.21"><defs><style>.cls-1{fill:none;}.cls-2{fill:#58585a;}.cls-3{clip-path:url(#clip-path);}.cls-4{clip-path:url(#clip-path-2);}.cls-5{fill:url(#Adsız_degrade);}.cls-6{clip-path:url(#clip-path-3);}.cls-7{clip-path:url(#clip-path-4);}.cls-8{fill:url(#Adsız_degrade_2);}.cls-9{clip-path:url(#clip-path-5);}.cls-10{clip-path:url(#clip-path-6);}.cls-11{fill:url(#Adsız_degrade_3);}.cls-12{clip-path:url(#clip-path-7);}.cls-13{clip-path:url(#clip-path-8);}.cls-14{fill:url(#Adsız_degrade_4);}.cls-15{clip-path:url(#clip-path-9);}.cls-16{clip-path:url(#clip-path-10);}.cls-17{fill:url(#Adsız_degrade_5);}.cls-18{fill:#fff;}.cls-19{fill:#c6c7c8;}.cls-20{clip-path:url(#clip-path-11);}.cls-21{clip-path:url(#clip-path-12);}.cls-22{fill:url(#Adsız_degrade_6);}.cls-23{clip-path:url(#clip-path-13);}.cls-24{clip-path:url(#clip-path-14);}.cls-25{fill:url(#Adsız_degrade_7);}.cls-26{clip-path:url(#clip-path-15);}.cls-27{clip-path:url(#clip-path-16);}.cls-28{fill:url(#Adsız_degrade_8);}.cls-29{clip-path:url(#clip-path-17);}.cls-30{clip-path:url(#clip-path-18);}.cls-31{fill:url(#Adsız_degrade_9);}.cls-32{clip-path:url(#clip-path-19);}.cls-33{clip-path:url(#clip-path-20);}.cls-34{fill:url(#Adsız_degrade_10);}.cls-35{clip-path:url(#clip-path-21);}.cls-36{clip-path:url(#clip-path-22);}.cls-37{fill:url(#Adsız_degrade_11);}.cls-38{clip-path:url(#clip-path-23);}.cls-39{clip-path:url(#clip-path-24);}.cls-40{fill:url(#Adsız_degrade_12);}.cls-41{clip-path:url(#clip-path-25);}.cls-42{clip-path:url(#clip-path-26);}.cls-43{fill:url(#Adsız_degrade_13);}.cls-44{clip-path:url(#clip-path-27);}.cls-45{clip-path:url(#clip-path-28);}.cls-46{fill:url(#Adsız_degrade_14);}.cls-47{clip-path:url(#clip-path-29);}.cls-48{clip-path:url(#clip-path-30);}.cls-49{fill:url(#Adsız_degrade_15);}.cls-50{fill:#002f60;}.cls-51{clip-path:url(#clip-path-31);}.cls-52{clip-path:url(#clip-path-32);}.cls-53{fill:url(#Adsız_degrade_16);}.cls-54{clip-path:url(#clip-path-33);}.cls-55{clip-path:url(#clip-path-34);}.cls-56{fill:url(#Adsız_degrade_17);}.cls-57{clip-path:url(#clip-path-35);}.cls-58{clip-path:url(#clip-path-36);}.cls-59{fill:url(#Adsız_degrade_18);}</style><clipPath id="clip-path" transform="translate(0 0.04)"><rect class="cls-1" x="4.45" y="5.38" width="850.68" height="745.35"/></clipPath><clipPath id="clip-path-2" transform="translate(0 0.04)"><path class="cls-1" d="M581.75,501C569.93,528.75,557.5,555.1,538,572.84c-14.27,12.95-34.54,24.82-81.21,26.57-9,.32-20.53.36-26.92.36s-17.94,0-26.92-.36c-46.64-1.75-67-13.62-81.19-26.57-19.57-17.74-32-44.09-43.81-71.82-5.4-12.55-36.79-89.36-42-105,64,3.18,135,5.47,193.87,5.47S559.72,399.2,623.67,396c-5.14,15.63-36.57,92.44-41.92,105M840.29,19.55c-1.36-.37-4.24-.78-6.49-1.11q-7.62-1.07-16.86-1.91c-56.74-5-236.66-11.14-387.11-11.14S99.35,11.48,42.63,16.53c-6.19.56-11.77,1.2-16.88,1.91-2.23.33-5.1.74-6.46,1.11A19,19,0,0,0,5.53,40.15c.06.5,2.37,13.57,3.14,17.84Q17,104.32,27.06,150.32q9.94,45.69,21.5,91,7,27.49,14.5,54.88c3.7,13.45,15,53.22,21.89,75.88Q96.38,410,108.66,447.63c9,27.32,36.85,107.28,41.91,120,22.92,58.06,47.24,103,89.78,136.69,41.22,32.54,85,46.38,189.51,46.38S578,736.86,619.2,704.32c42.54-33.65,66.88-78.63,89.81-136.69,5-12.75,33-92.71,41.9-120q12.3-37.63,23.73-75.55c6.82-22.66,18.18-62.43,21.87-75.88Q804,268.81,811,241.32q11.47-45.33,21.47-91,10.07-46,18.4-92.33c.79-4.27,3.08-17.34,3.15-17.84A19,19,0,0,0,840.29,19.55Z"/></clipPath><linearGradient id="Adsız_degrade" x1="-357.06" y1="37.29" x2="-346.06" y2="37.29" gradientTransform="translate(2954.92 24184.57) rotate(90) scale(67.72)" gradientUnits="userSpaceOnUse"><stop offset="0" stop-color="#fff"/><stop offset="0.24" stop-color="#fdfdfd"/><stop offset="0.35" stop-color="#f6f6f6"/><stop offset="0.44" stop-color="#e9e9ea"/><stop offset="0.51" stop-color="#d7d8d9"/><stop offset="0.57" stop-color="#bfc1c2"/><stop offset="0.62" stop-color="#a3a5a7"/><stop offset="0.65" stop-color="#8f9294"/><stop offset="0.89" stop-color="#46494c"/><stop offset="1" stop-color="#292c30"/></linearGradient><clipPath id="clip-path-3" transform="translate(0 0.04)"><rect class="cls-1" x="228.39" y="390.27" width="402.86" height="214.87"/></clipPath><clipPath id="clip-path-4" transform="translate(0 0.04)"><path class="cls-1" d="M586.69,503.11h0M615.9,401.8c-9.2,24.52-34.4,86.11-39.09,97.1h0c-11.07,25.92-23.43,52.7-42.49,70-13.31,12-31.91,23.38-77.76,25.15l-26.73.33-26.7-.33c-46-1.77-65.16-13.7-77.77-25.19-19.06-17.26-31.44-44-42.48-70-4.74-11-29.92-72.58-39.1-97.1,68.63,3.27,134.43,5.11,186,5.11s117.4-1.8,186.07-5.07Zm-385-4.07c5.28,16,36.61,92.65,42.08,105.38,11.52,27.06,24.51,55,45.17,73.75,14.07,12.76,35.12,26.1,84.6,27.92l27.12.36,27.11-.36c49.46-1.82,70.54-15.16,84.64-27.94,20.66-18.7,33.61-46.67,45.11-73.73,5.5-12.75,36.83-89.33,42.1-105.38l2.46-7.46-7.84.41c-71.37,3.48-140.13,5.43-193.58,5.43s-122.21-1.95-193.6-5.43l-7.84-.41Z"/></clipPath><linearGradient id="Adsız_degrade_2" x1="-395.86" y1="58.39" x2="-384.86" y2="58.39" gradientTransform="translate(-618.85 -6520.8) rotate(-90) scale(17.96)" gradientUnits="userSpaceOnUse"><stop offset="0" stop-color="#58585a"/><stop offset="0.91" stop-color="#58585a"/><stop offset="1" stop-color="#1a171b"/></linearGradient><clipPath id="clip-path-5" transform="translate(0 0.04)"><rect class="cls-1" x="45.61" y="22.16" width="768.18" height="648.81"/></clipPath><clipPath id="clip-path-6" transform="translate(0 0.04)"><path class="cls-1" d="M625.41,398.06l-.69.52-2.65,2c-.82,2.31-1.62,4.57-1.92,5.36-1.48,3.89-3,7.78-4.49,11.72-3.11,8.12-6.31,16.23-9.49,24.35q-9.67,24.32-19.89,48.4c-6.72,15.89-13.39,32-21.75,47.15-7.72,14-17.06,27.45-29.47,37.83s-27.65,16.87-43.65,20.26c-16.77,3.49-34.11,4-51.2,4.08-3.47,0-6.89,0-10.37.09s-6.91-.05-10.38-.09c-17.09-.1-34.41-.59-51.18-4.08-16-3.39-31.12-9.79-43.67-20.27-12.39-10.38-21.73-23.78-29.45-37.83-8.36-15.18-15-31.26-21.78-47.15q-10.19-24.11-19.83-48.4-4.83-12.18-9.52-24.35c-1.51-3.94-3-7.83-4.47-11.72-.31-.79-1.11-3.05-1.95-5.36l-2.63-2-.69-.52c-15.87-12.8-81.29-90-121.14-182.21-33.57-77.77-61-170.75-67.53-193.69C50,46.87,57.62,74,65.15,100.37c1.82,6.44,3.54,12.55,5.23,18.62,9.58,34.36,19.77,69.45,30.34,104.24,20.64,67.83,41.91,137,68.2,205.86,13.92,36.49,26.94,68.66,39.74,98.34,11.32,26.25,25.72,56.43,46.68,81.15,21.34,25.15,44.92,41.22,74.25,50.68,25.5,8.2,55.51,11.7,100.25,11.7s74.72-3.5,100.24-11.7c29.34-9.46,52.93-25.53,74.27-50.68,20.93-24.72,35.35-54.9,46.68-81.15,12.82-29.68,25.8-61.85,39.73-98.34C717.07,360.21,738.33,291,759,223.23c10.58-34.82,20.78-69.9,30.3-104.24,1.49-5.26,3-10.69,4.5-16,7.5-26.61,15.19-54,20-80-7.06,24.73-35.36,119.26-68.61,196.28-39.82,92.27-103.9,166-119.77,178.79"/></clipPath><linearGradient id="Adsız_degrade_3" x1="-374.24" y1="48.08" x2="-363.24" y2="48.08" gradientTransform="translate(-1876.85 -17287.85) rotate(-90) scale(47.97)" gradientUnits="userSpaceOnUse"><stop offset="0" stop-color="#fefefe"/><stop offset="0.18" stop-color="#fefefe"/><stop offset="0.21" stop-color="#eeefef"/><stop offset="0.35" stop-color="#9c9e9f"/><stop offset="0.44" stop-color="#686b6d"/><stop offset="0.49" stop-color="#54575a"/><stop offset="0.71" stop-color="#35383c"/><stop offset="0.79" stop-color="#292c30"/><stop offset="1" stop-color="#292c30"/></linearGradient><clipPath id="clip-path-7" transform="translate(0 0.04)"><rect class="cls-1" x="46.75" y="5.38" width="766.18" height="396.13"/></clipPath><clipPath id="clip-path-8" transform="translate(0 0.04)"><path class="cls-1" d="M812.93,16.2C685.41,8.48,557.63,5.4,429.83,5.39S174.3,8.48,46.75,16.2c0,0,18.36,84,48.39,164.83l.07.1h-.07c4.68,12.58,9.66,25.07,14.88,37.18C149.1,308.81,218.27,381,236,396.11c4.62.19,11.43.56,16.08.8q18.57.85,37.15,1.61,36.58,1.47,73.18,2.32,33.7.71,67.46.66t67.44-.66q36.62-.81,73.2-2.32,18.57-.75,37.17-1.61c4.61-.24,11.44-.61,16-.8,17.73-15.09,86.89-87.3,126-177.8C770.5,170,787.2,115.31,798.21,75l-.13.06.13-.16c9.47-34.67,14.71-58.66,14.71-58.66"/></clipPath><linearGradient id="Adsız_degrade_4" x1="-372.66" y1="49.83" x2="-361.66" y2="49.83" gradientTransform="translate(-1363.63 -13009.97) rotate(-90) scale(35.99)" gradientUnits="userSpaceOnUse"><stop offset="0" stop-color="#383c40"/><stop offset="0.03" stop-color="#626569"/><stop offset="0.06" stop-color="#9a9c9e"/><stop offset="0.09" stop-color="#c5c7c8"/><stop offset="0.12" stop-color="#e5e5e6"/><stop offset="0.14" stop-color="#f8f8f8"/><stop offset="0.16" stop-color="#fff"/><stop offset="0.19" stop-color="#f0f1f1"/><stop offset="0.25" stop-color="#dcdfe0"/><stop offset="0.31" stop-color="#d1d4d5"/><stop offset="0.37" stop-color="#cdd0d2"/><stop offset="0.69" stop-color="#cbced0"/><stop offset="0.8" stop-color="#c4c8ca"/><stop offset="0.89" stop-color="#b8bcbe"/><stop offset="0.95" stop-color="#a7acaf"/><stop offset="1" stop-color="#979c9f"/></linearGradient><clipPath id="clip-path-9" transform="translate(0 0.04)"><rect class="cls-1" x="46.75" y="5.39" width="766.18" height="191.18"/></clipPath><clipPath id="clip-path-10" transform="translate(0 0.04)"><path class="cls-1" d="M277.79,192.9c209-11.61,394.77-57.81,521.48-121.88,8.79-32.58,13.66-54.82,13.66-54.82h0c-60.78-5-236-10.8-383.1-10.8S107.6,11.23,46.75,16.18h0s18.36,84,48.39,164.83l.07.1h-.07c1.61,4.29,3.22,8.55,4.9,12.81a1744.81,1744.81,0,0,0,177.75-1"/></clipPath><radialGradient id="Adsız_degrade_5" cx="-360.03" cy="46.49" r="11.01" gradientTransform="translate(16108.99 -2111.8) scale(44.62)" gradientUnits="userSpaceOnUse"><stop offset="0" stop-color="#fff"/><stop offset="0.36" stop-color="#fff"/><stop offset="0.53" stop-color="#f8f9f9"/><stop offset="0.77" stop-color="#e6e8e9"/><stop offset="0.92" stop-color="#d6d9db"/><stop offset="1" stop-color="#d6d9db"/></radialGradient><clipPath id="clip-path-11" transform="translate(0 0.04)"><rect class="cls-1" x="642.99" y="150.19" width="0.08" height="0.27"/></clipPath><clipPath id="clip-path-12" transform="translate(0 0.04)"><polyline class="cls-1" points="643.06 150.47 643.01 150.26 642.98 150.19 643.06 150.47"/></clipPath><linearGradient id="Adsız_degrade_6" x1="-426.26" y1="151.21" x2="-415.02" y2="151.21" gradientTransform="translate(-43.45 -1737.76) rotate(-90) scale(4.54)" gradientUnits="userSpaceOnUse"><stop offset="0" stop-color="#3e3d40"/><stop offset="0.02" stop-color="#5e5d5f"/><stop offset="0.06" stop-color="#979698"/><stop offset="0.09" stop-color="#c4c3c4"/><stop offset="0.12" stop-color="#e4e4e4"/><stop offset="0.14" stop-color="#f8f8f8"/><stop offset="0.16" stop-color="#fff"/><stop offset="0.19" stop-color="#f2f2f2"/><stop offset="0.25" stop-color="#dfdfe0"/><stop offset="0.31" stop-color="#d4d4d5"/><stop offset="0.37" stop-color="#d0d0d1"/><stop offset="0.68" stop-color="#cececf"/><stop offset="0.79" stop-color="#c8c7c8"/><stop offset="0.86" stop-color="#bcbcbd"/><stop offset="0.93" stop-color="#acabac"/><stop offset="0.98" stop-color="#979696"/><stop offset="1" stop-color="#8d8c8c"/></linearGradient><clipPath id="clip-path-13" transform="translate(0 0.04)"><rect class="cls-1" x="343.89" y="150.19" width="0.11" height="0.27"/></clipPath><clipPath id="clip-path-14" transform="translate(0 0.04)"><polyline class="cls-1" points="343.99 150.47 343.94 150.26 343.89 150.19 343.99 150.47"/></clipPath><linearGradient id="Adsız_degrade_7" x1="-426.26" y1="91.32" x2="-415.02" y2="91.32" gradientTransform="translate(-70.63 -1737.76) rotate(-90) scale(4.54)" xlink:href="#Adsız_degrade_6"/><clipPath id="clip-path-15" transform="translate(0 0.04)"><rect class="cls-1" x="317" y="148.23" width="46.45" height="42.21"/></clipPath><clipPath id="clip-path-16" transform="translate(0 0.04)"><path class="cls-1" d="M343.94,150.26l.05.21-.1-.28v.07c-.29-.82-1.13-2-3.67-2h-.29v3.08h.29l1.11.65s15.19,31.45,17.14,35.38H321.9l-4.9,3.09h46.41L343.9,150.28"/></clipPath><linearGradient id="Adsız_degrade_8" x1="-600.81" y1="95.86" x2="-589.81" y2="95.86" gradientTransform="translate(201.22 -701.07) rotate(-90) scale(1.45)" gradientUnits="userSpaceOnUse"><stop offset="0" stop-color="#fff"/><stop offset="0.25" stop-color="#f7f7f7"/><stop offset="0.63" stop-color="#e1e2e3"/><stop offset="1" stop-color="#c6c7c9"/></linearGradient><clipPath id="clip-path-17" transform="translate(0 0.04)"><rect class="cls-1" x="616.01" y="148.23" width="46.45" height="42.21"/></clipPath><clipPath id="clip-path-18" transform="translate(0 0.04)"><path class="cls-1" d="M643,150.26v.21l-.08-.28v.07c-.29-.82-1.15-2-3.68-2h-.29v3.08h.29l1.11.65s15.24,31.45,17.13,35.38H620.91l-4.9,3.11h46.45L643,150.3"/></clipPath><linearGradient id="Adsız_degrade_9" x1="-680.93" y1="265.89" x2="-669.93" y2="265.89" gradientTransform="translate(253.7 -817.32) rotate(-90) scale(1.45)" xlink:href="#Adsız_degrade_8"/><clipPath id="clip-path-19" transform="translate(0 0.04)"><rect class="cls-1" x="153.82" y="128.02" width="109.38" height="95.53"/></clipPath><clipPath id="clip-path-20" transform="translate(0 0.04)"><path class="cls-1" d="M156.92,131.12h65.84c14.78,0,26.69,4.78,35.42,14.22a42.63,42.63,0,0,1,2.81,3.33l2.2-2.18a38.47,38.47,0,0,0-2.73-3.25c-9.37-10.09-22-15.22-37.7-15.22H153.82v95.53l3.1-3.11V131.12"/></clipPath><linearGradient id="Adsız_degrade_10" x1="-302.07" y1="104.14" x2="-291.06" y2="104.14" gradientTransform="translate(574.04 1231.16) rotate(90) scale(3.51)" xlink:href="#Adsız_degrade_8"/><clipPath id="clip-path-21" transform="translate(0 0.04)"><rect class="cls-1" x="183.17" y="154.57" width="58.74" height="48.9"/></clipPath><clipPath id="clip-path-22" transform="translate(0 0.04)"><path class="cls-1" d="M235.92,194.35c4-5.34,6-11.89,6-19.48,0-7.39-2-13.69-5.78-18.69l-1.39-1.61-2.18,2.18,1.08,1.3c3.46,4.48,5.17,10.11,5.17,16.82,0,6.92-1.79,12.86-5.32,17.63a18.39,18.39,0,0,1-15.56,7.87H186.27l-3.1,3.1h34.75a21.44,21.44,0,0,0,18-9.12"/></clipPath><linearGradient id="Adsız_degrade_11" x1="-641.65" y1="4.08" x2="-630.65" y2="4.08" gradientTransform="translate(-117.54 -432.81) rotate(-117.98) scale(1.09)" xlink:href="#Adsız_degrade_8"/><clipPath id="clip-path-23" transform="translate(0 0.04)"><rect class="cls-1" x="269.64" y="127.61" width="141.09" height="95.95"/></clipPath><clipPath id="clip-path-24" transform="translate(0 0.04)"><path class="cls-1" d="M376.06,223.55h34.68L398,195.08c-7-15.59-12.84-28.07-17.19-37.1-8.44-17.51-10.92-20.92-12-22-2.68-2.7-6.7-4.84-11.94-6.27a64.1,64.1,0,0,0-16.48-2.1h-.13a64,64,0,0,0-16.64,2.1c-5.21,1.43-9.3,3.57-12.12,6.31-1,1.13-3.36,4.57-11.83,22l-17.37,37.1-12.58,28.43,4.78-3.07c1.62-3.62,10.64-24,10.64-24l17.36-37c7.65-15.77,10.33-20.23,11.24-21.22,2.4-2.33,6-4.19,10.72-5.47a59.15,59.15,0,0,1,15.83-2h.13a60.23,60.23,0,0,1,15.64,2c4.73,1.28,8.29,3.12,10.63,5.51.86.82,3.45,4.56,11.4,21.11,4.34,9,10.1,21.45,17.15,37,0,0,9.17,20.42,10.79,24.1H378l-2,3.11"/></clipPath><linearGradient id="Adsız_degrade_12" x1="-246.55" y1="126.21" x2="-235.55" y2="126.21" gradientTransform="translate(654.47 777.25) rotate(90) scale(2.49)" xlink:href="#Adsız_degrade_8"/><clipPath id="clip-path-25" transform="translate(0 0.04)"><rect class="cls-1" x="568.69" y="127.61" width="141.08" height="95.95"/></clipPath><clipPath id="clip-path-26" transform="translate(0 0.04)"><path class="cls-1" d="M675.14,223.55h34.64L697,195.08C690,179.49,684.2,167,679.81,158c-8.4-17.51-10.9-20.92-12-22-2.63-2.7-6.68-4.84-11.94-6.27a63.54,63.54,0,0,0-16.47-2.1h-.1a64,64,0,0,0-16.65,2.1c-5.22,1.43-9.29,3.57-12.12,6.31-1.07,1.13-3.35,4.57-11.81,22l-17.4,37.1-12.58,28.43,4.67-3.07,10.63-24,17.35-37c7.64-15.77,10.34-20.23,11.25-21.22,2.41-2.33,6.05-4.19,10.73-5.47a59.22,59.22,0,0,1,15.84-2h.1a60.46,60.46,0,0,1,15.67,2c4.69,1.28,8.27,3.12,10.6,5.51.87.82,3.46,4.56,11.42,21.11,4.35,9,10.1,21.45,17.15,37,0,0,9.17,20.42,10.8,24.1H677.06l-1.92,3.11"/></clipPath><linearGradient id="Adsız_degrade_13" x1="-135.24" y1="95.09" x2="-124.23" y2="95.09" gradientTransform="translate(1010.17 44.47) rotate(16.5) scale(2.43)" xlink:href="#Adsız_degrade_8"/><clipPath id="clip-path-27" transform="translate(0 0.04)"><rect class="cls-1" x="406.21" y="128.02" width="107.91" height="95.53"/></clipPath><clipPath id="clip-path-28" transform="translate(0 0.04)"><path class="cls-1" d="M511,220.48H456.6c-15,0-27-4.6-35.62-13.68a41,41,0,0,1-7.15-10.08,44.18,44.18,0,0,1-4.53-20.11c0-12.2,4-22.72,11.87-31.24,8.75-9.44,20.67-14.21,35.43-14.21H511l3.12-3.1H456.6c-15.65,0-28.35,5.13-37.7,15.22-8.41,9.1-12.69,20.3-12.69,33.33A47.22,47.22,0,0,0,411.54,199a43.57,43.57,0,0,0,7.2,9.9c9.2,9.72,22,14.67,37.86,14.67h57.52V200.37l-3.12,3.1v17"/></clipPath><linearGradient id="Adsız_degrade_14" x1="-280.07" y1="-53.97" x2="-269.06" y2="-53.97" gradientTransform="translate(270.74 1148.37) rotate(90) scale(3.51)" xlink:href="#Adsız_degrade_8"/><clipPath id="clip-path-29" transform="translate(0 0.04)"><rect class="cls-1" x="437.49" y="128.02" width="76.63" height="75.45"/></clipPath><clipPath id="clip-path-30" transform="translate(0 0.04)"><path class="cls-1" d="M445.8,158.07c3.83-5,9-7.45,15.64-7.45h52.68V128l-3.12,3.1v16.42H461.41c-7.6,0-13.7,2.91-18.07,8.64-3.92,5-5.88,11.34-5.88,18.69l.05,1.78a31.38,31.38,0,0,0,5.9,17.68,21.24,21.24,0,0,0,18,9.15H511l3.12-3.1H461.41a18.14,18.14,0,0,1-15.49-7.9c-3.54-4.83-5.33-10.78-5.33-17.65V174c.14-6.3,1.86-11.67,5.19-16"/></clipPath><linearGradient id="Adsız_degrade_15" x1="-455.29" y1="150.69" x2="-444.29" y2="150.69" gradientTransform="translate(4.14 -1232.01) rotate(-90) scale(3.13)" xlink:href="#Adsız_degrade_8"/><clipPath id="clip-path-31" transform="translate(0 0.04)"><rect class="cls-1" x="156.93" y="130.72" width="488.85" height="64.97"/></clipPath><clipPath id="clip-path-32" transform="translate(0 0.04)"><path class="cls-1" d="M421.14,145.34c-7.89,8.52-11.87,19-11.87,31.23,0,1.41.07,2.8.19,4.15q14.12-1.84,28-3.89l-.06-2c0-7.34,2-13.63,5.89-18.68,4.37-5.72,10.47-8.64,18.09-8.64h49.54V131.13H456.56c-14.77,0-26.67,4.79-35.42,14.21M222.76,131.13H156.92v64.43c8.7.11,17.43.14,26.25.13V147.55h34.74c7.68,0,13.79,2.92,18.19,8.64,3.84,5,5.78,11.3,5.78,18.68,0,7.61-2,14.15-6,19.48l-.35.4c10.43-.32,20.9-.77,31.42-1.28a45.61,45.61,0,0,0,3.06-16.9c0-12.19-4-22.71-11.88-31.22C249.41,135.92,237.53,131.13,222.76,131.13Zm308.06,29.1q13.29-2.74,26.26-5.75V131.13H530.82Zm-164.29-22c-2.33-2.38-5.89-4.24-10.61-5.5a63.14,63.14,0,0,0-31.61,0c-4.67,1.27-8.31,3.12-10.71,5.46-.9,1-3.59,5.46-11.25,21.23L286.9,192.36c10.09-.61,20.17-1.28,30.13-2l19.17-40.25a4.46,4.46,0,0,1,4.06-1.83c2.5,0,3.36,1.18,3.65,2l17.5,36q13.93-1.44,27.72-3c-4.38-9.57-8.13-17.62-11.2-23.92-7.91-16.57-10.52-20.31-11.4-21.13Zm272.64-7.51a60,60,0,0,0-15.83,2c-4.67,1.27-8.34,3.12-10.71,5.46a16.87,16.87,0,0,0-1.89,2.91q17.84-4.82,35-10a65.59,65.59,0,0,0-6.57-.37Z"/></clipPath><linearGradient id="Adsız_degrade_16" x1="-318.74" y1="1.64" x2="-307.73" y2="1.64" gradientTransform="translate(411.7 2117.52) rotate(90) scale(6.32)" gradientUnits="userSpaceOnUse"><stop offset="0" stop-color="#63769e"/><stop offset="0.11" stop-color="#63769e"/><stop offset="0.26" stop-color="#5a719a"/><stop offset="0.5" stop-color="#43638e"/><stop offset="0.8" stop-color="#1d4c7a"/><stop offset="1" stop-color="#003b6b"/></linearGradient><clipPath id="clip-path-33" transform="translate(0 0.04)"><rect class="cls-1" x="35.5" y="16.42" width="788.61" height="661.04"/></clipPath><clipPath id="clip-path-34" transform="translate(0 0.04)"><path class="cls-1" d="M92,226Q123.6,330,162.52,431.74c12.59,32.87,25.63,65.56,39.58,97.87,12.62,29.27,27,58.26,47.72,82.75,46.39,54.65,101.14,65.1,180,65.1s133.65-10.45,180-65.1c20.8-24.49,35.1-53.48,47.74-82.75,13.93-32.31,27-65,39.55-97.89Q735.92,330.08,767.7,226q15.82-52,30.38-104.45c9.32-33.51,20.35-70.25,26-104.2-2.29-.25-4.68-.49-7.17-.7L815,16.42c-4.7,28-13.11,57.78-21.24,86.67-1.47,5.29-3,10.74-4.5,16-9.52,34.34-19.72,69.4-30.3,104.23-20.61,67.8-44.27,136.86-70.36,205.16-13.83,36.19-26.71,68.06-39.41,97.48-11.23,26.06-25.49,56-46.29,80.49-21.16,24.92-44.56,40.89-73.64,50.26-25.3,8.13-55,11.62-99.4,11.62s-74.11-3.49-99.4-11.62c-29.08-9.37-52.5-25.34-73.63-50.26C236,581.93,221.73,552,210.5,526c-12.73-29.46-25.6-61.33-39.41-97.52C145,360.19,121.35,291.15,100.71,223.31,90.14,188.48,80,153.48,70.41,119.08c-1.7-6.08-3.42-12.19-5.24-18.63-8.1-28.43-16.4-57.77-20.52-84l-2,.19c-2.48.21-4.84.45-7.13.7,5.08,32.93,16.77,70.73,26.06,104.2Q76.15,174,92,226"/></clipPath><linearGradient id="Adsız_degrade_17" x1="-359.77" y1="48.21" x2="-348.76" y2="48.21" gradientTransform="translate(25816.26 -3108) scale(71.66)" gradientUnits="userSpaceOnUse"><stop offset="0" stop-color="#fff"/><stop offset="0.55" stop-color="#fff"/><stop offset="1" stop-color="#fff"/></linearGradient><clipPath id="clip-path-35" transform="translate(0 0.04)"><rect class="cls-1" x="43.8" y="16.11" width="772.23" height="386.14"/></clipPath><clipPath id="clip-path-36" transform="translate(0 0.04)"><path class="cls-1" d="M110.41,218.06c-38.28-88.68-63-200.72-63.22-201.94-1.17.11-2.28.18-3.39.29v.12c1,4.66,25.35,114.91,63.36,202.93,38.37,88.83,106.94,163.42,126.39,179.12l.71.53,3.85,2.86S236.6,397.72,236,396c-15.54-13.3-85.91-86.24-125.52-178m702-201.93c-.32,1.4-25,113.35-63.26,201.93-39.61,91.7-110.13,164.94-125.55,178l-.07.15-2.18,6,3.84-2.86.73-.57c19.46-15.63,88.19-90.54,126.54-179.32C790.34,131.84,815,21.21,816,16.55v-.11c-1.09-.12-2.3-.2-3.52-.31Z"/></clipPath><linearGradient id="Adsız_degrade_18" x1="-355.4" y1="33.02" x2="-344.4" y2="33.02" gradientTransform="translate(1628.44 12905.22) rotate(90) scale(36.3)" gradientUnits="userSpaceOnUse"><stop offset="0" stop-color="#58585a"/><stop offset="0.04" stop-color="#515153"/><stop offset="0.08" stop-color="#414043"/><stop offset="0.15" stop-color="#302e31"/><stop offset="0.23" stop-color="#232124"/><stop offset="0.33" stop-color="#1c191d"/><stop offset="0.54" stop-color="#1a171b"/><stop offset="0.77" stop-color="#2a282b"/><stop offset="1" stop-color="#353437"/></linearGradient></defs><path class="cls-2" d="M841.7,14.34h0m0,0h0ZM243.7,700.1c-42.28-33.39-65.8-77.9-88.12-134.38-5-12.68-33.13-93.28-41.78-119.75L90.1,370.48,68.28,294.73,53.78,240c-7.78-30.61-15-61.16-21.48-90.82C25.7,118.82,19.54,87.81,14,57l-3.1-17.62a13.54,13.54,0,0,1,9.8-14.61l5.87-1,16.59-1.88c58.11-5.14,239.7-11.12,386.71-11.12s328.52,6,386.61,11.12L833,23.79l5.86,1a13.57,13.57,0,0,1,9.81,14.69L845.6,57c-5.53,30.67-11.71,61.68-18.35,92.14-6.52,29.89-13.74,60.45-21.48,90.82L791.3,294.75l-21.82,75.73-23.71,75.45C737.1,472.48,709,553.05,704,565.68c-22.32,56.48-45.85,101-88.13,134.38-38,30-77.16,45.26-186,45.26-108.36,0-149-15.9-186.17-45.22ZM42.18,11.16,25,13.16l-7.09,1.22A24.41,24.41,0,0,0,.18,40.83L3.35,59C9,89.94,15.16,121.06,21.77,151.51,28.26,181.3,35.52,212,43.32,242.7l14.55,55,21.92,76,23.73,75.67c8.94,27.37,36.82,107.23,42,120.35,22.95,58.16,47.3,104,91.48,138.92,45,35.56,93.68,47.53,192.83,47.53s147.7-12,192.71-47.53c44.19-34.91,68.53-80.76,91.49-138.92,5.15-13.06,33-92.92,42-120.35l23.76-75.67,21.89-76,14.54-55c7.77-30.5,15-61.17,21.56-91.19,6.65-30.58,12.86-61.72,18.42-92.51l3.21-18.24.17-2.92a24.38,24.38,0,0,0-17.86-23.5l-7.13-1.22-17.16-2C759.08,6,577.07,0,429.85,0S100.48,6,42.18,11.16Z" transform="translate(0 0.04)"/><g class="cls-3"><g class="cls-4"><rect class="cls-5" x="4.46" y="5.43" width="850.67" height="745.34"/></g></g><g class="cls-6"><g class="cls-7"><rect class="cls-8" x="228.39" y="390.3" width="402.86" height="214.87"/></g></g><g class="cls-9"><g class="cls-10"><rect class="cls-11" x="45.61" y="22.2" width="768.18" height="648.81"/></g></g><g class="cls-12"><g class="cls-13"><rect class="cls-14" x="46.75" y="5.43" width="766.18" height="396.12"/></g></g><g class="cls-15"><g class="cls-16"><rect class="cls-17" x="46.75" y="5.43" width="766.18" height="191.18"/></g></g><path class="cls-18" d="M669.12,204.08l-1.92,3.09c.75,1.56,7.94,16.38,7.94,16.38l1.93-3.11c-.74-1.56-8-16.36-8-16.36" transform="translate(0 0.04)"/><path class="cls-18" d="M609.57,204.08s-7,14.78-7.78,16.36H573.41l-4.76,3.12H603.7s7.06-14.8,7.79-16.38h55.66l1.92-3.09h-59.5" transform="translate(0 0.04)"/><path class="cls-19" d="M609.57,204.08s-7,14.78-7.78,16.36H573.41l-4.76,3.12H603.7s7.06-14.8,7.79-16.38h55.66l1.92-3.09h-59.5" transform="translate(0 0.04)"/><path class="cls-18" d="M697,195.08C690,179.49,684.19,167,679.81,158c-8.4-17.51-10.9-20.93-12-22-2.64-2.71-6.69-4.85-11.94-6.26a63.55,63.55,0,0,0-16.47-2.11v3.08a60.38,60.38,0,0,1,15.66,2c4.69,1.28,8.28,3.13,10.61,5.51.87.82,3.46,4.56,11.42,21.12,4.35,9,10.1,21.45,17.14,37,0,0,9.18,20.42,10.8,24.09h-28l-1.94,3.11h34.66L697,195.08" transform="translate(0 0.04)"/><polyline class="cls-18" points="643.07 150.51 643.02 150.3 642.99 150.23 643.07 150.51"/><g class="cls-20"><g class="cls-21"><rect class="cls-22" x="642.98" y="150.23" width="0.09" height="0.27"/></g></g><path class="cls-18" d="M370.08,204.08l-1.95,3.09c.75,1.56,7.93,16.38,7.93,16.38l2-3.11-7.93-16.36" transform="translate(0 0.04)"/><path class="cls-18" d="M310.49,204.08s-7,14.78-7.78,16.36h-28.3l-4.75,3.12h35s7.07-14.8,7.79-16.38h55.68l1.95-3.09H310.49" transform="translate(0 0.04)"/><path class="cls-19" d="M310.49,204.08s-7,14.78-7.78,16.36h-28.3l-4.75,3.12h35s7.07-14.8,7.79-16.38h55.68l1.95-3.09H310.49" transform="translate(0 0.04)"/><path class="cls-18" d="M398,195.08C390.9,179.49,385.11,167,380.77,158c-8.44-17.51-10.92-20.93-12-22-2.68-2.71-6.7-4.85-12-6.26a63.55,63.55,0,0,0-16.47-2.11v3.08a60.23,60.23,0,0,1,15.64,2c4.72,1.28,8.29,3.13,10.62,5.51.87.82,3.46,4.56,11.41,21.12,4.34,9,10.1,21.45,17.14,37,0,0,9.17,20.42,10.8,24.09H378l-2,3.11h34.66L398,195.08" transform="translate(0 0.04)"/><path class="cls-19" d="M338.74,152l1.26-.67v-3.08a4.27,4.27,0,0,0-3.77,1.78L317,190.48l4.91-3.09,16.83-35.34" transform="translate(0 0.04)"/><polyline class="cls-18" points="343.99 150.51 343.94 150.3 343.89 150.23 343.99 150.51"/><g class="cls-23"><g class="cls-24"><rect class="cls-25" x="343.89" y="150.23" width="0.11" height="0.27"/></g></g><g class="cls-26"><g class="cls-27"><rect class="cls-28" x="310.12" y="140.25" width="60.21" height="58.24" transform="translate(-39.8 165.33) rotate(-25.85)"/></g></g><path class="cls-19" d="M637.73,152l1.27-.67v-3.08a4.25,4.25,0,0,0-3.76,1.78L616,190.48l4.9-3.09c1.89-3.92,16.82-35.34,16.82-35.34" transform="translate(0 0.04)"/><g class="cls-29"><g class="cls-30"><rect class="cls-31" x="609.18" y="140.25" width="60.1" height="58.1" transform="translate(-10.62 291.73) rotate(-25.5)"/></g></g><path class="cls-18" d="M530.88,131.12h26.27l3.11-3.09H527.81v95.52l3.07-3.11V131.12" transform="translate(0 0.04)"/><path class="cls-19" d="M560.23,128l-3.09,3.09v89.37H530.87l-3.07,3.12h32.43V128" transform="translate(0 0.04)"/><g class="cls-32"><g class="cls-33"><rect class="cls-34" x="143.64" y="107.12" width="129.74" height="137.34" transform="matrix(0.38, -0.93, 0.93, 0.38, -32.96, 302.59)"/></g></g><path class="cls-19" d="M186.27,150.62h31.65c6.12,0,10.92,2,14.62,6.13l2.19-2.18c-4.26-4.64-9.91-7-16.81-7H183.17v55.91l3.1-3.09V150.62" transform="translate(0 0.04)"/><path class="cls-19" d="M260.73,208.88c8.22-8.66,12.42-19.53,12.42-32.31,0-11.51-3.37-21.61-10-30.09l-2.2,2.19a44.89,44.89,0,0,1,9.07,27.9c0,12-3.9,22.14-11.57,30.18-8.61,9.08-20.66,13.68-35.73,13.68h-65.8l-3.1,3.12h68.94c16,0,28.73-5,38-14.67" transform="translate(0 0.04)"/><g class="cls-35"><g class="cls-36"><polygon class="cls-37" points="196.04 227.81 162.94 165.33 229.03 130.31 262.14 192.79 196.04 227.81"/></g></g><g class="cls-38"><g class="cls-39"><rect class="cls-40" x="275.27" y="94.85" width="129.87" height="161.48" transform="translate(80.81 457.22) rotate(-74.65)"/></g></g><g class="cls-41"><g class="cls-42"><polygon class="cls-43" points="579.99 89.37 735.8 135.32 698.48 261.88 542.65 215.92 579.99 89.37"/></g></g><g class="cls-44"><g class="cls-45"><rect class="cls-46" x="406.21" y="128.05" width="107.91" height="95.53"/></g></g><g class="cls-47"><g class="cls-48"><rect class="cls-49" x="437.49" y="128.05" width="76.63" height="75.45"/></g></g><path class="cls-50" d="M235.91,194.35a21.45,21.45,0,0,1-18,9.12H183.17V147.55H217.9c7.69,0,13.8,2.92,18.2,8.64,3.84,5,5.78,11.3,5.78,18.68,0,7.61-2,14.15-6,19.48m22.26-49c-8.74-9.43-20.65-14.22-35.4-14.22H156.92v89.35h65.85c15.06,0,27.09-4.6,35.68-13.68,7.71-8.05,11.6-18.21,11.6-30.19,0-12.23-4-22.75-11.88-31.26Z" transform="translate(0 0.04)"/><path class="cls-50" d="M421,206.77c-7.75-8.11-11.65-18.27-11.65-30.19,0-12.2,4-22.71,11.84-31.23,8.75-9.43,20.66-14.22,35.42-14.22H511v16.43H461.41c-7.61,0-13.7,2.91-18.07,8.64-3.93,5-5.9,11.33-5.9,18.67,0,7.56,2,14.12,6,19.48a21.3,21.3,0,0,0,18,9.13H511v17h-54.4c-15,0-27-4.6-35.61-13.67" transform="translate(0 0.04)"/><path class="cls-50" d="M557.08,131.13v89.35H530.82V131.13h26.26" transform="translate(0 0.04)"/><path class="cls-50" d="M616,190.48l19.25-40.39a4.42,4.42,0,0,1,4-1.83c2.51,0,3.37,1.18,3.68,2l19.5,40.22H616m78.13,5.9c-7-15.56-12.8-28-17.13-37-8-16.55-10.55-20.29-11.42-21.11-2.33-2.38-5.93-4.25-10.6-5.51a63.41,63.41,0,0,0-31.62,0c-4.67,1.28-8.34,3.13-10.71,5.46-.92,1-3.61,5.46-11.25,21.24l-17.35,37s-9,20.4-10.64,24h28.33c.77-1.58,7.78-16.35,7.78-16.35H669s7.19,14.79,7.94,16.35h27.95l-10.82-24.11Z" transform="translate(0 0.04)"/><path class="cls-50" d="M317,190.48l19.23-40.39c.75-1.2,2.12-1.83,4.05-1.83,2.52,0,3.38,1.18,3.67,2l19.5,40.22H317m78.12,5.9c-7-15.56-12.8-28-17.15-37-7.93-16.55-10.51-20.29-11.4-21.11-2.33-2.38-5.9-4.25-10.62-5.51a63.33,63.33,0,0,0-31.6,0c-4.69,1.28-8.31,3.13-10.73,5.46-.89,1-3.57,5.46-11.23,21.24l-17.34,37s-9,20.4-10.64,24h28.34c.74-1.58,7.75-16.35,7.75-16.35h59.59s7.15,14.79,7.92,16.35h27.92Z" transform="translate(0 0.04)"/><g class="cls-51"><g class="cls-52"><rect class="cls-53" x="154.79" y="98.38" width="493.15" height="129.62" transform="translate(-18.19 55.07) rotate(-7.67)"/></g></g><g class="cls-54"><g class="cls-55"><rect class="cls-56" x="35.5" y="16.46" width="788.61" height="661.04"/></g></g><g class="cls-57"><g class="cls-58"><rect class="cls-59" x="43.8" y="16.16" width="772.23" height="386.13"/></g></g></svg>