<svg id="Layer_1" data-name="Layer 1" xmlns="http://www.w3.org/2000/svg" xmlns:xlink="http://www.w3.org/1999/xlink" viewBox="0 0 283.5 145.88"><defs><style>.cls-1{mask:url(#mask);}.cls-10,.cls-12,.cls-14,.cls-16,.cls-18,.cls-2,.cls-20,.cls-22,.cls-24,.cls-4,.cls-6,.cls-8{mix-blend-mode:multiply;}.cls-2{fill:url(#linear-gradient);}.cls-3{mask:url(#mask-2);}.cls-4{fill:url(#linear-gradient-2);}.cls-5{mask:url(#mask-3);}.cls-6{fill:url(#linear-gradient-3);}.cls-7{mask:url(#mask-4);}.cls-8{fill:url(#linear-gradient-4);}.cls-9{mask:url(#mask-5);}.cls-10{fill:url(#linear-gradient-5);}.cls-11{mask:url(#mask-6);}.cls-12{fill:url(#linear-gradient-6);}.cls-13{mask:url(#mask-7);}.cls-14{fill:url(#linear-gradient-7);}.cls-15{mask:url(#mask-8);}.cls-16{fill:url(#linear-gradient-8);}.cls-17{mask:url(#mask-9);}.cls-18{fill:url(#linear-gradient-9);}.cls-19{mask:url(#mask-10);}.cls-20{fill:url(#linear-gradient-10);}.cls-21{mask:url(#mask-11);}.cls-22{fill:url(#linear-gradient-11);}.cls-23{mask:url(#mask-12);}.cls-24{fill:url(#linear-gradient-12);}.cls-25{fill:none;}.cls-26{fill:url(#radial-gradient);}.cls-27{fill:url(#radial-gradient-2);}.cls-28{fill:url(#radial-gradient-3);}.cls-29{fill:url(#radial-gradient-4);}.cls-30{fill:url(#radial-gradient-5);}.cls-31{clip-path:url(#clip-path);}.cls-32{clip-path:url(#clip-path-2);}.cls-33{clip-path:url(#clip-path-3);}.cls-34{fill:#fff;}.cls-35{fill:url(#linear-gradient-13);}.cls-36{mask:url(#mask-13);}.cls-37{fill:url(#linear-gradient-14);}.cls-38{fill:url(#linear-gradient-15);}.cls-39{fill:url(#linear-gradient-16);}.cls-40{fill:url(#linear-gradient-17);}.cls-41{fill:url(#linear-gradient-18);}.cls-42{fill:url(#linear-gradient-19);}.cls-43{fill:url(#linear-gradient-20);}.cls-44{fill:url(#linear-gradient-21);}.cls-45{fill:url(#linear-gradient-22);}.cls-46{fill:url(#linear-gradient-23);}.cls-47{mask:url(#mask-14);}.cls-48{fill:url(#linear-gradient-24);}.cls-49{mask:url(#mask-15);}.cls-50{fill:url(#linear-gradient-25);}.cls-51{mask:url(#mask-16);}.cls-52{fill:url(#linear-gradient-26);}.cls-53{mask:url(#mask-17);}.cls-54{fill:url(#linear-gradient-27);}.cls-55{mask:url(#mask-18);}.cls-56{fill:url(#linear-gradient-28);}.cls-57{fill:url(#linear-gradient-29);}.cls-58{mask:url(#mask-19);}.cls-59{fill:url(#linear-gradient-30);}.cls-60{mask:url(#mask-20);}.cls-61{fill:url(#linear-gradient-31);}.cls-62{fill:url(#linear-gradient-32);}.cls-63{mask:url(#mask-21);}.cls-64{fill:url(#linear-gradient-33);}.cls-65{mask:url(#mask-22);}.cls-66{fill:url(#linear-gradient-34);}.cls-67{mask:url(#mask-23);}.cls-68{fill:url(#linear-gradient-35);}.cls-69{mask:url(#mask-24);}.cls-70{fill:url(#linear-gradient-36);}.cls-71{fill:url(#linear-gradient-37);}.cls-72{fill:url(#linear-gradient-38);}.cls-73{fill:url(#linear-gradient-39);}.cls-74{fill:url(#linear-gradient-40);}.cls-75{fill:url(#linear-gradient-41);}.cls-76{fill:url(#linear-gradient-42);}.cls-77{filter:url(#luminosity-noclip-24);}.cls-78{filter:url(#luminosity-noclip-23);}.cls-79{filter:url(#luminosity-noclip-22);}.cls-80{filter:url(#luminosity-noclip-21);}.cls-81{filter:url(#luminosity-noclip-20);}.cls-82{filter:url(#luminosity-noclip-19);}.cls-83{filter:url(#luminosity-noclip-18);}.cls-84{filter:url(#luminosity-noclip-17);}.cls-85{filter:url(#luminosity-noclip-16);}.cls-86{filter:url(#luminosity-noclip-15);}.cls-87{filter:url(#luminosity-noclip-14);}.cls-88{filter:url(#luminosity-noclip-13);}.cls-89{filter:url(#luminosity-noclip-12);}.cls-90{filter:url(#luminosity-noclip-11);}.cls-91{filter:url(#luminosity-noclip-10);}.cls-92{filter:url(#luminosity-noclip-9);}.cls-93{filter:url(#luminosity-noclip-8);}.cls-94{filter:url(#luminosity-noclip-7);}.cls-95{filter:url(#luminosity-noclip-6);}.cls-96{filter:url(#luminosity-noclip-5);}.cls-97{filter:url(#luminosity-noclip-4);}.cls-98{filter:url(#luminosity-noclip-3);}.cls-99{filter:url(#luminosity-noclip-2);}.cls-100{filter:url(#luminosity-noclip);}</style><filter id="luminosity-noclip" x="242.48" y="-8442" width="81.56" height="32766" filterUnits="userSpaceOnUse" color-interpolation-filters="sRGB"><feFlood flood-color="#fff" result="bg"/><feBlend in="SourceGraphic" in2="bg"/></filter><mask id="mask" x="242.48" y="-8442" width="81.56" height="32766" maskUnits="userSpaceOnUse"><g class="cls-100"/></mask><linearGradient id="linear-gradient" x1="278.12" y1="275.42" x2="290.98" y2="225.14" gradientUnits="userSpaceOnUse"><stop offset="0" stop-color="#fff"/><stop offset="0.63" stop-color="#fff"/><stop offset="0.73" stop-color="#aeaeae"/><stop offset="0.86" stop-color="#515151"/><stop offset="0.96" stop-color="#171717"/><stop offset="1"/></linearGradient><filter id="luminosity-noclip-2" x="236.25" y="-8442" width="49.12" height="32766" filterUnits="userSpaceOnUse" color-interpolation-filters="sRGB"><feFlood flood-color="#fff" result="bg"/><feBlend in="SourceGraphic" in2="bg"/></filter><mask id="mask-2" x="236.25" y="-8442" width="49.12" height="32766" maskUnits="userSpaceOnUse"><g class="cls-99"/></mask><linearGradient id="linear-gradient-2" x1="270.11" y1="253.2" x2="252.52" y2="277.29" gradientUnits="userSpaceOnUse"><stop offset="0"/><stop offset="0.51" stop-color="#fff"/><stop offset="0.57" stop-color="#fbfbfb"/><stop offset="0.64" stop-color="#efefef"/><stop offset="0.7" stop-color="#dadada"/><stop offset="0.76" stop-color="#bebebe"/><stop offset="0.82" stop-color="#999"/><stop offset="0.88" stop-color="#6b6b6b"/><stop offset="0.94" stop-color="#373737"/><stop offset="1"/></linearGradient><filter id="luminosity-noclip-3" x="145.45" y="-8442" width="20.75" height="32766" filterUnits="userSpaceOnUse" color-interpolation-filters="sRGB"><feFlood flood-color="#fff" result="bg"/><feBlend in="SourceGraphic" in2="bg"/></filter><mask id="mask-3" x="145.45" y="-8442" width="20.75" height="32766" maskUnits="userSpaceOnUse"><g class="cls-98"/></mask><linearGradient id="linear-gradient-3" x1="158.93" y1="247.33" x2="149.12" y2="254.56" gradientUnits="userSpaceOnUse"><stop offset="0"/><stop offset="0.1" stop-color="#4a4a4a"/><stop offset="0.19" stop-color="#8a8a8a"/><stop offset="0.28" stop-color="#bdbdbd"/><stop offset="0.35" stop-color="#e1e1e1"/><stop offset="0.42" stop-color="#f7f7f7"/><stop offset="0.45" stop-color="#fff"/><stop offset="0.63" stop-color="#fff"/><stop offset="0.64" stop-color="#fff"/><stop offset="0.69" stop-color="#fbfbfb"/><stop offset="0.74" stop-color="#f0f0f0"/><stop offset="0.78" stop-color="#dedede"/><stop offset="0.83" stop-color="#c4c4c4"/><stop offset="0.87" stop-color="#a2a2a2"/><stop offset="0.91" stop-color="#797979"/><stop offset="0.95" stop-color="#494949"/><stop offset="0.99" stop-color="#121212"/><stop offset="1"/></linearGradient><filter id="luminosity-noclip-4" x="197.65" y="-8442" width="28.52" height="32766" filterUnits="userSpaceOnUse" color-interpolation-filters="sRGB"><feFlood flood-color="#fff" result="bg"/><feBlend in="SourceGraphic" in2="bg"/></filter><mask id="mask-4" x="197.65" y="-8442" width="28.52" height="32766" maskUnits="userSpaceOnUse"><g class="cls-97"/></mask><linearGradient id="linear-gradient-4" x1="211.24" y1="149.9" x2="214.43" y2="156.17" gradientUnits="userSpaceOnUse"><stop offset="0" stop-color="#545454"/><stop offset="0.07" stop-color="#585858"/><stop offset="0.14" stop-color="#656565"/><stop offset="0.22" stop-color="#797979"/><stop offset="0.29" stop-color="#969696"/><stop offset="0.36" stop-color="#bbb"/><stop offset="0.44" stop-color="#e8e8e8"/><stop offset="0.47" stop-color="#fff"/><stop offset="0.57" stop-color="#fff"/><stop offset="0.61" stop-color="#dbdbdb"/><stop offset="0.72" stop-color="#7e7e7e"/><stop offset="0.81" stop-color="#3a3a3a"/><stop offset="0.88" stop-color="#101010"/><stop offset="0.91"/></linearGradient><filter id="luminosity-noclip-5" x="206.26" y="-8442" width="50.11" height="32766" filterUnits="userSpaceOnUse" color-interpolation-filters="sRGB"><feFlood flood-color="#fff" result="bg"/><feBlend in="SourceGraphic" in2="bg"/></filter><mask id="mask-5" x="206.26" y="-8442" width="50.11" height="32766" maskUnits="userSpaceOnUse"><g class="cls-96"/></mask><linearGradient id="linear-gradient-5" x1="215.84" y1="188.55" x2="241.8" y2="211.92" gradientUnits="userSpaceOnUse"><stop offset="0.07"/><stop offset="0.1" stop-color="#252525"/><stop offset="0.14" stop-color="#585858"/><stop offset="0.18" stop-color="#848484"/><stop offset="0.23" stop-color="#aaa"/><stop offset="0.27" stop-color="#c9c9c9"/><stop offset="0.32" stop-color="#e1e1e1"/><stop offset="0.37" stop-color="#f2f2f2"/><stop offset="0.43" stop-color="#fcfcfc"/><stop offset="0.5" stop-color="#fff"/><stop offset="0.57" stop-color="#fcfcfc"/><stop offset="0.63" stop-color="#f2f2f2"/><stop offset="0.68" stop-color="#e1e1e1"/><stop offset="0.73" stop-color="#c9c9c9"/><stop offset="0.78" stop-color="#aaa"/><stop offset="0.82" stop-color="#848484"/><stop offset="0.87" stop-color="#585858"/><stop offset="0.91" stop-color="#252525"/><stop offset="0.94"/></linearGradient><filter id="luminosity-noclip-6" x="236.83" y="-8442" width="60.35" height="32766" filterUnits="userSpaceOnUse" color-interpolation-filters="sRGB"><feFlood flood-color="#fff" result="bg"/><feBlend in="SourceGraphic" in2="bg"/></filter><mask id="mask-6" x="236.83" y="-8442" width="60.35" height="32766" maskUnits="userSpaceOnUse"><g class="cls-95"/></mask><linearGradient id="linear-gradient-6" x1="280.84" y1="238.48" x2="256.92" y2="207.87" gradientUnits="userSpaceOnUse"><stop offset="0"/><stop offset="0.12" stop-color="#fff"/><stop offset="0.44" stop-color="#fff"/><stop offset="0.71" stop-color="#fff"/><stop offset="1"/></linearGradient><filter id="luminosity-noclip-7" x="321.63" y="-8442" width="18.21" height="32766" filterUnits="userSpaceOnUse" color-interpolation-filters="sRGB"><feFlood flood-color="#fff" result="bg"/><feBlend in="SourceGraphic" in2="bg"/></filter><mask id="mask-7" x="321.63" y="-8442" width="18.21" height="32766" maskUnits="userSpaceOnUse"><g class="cls-94"/></mask><linearGradient id="linear-gradient-7" x1="330.59" y1="160.7" x2="331.07" y2="164.86" gradientUnits="userSpaceOnUse"><stop offset="0"/><stop offset="0.05" stop-color="#3b3b3b"/><stop offset="0.1" stop-color="#6f6f6f"/><stop offset="0.16" stop-color="#9b9b9b"/><stop offset="0.21" stop-color="#bfbfbf"/><stop offset="0.26" stop-color="#dbdbdb"/><stop offset="0.32" stop-color="#efefef"/><stop offset="0.37" stop-color="#fbfbfb"/><stop offset="0.42" stop-color="#fff"/><stop offset="0.58" stop-color="#fff"/><stop offset="0.61" stop-color="#f7f7f7"/><stop offset="0.67" stop-color="#e0e0e0"/><stop offset="0.74" stop-color="#bcbcbc"/><stop offset="0.82" stop-color="#888"/><stop offset="0.91" stop-color="#484848"/><stop offset="1"/></linearGradient><filter id="luminosity-noclip-8" x="276.56" y="-8442" width="19.75" height="32766" filterUnits="userSpaceOnUse" color-interpolation-filters="sRGB"><feFlood flood-color="#fff" result="bg"/><feBlend in="SourceGraphic" in2="bg"/></filter><mask id="mask-8" x="276.56" y="-8442" width="19.75" height="32766" maskUnits="userSpaceOnUse"><g class="cls-93"/></mask><linearGradient id="linear-gradient-8" x1="284.49" y1="215.84" x2="288.85" y2="221.83" gradientUnits="userSpaceOnUse"><stop offset="0"/><stop offset="0.07" stop-color="#0f0f0f"/><stop offset="0.16" stop-color="#1c1c1c"/><stop offset="0.27" stop-color="#242424"/><stop offset="0.52" stop-color="#262626"/><stop offset="0.73" stop-color="#242424"/><stop offset="0.84" stop-color="#1b1b1b"/><stop offset="0.94" stop-color="#0e0e0e"/><stop offset="1"/></linearGradient><filter id="luminosity-noclip-9" x="277.26" y="-8442" width="28.33" height="32766" filterUnits="userSpaceOnUse" color-interpolation-filters="sRGB"><feFlood flood-color="#fff" result="bg"/><feBlend in="SourceGraphic" in2="bg"/></filter><mask id="mask-9" x="277.26" y="-8442" width="28.33" height="32766" maskUnits="userSpaceOnUse"><g class="cls-92"/></mask><linearGradient id="linear-gradient-9" x1="289.74" y1="267.18" x2="292.34" y2="272.5" gradientUnits="userSpaceOnUse"><stop offset="0" stop-color="#333"/><stop offset="0.08" stop-color="#6f6f6f"/><stop offset="0.16" stop-color="#a2a2a2"/><stop offset="0.23" stop-color="#cacaca"/><stop offset="0.29" stop-color="#e7e7e7"/><stop offset="0.35" stop-color="#f9f9f9"/><stop offset="0.39" stop-color="#fff"/><stop offset="0.44" stop-color="#fbfbfb"/><stop offset="0.49" stop-color="#efefef"/><stop offset="0.53" stop-color="#dbdbdb"/><stop offset="0.58" stop-color="#bfbfbf"/><stop offset="0.62" stop-color="#9b9b9b"/><stop offset="0.67" stop-color="#6e6e6e"/><stop offset="0.72" stop-color="#3b3b3b"/><stop offset="0.76"/></linearGradient><filter id="luminosity-noclip-10" x="163.59" y="-8442" width="18.79" height="32766" filterUnits="userSpaceOnUse" color-interpolation-filters="sRGB"><feFlood flood-color="#fff" result="bg"/><feBlend in="SourceGraphic" in2="bg"/></filter><mask id="mask-10" x="163.59" y="-8442" width="18.79" height="32766" maskUnits="userSpaceOnUse"><g class="cls-91"/></mask><linearGradient id="linear-gradient-10" x1="172.5" y1="255.94" x2="173.4" y2="263.99" gradientUnits="userSpaceOnUse"><stop offset="0"/><stop offset="0.06"/><stop offset="0.15" stop-color="#565656"/><stop offset="0.24" stop-color="#9f9f9f"/><stop offset="0.31" stop-color="#d3d3d3"/><stop offset="0.37" stop-color="#f3f3f3"/><stop offset="0.4" stop-color="#fff"/><stop offset="0.5" stop-color="#fff"/><stop offset="0.53" stop-color="#eee"/><stop offset="0.58" stop-color="#c3c3c3"/><stop offset="0.66" stop-color="#7d7d7d"/><stop offset="0.76" stop-color="#1e1e1e"/><stop offset="0.79"/><stop offset="1"/></linearGradient><filter id="luminosity-noclip-11" x="338.99" y="-8442" width="17.63" height="32766" filterUnits="userSpaceOnUse" color-interpolation-filters="sRGB"><feFlood flood-color="#fff" result="bg"/><feBlend in="SourceGraphic" in2="bg"/></filter><mask id="mask-11" x="338.99" y="-8442" width="17.63" height="32766" maskUnits="userSpaceOnUse"><g class="cls-90"/></mask><linearGradient id="linear-gradient-11" x1="345.37" y1="171.89" x2="350.98" y2="168.38" gradientUnits="userSpaceOnUse"><stop offset="0"/><stop offset="0.04" stop-color="#1e1e1e"/><stop offset="0.18" stop-color="#7d7d7d"/><stop offset="0.29" stop-color="#c3c3c3"/><stop offset="0.38" stop-color="#eee"/><stop offset="0.42" stop-color="#fff"/><stop offset="0.52" stop-color="#fff"/><stop offset="0.57" stop-color="#fafafa"/><stop offset="0.63" stop-color="#ebebeb"/><stop offset="0.69" stop-color="#d2d2d2"/><stop offset="0.76" stop-color="#b0b0b0"/><stop offset="0.83" stop-color="#848484"/><stop offset="0.91" stop-color="#4e4e4e"/><stop offset="0.98" stop-color="#0f0f0f"/><stop offset="1"/></linearGradient><filter id="luminosity-noclip-12" x="224.46" y="-8442" width="22.61" height="32766" filterUnits="userSpaceOnUse" color-interpolation-filters="sRGB"><feFlood flood-color="#fff" result="bg"/><feBlend in="SourceGraphic" in2="bg"/></filter><mask id="mask-12" x="224.46" y="-8442" width="22.61" height="32766" maskUnits="userSpaceOnUse"><g class="cls-89"/></mask><linearGradient id="linear-gradient-12" x1="239.88" y1="147.17" x2="231.29" y2="156.36" gradientUnits="userSpaceOnUse"><stop offset="0"/><stop offset="0.03" stop-color="#1e1e1e"/><stop offset="0.11" stop-color="#616161"/><stop offset="0.19" stop-color="#999"/><stop offset="0.25" stop-color="#c5c5c5"/><stop offset="0.32" stop-color="#e5e5e5"/><stop offset="0.37" stop-color="#f8f8f8"/><stop offset="0.4" stop-color="#fff"/><stop offset="0.46" stop-color="#f1f1f1"/><stop offset="0.56" stop-color="#ccc"/><stop offset="0.7" stop-color="#909090"/><stop offset="0.88" stop-color="#3f3f3f"/><stop offset="1"/></linearGradient><radialGradient id="radial-gradient" cx="285.3" cy="186.84" r="136.97" gradientTransform="translate(-18.63 -17.53) scale(0.98)" gradientUnits="userSpaceOnUse"><stop offset="0" stop-color="#8b9394"/><stop offset="1" stop-color="#727a79"/></radialGradient><radialGradient id="radial-gradient-2" cx="283.99" cy="158.01" r="169.93" gradientTransform="translate(-25.29 -15.67) scale(0.98 0.98)" gradientUnits="userSpaceOnUse"><stop offset="0" stop-color="#969d9d"/><stop offset="0.61" stop-color="#7a8182"/><stop offset="1" stop-color="#4b5050"/></radialGradient><radialGradient id="radial-gradient-3" cx="222.96" cy="181.02" r="140.45" gradientTransform="translate(-18.63 -17.53) scale(0.98)" gradientUnits="userSpaceOnUse"><stop offset="0" stop-color="#969d9d"/><stop offset="0.46" stop-color="#828b8a"/><stop offset="1" stop-color="#c2c9c8"/></radialGradient><radialGradient id="radial-gradient-4" cx="283.55" cy="248.02" r="78.14" gradientTransform="translate(-18.63 -17.53) scale(0.98)" gradientUnits="userSpaceOnUse"><stop offset="0" stop-color="#969d9d"/><stop offset="0.61" stop-color="#828b8a"/><stop offset="1" stop-color="#727a79"/></radialGradient><radialGradient id="radial-gradient-5" cx="380.27" cy="213.07" r="112.45" xlink:href="#radial-gradient-4"/><clipPath id="clip-path" transform="translate(-109.87 -137.99)"><path class="cls-25" d="M251.62,282.68c77.64,0,140.57-32.12,140.57-71.75s-62.93-71.75-140.57-71.75-140.56,32.13-140.56,71.75S174,282.68,251.62,282.68Zm26.45-35.16c-2.3,5.39-6.36,17-15.61,21.57A23.51,23.51,0,0,1,253,271.2a9.75,9.75,0,0,1-1.37,0c-25.44,0-49.2-3.42-69.17-9.33-1.47-.44-4.72-1.22-4.72-3.21a3.15,3.15,0,0,1,1.15-2.26c.3-.29.73-.63,1.26-1.11,4.65-3.92,18.76-14.07,45.2-24.13,9.3-3.54,20.9-8,33.06-10.52C265.63,219.13,292.08,215.12,278.07,247.52Zm71.05-72.32a2.72,2.72,0,0,1,2.34-1.7,4.43,4.43,0,0,1,2.9.94c16.52,10.15,26.31,22.75,26.31,36.46,0,24.77-31.89,46-77.53,55.33-2.95.57-4.87.57-5.53-.18a1.8,1.8,0,0,1,0-2.24,9.51,9.51,0,0,1,1.19-1.66c24.86-29.22,43.82-72.28,49.15-84.76A23.26,23.26,0,0,1,349.12,175.2Zm-123.5-1c2.31-5.37,6.35-17,15.62-21.58a23.78,23.78,0,0,1,9.37-2.13h1.44c25.49,0,49.22,3.46,69.24,9.44,1.46.44,4.65,1,4.65,3.09a3.14,3.14,0,0,1-1.18,2.28,8.39,8.39,0,0,1-1.28,1.12c-4.65,3.92-18.71,14.05-45.15,24.11-9.3,3.62-21,8-33.08,10.55C238.07,202.62,211.63,206.62,225.62,174.23Zm-25.42-18.6c3-.6,5.21-.6,5.87.18a1.74,1.74,0,0,1,0,2.21,15.26,15.26,0,0,1-1.2,1.68C180,188.9,161.1,232,155.73,244.41c-.42.87-.83,1.75-1.13,2.29a3,3,0,0,1-2.39,1.66,5.62,5.62,0,0,1-2.9-1c-16.47-10.13-26.68-22.78-26.68-36.47C122.63,186.19,154.59,164.88,200.2,155.63Z"/></clipPath><clipPath id="clip-path-2" transform="translate(-109.87 -137.99)"><path class="cls-25" d="M251.62,281.25c-76.71,0-139.12-31.55-139.12-70.32s62.41-70.31,139.12-70.31,139.13,31.54,139.13,70.31S328.34,281.25,251.62,281.25Zm15.74-63.05a46.19,46.19,0,0,0-9.2,1c-12.17,2.57-23.74,7-33,10.49l-.25.1c-28.29,10.76-42.07,21.37-45.61,24.38l-.64.54c-.28.25-.52.45-.72.65a4.57,4.57,0,0,0-1.56,3.27c0,2.93,3.52,3.94,5.41,4.49l.33.1c20.76,6.14,44.83,9.39,69.58,9.39l.76,0,.74,0a24.8,24.8,0,0,0,9.92-2.25c8.93-4.45,13.14-14.66,15.65-20.76l.64-1.54c4.7-10.86,5.4-18.94,2.07-24C278.89,220.18,274.14,218.2,267.36,218.2Zm84.42-46.15a2.78,2.78,0,0,0-.51,0,4,4,0,0,0-3.43,2.44,22.55,22.55,0,0,0-1.19,2.25c-8.65,20.23-26.48,58-48.94,84.45a10.11,10.11,0,0,0-1.37,1.91,3.17,3.17,0,0,0,.2,3.87,4,4,0,0,0,3.17,1.06,20.17,20.17,0,0,0,3.7-.43c47.81-9.75,78.7-32,78.7-56.74,0-13.8-9.34-26.83-27-37.68A6.35,6.35,0,0,0,351.78,172.05Zm-148-18.28a19.59,19.59,0,0,0-3.87.46c-47.82,9.69-78.71,32-78.71,56.7,0,13.66,9.46,26.68,27.36,37.69a7.15,7.15,0,0,0,3.65,1.17,4.39,4.39,0,0,0,3.59-2.32c.3-.53.63-1.21,1-1.93l.24-.5c15.47-35.8,32.38-65,48.94-84.41a15.3,15.3,0,0,0,1.34-1.87,3.09,3.09,0,0,0-.2-3.94C206.52,154.13,205.42,153.77,203.78,153.77Zm46.78-4.69a25.05,25.05,0,0,0-10,2.29c-8.85,4.4-13.07,14.53-15.58,20.58l-.72,1.71c-4.69,10.86-5.39,18.94-2.06,24,2.57,3.91,7.31,5.89,14.1,5.89a45.51,45.51,0,0,0,9.2-1c11.6-2.45,22.87-6.55,33.31-10.61,28.15-10.72,42-21.34,45.56-24.35a10.52,10.52,0,0,0,1.42-1.26,4.45,4.45,0,0,0,1.54-3.24c0-2.92-3.33-3.82-5.12-4.3l-.55-.16c-20.81-6.22-44.9-9.51-69.65-9.51h-1.49Z"/></clipPath><clipPath id="clip-path-3" transform="translate(-109.87 -137.99)"><path class="cls-25" d="M251.62,281.16c-76.61,0-138.95-31.51-138.95-70.23s62.34-70.23,139-70.23,139,31.51,139,70.23S328.25,281.16,251.62,281.16Zm15.71-63a46,46,0,0,0-9.18,1c-12.15,2.56-23.71,6.95-33,10.48l-.24.09c-28.25,10.75-42,21.35-45.56,24.35l-.63.55c-.29.24-.53.45-.72.64a4.54,4.54,0,0,0-1.57,3.28c0,2.91,3.52,3.93,5.41,4.47l.33.1c20.74,6.13,44.76,9.38,69.49,9.38l.76,0a6.36,6.36,0,0,0,.73,0,24.67,24.67,0,0,0,9.91-2.24c8.92-4.45,13.13-14.64,15.64-20.74l.64-1.54c4.69-10.85,5.39-18.91,2.07-24C278.86,220.17,274.11,218.19,267.33,218.19Zm84.33-46.09a4.12,4.12,0,0,0-.51,0,4,4,0,0,0-3.43,2.45,21.51,21.51,0,0,0-1.19,2.25c-8.64,20.2-26.44,57.95-48.88,84.34a10.58,10.58,0,0,0-1.37,1.91,3.18,3.18,0,0,0,.21,3.86,4,4,0,0,0,3.16,1.06,20.17,20.17,0,0,0,3.7-.43c47.75-9.75,78.59-32,78.59-56.67,0-13.78-9.32-26.8-27-37.64A6.38,6.38,0,0,0,351.66,172.1ZM203.85,153.84a19.59,19.59,0,0,0-3.88.46c-47.75,9.68-78.61,31.91-78.61,56.63,0,13.64,9.45,26.65,27.33,37.64a7.24,7.24,0,0,0,3.64,1.18,4.48,4.48,0,0,0,3.6-2.32c.3-.53.62-1.21,1-1.93l.24-.5c15.45-35.76,32.34-64.89,48.88-84.31a16.17,16.17,0,0,0,1.33-1.87,3.08,3.08,0,0,0-.19-3.93C206.58,154.2,205.48,153.84,203.85,153.84Zm46.71-4.68a25,25,0,0,0-9.94,2.28c-8.85,4.4-13.06,14.52-15.57,20.56l-.72,1.71c-4.68,10.85-5.37,18.91-2.05,24,2.56,3.9,7.3,5.87,14.08,5.87a45.29,45.29,0,0,0,9.19-1c11.58-2.45,22.84-6.54,33.27-10.6,28.11-10.7,41.93-21.32,45.49-24.31a9.48,9.48,0,0,0,1.43-1.27,4.46,4.46,0,0,0,1.54-3.23c0-2.91-3.33-3.82-5.12-4.3l-.55-.16c-20.78-6.21-44.84-9.5-69.56-9.5h-1.49Z"/></clipPath><linearGradient id="linear-gradient-13" x1="248.17" y1="145.15" x2="255.12" y2="277.69" gradientUnits="userSpaceOnUse"><stop offset="0" stop-color="#fff"/><stop offset="0.4" stop-color="#fff"/><stop offset="0.57" stop-color="#a4aaaa"/><stop offset="0.63" stop-color="#8f9697"/><stop offset="0.66" stop-color="#878f90"/><stop offset="0.75" stop-color="#969d9d"/><stop offset="0.81" stop-color="#fff"/></linearGradient><filter id="luminosity-noclip-13" x="242.48" y="212.61" width="81.56" height="67.66" filterUnits="userSpaceOnUse" color-interpolation-filters="sRGB"><feFlood flood-color="#fff" result="bg"/><feBlend in="SourceGraphic" in2="bg"/></filter><mask id="mask-13" x="132.61" y="74.62" width="81.56" height="67.66" maskUnits="userSpaceOnUse"><g class="cls-88"><g transform="translate(-109.87 -137.99)"><g class="cls-1"><path class="cls-2" d="M293.05,262.39c12.28-14.94,26.35-40.94,31-49.78l-36.21,12.18c.19,10-1.9,32-21.79,47.28,0,0-7.09,2.36-20.19,2.42l-3.37,5.31c8.81.73,33.69,1.66,69.28-6.13v0l3.2-7.34C305.12,270.19,281,277.06,293.05,262.39Z"/></g></g></g></mask><linearGradient id="linear-gradient-14" x1="278.12" y1="275.42" x2="290.98" y2="225.14" gradientUnits="userSpaceOnUse"><stop offset="0" stop-color="#fff"/><stop offset="0.63" stop-color="#fff"/><stop offset="0.68" stop-color="#f1f2f2"/><stop offset="0.9" stop-color="#b7bdbe"/><stop offset="1" stop-color="#a0a8aa"/></linearGradient><linearGradient id="linear-gradient-15" x1="238.16" y1="206.13" x2="212.28" y2="160.02" gradientUnits="userSpaceOnUse"><stop offset="0" stop-color="#e5eeed"/><stop offset="0.28" stop-color="#cfd7d7"/><stop offset="0.55" stop-color="#b6bcbd"/><stop offset="1" stop-color="#a0a8aa"/></linearGradient><linearGradient id="linear-gradient-16" x1="260.74" y1="163.07" x2="282.58" y2="194.39" xlink:href="#linear-gradient-15"/><linearGradient id="linear-gradient-17" x1="171.11" y1="236.47" x2="171.11" y2="165.04" gradientUnits="userSpaceOnUse"><stop offset="0" stop-color="#fff"/><stop offset="0.06" stop-color="#f6f7f7"/><stop offset="0.16" stop-color="#dfe1e1"/><stop offset="0.29" stop-color="#b9bcbc"/><stop offset="0.43" stop-color="#858a8a"/><stop offset="0.53" stop-color="#5f6666"/><stop offset="0.77" stop-color="#4b5050"/><stop offset="1" stop-color="#404444"/></linearGradient><linearGradient id="linear-gradient-18" x1="291.96" y1="251.64" x2="213.03" y2="231.45" gradientUnits="userSpaceOnUse"><stop offset="0" stop-color="#8b9394"/><stop offset="0.18" stop-color="#7a8182"/><stop offset="0.34" stop-color="#646a6b"/><stop offset="0.57" stop-color="#404444"/><stop offset="1" stop-color="#333737"/></linearGradient><linearGradient id="linear-gradient-19" x1="163.7" y1="268.26" x2="272.77" y2="268.26" gradientUnits="userSpaceOnUse"><stop offset="0" stop-color="#fff"/><stop offset="0.93" stop-color="#fff"/><stop offset="1" stop-color="#fff"/></linearGradient><linearGradient id="linear-gradient-20" x1="345.62" y1="175.98" x2="289.12" y2="263.4" gradientUnits="userSpaceOnUse"><stop offset="0" stop-color="#abb3b3"/><stop offset="0.38" stop-color="#727a79"/><stop offset="0.42" stop-color="#575d5c"/><stop offset="0.45" stop-color="#464a4a"/><stop offset="0.47" stop-color="#404444"/><stop offset="1" stop-color="#333737"/></linearGradient><linearGradient id="linear-gradient-21" x1="326.55" y1="158.63" x2="241.32" y2="147.15" gradientUnits="userSpaceOnUse"><stop offset="0" stop-color="#4b5050"/><stop offset="0.11" stop-color="#434747"/><stop offset="0.39" stop-color="#323534"/><stop offset="0.68" stop-color="#282a2a"/><stop offset="1" stop-color="#252726"/></linearGradient><linearGradient id="linear-gradient-22" x1="353.22" y1="161.88" x2="380.23" y2="206.76" gradientUnits="userSpaceOnUse"><stop offset="0" stop-color="#252726"/><stop offset="0.07" stop-color="#2b2e2d"/><stop offset="0.33" stop-color="#404444"/><stop offset="0.43" stop-color="#4a4f4f"/><stop offset="0.69" stop-color="#5f6666"/><stop offset="0.74" stop-color="#666d6d"/><stop offset="0.82" stop-color="#798181"/><stop offset="0.87" stop-color="#8b9394"/><stop offset="1" stop-color="#a0a8aa"/></linearGradient><linearGradient id="linear-gradient-23" x1="299.89" y1="275.07" x2="384.2" y2="222.4" gradientUnits="userSpaceOnUse"><stop offset="0" stop-color="#fff"/><stop offset="0.77" stop-color="#fff"/><stop offset="0.83" stop-color="#e8ebeb"/><stop offset="0.9" stop-color="#ccd4d3"/><stop offset="0.96" stop-color="#afb7b8"/><stop offset="1" stop-color="#a0a8aa"/></linearGradient><filter id="luminosity-noclip-14" x="321.63" y="155.9" width="18.21" height="13.7" filterUnits="userSpaceOnUse" color-interpolation-filters="sRGB"><feFlood flood-color="#fff" result="bg"/><feBlend in="SourceGraphic" in2="bg"/></filter><mask id="mask-14" x="211.76" y="17.92" width="18.21" height="13.7" maskUnits="userSpaceOnUse"><g class="cls-87"><g transform="translate(-109.87 -137.99)"><g class="cls-13"><path class="cls-14" d="M339.82,161.47c-.16-.74-1-1.31-2.07-1.8-3.27-1.34-6.66-2.6-10.13-3.77l-6,4.18.69.19a3.08,3.08,0,0,1,.76.25c1.82.6,2.74,1.41,2.84,2.41,0,0,0,.08,0,.12a3.17,3.17,0,0,1-1.18,2.29,9.73,9.73,0,0,1-1.28,1.11c-.36.3-.78.65-1.25,1l11.89,2.13a24.63,24.63,0,0,0,5.6-7.29A1.41,1.41,0,0,0,339.82,161.47Z"/></g></g></g></mask><linearGradient id="linear-gradient-24" x1="330.59" y1="160.7" x2="331.07" y2="164.86" gradientUnits="userSpaceOnUse"><stop offset="0" stop-color="#4b5050"/><stop offset="0.08" stop-color="#6d7373"/><stop offset="0.17" stop-color="#888f8f"/><stop offset="0.25" stop-color="#9ca3a3"/><stop offset="0.34" stop-color="#a7afaf"/><stop offset="0.42" stop-color="#abb3b3"/><stop offset="0.58" stop-color="#abb3b3"/><stop offset="0.92" stop-color="#a3abac"/><stop offset="1" stop-color="#a0a8aa"/></linearGradient><filter id="luminosity-noclip-15" x="163.59" y="251.38" width="18.79" height="14.31" filterUnits="userSpaceOnUse" color-interpolation-filters="sRGB"><feFlood flood-color="#fff" result="bg"/><feBlend in="SourceGraphic" in2="bg"/></filter><mask id="mask-15" x="53.72" y="113.39" width="18.79" height="14.31" maskUnits="userSpaceOnUse"><g class="cls-86"><g transform="translate(-109.87 -137.99)"><g class="cls-19"><path class="cls-20" d="M181.35,261.52c-1.21-.46-3.21-1-3.53-2.5a2,2,0,0,1,0-.36,3.15,3.15,0,0,1,1.15-2.26c.3-.29.72-.63,1.26-1.11s.92-.76,1.49-1.2l-11.46-2.71c-3.14,2.87-5.41,5.63-6.51,8.16a1.36,1.36,0,0,0,0,1.1,3.87,3.87,0,0,0,2,1.54q4.56,1.86,9.38,3.52l7.32-3.87Z"/></g></g></g></mask><linearGradient id="linear-gradient-25" x1="172.5" y1="255.94" x2="173.4" y2="263.99" gradientUnits="userSpaceOnUse"><stop offset="0" stop-color="#333737"/><stop offset="0.02" stop-color="#494e4e"/><stop offset="0.04" stop-color="#676e6d"/><stop offset="0.06" stop-color="#727a79"/><stop offset="0.22" stop-color="#808888"/><stop offset="0.4" stop-color="#8b9394"/><stop offset="0.48" stop-color="#9ba3a4"/><stop offset="0.5" stop-color="#a0a8aa"/><stop offset="0.79" stop-color="#abb3b3"/><stop offset="0.85" stop-color="#c2c8c8"/><stop offset="1" stop-color="#fdfefe"/><stop offset="1" stop-color="#fff"/></linearGradient><filter id="luminosity-noclip-16" x="338.99" y="162.78" width="17.63" height="15.81" filterUnits="userSpaceOnUse" color-interpolation-filters="sRGB"><feFlood flood-color="#fff" result="bg"/><feBlend in="SourceGraphic" in2="bg"/></filter><mask id="mask-16" x="229.12" y="24.79" width="17.63" height="15.81" maskUnits="userSpaceOnUse"><g class="cls-85"><g transform="translate(-109.87 -137.99)"><g class="cls-21"><path class="cls-22" d="M348.78,164.68c-1.08-.55-2.2-1.1-3.33-1.63a2.36,2.36,0,0,0-1.91-.13,1.66,1.66,0,0,0-.92.88c-1.21,2.57-2.41,5.11-3.63,7.64l8.45,7.15q.29-.63.51-1.2a23.26,23.26,0,0,1,1.17-2.19,2.66,2.66,0,0,1,2.34-1.7,4.43,4.43,0,0,1,2.9.94l1.58,1,.68-6.42Q352.9,166.79,348.78,164.68Z"/></g></g></g></mask><linearGradient id="linear-gradient-26" x1="345.37" y1="171.89" x2="350.98" y2="168.38" gradientUnits="userSpaceOnUse"><stop offset="0" stop-color="#abb3b3"/><stop offset="0.42" stop-color="#a0a8aa"/><stop offset="0.52" stop-color="#a0a8aa"/><stop offset="0.59" stop-color="#9ba3a5"/><stop offset="0.68" stop-color="#8d9496"/><stop offset="0.77" stop-color="#777d7d"/><stop offset="0.88" stop-color="#575b5b"/><stop offset="0.98" stop-color="#2e3030"/><stop offset="1" stop-color="#252726"/></linearGradient><filter id="luminosity-noclip-17" x="224.46" y="144.38" width="22.61" height="15.5" filterUnits="userSpaceOnUse" color-interpolation-filters="sRGB"><feFlood flood-color="#fff" result="bg"/><feBlend in="SourceGraphic" in2="bg"/></filter><mask id="mask-17" x="114.59" y="6.39" width="22.61" height="15.5" maskUnits="userSpaceOnUse"><g class="cls-84"><g transform="translate(-109.87 -137.99)"><g class="cls-23"><path class="cls-24" d="M236.75,144.75a14.8,14.8,0,0,0-6.07,1.3,4.51,4.51,0,0,0-1.45,1.13c-1.68,2.15-3.26,4.4-4.77,6.71l8.54,6a24.65,24.65,0,0,1,6.59-6.32c.54-.32,1.09-.64,1.65-.92a21.33,21.33,0,0,1,5.84-1.79v-6.48C243.61,144.44,240.16,144.56,236.75,144.75Z"/></g></g></g></mask><linearGradient id="linear-gradient-27" x1="239.88" y1="147.17" x2="231.29" y2="156.36" gradientUnits="userSpaceOnUse"><stop offset="0" stop-color="#252726"/><stop offset="0.02" stop-color="#2d302f"/><stop offset="0.14" stop-color="#565b5b"/><stop offset="0.25" stop-color="#73797a"/><stop offset="0.34" stop-color="#858c8d"/><stop offset="0.4" stop-color="#8b9394"/><stop offset="0.81" stop-color="#98a0a2"/><stop offset="1" stop-color="#a0a8aa"/></linearGradient><filter id="luminosity-noclip-18" x="236.25" y="251.78" width="49.12" height="25.72" filterUnits="userSpaceOnUse" color-interpolation-filters="sRGB"><feFlood flood-color="#fff" result="bg"/><feBlend in="SourceGraphic" in2="bg"/></filter><mask id="mask-18" x="126.38" y="113.79" width="49.12" height="25.72" maskUnits="userSpaceOnUse"><g class="cls-83"><g transform="translate(-109.87 -137.99)"><g class="cls-3"><path class="cls-4" d="M262.83,268.89c-.13.06-.25.13-.37.2A23.47,23.47,0,0,1,253,271.2a9.78,9.78,0,0,1-1.37,0c-4.82,0-9.56-.17-14.24-.4l-1.18,6.26q7.65.44,15.47.44,7.56,0,15-.4a15,15,0,0,0,6.08-1.31,4.81,4.81,0,0,0,1.43-1.12,124.77,124.77,0,0,0,10.36-16.05c.27-.49.53-1,.81-1.51l-9.09-5.33C273.79,257.51,269.83,265.2,262.83,268.89Z"/></g></g></g></mask><linearGradient id="linear-gradient-28" x1="270.11" y1="253.2" x2="252.52" y2="277.29" gradientUnits="userSpaceOnUse"><stop offset="0" stop-color="#828b8a"/><stop offset="0.51" stop-color="#f4fafc"/><stop offset="0.81" stop-color="#f8fcfd"/><stop offset="1" stop-color="#fff"/></linearGradient><linearGradient id="linear-gradient-29" x1="167.58" y1="249.49" x2="201.04" y2="170.49" gradientUnits="userSpaceOnUse"><stop offset="0" stop-color="#697070"/><stop offset="0.53" stop-color="#828b8a"/><stop offset="1" stop-color="#b2bcbc"/></linearGradient><filter id="luminosity-noclip-19" x="145.45" y="240.9" width="20.75" height="18.17" filterUnits="userSpaceOnUse" color-interpolation-filters="sRGB"><feFlood flood-color="#fff" result="bg"/><feBlend in="SourceGraphic" in2="bg"/></filter><mask id="mask-19" x="35.58" y="102.91" width="20.75" height="18.17" maskUnits="userSpaceOnUse"><g class="cls-82"><g transform="translate(-109.87 -137.99)"><g class="cls-5"><path class="cls-6" d="M157.26,240.9l-1.53,3.51c-.42.88-.83,1.75-1.13,2.29a3.49,3.49,0,0,1-1.47,1.43,2.7,2.7,0,0,1-.91.23,5.77,5.77,0,0,1-2.91-1c-1.33-.82-2.61-1.65-3.86-2.51l.57,7.46q4,2.49,8.63,4.82c1.09.55,2.21,1.1,3.32,1.62a2.39,2.39,0,0,0,1.92.13,1.56,1.56,0,0,0,.93-.88q2.69-5.7,5.39-11.29Z"/></g></g></g></mask><linearGradient id="linear-gradient-30" x1="158.93" y1="247.33" x2="149.12" y2="254.56" gradientUnits="userSpaceOnUse"><stop offset="0" stop-color="#697070"/><stop offset="0.08" stop-color="#8b9191"/><stop offset="0.2" stop-color="#bdc0c0"/><stop offset="0.31" stop-color="#e1e2e2"/><stop offset="0.4" stop-color="#f7f7f7"/><stop offset="0.45" stop-color="#fff"/><stop offset="0.63" stop-color="#fff"/><stop offset="0.64" stop-color="#fff"/><stop offset="0.98" stop-color="#fff"/><stop offset="1" stop-color="#fff"/></linearGradient><filter id="luminosity-noclip-20" x="197.65" y="145.66" width="28.52" height="14.57" filterUnits="userSpaceOnUse" color-interpolation-filters="sRGB"><feFlood flood-color="#fff" result="bg"/><feBlend in="SourceGraphic" in2="bg"/></filter><mask id="mask-20" x="87.78" y="7.67" width="28.52" height="14.57" maskUnits="userSpaceOnUse"><g class="cls-81"><g transform="translate(-109.87 -137.99)"><g class="cls-7"><path class="cls-8" d="M226.12,146.18c-.13-.35-.59-.54-1.29-.52q-11.43,1.14-22.25,3.24l-4.93,7.26c.85-.17,1.69-.36,2.55-.52,3-.61,5.21-.61,5.87.17a1.56,1.56,0,0,1,.23.34,1.86,1.86,0,0,1-.23,1.87,15.37,15.37,0,0,1-1.19,1.68l-.44.52h12.43c3.07-4.3,6.15-8.61,9-13A1.07,1.07,0,0,0,226.12,146.18Z"/></g></g></g></mask><linearGradient id="linear-gradient-31" x1="211.24" y1="149.9" x2="214.43" y2="156.17" gradientUnits="userSpaceOnUse"><stop offset="0" stop-color="#404444"/><stop offset="0.16" stop-color="#444848"/><stop offset="0.33" stop-color="#4f5454"/><stop offset="0.47" stop-color="#5f6666"/><stop offset="0.52" stop-color="#737b7a"/><stop offset="0.57" stop-color="#828b8a"/><stop offset="0.78" stop-color="#a3acac"/><stop offset="0.91" stop-color="#b2bcbc"/></linearGradient><linearGradient id="linear-gradient-32" x1="246.81" y1="144.66" x2="256.9" y2="283.38" gradientUnits="userSpaceOnUse"><stop offset="0" stop-color="#fff"/><stop offset="0.08" stop-color="#f8fafa"/><stop offset="0.18" stop-color="#e6eced"/><stop offset="0.26" stop-color="#d3dee0"/><stop offset="0.29" stop-color="#c9d4d6"/><stop offset="0.35" stop-color="#afb9ba"/><stop offset="0.42" stop-color="#858d8e"/><stop offset="0.5" stop-color="#4b5050"/><stop offset="0.69" stop-color="#3e4344"/><stop offset="0.73" stop-color="#2f3435"/><stop offset="0.82" stop-color="#0d1112"/><stop offset="1" stop-color="#0d1112"/></linearGradient><filter id="luminosity-noclip-21" x="206.26" y="186.26" width="50.11" height="27.99" filterUnits="userSpaceOnUse" color-interpolation-filters="sRGB"><feFlood flood-color="#fff" result="bg"/><feBlend in="SourceGraphic" in2="bg"/></filter><mask id="mask-21" x="96.39" y="48.27" width="50.11" height="27.99" maskUnits="userSpaceOnUse"><g class="cls-80"><g transform="translate(-109.87 -137.99)"><g class="cls-9"><path class="cls-10" d="M247.78,200.55l-2.53.56c-3.85.81-13.23,2.33-18.95-1.41-3.39-2.22-5.49-6.29-4.41-13.44l-14.58,5.26a41.69,41.69,0,0,0-.91,5.38c-.7,7.08,1,13.66,8.72,16,.52.15,1.12.34,1.81.5,4.52,1.1,13.15,2,32.56-3.26,2-.54,4.16-1.15,6.42-1.84l.46-10C253.56,199.1,250.69,199.87,247.78,200.55Z"/></g></g></g></mask><linearGradient id="linear-gradient-33" x1="215.84" y1="188.55" x2="241.8" y2="211.92" gradientUnits="userSpaceOnUse"><stop offset="0.07" stop-color="#b6bcbd"/><stop offset="0.12" stop-color="#c9cece"/><stop offset="0.2" stop-color="#e1e3e4"/><stop offset="0.29" stop-color="#f2f3f3"/><stop offset="0.38" stop-color="#fcfcfc"/><stop offset="0.5" stop-color="#fff"/><stop offset="0.61" stop-color="#fcfcfc"/><stop offset="0.7" stop-color="#f2f3f3"/><stop offset="0.79" stop-color="#e1e4e4"/><stop offset="0.86" stop-color="#c9cece"/><stop offset="0.94" stop-color="#abb3b3"/></linearGradient><filter id="luminosity-noclip-22" x="236.83" y="207.6" width="60.35" height="34.69" filterUnits="userSpaceOnUse" color-interpolation-filters="sRGB"><feFlood flood-color="#fff" result="bg"/><feBlend in="SourceGraphic" in2="bg"/></filter><mask id="mask-22" x="126.96" y="69.61" width="60.35" height="34.69" maskUnits="userSpaceOnUse"><g class="cls-79"><g transform="translate(-109.87 -137.99)"><g class="cls-11"><path class="cls-12" d="M297,225c.69-7.09-1-13.68-8.72-16-4.79-1.45-15.74-4.26-51.49,8.07l1.08,9.54a167.81,167.81,0,0,1,20.55-5.91c6.76-1.42,30.63-5,21.62,21.65l13.2-2.67A62,62,0,0,0,297,225Z"/></g></g></g></mask><linearGradient id="linear-gradient-34" x1="280.84" y1="238.48" x2="256.92" y2="207.87" gradientUnits="userSpaceOnUse"><stop offset="0" stop-color="#828b8a"/><stop offset="0.12" stop-color="#7a8182"/><stop offset="0.17" stop-color="#6b7272"/><stop offset="0.28" stop-color="#545959"/><stop offset="0.37" stop-color="#454949"/><stop offset="0.44" stop-color="#404444"/><stop offset="0.71" stop-color="#404444"/><stop offset="1" stop-color="#333737"/></linearGradient><filter id="luminosity-noclip-23" x="276.56" y="210.44" width="19.75" height="16.98" filterUnits="userSpaceOnUse" color-interpolation-filters="sRGB"><feFlood flood-color="#fff" result="bg"/><feBlend in="SourceGraphic" in2="bg"/></filter><mask id="mask-23" x="166.69" y="72.45" width="19.75" height="16.98" maskUnits="userSpaceOnUse"><g class="cls-78"><g transform="translate(-109.87 -137.99)"><g class="cls-15"><path class="cls-16" d="M291.67,210.44l-15.11,11.13a9.84,9.84,0,0,1,4.88,5.85l14.87-11.06A11,11,0,0,0,291.67,210.44Z"/></g></g></g></mask><linearGradient id="linear-gradient-35" x1="284.49" y1="215.84" x2="288.85" y2="221.83" gradientUnits="userSpaceOnUse"><stop offset="0" stop-color="#3e4344"/><stop offset="0.02" stop-color="#555a5a"/><stop offset="0.05" stop-color="#7d8081"/><stop offset="0.09" stop-color="#a0a3a3"/><stop offset="0.13" stop-color="#bebfc0"/><stop offset="0.17" stop-color="#d6d7d7"/><stop offset="0.22" stop-color="#e8e9e9"/><stop offset="0.28" stop-color="#f5f6f6"/><stop offset="0.36" stop-color="#fdfdfd"/><stop offset="0.52" stop-color="#fff"/><stop offset="0.65" stop-color="#fdfdfd"/><stop offset="0.73" stop-color="#f4f5f5"/><stop offset="0.8" stop-color="#e7e8e8"/><stop offset="0.85" stop-color="#d3d5d5"/><stop offset="0.9" stop-color="#b9bdbd"/><stop offset="0.95" stop-color="#9a9f9f"/><stop offset="0.99" stop-color="#757c7c"/><stop offset="1" stop-color="#6a7171"/></linearGradient><filter id="luminosity-noclip-24" x="277.26" y="257.25" width="28.33" height="18.94" filterUnits="userSpaceOnUse" color-interpolation-filters="sRGB"><feFlood flood-color="#fff" result="bg"/><feBlend in="SourceGraphic" in2="bg"/></filter><mask id="mask-24" x="167.39" y="119.26" width="28.33" height="18.94" maskUnits="userSpaceOnUse"><g class="cls-77"><g transform="translate(-109.87 -137.99)"><g class="cls-17"><path class="cls-18" d="M303.14,266.23c-2.95.57-4.87.57-5.53-.18a1.24,1.24,0,0,1-.14-.18,1.88,1.88,0,0,1,.14-2.06,8.66,8.66,0,0,1,1.19-1.65c.94-1.1,1.86-2.22,2.78-3.36l-11.93-1.55c-4.06,5.78-8.26,11.49-12.11,17.4-.36.55-.36,1-.09,1.23a1.62,1.62,0,0,0,1.16.3,241.3,241.3,0,0,0,27-4.23V265.7Z"/></g></g></g></mask><linearGradient id="linear-gradient-36" x1="289.74" y1="267.18" x2="292.34" y2="272.5" gradientUnits="userSpaceOnUse"><stop offset="0" stop-color="#333737"/><stop offset="0.06" stop-color="#5a5f5e"/><stop offset="0.14" stop-color="#8b9191"/><stop offset="0.22" stop-color="#b2bab9"/><stop offset="0.29" stop-color="#ced6d5"/><stop offset="0.35" stop-color="#dfe8e7"/><stop offset="0.39" stop-color="#e5eeed"/><stop offset="0.54" stop-color="#e9f1f0"/><stop offset="0.68" stop-color="#f5f8f8"/><stop offset="0.76" stop-color="#fff"/></linearGradient><linearGradient id="linear-gradient-37" x1="271.11" y1="194.71" x2="278.06" y2="141.36" gradientUnits="userSpaceOnUse"><stop offset="0" stop-color="#fff"/><stop offset="0.25" stop-color="#f2f6f6"/><stop offset="0.57" stop-color="#e8f0ef"/><stop offset="1" stop-color="#e5eeed"/></linearGradient><linearGradient id="linear-gradient-38" x1="225.92" y1="147.49" x2="165.49" y2="245.41" gradientUnits="userSpaceOnUse"><stop offset="0" stop-color="#fff"/><stop offset="0.13" stop-color="#fcfcfc"/><stop offset="0.23" stop-color="#f3f4f4"/><stop offset="0.32" stop-color="#e3e5e5"/><stop offset="0.39" stop-color="#cdd0d0"/><stop offset="0.47" stop-color="#b0b5b5"/><stop offset="0.52" stop-color="#969d9d"/><stop offset="1" stop-color="#8b9394"/></linearGradient><linearGradient id="linear-gradient-39" x1="341.52" y1="169.56" x2="281.95" y2="270.58" gradientUnits="userSpaceOnUse"><stop offset="0" stop-color="#d7e0e0"/><stop offset="0.04" stop-color="#c5cdce"/><stop offset="0.1" stop-color="#b4bcbe"/><stop offset="0.17" stop-color="#a9b1b2"/><stop offset="0.27" stop-color="#a2aaac"/><stop offset="0.55" stop-color="#a0a8aa"/><stop offset="0.94" stop-color="#a0a8aa"/><stop offset="1" stop-color="#a0a8aa"/></linearGradient><linearGradient id="linear-gradient-40" x1="163.17" y1="242.62" x2="291.86" y2="242.62" gradientUnits="userSpaceOnUse"><stop offset="0" stop-color="#8b9394"/><stop offset="0.24" stop-color="#8b9394"/><stop offset="0.36" stop-color="#858c8d"/><stop offset="0.53" stop-color="#737a7b"/><stop offset="0.6" stop-color="#6a7171"/><stop offset="1" stop-color="#a0a8aa"/></linearGradient><linearGradient id="linear-gradient-41" x1="179.39" y1="155.29" x2="143" y2="244.52" gradientUnits="userSpaceOnUse"><stop offset="0" stop-color="#fff"/><stop offset="0.24" stop-color="#f8fafa"/><stop offset="0.58" stop-color="#e6ebeb"/><stop offset="0.78" stop-color="#d7e0e0"/><stop offset="1" stop-color="#8b9394"/></linearGradient><linearGradient id="linear-gradient-42" x1="368.9" y1="178.43" x2="316.63" y2="276.79" gradientUnits="userSpaceOnUse"><stop offset="0" stop-color="#d7e0e0"/><stop offset="0.16" stop-color="#d1dad9"/><stop offset="0.26" stop-color="#ccd4d3"/><stop offset="1" stop-color="#a0a8aa"/></linearGradient></defs><path class="cls-26" d="M236.35,203.12a45.44,45.44,0,0,0,9.11-1c11.57-2.45,22.81-6.54,33.23-10.6,28.1-10.69,41.88-21.28,45.41-24.25a10.35,10.35,0,0,0,1.36-1.19,4.13,4.13,0,0,0,1.49-3c0-2.59-3-3.41-4.81-3.9l-.56-.16c-20.77-6.21-44.82-9.49-69.53-9.49h-1.47a24.76,24.76,0,0,0-9.79,2.25c-8.71,4.33-12.89,14.37-15.38,20.37l-.72,1.71c-4.63,10.73-5.34,18.67-2.1,23.6C225.08,201.21,229.7,203.12,236.35,203.12Zm-9.81-28.49c.23-.53.48-1.1.74-1.73,2.38-5.74,6.37-15.34,14.42-19.34a22.81,22.81,0,0,1,8.93-2h1.42c24.52,0,48.36,3.25,68.95,9.41.18.06.39.12.61.17,1.24.34,3.31.91,3.31,2,0,.51-.24.95-.92,1.61a8.7,8.7,0,0,1-1.17,1c-3.5,2.94-17.06,13.35-44.87,23.93-10.34,4-21.49,8.09-32.92,10.51a43.4,43.4,0,0,1-8.69,1c-5.93,0-10-1.61-12.07-4.78C221.44,192,222.2,184.69,226.54,174.63Z" transform="translate(-109.87 -137.99)"/><path class="cls-27" d="M251.62,138c-78.16,0-141.75,32.72-141.75,72.94s63.59,72.94,141.75,72.94,141.76-32.72,141.76-72.94S329.79,138,251.62,138Zm0,143.68c-76.94,0-139.54-31.73-139.54-70.74s62.6-70.74,139.54-70.74,139.56,31.73,139.56,70.74S328.57,281.67,251.62,281.67Z" transform="translate(-109.87 -137.99)"/><path class="cls-28" d="M206.93,158.55a2.67,2.67,0,0,0-.09-3.39c-.94-1.11-3.26-1.25-6.85-.52-47.61,9.66-78.37,31.75-78.37,56.29,0,13.5,9.39,26.4,27.17,37.34a6.82,6.82,0,0,0,3.49,1.1h0a4,4,0,0,0,3.19-2.18c.25-.44.58-1.12.92-1.83l.27-.54c15.45-35.79,32.39-65,49-84.49A16.23,16.23,0,0,0,206.93,158.55Zm-1.73-1.05a13.75,13.75,0,0,1-1.1,1.54c-16.71,19.63-33.76,49-49.28,84.94l-.25.51c-.31.67-.62,1.3-.82,1.67-.54.84-.95,1.15-1.54,1.19a4.9,4.9,0,0,1-2.37-.81c-17.14-10.54-26.19-22.85-26.19-35.61,0-23.54,30.12-44.85,76.74-54.3a17.24,17.24,0,0,1,3.39-.42c1.23,0,1.51.26,1.56.31S205.47,157.07,205.2,157.5Z" transform="translate(-109.87 -137.99)"/><path class="cls-29" d="M267.36,218.62a44.62,44.62,0,0,0-9.11,1c-12.14,2.55-23.69,6.94-33,10.46l-.25.1c-28.22,10.74-41.95,21.32-45.51,24.33l-.61.52c-.28.24-.51.44-.69.62a4.19,4.19,0,0,0-1.45,3c0,2.61,3.33,3.57,5.11,4.08l.33.1c20.73,6.13,44.74,9.38,69.46,9.38h.16l.6,0,.63,0a24.56,24.56,0,0,0,9.85-2.22c8.78-4.38,12.94-14.49,15.44-20.54.23-.55.45-1.08.65-1.54,4.63-10.73,5.34-18.68,2.1-23.61C278.62,220.54,274,218.62,267.36,218.62Zm9.77,28.5c-.2.48-.42,1-.65,1.58-2.38,5.77-6.38,15.45-14.46,19.48a22.08,22.08,0,0,1-10.35,2c-24.52,0-48.34-3.22-68.87-9.29l-.36-.1c-1.09-.32-3.65-1.06-3.65-2.14a2.15,2.15,0,0,1,.85-1.54c.16-.16.36-.32.59-.52l.62-.54c3.48-2.93,17-13.34,44.9-24L226,232c9.22-3.5,20.7-7.86,32.67-10.38a43.5,43.5,0,0,1,8.7-1c5.91,0,10,1.61,12.05,4.78C282.25,229.75,281.49,237.05,277.13,247.12Z" transform="translate(-109.87 -137.99)"/><path class="cls-30" d="M354.9,173.58a6,6,0,0,0-3.12-1.11l-.37,0a3.63,3.63,0,0,0-3.14,2.15A18.77,18.77,0,0,0,347,177c-8.65,20.21-26.5,58-49,84.51a9.81,9.81,0,0,0-1.29,1.8,2.8,2.8,0,0,0,.11,3.42,3.63,3.63,0,0,0,2.86.93,19.61,19.61,0,0,0,3.63-.43c47.59-9.71,78.34-31.82,78.34-56.32C381.68,197.26,372.42,184.35,354.9,173.58Zm-52,91.66a17.61,17.61,0,0,1-3.23.38c-1.11,0-1.34-.24-1.35-.25-.26-.29,0-.78.14-1.08a7.46,7.46,0,0,1,1.07-1.48c22.68-26.66,40.63-64.71,49.3-85a20.18,20.18,0,0,1,1.15-2.16,1.73,1.73,0,0,1,1.57-1.15h.19a4.27,4.27,0,0,1,2.05.8c16.9,10.39,25.83,22.7,25.83,35.6C379.66,234.4,349.55,255.73,302.94,265.24Z" transform="translate(-109.87 -137.99)"/><g class="cls-31"><g class="cls-32"><g class="cls-33"><path class="cls-34" d="M251.63,282.59c77.53,0,140.38-32.08,140.38-71.66s-62.85-71.66-140.38-71.66-140.39,32.08-140.39,71.66S174.13,282.59,251.63,282.59ZM278,247.47c-2.3,5.38-6.35,16.94-15.59,21.55a23.29,23.29,0,0,1-9.41,2.1,9.75,9.75,0,0,1-1.37,0c-25.9,0-50-3.55-70.23-9.66-.16-.06-.59-.27-.59-.27-2-.63-3-1.5-3-2.58a3.11,3.11,0,0,1,1.15-2.26c.3-.3.72-.64,1.27-1.12,4.63-3.92,18.72-14,45.14-24.1,9.27-3.53,20.87-7.95,33-10.5C265.61,219.13,292,215.12,278,247.47Zm71-72.23a2.7,2.7,0,0,1,2.34-1.69,4.48,4.48,0,0,1,2.9.93c16.49,10.15,26.27,22.72,26.27,36.42,0,24.74-31.86,46-77.43,55.26-2.95.57-4.86.57-5.53-.18a1.81,1.81,0,0,1,0-2.24,9.11,9.11,0,0,1,1.19-1.64c24.83-29.2,43.76-72.2,49.09-84.67A23.44,23.44,0,0,1,349,175.24Zm-123.35-1c2.31-5.35,6.34-16.94,15.61-21.55a24,24,0,0,1,9.35-2.13h1.45c25.89,0,50,3.58,70.17,9.75a3,3,0,0,1,.76.24c1.89.63,2.81,1.47,2.86,2.52a3.23,3.23,0,0,1-1.18,2.3,11.39,11.39,0,0,1-1.28,1.11c-4.65,3.91-18.69,14-45.09,24.07-9.29,3.62-20.94,8-33,10.54C238.09,202.62,211.68,206.63,225.65,174.27ZM200.26,155.7c3-.6,5.21-.6,5.86.18a1.7,1.7,0,0,1,0,2.2,16,16,0,0,1-1.18,1.69c-24.84,29.16-43.73,72.2-49.09,84.6-.42.87-.83,1.75-1.13,2.29a3,3,0,0,1-2.38,1.65,5.74,5.74,0,0,1-2.9-1c-16.45-10.11-26.65-22.75-26.65-36.42C122.79,186.22,154.72,164.94,200.26,155.7Z" transform="translate(-109.87 -137.99)"/><path class="cls-35" d="M251.63,282.59c77.53,0,140.38-32.08,140.38-71.66s-62.85-71.66-140.38-71.66-140.39,32.08-140.39,71.66S174.13,282.59,251.63,282.59ZM278,247.47c-2.3,5.38-6.35,16.94-15.59,21.55a23.29,23.29,0,0,1-9.41,2.1,9.75,9.75,0,0,1-1.37,0c-25.9,0-50-3.55-70.23-9.66-.16-.06-.59-.27-.59-.27-2-.63-3-1.5-3-2.58a3.11,3.11,0,0,1,1.15-2.26c.3-.3.72-.64,1.27-1.12,4.63-3.92,18.72-14,45.14-24.1,9.27-3.53,20.87-7.95,33-10.5C265.61,219.13,292,215.12,278,247.47Zm71-72.23a2.7,2.7,0,0,1,2.34-1.69,4.48,4.48,0,0,1,2.9.93c16.49,10.15,26.27,22.72,26.27,36.42,0,24.74-31.86,46-77.43,55.26-2.95.57-4.86.57-5.53-.18a1.81,1.81,0,0,1,0-2.24,9.11,9.11,0,0,1,1.19-1.64c24.83-29.2,43.76-72.2,49.09-84.67A23.44,23.44,0,0,1,349,175.24Zm-123.35-1c2.31-5.35,6.34-16.94,15.61-21.55a24,24,0,0,1,9.35-2.13h1.45c25.89,0,50,3.58,70.17,9.75a3,3,0,0,1,.76.24c1.89.63,2.81,1.47,2.86,2.52a3.23,3.23,0,0,1-1.18,2.3,11.39,11.39,0,0,1-1.28,1.11c-4.65,3.91-18.69,14-45.09,24.07-9.29,3.62-20.94,8-33,10.54C238.09,202.62,211.68,206.63,225.65,174.27ZM200.26,155.7c3-.6,5.21-.6,5.86.18a1.7,1.7,0,0,1,0,2.2,16,16,0,0,1-1.18,1.69c-24.84,29.16-43.73,72.2-49.09,84.6-.42.87-.83,1.75-1.13,2.29a3,3,0,0,1-2.38,1.65,5.74,5.74,0,0,1-2.9-1c-16.45-10.11-26.65-22.75-26.65-36.42C122.79,186.22,154.72,164.94,200.26,155.7Z" transform="translate(-109.87 -137.99)"/><path class="cls-25" d="M251.62,282.59c77.54,0,140.39-32.08,140.39-71.66s-62.85-71.66-140.39-71.66-140.38,32.08-140.38,71.66S174.13,282.59,251.62,282.59ZM278,247.47c-2.29,5.38-6.34,16.94-15.58,21.55a23.5,23.5,0,0,1-9.41,2.11,11.69,11.69,0,0,1-1.37,0c-25.41,0-49.14-3.43-69.08-9.32-1.47-.44-4.72-1.22-4.72-3.2a3.08,3.08,0,0,1,1.15-2.26c.3-.3.72-.64,1.27-1.12,4.63-3.92,18.72-14,45.14-24.1,9.28-3.53,20.87-7.95,33-10.5C265.61,219.12,292,215.12,278,247.47Zm71-72.23a2.7,2.7,0,0,1,2.34-1.69,4.44,4.44,0,0,1,2.89.93c16.5,10.14,26.28,22.72,26.28,36.42,0,24.74-31.86,46-77.43,55.26-2.95.57-4.87.57-5.53-.18a1.81,1.81,0,0,1,0-2.24,10.06,10.06,0,0,1,1.19-1.65c24.83-29.19,43.77-72.19,49.09-84.66A23.44,23.44,0,0,1,349,175.24Zm-123.35-1c2.31-5.35,6.34-16.94,15.61-21.55a24,24,0,0,1,9.35-2.13h1.44c25.46,0,49.15,3.46,69.15,9.44,1.46.43,4.65,1,4.65,3.08a3.19,3.19,0,0,1-1.18,2.28,10.36,10.36,0,0,1-1.28,1.12c-4.65,3.91-18.69,14-45.09,24.07-9.29,3.62-20.94,8-33,10.54C238.09,202.62,211.68,206.63,225.65,174.27ZM200.26,155.7c3-.6,5.2-.6,5.86.18a1.7,1.7,0,0,1,0,2.2,14.93,14.93,0,0,1-1.19,1.69c-24.84,29.16-43.72,72.2-49.08,84.6-.42.87-.83,1.75-1.13,2.29a3,3,0,0,1-2.39,1.65,5.59,5.59,0,0,1-2.89-1c-16.46-10.11-26.65-22.75-26.65-36.42C122.79,186.22,154.71,164.94,200.26,155.7Z" transform="translate(-109.87 -137.99)"/></g></g><g class="cls-36"><path class="cls-37" d="M293.05,262.39c12.28-14.94,26.35-40.94,31-49.78l-36.21,12.18c.19,10-1.9,32-21.79,47.28,0,0-7.09,2.36-20.19,2.42l-3.37,5.31c8.81.73,33.69,1.66,69.28-6.13v0l3.2-7.34C305.12,270.19,281,277.06,293.05,262.39Z" transform="translate(-109.87 -137.99)"/></g><path class="cls-38" d="M247.78,200.55l-2.53.56c-3.85.81-13.23,2.33-18.95-1.42-5-3.24-7.18-10.43-.68-25.46,2.17-5,5.86-15.56,14-20.66l-8.91-7.52a4.51,4.51,0,0,0-1.45,1.13,125.15,125.15,0,0,0-10.36,16,128.32,128.32,0,0,0-7.7,16.3c-1.72,4.44-4.17,11.1-4.77,17.36-.7,7.09,1,13.67,8.71,16,.53.15,1.13.33,1.82.5,4.52,1.1,13.15,2,32.57-3.26Z" transform="translate(-109.87 -137.99)"/><path class="cls-39" d="M339.82,161.47l-13.9,1.46s0,.08,0,.12a3.17,3.17,0,0,1-1.18,2.29,9.73,9.73,0,0,1-1.28,1.11c-4.66,3.92-18.71,14.05-45.15,24.11-6.4,2.5-13.93,5.34-22,7.71h0c-2.81.83-5.68,1.61-8.59,2.29l-2.53.56c-3.6.75-12,2.13-17.78-.75L215.34,213c.47.14,1,.29,1.59.44,4.52,1.1,13.15,2,32.57-3.26a325.5,325.5,0,0,0,33.76-11.48c23.78-9.28,51.63-25.23,56.46-36.36A1.41,1.41,0,0,0,339.82,161.47Z" transform="translate(-109.87 -137.99)"/><path class="cls-40" d="M152.22,248.36a5.77,5.77,0,0,1-2.91-1c-16.47-10.13-26.68-22.78-26.68-36.47,0-24.74,32-46.05,77.57-55.29,3-.61,5.21-.61,5.87.17a1.56,1.56,0,0,1,.23.34l19.82-10c-.13-.35-.59-.54-1.29-.52-26.47,2.64-50.76,9.17-70.18,19-24.86,12.61-38.55,29-38.55,46.23s13.69,33.62,38.55,46.24c1.09.55,2.21,1.1,3.32,1.62a2.39,2.39,0,0,0,1.92.13l-6.76-10.79A2.7,2.7,0,0,1,152.22,248.36Z" transform="translate(-109.87 -137.99)"/><path class="cls-41" d="M288.32,208.94c-5.47-1.65-18.94-5.09-68.15,14.24-23.78,9.28-51.63,25.22-56.46,36.36a1.36,1.36,0,0,0,0,1.1L177.82,259a2,2,0,0,1,0-.36,3.15,3.15,0,0,1,1.15-2.26c.3-.29.72-.63,1.26-1.11,4.65-3.92,18.76-14.07,45.2-24.13,9.29-3.53,20.9-8,33.07-10.52,7.17-1.51,33.62-5.52,19.61,26.88-2.26,5.32-6.26,16.63-15.24,21.37l9.94,6.9a4.81,4.81,0,0,0,1.43-1.12,124.77,124.77,0,0,0,10.36-16.05,130.37,130.37,0,0,0,7.7-16.3c1.72-4.44,4.17-11.1,4.78-17.36C297.73,217.87,296.06,211.28,288.32,208.94Z" transform="translate(-109.87 -137.99)"/><path class="cls-42" d="M262.46,269.09A23.47,23.47,0,0,1,253,271.2a9.78,9.78,0,0,1-1.37,0c-25.93,0-50.11-3.56-70.32-9.68-.15,0-.6-.26-.6-.26C179,260.69,178,260,177.82,259l-14.12,1.62a3.87,3.87,0,0,0,2,1.54c24.26,9.92,54.3,15.32,86,15.32q7.56,0,15-.4a15,15,0,0,0,6.08-1.31l-9.94-6.9C262.7,269,262.58,269,262.46,269.09Z" transform="translate(-109.87 -137.99)"/><path class="cls-43" d="M297.61,263.81a8.66,8.66,0,0,1,1.19-1.65c24.86-29.23,43.82-72.29,49.15-84.77a23.26,23.26,0,0,1,1.17-2.19,2.89,2.89,0,0,1,1.65-1.57l-7.23-10.71a1.66,1.66,0,0,0-.92.88c-14.88,31.87-30.81,61-50.5,89.88-4.78,7-9.94,13.85-14.58,21-.36.55-.36,1-.09,1.23l20-10A1.88,1.88,0,0,1,297.61,263.81Z" transform="translate(-109.87 -137.99)"/><path class="cls-44" d="M241.24,152.65a23.78,23.78,0,0,1,9.37-2.13h1.44c25.93,0,50,3.57,70.27,9.75a3.08,3.08,0,0,1,.76.25c1.82.6,2.74,1.41,2.84,2.41l13.9-1.46c-.16-.74-1-1.31-2.07-1.8-24.25-9.93-54.3-15.33-86-15.33q-7.56,0-15,.41a14.8,14.8,0,0,0-6.07,1.3l8.91,7.52C240.13,153.25,240.68,152.93,241.24,152.65Z" transform="translate(-109.87 -137.99)"/><path class="cls-45" d="M387.32,210.93c0-17.21-13.68-33.63-38.54-46.25-1.08-.55-2.2-1.1-3.33-1.63a2.36,2.36,0,0,0-1.91-.13l7.23,10.71a2.91,2.91,0,0,1,.69-.13,4.43,4.43,0,0,1,2.9.94c16.52,10.15,26.31,22.75,26.31,36.46,0,.48,0,1,0,1.45h6.65C387.31,211.87,387.32,211.4,387.32,210.93Z" transform="translate(-109.87 -137.99)"/><path class="cls-46" d="M380.64,212.24c-1.22,24.15-32.75,44.86-77.5,54-2.95.57-4.87.57-5.53-.18a1.24,1.24,0,0,1-.14-.18l-20,10a1.62,1.62,0,0,0,1.16.3c26.46-2.64,50.75-9.17,70.17-19,24.18-12.27,37.78-28.23,38.51-44.91Z" transform="translate(-109.87 -137.99)"/><g class="cls-47"><path class="cls-48" d="M339.82,161.47c-.16-.74-1-1.31-2.07-1.8-3.27-1.34-6.66-2.6-10.13-3.77l-6,4.18.69.19a3.08,3.08,0,0,1,.76.25c1.82.6,2.74,1.41,2.84,2.41,0,0,0,.08,0,.12a3.17,3.17,0,0,1-1.18,2.29,9.73,9.73,0,0,1-1.28,1.11c-.36.3-.78.65-1.25,1l11.89,2.13a24.63,24.63,0,0,0,5.6-7.29A1.41,1.41,0,0,0,339.82,161.47Z" transform="translate(-109.87 -137.99)"/></g><g class="cls-49"><path class="cls-50" d="M181.35,261.52c-1.21-.46-3.21-1-3.53-2.5a2,2,0,0,1,0-.36,3.15,3.15,0,0,1,1.15-2.26c.3-.29.72-.63,1.26-1.11s.92-.76,1.49-1.2l-11.46-2.71c-3.14,2.87-5.41,5.63-6.51,8.16a1.36,1.36,0,0,0,0,1.1,3.87,3.87,0,0,0,2,1.54q4.56,1.86,9.38,3.52l7.32-3.87Z" transform="translate(-109.87 -137.99)"/></g><g class="cls-51"><path class="cls-52" d="M348.78,164.68c-1.08-.55-2.2-1.1-3.33-1.63a2.36,2.36,0,0,0-1.91-.13,1.66,1.66,0,0,0-.92.88c-1.21,2.57-2.41,5.11-3.63,7.64l8.45,7.15q.29-.63.51-1.2a23.26,23.26,0,0,1,1.17-2.19,2.66,2.66,0,0,1,2.34-1.7,4.43,4.43,0,0,1,2.9.94l1.58,1,.68-6.42Q352.9,166.79,348.78,164.68Z" transform="translate(-109.87 -137.99)"/></g><g class="cls-53"><path class="cls-54" d="M236.75,144.75a14.8,14.8,0,0,0-6.07,1.3,4.51,4.51,0,0,0-1.45,1.13c-1.68,2.15-3.26,4.4-4.77,6.71l8.54,6a24.65,24.65,0,0,1,6.59-6.32c.54-.32,1.09-.64,1.65-.92a21.33,21.33,0,0,1,5.84-1.79v-6.48C243.61,144.44,240.16,144.56,236.75,144.75Z" transform="translate(-109.87 -137.99)"/></g><g class="cls-55"><path class="cls-56" d="M262.83,268.89c-.13.06-.25.13-.37.2A23.47,23.47,0,0,1,253,271.2a9.78,9.78,0,0,1-1.37,0c-4.82,0-9.56-.17-14.24-.4l-1.18,6.26q7.65.44,15.47.44,7.56,0,15-.4a15,15,0,0,0,6.08-1.31,4.81,4.81,0,0,0,1.43-1.12,124.77,124.77,0,0,0,10.36-16.05c.27-.49.53-1,.81-1.51l-9.09-5.33C273.79,257.51,269.83,265.2,262.83,268.89Z" transform="translate(-109.87 -137.99)"/></g><path class="cls-57" d="M206.3,156.15a1.86,1.86,0,0,1-.23,1.87,15.37,15.37,0,0,1-1.19,1.68C180,188.9,161.1,232,155.73,244.41c-.42.88-.83,1.75-1.13,2.29a3.49,3.49,0,0,1-1.47,1.43l6.76,10.79a1.56,1.56,0,0,0,.93-.88c14.88-31.86,30.82-61,50.49-89.87,4.77-7,9.95-13.85,14.58-21a1.07,1.07,0,0,0,.23-1Z" transform="translate(-109.87 -137.99)"/><g class="cls-58"><path class="cls-59" d="M157.26,240.9l-1.53,3.51c-.42.88-.83,1.75-1.13,2.29a3.49,3.49,0,0,1-1.47,1.43,2.7,2.7,0,0,1-.91.23,5.77,5.77,0,0,1-2.91-1c-1.33-.82-2.61-1.65-3.86-2.51l.57,7.46q4,2.49,8.63,4.82c1.09.55,2.21,1.1,3.32,1.62a2.39,2.39,0,0,0,1.92.13,1.56,1.56,0,0,0,.93-.88q2.69-5.7,5.39-11.29Z" transform="translate(-109.87 -137.99)"/></g><g class="cls-60"><path class="cls-61" d="M226.12,146.18c-.13-.35-.59-.54-1.29-.52q-11.43,1.14-22.25,3.24l-4.93,7.26c.85-.17,1.69-.36,2.55-.52,3-.61,5.21-.61,5.87.17a1.56,1.56,0,0,1,.23.34,1.86,1.86,0,0,1-.23,1.87,15.37,15.37,0,0,1-1.19,1.68l-.44.52h12.43c3.07-4.3,6.15-8.61,9-13A1.07,1.07,0,0,0,226.12,146.18Z" transform="translate(-109.87 -137.99)"/></g><path class="cls-62" d="M251.62,139.18c-77.63,0-140.56,32.12-140.56,71.75S174,282.68,251.62,282.68s140.57-32.12,140.57-71.75S329.25,139.18,251.62,139.18Zm97.31,118.31C323.05,270.7,288.53,278,251.74,278s-71.31-7.28-97.2-20.49C129.66,244.79,116,228.26,116,211s13.71-33.84,38.59-46.53c25.89-13.21,60.4-20.49,97.2-20.49s71.31,7.28,97.19,20.49c24.88,12.69,38.59,29.23,38.59,46.53S373.81,244.79,348.93,257.49Z" transform="translate(-109.87 -137.99)"/><g class="cls-63"><path class="cls-64" d="M247.78,200.55l-2.53.56c-3.85.81-13.23,2.33-18.95-1.41-3.39-2.22-5.49-6.29-4.41-13.44l-14.58,5.26a41.69,41.69,0,0,0-.91,5.38c-.7,7.08,1,13.66,8.72,16,.52.15,1.12.34,1.81.5,4.52,1.1,13.15,2,32.56-3.26,2-.54,4.16-1.15,6.42-1.84l.46-10C253.56,199.1,250.69,199.87,247.78,200.55Z" transform="translate(-109.87 -137.99)"/></g><g class="cls-65"><path class="cls-66" d="M297,225c.69-7.09-1-13.68-8.72-16-4.79-1.45-15.74-4.26-51.49,8.07l1.08,9.54a167.81,167.81,0,0,1,20.55-5.91c6.76-1.42,30.63-5,21.62,21.65l13.2-2.67A62,62,0,0,0,297,225Z" transform="translate(-109.87 -137.99)"/></g><g class="cls-67"><path class="cls-68" d="M291.67,210.44l-15.11,11.13a9.84,9.84,0,0,1,4.88,5.85l14.87-11.06A11,11,0,0,0,291.67,210.44Z" transform="translate(-109.87 -137.99)"/></g><g class="cls-69"><path class="cls-70" d="M303.14,266.23c-2.95.57-4.87.57-5.53-.18a1.24,1.24,0,0,1-.14-.18,1.88,1.88,0,0,1,.14-2.06,8.66,8.66,0,0,1,1.19-1.65c.94-1.1,1.86-2.22,2.78-3.36l-11.93-1.55c-4.06,5.78-8.26,11.49-12.11,17.4-.36.55-.36,1-.09,1.23a1.62,1.62,0,0,0,1.16.3,241.3,241.3,0,0,0,27-4.23V265.7Z" transform="translate(-109.87 -137.99)"/></g><path class="cls-25" d="M200.2,155.64c-45.6,9.24-77.57,30.55-77.57,55.29,0,13.69,10.21,26.34,26.68,36.47a5.77,5.77,0,0,0,2.91,1,3,3,0,0,0,2.38-1.66c.3-.54.71-1.41,1.13-2.29C161.1,232,180,188.9,204.88,159.7a15.37,15.37,0,0,0,1.19-1.68,1.74,1.74,0,0,0,0-2.21C205.41,155,203.16,155,200.2,155.64Z" transform="translate(-109.87 -137.99)"/><path class="cls-25" d="M323.08,160.52a3.08,3.08,0,0,0-.76-.25c-20.24-6.18-44.34-9.75-70.27-9.75h-1.44a23.78,23.78,0,0,0-9.37,2.13c-9.27,4.61-13.31,16.21-15.62,21.58-14,32.39,12.45,28.39,19.63,26.88,12.11-2.57,23.78-6.93,33.08-10.55,26.44-10.06,40.49-20.19,45.15-24.11a9.73,9.73,0,0,0,1.28-1.11,3.17,3.17,0,0,0,1.18-2.29C325.89,162,325,161.15,323.08,160.52Z" transform="translate(-109.87 -137.99)"/><path class="cls-71" d="M224.64,214.66h0A30.36,30.36,0,0,1,215,213.3c-6.83-2.07-9.86-7.6-9-16.45.58-5.91,2.76-12.15,4.81-17.47A128.69,128.69,0,0,1,218.52,163a124.41,124.41,0,0,1,10.38-16.1c1.31-1.55,3.71-2.34,7.83-2.58,5-.28,10.07-.41,15-.41,31.83,0,61.64,5.31,86.19,15.36.74.34,3,1.36,2.18,3.18-4.9,11.3-32.85,27.28-56.68,36.58C257.05,209.4,237.27,214.66,224.64,214.66Zm27.08-69.91c-4.9,0-9.94.14-14.95.4-3.86.23-6.09.94-7.23,2.29a123.94,123.94,0,0,0-10.31,16,127.81,127.81,0,0,0-7.68,16.26c-1.33,3.45-4.11,10.66-4.75,17.25-.81,8.41,2,13.65,8.43,15.59a29.86,29.86,0,0,0,9.41,1.32c12.53,0,32.2-5.24,58.47-15.55,23.67-9.25,51.43-25,56.23-36.15.23-.54.2-1.2-1.76-2.1C313.15,150,283.45,144.75,251.72,144.75Z" transform="translate(-109.87 -137.99)"/><path class="cls-72" d="M217.1,159.19c-2,2.85-4.13,5.8-6.13,8.74-17.79,26.16-33.28,53.53-48.56,85.79l.75.34c15.25-32.22,30.72-59.55,48.49-85.67,2-2.93,4.09-5.87,6.12-8.72s4-5.7,6-8.61l-.89-.14C221,153.72,219,156.49,217.1,159.19Z" transform="translate(-109.87 -137.99)"/><path class="cls-73" d="M286.33,262.73c2-2.85,4.14-5.8,6.13-8.74,17.64-25.92,33-53,48.17-85l-.86-.1c-15.1,31.75-30.42,58.77-48,84.59-2,2.93-4.09,5.88-6.12,8.72-1.82,2.56-3.68,5.18-5.49,7.83h1C282.87,267.59,284.61,265.14,286.33,262.73Z" transform="translate(-109.87 -137.99)"/><path class="cls-74" d="M251.72,278c-31.84,0-61.64-5.31-86.2-15.35-.74-.34-3-1.36-2.18-3.18,4.9-11.3,32.86-27.28,56.68-36.58,26.36-10.36,46.14-15.61,58.77-15.61a30.61,30.61,0,0,1,9.65,1.36c6.83,2.06,9.86,7.6,9,16.45-.58,5.92-2.76,12.15-4.81,17.47a129.28,129.28,0,0,1-7.72,16.35A123.53,123.53,0,0,1,274.53,275c-1.31,1.55-3.71,2.34-7.82,2.57C261.74,277.85,256.69,278,251.72,278Zm27.07-69.9c-12.53,0-32.2,5.23-58.47,15.55-23.67,9.24-51.42,25.05-56.23,36.14-.23.54-.2,1.21,1.76,2.11,24.44,10,54.14,15.29,85.87,15.29,5,0,10-.14,14.94-.41,3.87-.22,6.1-.92,7.23-2.28a123.8,123.8,0,0,0,10.31-16,129.07,129.07,0,0,0,7.68-16.24c2-5.27,4.18-11.44,4.75-17.26.82-8.41-2-13.65-8.43-15.59A30.11,30.11,0,0,0,278.79,208.08Z" transform="translate(-109.87 -137.99)"/><path class="cls-75" d="M226.46,145.91c-.16-.3-.56-.66-1.53-.66h-.14c-26.68,2.67-51,9.26-70.32,19.08-25,12.69-38.77,29.24-38.77,46.6s13.77,33.91,38.77,46.6c1.09.55,2.21,1.1,3.34,1.64a3.08,3.08,0,0,0,1.33.31,2.2,2.2,0,0,0,2.06-1.26c.65-1.4,1.3-2.78,2-4.16l-.75-.34c-.66,1.38-1.31,2.76-2,4.16a1.65,1.65,0,0,1-2.29.55c-1.13-.53-2.24-1.07-3.33-1.63-24.7-12.54-38.31-28.84-38.31-45.87s13.61-33.33,38.31-45.87c19.24-9.77,43.46-16.34,70.1-19,.5,0,.75.13.82.23a.87.87,0,0,1-.2.67c-.86,1.32-1.75,2.63-2.64,3.95l.89.14c.82-1.21,1.64-2.42,2.44-3.64A1.43,1.43,0,0,0,226.46,145.91Z" transform="translate(-109.87 -137.99)"/><path class="cls-76" d="M349,164.39c-1.1-.56-2.21-1.11-3.34-1.64a2.47,2.47,0,0,0-3.39,1c-.83,1.75-1.64,3.5-2.47,5.23l.86.1c.78-1.65,1.57-3.31,2.36-5a1.35,1.35,0,0,1,1.31-.78,2.41,2.41,0,0,1,1,.23c1.13.53,2.23,1.08,3.32,1.63C373.31,177.66,386.92,194,386.92,211s-13.61,33.32-38.32,45.86c-19.17,9.73-43.26,16.29-69.68,19-.65.07-1.61,0-1-.88,1.07-1.62,2.17-3.25,3.28-4.86h-1c-1,1.46-2,2.93-3,4.41A1.42,1.42,0,0,0,277,276c.39.75,1.45.69,2.16.61,26.47-2.68,50.62-9.26,69.84-19,25-12.69,38.76-29.23,38.76-46.59S374,177.08,349,164.39Z" transform="translate(-109.87 -137.99)"/></g></svg>