<?xml version="1.0" encoding="utf-8"?>
<!-- Generator: Adobe Illustrator 24.1.2, SVG Export Plug-In . SVG Version: 6.00 Build 0)  -->
<svg version="1.1" id="katman_1" xmlns="http://www.w3.org/2000/svg" xmlns:xlink="http://www.w3.org/1999/xlink" x="0px" y="0px"
	 viewBox="0 0 2500 2500" style="enable-background:new 0 0 2500 2500;" xml:space="preserve">
<style type="text/css">
	.st0{fill-rule:evenodd;clip-rule:evenodd;fill:#CC2229;}
</style>
<path class="st0" d="M829.3,1236.5L1003,982.3c6.7-10-1.3-21.3-15.3-21.3l-134.1-1c-10,0-30,12.7-38.6,23.6l-60.5,78.9l-84.2,110.1
	l0.7-190.3c0-13-13.7-21.3-22-21.3H495.2c-10.6,0-20.3,4-20.6,23.6c-0.3,19.3,23.6,23.3,23.6,28.6V1522c0,9.7,13.3,24.3,22.6,24.3
	l131.7-0.7c9.3-0.3,17.3-13.6,17.3-22.6l0.3-211.9l84.2,104.1l89.2,109.8c7.3,8.7,21.6,20.6,36.6,20.6l143.1-1
	c13.6,0,12.3-16.7,9-21C964.2,1428.2,896.6,1332.5,829.3,1236.5z M1323,961h-152c-18,0-22,10.6-25,22c3.3,20.6,25,26.3,25,26.6V1523
	c0,13.6,8.3,22.6,20,22.6l54.6-0.3l81.2-0.7c15,0,19-9,19-21.6V982.3C1345.6,969.4,1334.7,961,1323,961z"/>
<path class="st0" d="M1785.8,698.9c-161.7-40.9-343.7-63.9-536-63.9c-1.3,0-2.7,0.3-4.3,0.3c-174.3,0-340.7,19.3-491.1,53.6
	C332.2,785.4,36.8,1001,36.8,1250.2s295.4,464.8,717.6,561.3c150.4,34.3,316.7,53.6,491.1,53.6h4.3c192.3,0,374.3-22.6,536-63.5
	c400.9-100.5,677.4-310.1,677.4-551.3S2186.8,799.3,1785.8,698.9L1785.8,698.9z M1785.8,1667.4c-159.4,36.9-342,57.9-536,57.9
	c-1.3,0-2.7-0.3-4.3-0.3c-175.7,0-342.4-17.6-491.1-48.6c-372.3-77.5-629.2-239.6-629.2-426.2S382.1,901.5,754.4,824
	c148.7-30.9,315.4-48.6,491.1-48.9h4.3c194,0,376.6,21,536,57.9c350.3,80.5,588.9,237.5,588.9,417.2S2136.2,1586.9,1785.8,1667.4
	L1785.8,1667.4z"/>
<path class="st0" d="M1890.6,983c-5-11.3-13.6-22-25-22h-205.6c-7.3,0-17.3,6-17.3,16c-0.3,29.3,30.3,28.3,28.6,32.6L1498,1521
	c-3,8.7,4.7,24.6,15.3,24.6l120.8-1c10.6,0,25.6-9,30-22l57.2-171.6c19.3-57.2,38.5-114.5,57.6-171.7c1-2.3,4-3.7,7-3.7
	c4.7,0,9.7,1.7,10.6,5l112.1,344c2.3,7.7,18,20,26.3,20l125.8,1c7.3,0,16-14.6,13.6-21.3L1890.6,983z"/>
</svg>
