<svg id="katman_1" data-name="katman 1" xmlns="http://www.w3.org/2000/svg" xmlns:xlink="http://www.w3.org/1999/xlink" viewBox="0 0 729.16 801.75"><defs><style>.cls-1{fill:#231f20;}.cls-2{fill:url(#Adsız_degrade);}.cls-3{fill:url(#Adsız_degrade_2);}.cls-4{fill:url(#Adsız_degrade_3);}.cls-5{fill:url(#Adsız_degrade_4);}.cls-6{fill:url(#Adsız_degrade_5);}.cls-7{fill:url(#Adsız_degrade_6);}.cls-8{fill:url(#Adsız_degrade_7);}.cls-9{fill:url(#Adsız_degrade_8);}.cls-10{fill:url(#Adsız_degrade_9);}.cls-11{fill:url(#Adsız_degrade_10);}.cls-12{fill:#7f7d7e;}.cls-13{fill:url(#Adsız_degrade_11);}.cls-14{fill:url(#Adsız_degrade_12);}.cls-15{fill:url(#Adsız_degrade_13);}.cls-16{fill:url(#Adsız_degrade_14);}.cls-17{fill:url(#Adsız_degrade_15);}.cls-18{fill:url(#Adsız_degrade_16);}.cls-19{fill:url(#Adsız_degrade_17);}.cls-20{fill:url(#Adsız_degrade_18);}.cls-21{fill:url(#Adsız_degrade_19);}.cls-22{fill:url(#Adsız_degrade_20);}.cls-23{fill:url(#Adsız_degrade_21);}.cls-24{fill:url(#Adsız_degrade_22);}.cls-25{fill:url(#Adsız_degrade_23);}.cls-26{fill:url(#Adsız_degrade_24);}.cls-27{fill:url(#Adsız_degrade_25);}.cls-28{fill:url(#Adsız_degrade_26);}.cls-29{fill:url(#Adsız_degrade_27);}</style><linearGradient id="Adsız_degrade" x1="865.07" y1="880.6" x2="822.71" y2="815.72" gradientTransform="matrix(20.98, 0, 0, -23.37, -16918.96, 20789.69)" gradientUnits="userSpaceOnUse"><stop offset="0" stop-color="#d3d3d3"/><stop offset="0.37" stop-color="#4f4c4c"/><stop offset="0.81" stop-color="#b0afaf"/><stop offset="1" stop-color="#231f20"/></linearGradient><linearGradient id="Adsız_degrade_2" x1="835.15" y1="869.09" x2="842.82" y2="886.68" gradientTransform="matrix(20.98, 0, 0, -23.37, -16918.96, 20789.69)" gradientUnits="userSpaceOnUse"><stop offset="0" stop-color="#b2b1b1"/><stop offset="0.2" stop-color="#b2b1b1"/><stop offset="0.99" stop-color="#656263"/><stop offset="1" stop-color="#656263"/></linearGradient><linearGradient id="Adsız_degrade_3" x1="861.75" y1="879.21" x2="852.32" y2="880.1" gradientTransform="matrix(20.98, 0, 0, -23.37, -16918.96, 20789.69)" gradientUnits="userSpaceOnUse"><stop offset="0" stop-color="#4f4c4c"/><stop offset="0.36" stop-color="#fff"/><stop offset="0.82" stop-color="#4f4c4c"/><stop offset="1" stop-color="#393536"/></linearGradient><linearGradient id="Adsız_degrade_4" x1="840.17" y1="866.95" x2="847.81" y2="884.46" gradientTransform="matrix(20.98, 0, 0, -23.37, -16918.96, 20789.69)" gradientUnits="userSpaceOnUse"><stop offset="0" stop-color="#d3d3d3"/><stop offset="0.37" stop-color="#b2b1b1"/><stop offset="0.99" stop-color="#231f20"/><stop offset="1" stop-color="#231f20"/></linearGradient><linearGradient id="Adsız_degrade_5" x1="859.04" y1="846.36" x2="720.2" y2="987.61" gradientTransform="matrix(20.98, 0, 0, -23.37, -16918.96, 20789.69)" gradientUnits="userSpaceOnUse"><stop offset="0" stop-color="#918f90"/><stop offset="0.12" stop-color="#9c9a9b"/><stop offset="0.17" stop-color="#7b7979"/><stop offset="0.31" stop-color="#918f90"/><stop offset="0.47" stop-color="#f4f4f4"/><stop offset="0.84" stop-color="#7f7d7e"/><stop offset="0.96" stop-color="#4f4c4c"/><stop offset="1" stop-color="#4f4c4c"/></linearGradient><radialGradient id="Adsız_degrade_6" cx="844.09" cy="876.29" r="31.58" gradientTransform="matrix(20.98, 0, 0, -23.37, -16918.96, 20789.69)" gradientUnits="userSpaceOnUse"><stop offset="0" stop-color="#fff"/><stop offset="0.47" stop-color="#fff"/><stop offset="0.75" stop-color="#9c9a9b"/><stop offset="0.85" stop-color="#7b7979"/><stop offset="1" stop-color="#4f4c4c"/></radialGradient><radialGradient id="Adsız_degrade_7" cx="845.89" cy="872.05" r="11.15" gradientTransform="matrix(20.98, 0, 0, -22.52, -16918.96, 19914.55)" gradientUnits="userSpaceOnUse"><stop offset="0" stop-color="#fff"/><stop offset="0.23" stop-color="#fff"/><stop offset="1" stop-color="#231f20"/></radialGradient><radialGradient id="Adsız_degrade_8" cx="844.12" cy="882.01" r="13.14" gradientTransform="matrix(20.98, 0, 0, -23.37, -16918.96, 20789.69)" gradientUnits="userSpaceOnUse"><stop offset="0" stop-color="#fff"/><stop offset="0.57" stop-color="#f7f7f7"/><stop offset="0.86" stop-color="#231f20"/><stop offset="1" stop-color="#231f20"/></radialGradient><radialGradient id="Adsız_degrade_9" cx="849.72" cy="875.84" r="43.54" gradientTransform="matrix(20.98, 0, 0, -23.37, -16918.96, 20789.69)" gradientUnits="userSpaceOnUse"><stop offset="0" stop-color="#fff"/><stop offset="0.25" stop-color="#fff"/><stop offset="0.35" stop-color="#a7a6a6"/><stop offset="0.41" stop-color="#7b7979"/><stop offset="0.47" stop-color="#4f4c4c"/><stop offset="1" stop-color="#4f4c4c"/></radialGradient><linearGradient id="Adsız_degrade_10" x1="841.85" y1="869.77" x2="820.29" y2="864.38" gradientTransform="matrix(20.98, 0, 0, -23.37, -16918.96, 20789.69)" gradientUnits="userSpaceOnUse"><stop offset="0" stop-color="#f4f4f4"/><stop offset="0.26" stop-color="#bdbcbc"/><stop offset="0.65" stop-color="#f4f4f4"/><stop offset="0.9" stop-color="#fff"/><stop offset="1" stop-color="#fff"/></linearGradient><linearGradient id="Adsız_degrade_11" x1="1228.56" y1="715.03" x2="1455.27" y2="438.81" gradientTransform="matrix(9.2, 0, 0, -10.25, -10554.94, 7476)" gradientUnits="userSpaceOnUse"><stop offset="0" stop-color="#fff"/><stop offset="0.07" stop-color="#e3e2e2"/><stop offset="0.16" stop-color="#fff"/><stop offset="0.33" stop-color="#d3d3d3"/><stop offset="0.5" stop-color="#fff"/><stop offset="0.98" stop-color="#bbbaba"/><stop offset="1" stop-color="#bbbaba"/></linearGradient><linearGradient id="Adsız_degrade_12" x1="835.62" y1="877.7" x2="937.29" y2="781.14" gradientTransform="matrix(20.98, 0, 0, -23.37, -16918.96, 20789.69)" gradientUnits="userSpaceOnUse"><stop offset="0" stop-color="#dedede"/><stop offset="0.51" stop-color="#4f4c4c"/><stop offset="1" stop-color="#dedede"/></linearGradient><linearGradient id="Adsız_degrade_13" x1="847.4" y1="866.12" x2="807.96" y2="807.17" gradientTransform="matrix(20.98, 0, 0, -23.37, -16918.96, 20789.69)" gradientUnits="userSpaceOnUse"><stop offset="0" stop-color="#c8c7c8"/><stop offset="0.1" stop-color="#fff"/><stop offset="0.35" stop-color="#f0f0f0"/><stop offset="0.54" stop-color="#fff"/><stop offset="0.71" stop-color="#393536"/><stop offset="0.84" stop-color="#fff"/><stop offset="0.91" stop-color="#514e4f"/><stop offset="1" stop-color="#868484"/></linearGradient><linearGradient id="Adsız_degrade_14" x1="846.52" y1="858.61" x2="856.89" y2="852.5" gradientTransform="matrix(20.98, 0, 0, -23.37, -16918.96, 20789.69)" gradientUnits="userSpaceOnUse"><stop offset="0" stop-color="#fff"/><stop offset="0.52" stop-color="#cfcece"/><stop offset="0.83" stop-color="#4f4c4c"/><stop offset="1" stop-color="#393536"/></linearGradient><linearGradient id="Adsız_degrade_15" x1="848" y1="865.36" x2="858.98" y2="878.52" gradientTransform="matrix(20.98, 0, 0, -23.37, -16918.96, 20789.69)" gradientUnits="userSpaceOnUse"><stop offset="0" stop-color="#fff"/><stop offset="0.21" stop-color="#fff"/><stop offset="0.5" stop-color="#dedede"/><stop offset="0.94" stop-color="#9c9a9b"/><stop offset="1" stop-color="#959494"/></linearGradient><linearGradient id="Adsız_degrade_16" x1="854.22" y1="883.13" x2="868.54" y2="868.48" gradientTransform="matrix(20.98, 0, 0, -23.37, -16918.96, 20789.69)" gradientUnits="userSpaceOnUse"><stop offset="0" stop-color="#231f20"/><stop offset="0.18" stop-color="#f4f4f4"/><stop offset="0.58" stop-color="#444041"/><stop offset="1" stop-color="#231f20"/></linearGradient><linearGradient id="Adsız_degrade_17" x1="854.62" y1="868.34" x2="870.92" y2="879.04" xlink:href="#Adsız_degrade_16"/><linearGradient id="Adsız_degrade_18" x1="857.9" y1="880.95" x2="879.31" y2="880.95" gradientTransform="matrix(20.98, 0, 0, -23.37, -16918.96, 20789.69)" gradientUnits="userSpaceOnUse"><stop offset="0" stop-color="#656263"/><stop offset="0.29" stop-color="#d3d3d3"/><stop offset="0.53" stop-color="#656263"/><stop offset="0.76" stop-color="#393536"/><stop offset="1" stop-color="#231f20"/></linearGradient><linearGradient id="Adsız_degrade_19" x1="835.71" y1="854.09" x2="885.08" y2="854.09" gradientTransform="matrix(20.98, 0, 0, -23.37, -16918.96, 20789.69)" gradientUnits="userSpaceOnUse"><stop offset="0" stop-color="#231f20"/><stop offset="0.18" stop-color="#9e9d9d"/><stop offset="0.58" stop-color="#444041"/><stop offset="1" stop-color="#231f20"/></linearGradient><linearGradient id="Adsız_degrade_20" x1="851.66" y1="858.74" x2="873.74" y2="858.74" xlink:href="#Adsız_degrade_19"/><linearGradient id="Adsız_degrade_21" x1="855.42" y1="858.09" x2="895.97" y2="858.09" xlink:href="#Adsız_degrade_19"/><linearGradient id="Adsız_degrade_22" x1="835.17" y1="867.47" x2="877.45" y2="867.47" gradientTransform="matrix(20.98, 0, 0, -23.37, -16918.96, 20789.69)" gradientUnits="userSpaceOnUse"><stop offset="0" stop-color="#7b7979"/><stop offset="0.18" stop-color="#d3d3d3"/><stop offset="1" stop-color="#231f20"/></linearGradient><linearGradient id="Adsız_degrade_23" x1="835.4" y1="873.68" x2="850.08" y2="873.68" gradientTransform="matrix(20.98, 0, 0, -23.37, -16918.96, 20789.69)" gradientUnits="userSpaceOnUse"><stop offset="0" stop-color="#444041"/><stop offset="0.18" stop-color="#d3d3d3"/><stop offset="1" stop-color="#231f20"/></linearGradient><linearGradient id="Adsız_degrade_24" x1="832.14" y1="868.41" x2="842.04" y2="868.41" gradientTransform="matrix(20.98, 0, 0, -23.37, -16918.96, 20789.69)" gradientUnits="userSpaceOnUse"><stop offset="0" stop-color="#7b7979"/><stop offset="0.18" stop-color="#bdbcbc"/><stop offset="1" stop-color="#444041"/></linearGradient><linearGradient id="Adsız_degrade_25" x1="845.32" y1="883.18" x2="846.4" y2="880.81" gradientTransform="matrix(20.98, 0, 0, -23.37, -16918.96, 20789.69)" gradientUnits="userSpaceOnUse"><stop offset="0" stop-color="#fff"/><stop offset="0.12" stop-color="#eee"/><stop offset="0.91" stop-color="#5a5758"/><stop offset="1" stop-color="#5a5758"/></linearGradient><linearGradient id="Adsız_degrade_26" x1="841.9" y1="877.29" x2="881.91" y2="877.29" gradientTransform="matrix(20.98, 0, 0, -23.37, -16918.96, 20789.69)" gradientUnits="userSpaceOnUse"><stop offset="0" stop-color="#fff"/><stop offset="0.98" stop-color="#231f20"/><stop offset="1" stop-color="#231f20"/></linearGradient><linearGradient id="Adsız_degrade_27" x1="841.24" y1="853.45" x2="856.07" y2="905.89" gradientTransform="matrix(20.98, 0, 0, -23.37, -16918.96, 20789.69)" gradientUnits="userSpaceOnUse"><stop offset="0" stop-color="#e9e9e9"/><stop offset="0.07" stop-color="#5a5758"/><stop offset="0.35" stop-color="#918f90"/><stop offset="0.6" stop-color="#b7b5b6"/><stop offset="0.96" stop-color="#706d6e"/><stop offset="1" stop-color="#b2b1b1"/></linearGradient></defs><path class="cls-1" d="M1249.2,841.68c-13.73-43.45-70.16-154.52-114.38-217.29-9.15-12.88-6.1-20.93-1.52-24.15,4.57-4.83,21.34-19.32,41.17-43.46s24.4-51.51,10.68-90.14-59.48-130.38-68.63-161c-10.68-35.41-12.2-49.9-6.1-69.21,7.62-22.54,19.82-24.15,27.45-22.54,4.57,0,7.63,4.83,7.63,8.05,0,9.66,0,22.54,9.14,48.29,15.26,40.24,51.86,67.6,64,72.43,7.63,3.23,9.15-3.21,9.15-6.43s-13.72-53.12-22.87-91.75c-9.15-40.24-13.73-48.29-22.87-56.34-13.73-12.88-33.56-20.93-51.86-20.93-39.65,1.61-56.42,41.86-58,45.07s-3,4.83-6.1,3.22c-10.67-8-44.22-37-47.27-54.72-1.53-11.27-3.06-12.88-13.73-16.1-39.65-16.1-73.2-30.58-109.8-37-15.25-3.22-15.25-4.83-33.55,0-30.5,6.44-48.8,12.87-70.15,25.75-12.2,6.44-13.73,11.27-16.78,14.49-1.52,3.22-4.57,6.44-7.62,6.44-7.63,3.22-35.08,12.87-44.23,19.31-6.1,3.22-9.15,8-6.1,14.49,4.58,12.88,21.35,38.63,27.45,45.07,4.58,3.22,15.25,6.44,16.78,6.44,3,0,4.57,1.61,4.57,0,1.53-1.61,1.53-4.83,6.1-9.66,7.63-4.83,21.35-9.66,29-9.66,6.1,0,9.15,0,12.19,1.61s9.16,9.66,12.21,17.71,1.52,9.66-3,12.88a139.36,139.36,0,0,1-30.5,6.44c-13.73,1.6-18.3-3.23-18.3-3.23,0-1.61-3-1.61-4.58,0-3,3.23-6.1,4.83-10.67,8-3,1.61-4.58,4.83-1.53,9.66,9.15,16.1,19.82,33.8,30.5,37,9.15,3.22,13.73,0,22.88-8,9.15-6.44,13.72-6.44,16.77-4.84s7.63,6.44,6.1,11.27c-3.05,8.05-18.3,27.37-21.35,30.59s-6.1,6.44-10.67,3.22c-7.63-3.22-117.43-64.39-132.68-70.83-16.78-6.44-27.45-8.05-42.7-9.66-12.2,0-30.5,0-41.18,3.22-7.62,1.61-12.2,4.83-19.82,12.88-10.68,9.66-21.35,22.54-21.35,32.19,0,8.05,7.62,22.53,7.62,24.15,1.53,1.61,3,3.22,6.1,3.22,4.58,0,15.25-6.44,29-4.83,12.2,1.61,13.72,11.27,13.72,19.32,0,1.6,1.53,4.82,4.58,4.82A42.36,42.36,0,0,1,625.46,362c10.67,4.83,32,22.53,35.08,25.76s3,6.44-3,6.44c-25.93,3.21-67.11,11.26-85.41,17.7-13.72,4.83-29,11.27-33.55,20.93-6.1,11.26-13.72,29-16.77,43.46-1.53,12.87,10.67,29,13.72,32.19s4.58,3.22,7.63,1.61c6.1-3.22,21.35-14.49,36.6-14.49,9.15,0,12.2,8.05,15.25,11.27,1.52,3.22,4.57,1.61,12.2-1.61,13.72-4.83,94.55-3.22,123.53-1.61,12.2,0,30.5,3.22,44.22,9.66,13.73,8,36.6,32.19,36.6,32.19s-32,56.34-48.8,90.14c-15.25,30.59-27.45,53.12-33.55,67.6-4.58,12.88-9.15,29-9.15,43.47,1.53,19.31,1.53,30.58,1.53,38.63s-7.63,8-16.78,11.27c-13.72,3.21-41.18,6.44-64,12.87-19.82,4.83-27.45,9.66-32,27.37-3,12.87-7.62,45.07-7.62,59.56,0,6.43,0,9.65,6.1,8,4.57-1.61,15.25-3.22,30.5-3.22,18.3-1.61,39.65-1.61,54.9-1.61,29,0,114.38,4.83,120.48,6.44,7.63,0,9.15,0,7.63-4.83,0-6.43-1.53-29-1.53-43.46,0-12.87-3-27.36,9.15-40.24S927.41,701.65,932,696.82s7.63-9.66,13.73-3.22,77.77,61.17,93,72.43,27.45,14.49,44.23,14.49c12.2,0,15.25,22.53,4.57,24.14a296.2,296.2,0,0,0-36.6,8.06c-16.77,4.82-22.87,9.65-27.45,22.53-4.57,9.66-9.15,59.56-9.15,64.39,0,3.21,0,8,4.58,6.43,21.35-4.83,53.37-6.44,90-4.83,41.17,1.61,80.82,4.83,85.39,4.83,6.11,0,6.11,0,9.15-4.83,4.58-8,19.83-27.36,33.56-38.63,15.25-9.65,15.25-12.88,12.19-20.93M1093.64,539.07c-10.67,3.22-16.77,0-21.35-4.83s-45.75-57.94-59.47-72.43c-6.1-8.05-12.2-25.75,7.62-33.8,16.78-6.44,45.75-16.1,53.38-20.93s12.2-9.66,13.72-17.7V366.84c0-3.21,4.58-6.44,6.1-1.61,1.53,3.22,9.15,17.71,18.3,35.41,13.73,25.76,30.5,59.56,36.6,74.05q6.87,19.32-4.57,33.8c-12.2,12.88-42.7,27.36-50.33,30.59" transform="translate(-521.63 -104.64)"/><path class="cls-2" d="M1134.83,173.68c-32,0-64,38.63-57.95,96.58,4.57,35.41,9.15,51.51,18.3,75.66,4.57,11.26,59.47,120.72,62.52,132,3,16.09,0,27.36-12.2,38.63-13.72,12.88-35.07,27.36-50.32,32.19-3,1.61-6.1,1.61-9.15,1.61s-12.2-1.61-27.45-22.53l70.15,99.79c-9.15-12.87-13.73-22.53-12.2-30.58s15.25-17.71,29-29c15.25-12.88,30.5-27.37,38.13-48.29,1.52-6.44,3-11.27,3-17.71,0-19.31-9.15-41.85-19.82-66-13.73-32.2-53.38-99.8-65.58-148.09a126.5,126.5,0,0,1-4.58-32.2c0-27.36,10.68-45.07,24.4-49.89,6.1-3.22,12.2-3.22,16.78-3.22,7.62,0,12.2,1.61,15.25,3.22s4.57,6.43,4.57,11.26v8.05c0,11.27,1.53,35.41,13.73,59.56,15.25,30.58,42.7,48.29,51.85,51.51,1.53,0-24.4-98.19-29-115.9-3-24.14-18.31-45.07-59.48-46.68Z" transform="translate(-521.63 -104.64)"/><path class="cls-3" d="M695.62,392.6c6.1,6.43-4.58,6.43-36.6,9.65-33.55,3.22-67.1,9.66-83.88,17.71-12.2,4.83-19.82,8.05-25.93,20.92S538.54,465,537,474.69c0,4.83,0,6.44,1.53,11.26,1.52,1.61,4.57-62.77,83.88-67.6,70.15-3.22,88.45-11.27,74.72-25.75Z" transform="translate(-521.63 -104.64)"/><path class="cls-4" d="M1139.4,204.27c-4.57,0-9.15,1.61-15.25,3.22-10.67,4.82-21.35,19.31-21.35,45.07V259s1.53-17.7,4.58-25.75c7.62-22.54,19.82-25.75,29-25.75,6.1,0,9.15,1.61,10.68,4.82a12.69,12.69,0,0,1,3,8.05c0,9.66,0,20.93,9.15,46.68,0,1.61,1.52,3.22,1.52,4.83-7.62-20.92-9.15-38.63-9.15-48.29v-6.44c1.53-9.65-6.1-12.87-12.2-12.87Z" transform="translate(-521.63 -104.64)"/><path class="cls-5" d="M698.67,395.81c3.05,6.44-7.63,4.83-39.65,8.05-33.55,3.22-67.1,9.66-83.88,16.1-12.2,4.83-19.82,8.05-25.92,20.92S538.54,465,537,474.69c0,4.83,0,6.44,3.05,11.26,3,6.44,6.1,6.44,10.67,3.22s21.35-12.87,33.55-12.87c10.68,0,15.25,6.44,16.78,12.87,1.52,3.22,6.1,1.61,6.1,1.61,4.57-1.61,9.15-3.22,25.92-3.22,19.83-1.61,96.08,0,125.06,0,25.92,0,125.05,83.71,126.57,83.71L889.3,560c-33.55-29-160.13-135.21-190.63-165.8Z" transform="translate(-521.63 -104.64)"/><path class="cls-6" d="M598,273.48c-6.1,1.61-10.68,1.61-16.78,8s-18.3,14.49-21.35,24.14c-1.52,3.22-3,6.44-1.52,8.05,0,4.83,3,8,3,9.66,1.52,1.61,3.05,1.61,6.1,1.61a127.55,127.55,0,0,1,25.92-3.22c4.58,0,12.2,1.61,15.25,4.83,4.58,4.83,4.58,9.66,4.58,12.88,0,1.61,0,3.22,3.05,3.22a54.32,54.32,0,0,1,15.25,1.61c15.25,3.21,35.07,16.09,53.37,35.41,35.08,35.41,80.83,86.92,123.53,122.33,21.35,17.71,56.43,40.24,68.63,53.12,1.52,1.61-3.05,3.22-6.1,1.61-1.53-1.61-21.35-17.71-25.93-19.32-3.05-1.61-7.62,0-12.2,6.44-33.55,48.29-71.67,130.38-88.45,169-3,9.65-6.1,20.92-6.1,30.58,0,11.27,1.52,32.19,1.52,41.85s-1.52,12.88-13.72,16.1c-19.83,3.22-64,11.26-74.73,14.48-9.15,1.61-15.25,6.44-18.3,16.1-4.57,14.49-9.15,38.63-9.15,43.46,0,3.22,1.53,6.44,4.58,4.83,16.77-4.83,41.17-8.05,76.25-6.44,35.07,0,96.07,6.44,103.7,8,3,0,6.1,0,6.1-3.22s-1.52-20.93-1.52-43.46,18.3-38.63,44.22-67.61,88.45-93.36,90-95,3-3.22,0-6.43c-4.58-4.83-24.4-25.76-25.93-29-1.52-1.61-3.05-4.83-3.05-6.44,1.53-1.61,3.05,0,6.1,3.22,12.2,9.66,143.36,122.34,152.51,125.56,9.15,4.82,15.25,4.82,22.87,6.43,6.1,1.61,12.2,11.27,12.2,17.71,1.53,8,0,17.71-9.15,19.32-9.15,3.21-33.55,6.43-41.17,9.65-9.15,3.22-13.73,6.44-18.3,16.1-3,9.66-7.63,38.63-9.15,40.24,0,6.44,1.52,6.44,6.1,4.83,6.1-1.61,12.2-3.22,36.6-4.83,42.7-1.61,106.75,4.83,114.38,4.83,3,0,4.57-3.22,6.1-4.83,9.15-16.1,6.1-20.92,18.3-30.58,6.1-4.83,9.15-6.44,4.57-16.1-39.65-95-76.25-157.74-137.25-239.84-38.13-53.11-83.88-111.06-99.13-128.77L802.37,344.31c-10.67-4.83-94.55-51.51-109.8-57.95-15.25-8.05-25.93-14.49-41.18-17.71-10.67-3.22-21.35-3.22-30.5-3.22-6.1,6.44-15.25,6.44-22.87,8.05" transform="translate(-521.63 -104.64)"/><path class="cls-7" d="M800.85,183.34c-25.93,8-59.48,22.54-61,22.54v1.61l3,6.43A17.31,17.31,0,0,0,749,222a38.46,38.46,0,0,0,10.67,4.83c1.53,0,1.53,0,3.05-1.61s4.58-11.27,22.88-16.09a57.91,57.91,0,0,1,19.82-3.22c4.58,0,12.2,3.22,16.78,6.43,6.1,6.44,12.2,17.71,13.72,24.15,1.53,4.83,0,11.27-4.57,14.49s-19.83,6.43-29,8-18.3,0-24.4-3.21h-3.05a42.69,42.69,0,0,1-7.62,6.43c-1.53,0-1.53,1.61,0,3.22S779.5,288,787.12,292.8s10.68,3.22,18.3-1.61,13.73-11.27,22.88-11.27,16.77,8.05,16.77,17.71c1.53,11.26-4.57,17.7-9.15,25.75-4.57,6.44-12.2,16.1-16.77,22.54-6.1,6.43-15.25,4.82-15.25,4.82L880.15,391c10.67,6.43,29,0,39.65-22.54,3.05-4.83,19.82-45.07,24.4-56.34s10.67-24.14,0-46.68S903,202.66,890.82,186.56c-6.1-8.05-13.72-12.88-30.5-14.49h-6.1a384.14,384.14,0,0,0-53.37,11.27" transform="translate(-521.63 -104.64)"/><path class="cls-8" d="M802.37,262.21c-9.15,1.61-18.3,0-24.4-3.22h-1.52c-1.53,1.61-3.05,3.22-7.63,4.83-1.52,0-1.52,1.61,0,3.22s10.68,19.32,18.3,25.76c7.63,4.83,10.68,3.22,19.83-1.61s13.72-11.27,22.87-9.66l1.53-25.75c-4.58,1.6-19.83,4.82-29,6.43" transform="translate(-521.63 -104.64)"/><path class="cls-9" d="M742.89,207.49v3.21l3.05,6.44a19,19,0,0,0,6.11,6.44c4.57,3.22,9.15,3.22,10.67,4.83,1.53,0,1.53,0,3-1.61s4.58-11.27,22.88-16.1a58.08,58.08,0,0,1,19.82-3.21l-7.62-20.93c-25.93,6.44-58,19.32-58,20.93" transform="translate(-521.63 -104.64)"/><path class="cls-10" d="M837.45,326.6c-4.58,6.44-12.2,16.1-16.78,22.53A15.58,15.58,0,0,1,807,354s45.75,24.15,73.2,40.24c10.67,6.44,27.45,1.61,39.65-20.92,3.05-4.83,19.82-45.07,24.4-56.34l-99.13-14.49c3,9.66-3.05,17.71-7.62,24.15" transform="translate(-521.63 -104.64)"/><path class="cls-11" d="M688,457c-12.2,0-39.65,3.22-47.27,4.83s-19.83,12.88-21.35,14.49c-3,3.22-3,6.44,0,6.44h9.15c9.15-1.61,36.6-1.61,65.57-1.61h70.15c-12.2-12.88-21.35-29-24.4-29-7.62,0-48.8,3.22-51.85,4.83" transform="translate(-521.63 -104.64)"/><path class="cls-12" d="M617.84,484.34c-1.53,0-1.53-1.61-1.53-3.21s1.53-3.23,3.05-4.83,13.72-12.88,22.88-14.49c7.62-1.61,35.07-4.83,47.27-4.83,3,0,44.23-3.22,50.32-4.83,1.53,0,3.06,1.61,4.58,3.22s3.05,4.83,6.1,6.44c4.58,6.44,9.15,12.88,15.25,19.32l1.53,1.6H695.61c-30.5,0-56.43,1.61-65.57,1.61Zm3-1.61H627c9.15-1.6,36.6-1.6,65.58-1.6h68.63c-7.63-9.66-15.26-20.93-19.83-25.76l-3.05-3.22c-6.1,0-45.75,3.22-48.8,3.22-12.2,0-39.65,3.22-47.27,4.83s-19.83,12.88-21.36,14.49-1.52,3.21-1.52,4.83,0,1.61,1.52,1.61c-1.52,1.6-1.52,1.6,0,1.6" transform="translate(-521.63 -104.64)"/><path class="cls-13" d="M796.27,141.49C785.6,147.93,785.6,156,778,160.81s-24.4,8-41.18,16.09c-9.15,4.83-9.15,4.83-7.62,11.27,1.52,1.61,7.62,14.49,10.67,14.49s7.63-1.61,10.68-3.22c4.57-1.61,39.65-16.1,67.1-22.54,30.5-6.44,62.53-8.05,74.73,4.83,18.3,19.32,48.8,64.39,57.95,82.09,9.15,19.32,7.62,27.37,1.52,46.68-6.1,17.71-27.45,64.39-33.55,74.05s-13.72,14.48-32,6.44c-19.83-8.05-91.5-48.29-106.75-56.34-10.68-4.83-54.9-29-88.46-46.68-12.2-6.44-22.87-11.27-33.55-14.49-24.4-6.44-51.85-3.22-64-1.61-6.1,1.61-9.15,11.27-9.15,14.49s6.1,3.22,13.73,1.61h10.67c9.15,0,38.13,4.83,56.43,11.27,18.3,8,109.8,59.55,132.68,72.43,176.9,101.41,251.63,165.79,387.36,407.24,6.1,11.27,9.15,24.15,0,27.36-13.73,4.83-71.68,16.1-90,22.54-15.25,4.83-16.78,6.44-18.3,14.49-3.05,8-6.1,25.75-4.58,29,0,1.61-1.52,3.22,1.53,3.22,16.77,0,74.72,0,120.48,4.83,6.1,0,6.1,0,9.15-4.83,4.57-6.44,19.82-25.75,30.5-33.8,4.57-3.22,1.52-9.66,0-11.27-12.2-33.8-48.81-109.46-99.13-186.72C1086,568.05,1002.15,465,991.48,447.32c-10.68-16.09-15.25-35.41,7.62-43.46,15.25-4.83,51.85-12.87,67.1-17.7s15.25-9.66,16.78-20.93c1.52-12.88-1.53-75.65-9.15-112.67-1.53-8.05-6.1-14.49-12.2-19.32-4.58-3.22-25.93-22.54-36.6-35.41-12.2-16.1-18.3-30.59-21.35-41.85s0-1.61-3-4.83l-3-3.22c-21.36-14.49-99.13-37-115.91-38.63h-3c-13.72,4.83-50.32,11.26-82.35,32.19" transform="translate(-521.63 -104.64)"/><path class="cls-14" d="M587.34,292.8h27.45a233.88,233.88,0,0,1,50.33,11.26c18.3,8.05,105.23,62.78,128.1,75.66C860.32,420,912.17,457,961,498.83c73.21,62.78,137.26,135.21,216.56,283.3,3,6.44,4.57,9.66,4.57,16.1,0,8-6.1,11.26-9.15,11.26-13.72,4.83-70.15,17.71-86.92,24.15-13.73,4.83-16.78,8.05-18.3,16.1,0,3.21-3,17.7-6.1,20.92s-9.15,4.83-16.78,4.83c-4.57,0-6.1,0-6.1-4.83s3-17.71,4.58-25.75S1047.9,832,1054,827.2s30.5-8.05,42.7-11.27c13.73-3.22,13.73-9.66,13.73-20.92,0,11.26-3,14.48-16.78,16.09-13.72,3.22-36.6,6.44-42.7,11.27-7.62,4.83-10.67,12.88-10.67,17.71-4.58,19.31-7.63,33.8-7.63,38.63s1.53,4.83,6.1,4.83,15.25-1.61,33.55-3.22c4.58,0,4.58-6.44,4.58-12.88,0-3.22,0-9.66,1.52-14.49a19,19,0,0,1,7.63-8c9.15-3.22,62.52-17.71,88.45-25.76,12.2-3.22,16.77-8,15.25-19.31-1.53-9.66-9.15-24.15-24.4-49.9s-35.08-59.56-59.48-98.19c-45.75-67.61-90-120.72-144.88-167.4-41.17-33.81-83.87-61.17-115.9-80.49s-164.7-96.58-184.53-103c-18.3-6.44-33.55-8.05-47.27-9.66-9.15-1.61-16.78,0-24.4,0s-4.58-6.44-4.58-9.66c1.53,1.61-3,11.27,3.05,11.27" transform="translate(-521.63 -104.64)"/><path class="cls-15" d="M829.82,545.51c-4.57,6.44-30.5,49.9-51.85,91.75-15.25,29-33.55,70.83-36.6,82.09-3,9.66-4.58,17.71-3,29,0,9.66,1.52,27.36,3,38.63,0,11.27-1.53,16.1-13.73,19.31-9.15,1.61-61,11.27-73.2,14.49s-16.77,9.66-19.82,19.32-6.1,29-6.1,32.19c0,4.83,0,4.83,4.57,4.83,3,0,12.2-1.61,15.25-1.61s3-3.22,3-6.44c1.53-3.22,1.53-8,3.05-17.71,1.53-8,4.58-14.48,15.25-19.31,10.68-3.22,62.53-12.88,70.15-14.49,9.15-3.22,13.73-6.44,15.25-16.09s-1.52-29-1.52-43.46c0-16.1,0-24.15,7.62-41.86,16.78-33.8,68.63-114.28,103.71-161s-3-3.22-7.63-6.44-12.2-9.66-15.25-9.66h-3c-3.05,0-6.1,1.61-9.15,6.44" transform="translate(-521.63 -104.64)"/><path class="cls-16" d="M823.72,780.52c-9.15,22.54-12.2,35.41-12.2,45.07s1.53,12.88,1.53,12.88c0-9.66,3.05-17.71,9.15-27.37,7.62-11.26,19.82-24.14,35.07-40.24,25.93-29,88.45-93.36,91.5-96.58,1.53-1.61,3.05-3.22,0-6.43L929,646.92c-6.1-6.44-10.68-9.66-10.68-12.88-1.52,0-71.67,83.7-94.55,146.48" transform="translate(-521.63 -104.64)"/><path class="cls-17" d="M588.87,292.8l582.56,516.69c6.1-1.61,9.15-6.43,9.15-9.65,0-4.83,0-9.66-3-16.1C1096.7,634,1035.7,564.83,961,502.05a393.06,393.06,0,0,0-39.65-32.19c-38.12-29-79.3-57.95-128.1-86.92-13.73-8.05-54.9-33.81-86.93-53.12-18.3-11.27-35.07-20.93-41.17-22.54-12.2-6.43-33.55-9.65-50.33-12.87-6.1,0-10.67-1.61-16.77-1.61-1.53-1.61-6.1,0-9.15,0" transform="translate(-521.63 -104.64)"/><path class="cls-18" d="M1000.62,147.93c1.53,1.61,3,1.61,4.58,3.22a10.59,10.59,0,0,1,4.57,8c1.53,9.65,7.63,24.14,19.83,38.63,10.67,12.87,32,32.19,36.6,35.41,3,1.61,6.1,4.83,7.63,6.44,1.52-8.05,3.05-16.1,7.62-24.15,0,1.61-1.52,1.61-1.52,3.22-1.53,1.61-3,3.22-6.1,3.22s-4.58-1.61-6.1-3.22c-12.2-9.65-44.23-35.41-48.81-59.55-3-11.27,0-6.44-9.15-11.27-3-1.61-6.1-3.22-9.15-3.22-1.52,1.61-1.52,1.61,0,3.22" transform="translate(-521.63 -104.64)"/><path class="cls-19" d="M1069.25,397.42c-15.25,4.83-53.38,12.88-68.63,17.71C990,420,988.42,423.18,988.42,428s3.05,12.87,7.63,20.92c6.1,8.05,33.55,41.85,64,82.09a50.51,50.51,0,0,0,7.63,9.66c-1.53-1.61-44.23-59.55-58-75.65-3.06-4.83-7.63-11.27-7.63-19.32s6.1-19.31,18.3-24.14c16.78-6.44,45.75-16.1,53.38-20.93,6.1-3.22,9.15-6.44,9.15-11.26-4.58,3.22-9.15,6.43-13.73,8" transform="translate(-521.63 -104.64)"/><path class="cls-20" d="M1136.35,173.68c-29,0-48.8,27.37-54.9,51.51,6.1-22.53,24.4-48.29,54.9-48.29,38.13,0,53.38,14.49,59.48,37-6.1-30.58-32-41.85-56.43-41.85a4.6,4.6,0,0,1-3.05,1.61" transform="translate(-521.63 -104.64)"/><path class="cls-21" d="M860.32,774.08c-29,32.19-42.7,41.85-42.7,61.17,0,11.27,1.53,40.24,1.53,45.07,0,3.22,0,6.44-4.58,8A15.81,15.81,0,0,1,807,890c-7.63,0-85.41-8.05-112.86-8.05s-50.32,3.22-64.05,6.44c-3,0-7.62,0-10.67-3.22-1.53-1.61-1.53-3.22-1.53-4.83,0,4.83-1.52,12.88-1.52,14.49,4.57-1.61,16.77-3.22,32-3.22,19.83-1.61,41.18-1.61,54.9-1.61s122,6.44,122,6.44c0-8-1.53-29-1.53-41.86V841.69c0-9.66,1.53-22.54,10.68-32.2,4.57-6.43,24.4-29,45.75-53.11a125.66,125.66,0,0,0-19.83,17.7" transform="translate(-521.63 -104.64)"/><path class="cls-22" d="M950.3,679.11a8.32,8.32,0,0,1,7.62,4.83c6.1,4.83,77.78,61.17,91.51,70.83a50.48,50.48,0,0,0,18.3,9.65c-4.58-3.22-12.2-9.65-21.35-17.7-13.73-11.27-32-25.76-48.81-40.24-15.25-12.88-30.5-25.76-42.7-35.42,0,4.83-3,8.05-4.57,8.05" transform="translate(-521.63 -104.64)"/><path class="cls-23" d="M1122.63,600.24c0,1.61-1.53,4.83-1.53,8,0,4.83,1.53,11.27,7.63,19.31a88.29,88.29,0,0,0,10.67,14.49c50.33,77.26,85.4,152.92,97.61,188.33,3,8.05,3,12.88,0,16.1s-25.93,29-29,33.8l-4.58,4.83c-1.52,1.61-6.1,3.22-10.67,3.22-38.13-3.22-80.83-4.83-102.18-4.83-27.45,0-42.7,3.22-51.85,3.22-4.57,0-7.62-1.61-9.15-1.61v8.05q25.17-4.83,64.05-4.83h24.4c41.18,1.61,88.45,4.83,88.45,4.83s22.88-30.59,36.6-43.46c3.05-1.61,3.05-1.61,3.05-3.22s0-3.22-1.52-8C1229.38,795,1174.48,685.55,1131.78,626c-4.58-6.43-7.63-12.87-7.63-19.31a17.12,17.12,0,0,1,7.63-14.49c3-3.22,10.67-9.66,19.82-19.31-16.77,14.48-27.45,24.14-29,27.36" transform="translate(-521.63 -104.64)"/><path class="cls-24" d="M633.09,492.39c-16.77,1.61-24.4,3.22-25.92,3.22h-3a5.73,5.73,0,0,1,1.52,3.22h1.53c9.15-3.22,32-4.83,59.47-4.83,25.93,0,54.9,0,70.15,1.61,13.73,0,32,3.22,47.28,11.27,13.72,8,44.23,30.58,45.75,29-12.2-9.65-25.93-17.7-36.6-25.75-15.25-9.66-30.5-17.71-35.08-17.71H683.42c-21.35-1.61-42.7,0-50.33,0" transform="translate(-521.63 -104.64)"/><path class="cls-25" d="M611.74,350.74h3c4.58,0,12.2,0,18.3,3.22,12.2,6.44,42.7,30.59,47.28,35.42,6.1,6.43,12.2,6.43,6.1,1.61-18.3-17.71-44.23-37-58-40.25-4.58-1.61-10.68-1.61-15.25-1.61s-3-4.82-4.58-6.43,0,8,3,8" transform="translate(-521.63 -104.64)"/><path class="cls-26" d="M584.29,482.74c-9.15,0-29,11.26-33.55,12.87-4.57,3.22-7.62,3.22-10.68,0,1.53,3.22,4.58,6.44,6.11,4.83S573.62,486,585.82,486c3,0,4.57,0,7.62,1.61q-2.28-4.81-9.15-4.82Z" transform="translate(-521.63 -104.64)"/><path class="cls-27" d="M832.87,143.1c-6.1,1.61-24.4,6.44-25.92,6.44s-3.05,1.61-4.58,3.22-1.52,6.44-1.52,9.66c0,1.61,3,3.21,4.57,1.61,4.58-1.61,27.45-11.27,30.5-11.27a3.37,3.37,0,0,0,3.05-3.22v-4.83a3.37,3.37,0,0,0-3.05-3.22c0,1.61-1.52,1.61-3,1.61" transform="translate(-521.63 -104.64)"/><path class="cls-1" d="M832.87,144.71c3,0,4.56,0,4.56,1.61v3.22s0,1.61-1.52,1.61c-3,1.61-19.82,8-22.87,9.66s-6.1,0-6.1-1.61,0-4.83,1.52-4.83c0-1.61,1.53-1.61,3-3.22,1.53,0,16.78-4.83,21.35-6.44" transform="translate(-521.63 -104.64)"/><path class="cls-28" d="M857.27,170.46C810,172.07,768.82,193,744.42,202.66c16.77-6.44,56.43-24.15,102.18-25.76,24.4-1.61,35.07,0,44.22,11.27,13.73,16.1,44.23,58,54.9,80.48a45.84,45.84,0,0,1,6.1,22.54,87.9,87.9,0,0,1-7.62,24.14c-4.58,11.27-22.88,48.29-25.93,54.73-12.2,22.54-24.4,22.54-38.12,19.32s6.1,3.22,12.2,6.43c15.25,6.44,24.4-3.21,33.55-19.31,3.05-4.83,21.35-46.68,25.92-59.56,3-8.05,6.1-14.49,6.1-24.14,0-6.44-1.52-16.1-6.1-24.15-10.67-22.53-42.7-66-54.9-82.09-10.67-12.88-19.82-16.1-35.07-16.1Z" transform="translate(-521.63 -104.64)"/><path class="cls-29" d="M802.37,642.09c-16.77,29-41.18,70.83-45.75,80.48A70,70,0,0,0,752,748.33c0,9.66,1.53,45.07,1.53,46.68,0,6.44-1.53,9.66-3.05,14.48-3,3.22-7.63,4.83-13.73,6.44-10.67,1.61-57.95,9.66-70.15,11.27-12.2,3.22-18.3,9.66-21.35,17.71-1.52,6.43-4.57,17.7-4.57,22.53v3.22c0,4.83,1.52,4.83,1.52,4.83s54.9-4.83,86.93-1.61c32,1.61,77.77,6.44,77.77,6.44s-47.27-9.66-79.3-11.27c-16.77-1.61-35.07,0-48.8,0-15.25,0-25.92,1.61-25.92,0s-1.53-3.22,0-8c0-3.22,1.52-6.44,1.52-9.65,1.52-8.05,6.1-16.1,18.3-19.32s58-11.27,67.1-12.88,13.73-6.44,15.25-12.88V793.4c0-9.66-1.52-35.41-1.52-37,0-16.1,1.52-24.15,10.67-41.86,15.25-27.36,73.2-119.11,100.66-151.3,1.52-1.61,3.05-3.22,6.1-3.22h-1.53a26.42,26.42,0,0,1-6.1-4.83c-7.62,6.44-39.65,49.9-61,86.92" transform="translate(-521.63 -104.64)"/></svg>