<svg id="katman_1" data-name="katman 1" xmlns="http://www.w3.org/2000/svg" xmlns:xlink="http://www.w3.org/1999/xlink" viewBox="0 0 291.22 364.08"><defs><style>.cls-1{filter:url(#a);}.cls-2{fill:url(#Adsız_degrade);}.cls-3{fill:url(#Adsız_degrade_3);}.cls-4{mask:url(#mask);}.cls-5{fill:url(#Adsız_degrade_4);}.cls-6{fill:url(#Adsız_degrade_5);}.cls-7{fill:url(#Adsız_degrade_6);}.cls-8{fill:url(#Adsız_degrade_7);}.cls-9{fill:url(#Adsız_degrade_8);}.cls-10{fill:url(#Adsız_degrade_9);}.cls-11{fill:url(#Adsız_degrade_10);}.cls-12{fill:url(#Adsız_degrade_11);}.cls-13{fill:url(#Adsız_degrade_12);}.cls-14{fill:url(#Adsız_degrade_13);}.cls-15{fill:url(#Adsız_degrade_14);}.cls-16{fill:url(#Adsız_degrade_15);}.cls-17{fill:url(#Adsız_degrade_16);}.cls-18{fill:url(#Adsız_degrade_17);}.cls-19{fill:url(#Adsız_degrade_18);}.cls-20{fill:#fff;}</style><filter id="a" x="1.13" y="1.14" width="45.73" height="57.72" name="a"><feFlood result="back" flood-color="#fff"/></filter><linearGradient id="Adsız_degrade" x1="-63.23" y1="1855.5" x2="-63.23" y2="1888.04" gradientTransform="matrix(6.07, 0, 0, -6.07, 1200.43, 12547.02)" gradientUnits="userSpaceOnUse"><stop offset="0.85" stop-color="#fff"/><stop offset="1"/></linearGradient><linearGradient id="Adsız_degrade_3" x1="-62.5" y1="1859.62" x2="-62.5" y2="1917.34" gradientTransform="matrix(6.07, 0, 0, -6.07, 1200.43, 12547.02)" gradientUnits="userSpaceOnUse"><stop offset="0" stop-color="#e5e5e5"/><stop offset="0.69" stop-color="#fff"/><stop offset="1" stop-color="#919191"/></linearGradient><mask id="mask" x="-36.97" y="6.91" width="356.36" height="375.24" maskUnits="userSpaceOnUse"><g transform="translate(-675.57 -905.69)"><g id="c"><g class="cls-1"><rect class="cls-2" x="638.6" y="1090.42" width="356.36" height="197.42"/></g></g></g></mask><radialGradient id="Adsız_degrade_4" cx="-64.3" cy="1902.46" r="28.89" gradientTransform="matrix(6.05, 0, 0, -6.07, 1191.78, 12547.02)" gradientUnits="userSpaceOnUse"><stop offset="0.4" stop-color="#fff"/><stop offset="1" stop-color="#919191"/></radialGradient><linearGradient id="Adsız_degrade_5" x1="-73.92" y1="1859.9" x2="-73.92" y2="1888.34" gradientTransform="matrix(6.07, 0, 0, -6.07, 1200.43, 12547.02)" gradientUnits="userSpaceOnUse"><stop offset="0.01" stop-color="#e5e5e5"/><stop offset="0.34" stop-color="#a6a6a6"/><stop offset="0.69" stop-color="#333"/><stop offset="0.84" stop-color="#1a1a1a"/><stop offset="0.95" stop-color="#111"/><stop offset="0.96" stop-color="#141414"/><stop offset="0.97" stop-color="#1d1d1d"/><stop offset="0.98" stop-color="#2d2d2d"/><stop offset="0.99" stop-color="#444"/><stop offset="1" stop-color="#616161"/><stop offset="1" stop-color="#666"/></linearGradient><linearGradient id="Adsız_degrade_6" x1="-68.87" y1="1859.82" x2="-68.87" y2="1859.82" xlink:href="#Adsız_degrade_5"/><linearGradient id="Adsız_degrade_7" x1="-54.32" y1="1859.9" x2="-54.32" y2="1888.36" gradientTransform="matrix(6.07, 0, 0, -6.07, 1200.43, 12547.02)" gradientUnits="userSpaceOnUse"><stop offset="0.01" stop-color="#e5e5e5"/><stop offset="0.34" stop-color="#a6a6a6"/><stop offset="0.69" stop-color="#333"/><stop offset="0.84" stop-color="#1a1a1a"/><stop offset="0.95" stop-color="#111"/><stop offset="0.97" stop-color="#141414"/><stop offset="0.98" stop-color="#1d1d1d"/><stop offset="0.98" stop-color="#2d2d2d"/><stop offset="0.99" stop-color="#444"/><stop offset="1" stop-color="#616161"/><stop offset="1" stop-color="#666"/></linearGradient><linearGradient id="Adsız_degrade_8" x1="-63.74" y1="1888.67" x2="-63.74" y2="1917.32" gradientTransform="matrix(6.07, 0, 0, -6.07, 1200.43, 12547.02)" gradientUnits="userSpaceOnUse"><stop offset="0" stop-color="#333"/><stop offset="0.01" stop-color="#292929"/><stop offset="0.02" stop-color="#1e1e1e"/><stop offset="0.04" stop-color="#1a1a1a"/><stop offset="0.12" stop-color="#151515"/><stop offset="0.23" stop-color="#050505"/><stop offset="0.25"/></linearGradient><linearGradient id="Adsız_degrade_9" x1="-58.09" y1="1888.47" x2="-58.09" y2="1905.05" gradientTransform="matrix(6.07, 0, 0, -6.07, 1200.43, 12547.02)" gradientUnits="userSpaceOnUse"><stop offset="0" stop-color="#737373"/><stop offset="0.15" stop-color="#6e6e6e"/><stop offset="0.33" stop-color="#5e5e5e"/><stop offset="0.54" stop-color="#454545"/><stop offset="0.75" stop-color="#222"/><stop offset="0.8" stop-color="#1a1a1a"/><stop offset="0.92"/></linearGradient><linearGradient id="Adsız_degrade_10" x1="-66.92" y1="1871.87" x2="-66.92" y2="1888.46" gradientTransform="matrix(6.07, 0, 0, -6.07, 1200.43, 12547.02)" gradientUnits="userSpaceOnUse"><stop offset="0.36" stop-color="#bfbfbf"/><stop offset="0.47" stop-color="#bababa"/><stop offset="0.61" stop-color="#acacac"/><stop offset="0.75" stop-color="#959595"/><stop offset="0.9" stop-color="#757575"/><stop offset="0.96" stop-color="#666"/><stop offset="1" stop-color="#333"/></linearGradient><linearGradient id="Adsız_degrade_11" x1="-60.4" y1="1877.5" x2="-75.49" y2="1884.3" gradientTransform="matrix(6.07, 0, 0, -6.07, 1200.43, 12547.02)" gradientUnits="userSpaceOnUse"><stop offset="0.01" stop-color="#f2f2f2" stop-opacity="0.8"/><stop offset="0.11" stop-color="#ededed" stop-opacity="0"/></linearGradient><linearGradient id="Adsız_degrade_12" x1="-61.28" y1="1860" x2="-61.28" y2="1888.66" gradientTransform="matrix(6.07, 0, 0, -6.07, 1200.43, 12547.02)" gradientUnits="userSpaceOnUse"><stop offset="0" stop-color="#fff"/><stop offset="0.22" stop-color="#f9f9f9"/><stop offset="0.51" stop-color="#e7e7e7"/><stop offset="0.85" stop-color="#cbcbcb"/><stop offset="0.97" stop-color="#bfbfbf"/><stop offset="0.99" stop-color="#737373"/></linearGradient><linearGradient id="Adsız_degrade_13" x1="-78.06" y1="1858.87" x2="-78.06" y2="1888.48" gradientTransform="matrix(6.07, 0, 0, -6.07, 1200.43, 12547.02)" gradientUnits="userSpaceOnUse"><stop offset="0" stop-color="#666"/><stop offset="0.18" stop-color="#5e5e5e"/><stop offset="0.58" stop-color="#515151"/><stop offset="0.97" stop-color="#4d4d4d"/><stop offset="0.99" stop-color="#757575"/><stop offset="1" stop-color="#8c8c8c"/></linearGradient><linearGradient id="Adsız_degrade_14" x1="-68.18" y1="1862.45" x2="-56.78" y2="1855.87" gradientTransform="matrix(6.07, 0, 0, -6.07, 1200.43, 12547.02)" gradientUnits="userSpaceOnUse"><stop offset="0.02" stop-color="#666"/><stop offset="0.04" stop-color="#4a4a4a"/><stop offset="0.06" stop-color="#363636"/><stop offset="0.08" stop-color="#292929"/><stop offset="0.1" stop-color="#252525"/></linearGradient><linearGradient id="Adsız_degrade_15" x1="-59.55" y1="1910.04" x2="-34.28" y2="1896.21" gradientTransform="matrix(6.07, 0, 0, -6.07, 1200.43, 12547.02)" gradientUnits="userSpaceOnUse"><stop offset="0" stop-color="#595959"/><stop offset="1" stop-color="#737373"/></linearGradient><linearGradient id="Adsız_degrade_16" x1="-55.78" y1="1915.79" x2="-69.48" y2="1919.72" gradientTransform="matrix(6.07, 0, 0, -6.07, 1200.43, 12547.02)" gradientUnits="userSpaceOnUse"><stop offset="0.01" stop-color="#595959"/><stop offset="0.03" stop-color="#757575"/><stop offset="0.04" stop-color="#909090"/><stop offset="0.06" stop-color="#a0a0a0"/><stop offset="0.07" stop-color="#a6a6a6"/><stop offset="0.5" stop-color="#bebebe"/><stop offset="1" stop-color="#bfbfbf"/></linearGradient><linearGradient id="Adsız_degrade_17" x1="-90.32" y1="1898.46" x2="-65.91" y2="1907.83" gradientTransform="matrix(6.07, 0, 0, -6.07, 1200.43, 12547.02)" gradientUnits="userSpaceOnUse"><stop offset="0" stop-color="#8c8c8c"/><stop offset="0.99" stop-color="#737373"/><stop offset="1" stop-color="#bfbfbf"/></linearGradient><linearGradient id="Adsız_degrade_18" x1="-47.03" y1="1858.78" x2="-47.03" y2="1888.55" gradientTransform="matrix(6.07, 0, 0, -6.07, 1200.43, 12547.02)" gradientUnits="userSpaceOnUse"><stop offset="0.02" stop-color="#252525"/><stop offset="0.22" stop-color="#2e2e2e"/><stop offset="0.6" stop-color="#3b3b3b"/><stop offset="0.97" stop-color="#3f3f3f"/><stop offset="0.99" stop-color="#5c5c5c"/><stop offset="1" stop-color="#737373"/></linearGradient></defs><path class="cls-3" d="M958,1080.89c-6.2-13.12-20.75-41.52-35.5-68.32-20.78-37.78-53.31-91.58-56.66-96.19a11.72,11.72,0,0,0-2.39-2.62,4,4,0,0,0-1.27-.65,13.72,13.72,0,0,0-4,0,16.66,16.66,0,0,1-2.34,0q-17.33-.6-34.65-.58c-16.89,0-37.24.51-39.88.78a5.87,5.87,0,0,0-2.4.64,6,6,0,0,0-2.46,2.36c-3.17,4.73-35.82,58.42-56.6,96.19-14.75,26.8-29.29,55.21-35.5,68.32a16.43,16.43,0,0,0-1.89,6.84,16.77,16.77,0,0,0,1.89,6.84c6.2,13.11,20.75,41.51,35.5,68.32,20.78,37.77,53.31,91.57,56.66,96.19a19.17,19.17,0,0,0,1.42,1.76,5,5,0,0,0,2.24,1.51,12.28,12.28,0,0,0,3.82,0,18.43,18.43,0,0,1,2.35,0c8.37.28,21.23.59,34.85.58,16.89,0,36.62-.44,39.6-.78l.47-.06a6.71,6.71,0,0,0,2.11-.46c.68-.29,1.26-.83,2.65-2.75,3.35-4.61,35.73-58.15,56.51-95.92,14.74-26.8,29.29-55.21,35.5-68.32a17.91,17.91,0,0,0,1.88-7.27c0-1.9-.62-3.76-1.87-6.41Zm-95.94,13.92c-13.9,31.19-23.78,50.63-38.43,78.79-.84,1.63-1.54,2.68-2.49,2.7s-1.64-1.07-2.49-2.7c-14.65-28.17-24.53-47.61-38.44-78.79-1.19-2.67-2-4.64-2-7.14s.87-4.43,2-7c13.91-31.19,23.79-50.63,38.44-78.79.84-1.63,1.52-2.68,2.48-2.7h0c1,0,1.65,1.06,2.5,2.7,14.65,28.16,24.53,47.6,38.43,78.79,1.19,2.66,2,4.63,2,7.13s-.87,4.45-2,7Z" transform="translate(-675.57 -905.69)"/><g class="cls-4"><path class="cls-5" d="M958,1080.89c-6.2-13.12-20.75-41.52-35.5-68.32-20.78-37.78-53.31-91.58-56.66-96.19a11.72,11.72,0,0,0-2.39-2.62,4,4,0,0,0-1.27-.65,13.72,13.72,0,0,0-4,0,16.66,16.66,0,0,1-2.34,0q-17.33-.6-34.65-.58c-16.89,0-37.24.51-39.88.78a5.87,5.87,0,0,0-2.4.64,6,6,0,0,0-2.46,2.36c-3.17,4.73-35.82,58.42-56.6,96.19-14.75,26.8-29.29,55.21-35.5,68.32a16.43,16.43,0,0,0-1.89,6.84,16.77,16.77,0,0,0,1.89,6.84c6.2,13.11,20.75,41.51,35.5,68.32,20.78,37.77,53.31,91.57,56.66,96.19a19.17,19.17,0,0,0,1.42,1.76,5,5,0,0,0,2.24,1.51,12.28,12.28,0,0,0,3.82,0,18.43,18.43,0,0,1,2.35,0c8.37.28,21.23.59,34.85.58,16.89,0,36.62-.44,39.6-.78l.47-.06a6.71,6.71,0,0,0,2.11-.46c.68-.29,1.26-.83,2.65-2.75,3.35-4.61,35.73-58.15,56.51-95.92,14.74-26.8,29.29-55.21,35.5-68.32a17.91,17.91,0,0,0,1.88-7.27c0-1.9-.62-3.76-1.87-6.41Zm-95.94,13.92c-13.9,31.19-23.78,50.63-38.43,78.79-.84,1.63-1.54,2.68-2.49,2.7s-1.64-1.07-2.49-2.7c-14.65-28.17-24.53-47.61-38.44-78.79-1.19-2.67-2-4.64-2-7.14s.87-4.43,2-7c13.91-31.19,23.79-50.63,38.44-78.79.84-1.63,1.52-2.68,2.48-2.7h0c1,0,1.65,1.06,2.5,2.7,14.65,28.16,24.53,47.6,38.43,78.79,1.19,2.66,2,4.63,2,7.13s-.87,4.45-2,7Z" transform="translate(-675.57 -905.69)"/></g><path class="cls-6" d="M769.61,1099.07s-4.09-7.64-4.24-10.65a4.71,4.71,0,0,1,0-.92c.06-.77-.23-.5-.91.14-1.2,1.12-3.3,2.24-8.44,2.24-4.56,0-43.36-.05-61.85-.05-2.71,0-6.35-.21-6.35,4.08,0,2.52,2.19,7.6,6.68,16.38,24.53,48,51.78,95.92,81,142.77,0,0,4.46,7.18,4.91,7.75a2.32,2.32,0,0,0,2.1.81A776.13,776.13,0,0,0,816,1190.69q-24.48-45.14-46.39-91.62Z" transform="translate(-675.57 -905.69)"/><path class="cls-7" d="M782.51,1261.62h0Z" transform="translate(-675.57 -905.69)"/><path class="cls-8" d="M956.47,1088.16c-.67.69-2.53,1.69-6.72,1.69H898.81c-23.35,0-21-.62-27,11.73-2.7,5.5-5.5,12-8.34,17.28C843,1161.5,793.27,1247.38,786.54,1258c-2.53,4-2.9,4.22-1,4.22,0,0,16.88.62,35.68.62,29.35,0,39.86-.82,39.86-.82,17-26.48,57.62-93.66,86.61-151.85,6.67-13.4,10-19.23,9.69-22.1-.06-.55-.57-.22-.86.07Z" transform="translate(-675.57 -905.69)"/><path class="cls-9" d="M859.68,913.85c-1.26-.06-2.16.9-3.88,3.57-14.41,22.31-64.13,116-84.44,159.68-2.49,5.35-3.75,8-3.75,10.55l10.6,0s0,0,0,0c0-2.43.87-4.42,2-7,13.91-31.18,23.79-50.62,38.44-78.78.84-1.63,1.52-2.69,2.48-2.7h0l4.12-12C839.61,951.43,859.68,913.85,859.68,913.85Z" transform="translate(-675.57 -905.69)"/><path class="cls-10" d="M874.67,1087.77c0-2.59-1.2-5.14-3.69-10.43q-21.54-45.75-45.7-90.18l-4.12,12h0c1,0,1.65,1.06,2.5,2.7,14.65,28.16,24.53,47.6,38.43,78.79,1.19,2.66,2,4.63,2,7.13h10.55Z" transform="translate(-675.57 -905.69)"/><path class="cls-11" d="M821.16,1176.31h0c-1,0-1.64-1.07-2.49-2.71-14.65-28.16-24.53-47.6-38.44-78.79-1.19-2.66-2-4.63-2-7.14h0l-10.6,0c0,2.61,1.2,5.24,3.7,10.56q21.53,45.72,45.65,90.12Z" transform="translate(-675.57 -905.69)"/><path class="cls-12" d="M821.16,1176.31h0c-1,0-1.64-1.07-2.49-2.71-14.65-28.16-24.53-47.6-38.44-78.79-1.19-2.66-2-4.63-2-7.14v0h-10.6c0,2.62,1.2,5.25,3.7,10.57q21.53,45.72,45.65,90.12Z" transform="translate(-675.57 -905.69)"/><path class="cls-13" d="M782.51,1261.62c1.17.05,2.56-1.37,4.18-3.83.42-.67,1-1.61,1.7-2.77,10.85-18.48,63.16-115,82.5-156.64,2.49-5.35,3.78-8,3.78-10.61H864.12c0,2.52-.87,4.44-2,7-13.91,31.18-23.79,50.63-38.43,78.79-.85,1.62-1.54,2.68-2.5,2.7l-4.19,12a770.36,770.36,0,0,1-34.46,73.3Z" transform="translate(-675.57 -905.69)"/><path class="cls-14" d="M777.92,1260.83a17.43,17.43,0,0,1-1.43-1.76c-3.34-4.61-35.88-58.41-56.66-96.19-14.74-26.8-29.29-55.2-35.5-68.32a16.69,16.69,0,0,1-1.88-6.83H675.6c0,2.32.51,5.34,2.55,9.78,4.83,10.47,18.35,37.16,35.69,68.69,18.92,34.43,53.29,91.68,57.12,96.92a16.12,16.12,0,0,0,4.21,4.27Z" transform="translate(-675.57 -905.69)"/><path class="cls-15" d="M775.18,1267.39a11.31,11.31,0,0,0,5.62,1.52c5.11.45,27.5.82,40.37.82s37.05-.52,40.38-.82a13.85,13.85,0,0,0,4.52-1l-2.71-6.39a6.88,6.88,0,0,1-2.11.47l-.47,0c-3,.34-22.71.78-39.6.79-13.62,0-26.48-.3-34.85-.58a15.37,15.37,0,0,0-2.35,0,12.59,12.59,0,0,1-3.82,0,5.13,5.13,0,0,1-2.23-1.51Z" transform="translate(-675.57 -905.69)"/><path class="cls-16" d="M966.74,1087.72a23.09,23.09,0,0,0-2.54-9.78c-5.18-10.79-21.73-43.37-35.69-68.7-18.68-33.86-53.13-91.54-57.12-96.91-2.11-2.83-3.69-4.15-5.29-4.85l-2.63,6.28a11.49,11.49,0,0,1,2.39,2.62c3.35,4.6,35.88,58.41,56.66,96.19,14.75,26.8,29.29,55.2,35.5,68.32,1.25,2.65,1.89,4.51,1.89,6.4Z" transform="translate(-675.57 -905.69)"/><path class="cls-17" d="M776.19,907.51l2.7,6.5a6,6,0,0,1,2.4-.64c2.64-.27,23-.78,39.89-.78,13.75,0,27.7.29,34.64.59a16.81,16.81,0,0,0,2.35,0,14.08,14.08,0,0,1,4,0,4.77,4.77,0,0,1,1.27.65l2.63-6.27a14,14,0,0,0-4.73-.94c-5.32-.48-28.21-.82-40.19-.82-10.56,0-35.06.27-40.8.85a14.56,14.56,0,0,0-4.2.94Z" transform="translate(-675.57 -905.69)"/><path class="cls-18" d="M776.19,907.51c-2.16.92-3.46,2.49-5.45,5.09-4,5.17-38.38,63.26-56.9,96.64-13,23.51-33.74,64.24-35.7,68.71s-2.54,7.45-2.54,9.78h6.85a16.52,16.52,0,0,1,1.88-6.84c6.21-13.11,20.76-41.52,35.5-68.32,20.78-37.77,53.44-91.46,56.61-96.19a6,6,0,0,1,2.45-2.36Z" transform="translate(-675.57 -905.69)"/><path class="cls-19" d="M866.07,1268c1.66-.74,3.36-2.12,5.32-4.83,3.71-5.16,40.74-67,57.12-96.92s33.79-64.44,35.69-68.7c2.36-5.29,2.54-7.89,2.54-9.78l-6.84-.43a17.74,17.74,0,0,1-1.89,7.27c-6.2,13.12-20.75,41.52-35.5,68.32-20.78,37.78-53.16,91.32-56.51,95.92-1.39,1.92-2,2.47-2.64,2.75h0Z" transform="translate(-675.57 -905.69)"/><path class="cls-20" d="M858.16,913.15l.38,0s-1.74,1.33-6.17,1.31c-5.27,0-16.2-.24-24.94-.3-16.15-.1-35.4.2-44.39.63-4.77.23-5,.74-8.1,4h0l1.5-2.35a6.09,6.09,0,0,1,2.45-2.37,6,6,0,0,1,2.4-.64c2.64-.27,23-.78,39.89-.78,13.75,0,27.7.29,34.64.59a18.32,18.32,0,0,0,2.34,0" transform="translate(-675.57 -905.69)"/><path d="M862.12,1080.63q-8.36-18.75-17.34-37.22-10.26-20.93-21.09-41.57c-.88-1.64-1.56-2.7-2.5-2.7s-1.58,1-2.5,2.7c-.46.86-11.62,22.25-21.14,41.57s-16.81,36.16-17.3,37.22c-1,2.14-2,4.61-2,7s.92,4.54,2,7.14c.53,1.25,8.42,19,17.38,37.36,9.75,20,20.64,40.62,21,41.44.83,1.61,1.54,2.7,2.49,2.7s1.65-1.06,2.5-2.7c.44-.85,11.28-21.48,21-41.43q9-18.54,17.41-37.35c1.22-2.77,2-4.6,2-7s-.8-4.45-2-7.15Zm-1.76,13.26-.06.14q-8.38,18.78-17.38,37.28-10.15,20.68-20.84,41.08l-.16.31c-.34.66-.63,1.13-.76,1.13s-.42-.46-.76-1.11l-.51-1q-10.53-20.07-20.53-40.42-9-18.48-17.34-37.26l-.08-.18c-1-2.36-1.79-4.22-1.79-6.19a16.19,16.19,0,0,1,1.86-6.23l.46-1q8-18.26,16.82-36.14,10.34-20.87,21.11-41.52c.31-.59.59-1.15.77-1.15s.46.56.79,1.17c.09.16,11.08,21,21.06,41.49,8.78,18,16.45,35.26,17.3,37.16,1.14,2.58,1.84,4.29,1.84,6.35s-.67,3.54-1.8,6.11Z" transform="translate(-675.57 -905.69)"/><path d="M964.23,1077.93c-5.29-11-21.74-43.42-35.68-68.7-19.12-34.66-53.26-91.72-57.13-96.92s-6-5.36-9.52-5.74l-.53-.05c-5.15-.57-27-.83-40.2-.83-11.27,0-35.22.29-40.79.85-5.25.52-6.68,2.13-9.67,6.05-4.12,5.37-38.83,64-56.9,96.64-13.07,23.57-33.78,64.32-35.7,68.7-1.74,4-2.54,7.07-2.54,9.8a23.44,23.44,0,0,0,2.55,9.8c4.34,9.41,17.42,35.46,35.69,68.69,19.05,34.66,53.47,91.93,57.13,96.92,3.85,5.26,6.37,5.49,9.86,5.8,5.29.47,28.15.83,40.37.83,13.2,0,37.09-.53,40.39-.83s6.08-.55,9.86-5.8c3.46-4.81,40.49-66.52,57.13-96.92,15.94-29.13,33.64-64.12,35.68-68.69,2.25-5,2.56-7.68,2.56-9.8a23.13,23.13,0,0,0-2.56-9.8Zm-1.81,18.78c-2,4.55-19.7,39.47-35.62,68.56-16.61,30.35-53.55,91.92-57,96.71-3.24,4.51-5.31,4.7-8.42,5s-27,.82-40.2.82c-12.2,0-35-.35-40.2-.82-3.3-.29-5.11-.45-8.43-5-3.63-5-38-62.1-57-96.71-18.24-33.18-31.3-59.18-35.63-68.56a21.53,21.53,0,0,1-2.37-9c0-2.45.75-5.31,2.37-9,1.92-4.37,22.57-45,35.62-68.53,18.05-32.55,52.65-91.07,56.73-96.41,2.87-3.73,3.89-4.83,8.29-5.28,5.51-.55,29.37-.83,40.6-.83,13.12,0,34.9.26,40,.81l.52.06c3.32.35,4.83.5,8.14,5,3.85,5.17,37.9,62.08,57,96.69,13.92,25.24,30.35,57.59,35.63,68.6a21.08,21.08,0,0,1,2.36,8.93c0,1.91-.29,4.31-2.38,9Z" transform="translate(-675.57 -905.69)"/></svg>