<?xml version="1.0" encoding="utf-8"?>
<!-- Generator: Adobe Illustrator 24.1.2, SVG Export Plug-In . SVG Version: 6.00 Build 0)  -->
<svg version="1.1" id="katman_1" xmlns="http://www.w3.org/2000/svg" xmlns:xlink="http://www.w3.org/1999/xlink" x="0px" y="0px"
	 viewBox="0 0 2500 2500" style="enable-background:new 0 0 2500 2500;" xml:space="preserve">
<style type="text/css">
	.st0{fill:#B3B3B3;stroke:#B3B3B3;stroke-width:5.84;stroke-miterlimit:51.88;}
	.st1{fill:#4D4D4D;stroke:#4D4D4D;stroke-width:5.84;stroke-miterlimit:51.88;}
	.st2{fill:url(#SVGID_1_);}
	.st3{fill:url(#SVGID_2_);}
	.st4{fill:url(#SVGID_3_);}
</style>
<path class="st0" d="M658.5,759.7c0,0-3.6-166.9,85.6-217.9c108.9-62.2,393-116.7,1077.8-31.1c0,0,7.8,217.9,7.8,233.5
	c0,0-509.9-43.7-603.1-36.3c-66.2,5.2-35,40.2,0,45.3c0,0,513.6,84.4,603.1,103.8v89.5C1829.6,946.5,1024.2,786.9,658.5,759.7z
	 M654.6,821.9c0,0,902.7,140.1,1175.1,206.2v81.7c0,0-918.3-206.2-1171.2-229.6L654.6,821.9z M658.5,946.5
	c0,0,883.2,136.2,1171.2,249c0,0,23.3,186.8-70,245.1c-133.6,83.5-638.1,81.7-1089.5,27.2c0,0-11.7-214,0-319.1
	c0,0,498.3,37,607,50.6c62.2,7.8,62.3-23.3,23.3-46.7c0,0-482.5-132.3-638.1-151.7L658.5,946.5L658.5,946.5z"/>
<path class="st1" d="M681.8,783c0,0-3.6-167,85.6-217.9c109-62.2,393-116.7,1077.8-31.1c0,0,7.8,217.9,7.8,233.5
	c0,0-509.9-43.7-603.1-36.4c-66.2,5.2-35,40.3,0,45.3c0,0,513.6,84.4,603.1,103.8v89.5C1853,969.8,1047.6,810.3,681.8,783z
	 M677.9,845.2c0,0,902.7,140.1,1175.1,206.3v81.7c0,0-918.3-206.2-1171.2-229.6L677.9,845.2z M681.8,969.8
	c0,0,883.3,136.2,1171.2,249c0,0,23.4,186.8-70,245.1c-133.6,83.5-638.1,81.7-1089.5,27.2c0,0-11.7-214,0-319.1
	c0,0,498.3,37,607,50.6c62.2,7.8,62.3-23.3,23.3-46.7c0,0-482.5-132.3-638.1-151.8L681.8,969.8L681.8,969.8z"/>
<linearGradient id="SVGID_1_" gradientUnits="userSpaceOnUse" x1="524.2599" y1="57.6608" x2="624.7599" y2="57.6608" gradientTransform="matrix(11.67 0 0 11.67 -5450.6797 45.2389)">
	<stop  offset="0" style="stop-color:#929496"/>
	<stop  offset="7.000000e-02" style="stop-color:#97999B"/>
	<stop  offset="0.17" style="stop-color:#A4A6A8"/>
	<stop  offset="0.27" style="stop-color:#BBBDBF"/>
	<stop  offset="0.39" style="stop-color:#DCDDDE"/>
	<stop  offset="0.49" style="stop-color:#FFFFFF"/>
	<stop  offset="0.56" style="stop-color:#F8F8F8"/>
	<stop  offset="0.66" style="stop-color:#EAEAEB"/>
	<stop  offset="0.77" style="stop-color:#D4D5D7"/>
	<stop  offset="0.88" style="stop-color:#B6B8BA"/>
	<stop  offset="1" style="stop-color:#929496"/>
</linearGradient>
<path class="st2" d="M670.1,771.4c0,0-3.6-167,85.6-217.9c109-62.2,393-116.7,1077.8-31.1c0,0,7.8,217.9,7.8,233.5
	c0,0-509.9-43.7-603.1-36.3c-66.1,5.2-35,40.2,0,45.3c0,0,513.6,84.4,603.1,103.8v89.5C1841.3,958.1,1035.9,798.6,670.1,771.4z"/>
<linearGradient id="SVGID_2_" gradientUnits="userSpaceOnUse" x1="524.1594" y1="79.8921" x2="624.6594" y2="79.8921" gradientTransform="matrix(11.67 0 0 11.67 -5450.6797 45.2389)">
	<stop  offset="0" style="stop-color:#929496"/>
	<stop  offset="7.000000e-02" style="stop-color:#97999B"/>
	<stop  offset="0.17" style="stop-color:#A4A6A8"/>
	<stop  offset="0.27" style="stop-color:#BBBDBF"/>
	<stop  offset="0.39" style="stop-color:#DCDDDE"/>
	<stop  offset="0.49" style="stop-color:#FFFFFF"/>
	<stop  offset="0.56" style="stop-color:#F8F8F8"/>
	<stop  offset="0.66" style="stop-color:#EAEAEB"/>
	<stop  offset="0.77" style="stop-color:#D4D5D7"/>
	<stop  offset="0.88" style="stop-color:#B6B8BA"/>
	<stop  offset="1" style="stop-color:#929496"/>
</linearGradient>
<path class="st3" d="M666.3,833.6c0,0,902.7,140.1,1175.1,206.2v81.7c0,0-918.3-206.2-1171.2-229.5L666.3,833.6L666.3,833.6z"/>
<linearGradient id="SVGID_3_" gradientUnits="userSpaceOnUse" x1="524.2599" y1="102.2145" x2="624.8397" y2="102.2145" gradientTransform="matrix(11.67 0 0 11.67 -5450.6797 45.2389)">
	<stop  offset="0" style="stop-color:#929496"/>
	<stop  offset="7.000000e-02" style="stop-color:#97999B"/>
	<stop  offset="0.17" style="stop-color:#A4A6A8"/>
	<stop  offset="0.27" style="stop-color:#BBBDBF"/>
	<stop  offset="0.39" style="stop-color:#DCDDDE"/>
	<stop  offset="0.49" style="stop-color:#FFFFFF"/>
	<stop  offset="0.56" style="stop-color:#F8F8F8"/>
	<stop  offset="0.66" style="stop-color:#EAEAEB"/>
	<stop  offset="0.77" style="stop-color:#D4D5D7"/>
	<stop  offset="0.88" style="stop-color:#B6B8BA"/>
	<stop  offset="1" style="stop-color:#929496"/>
</linearGradient>
<path class="st4" d="M670.1,958.1c0,0,883.2,136.2,1171.2,249c0,0,23.3,186.8-70,245.1c-133.6,83.5-638.1,81.7-1089.5,27.2
	c0,0-11.7-214,0-319.1c0,0,498.3,37,607,50.6c62.2,7.8,62.3-23.3,23.3-46.7c0,0-482.5-132.3-638.1-151.7L670.1,958.1L670.1,958.1z"
	/>
</svg>
