<svg id="katman_1" data-name="katman 1" xmlns="http://www.w3.org/2000/svg" xmlns:xlink="http://www.w3.org/1999/xlink" viewBox="0 0 2500 2500"><defs><style>.cls-1{fill:#fff;}.cls-2{fill:#b3b3b3;stroke:#b3b3b3;}.cls-2,.cls-3{stroke-miterlimit:51.88;stroke-width:5.84px;}.cls-3{fill:#4d4d4d;stroke:#4d4d4d;}.cls-4{fill:url(#Adsız_degrade);}.cls-5{fill:url(#Adsız_degrade_2);}.cls-6{fill:url(#Adsız_degrade_3);}</style><linearGradient id="Adsız_degrade" x1="259.11" y1="1671.09" x2="359.61" y2="1671.09" gradientTransform="matrix(11.67, 0, 0, -11.67, -2356.38, 20224.54)" gradientUnits="userSpaceOnUse"><stop offset="0" stop-color="#929496"/><stop offset="0.07" stop-color="#97999b"/><stop offset="0.17" stop-color="#a4a6a8"/><stop offset="0.27" stop-color="#bbbdbf"/><stop offset="0.39" stop-color="#dcddde"/><stop offset="0.49" stop-color="#fff"/><stop offset="0.56" stop-color="#f8f8f8"/><stop offset="0.66" stop-color="#eaeaeb"/><stop offset="0.77" stop-color="#d4d5d7"/><stop offset="0.88" stop-color="#b6b8ba"/><stop offset="1" stop-color="#929496"/></linearGradient><linearGradient id="Adsız_degrade_2" x1="259.11" y1="1648.87" x2="359.61" y2="1648.87" xlink:href="#Adsız_degrade"/><linearGradient id="Adsız_degrade_3" x1="259.11" y1="1626.55" x2="359.67" y2="1626.55" xlink:href="#Adsız_degrade"/></defs><path class="cls-1" d="M0,0H2500V2500H0Z"/><path class="cls-2" d="M658.47,759.69s-3.58-166.94,85.6-217.9c108.94-62.24,393-116.73,1077.82-31.12,0,0,7.76,217.88,7.76,233.46,0,0-509.87-43.69-603.08-36.33-66.15,5.22-35,40.24,0,45.35,0,0,513.61,84.38,603.08,103.81v89.51S1024.21,786.93,658.47,759.69Zm-3.88,62.25S1557.29,962,1829.64,1028.16v81.72S911.38,903.65,658.47,880.3l-3.88-58.36Zm3.88,124.53s883.25,136.19,1171.17,249c0,0,23.35,186.77-70,245.13-133.61,83.5-638.11,81.71-1089.47,27.24,0,0-11.67-214,0-319.09,0,0,498.28,37,607,50.6,62.24,7.79,62.27-23.35,23.35-46.71,0,0-482.48-132.29-638.13-151.73l-3.9-54.45Z"/><path class="cls-3" d="M681.82,783s-3.59-166.95,85.6-217.91c109-62.24,393-116.72,1077.8-31.11,0,0,7.78,217.88,7.78,233.46,0,0-509.87-43.71-603.08-36.36-66.15,5.22-35,40.26,0,45.34,0,0,513.61,84.39,603.08,103.84v89.49S1047.56,810.28,681.82,783Zm-3.9,62.24S1580.65,985.37,1853,1051.52v81.71S934.74,927,681.82,903.65Zm3.9,124.51s883.25,136.2,1171.17,249c0,0,23.36,186.77-70,245.13-133.6,83.5-638.11,81.71-1089.46,27.24,0,0-11.66-214,0-319.07,0,0,498.27,37,607,50.58,62.24,7.8,62.27-23.34,23.34-46.69,0,0-482.47-132.3-638.13-151.75l-3.89-54.46Z"/><path class="cls-4" d="M670.14,771.38s-3.59-167,85.6-217.92c109-62.24,393-116.73,1077.81-31.11,0,0,7.78,217.88,7.78,233.45,0,0-509.87-43.69-603.09-36.34-66.14,5.22-35,40.25,0,45.35,0,0,513.61,84.38,603.09,103.82v89.5S1035.89,798.6,670.14,771.38Z"/><path class="cls-5" d="M666.26,833.61S1569,973.7,1841.33,1039.83v81.72S923.06,915.31,670.15,892l-3.89-58.36Z"/><path class="cls-6" d="M670.14,958.13s883.24,136.2,1171.17,249c0,0,23.35,186.76-70,245.12-133.61,83.5-638.11,81.71-1089.46,27.25,0,0-11.67-214,0-319.08,0,0,498.28,37,607,50.58,62.24,7.79,62.26-23.33,23.34-46.69,0,0-482.48-132.31-638.13-151.74l-3.9-54.46Z"/></svg>