<?xml version="1.0" encoding="utf-8"?>
<!-- Generator: Adobe Illustrator 24.1.2, SVG Export Plug-In . SVG Version: 6.00 Build 0)  -->
<svg version="1.1" id="katman_1" xmlns="http://www.w3.org/2000/svg" xmlns:xlink="http://www.w3.org/1999/xlink" x="0px" y="0px"
	 viewBox="0 0 2500 2500" style="enable-background:new 0 0 2500 2500;" xml:space="preserve">
<style type="text/css">
	.st0{fill-rule:evenodd;clip-rule:evenodd;fill:#295CA7;}
	.st1{fill-rule:evenodd;clip-rule:evenodd;fill:#FFFFFF;}
</style>
<path class="st0" d="M1250.4,210.9c572.2,0,1038.7,466.6,1038.7,1039.6c0,571.3-466.6,1038.7-1038.7,1038.7
	S210.9,1821.7,210.9,1250.4C210.9,677.4,678.3,210.9,1250.4,210.9L1250.4,210.9z"/>
<path class="st1" d="M1250.4,342.8c498.9,0,906.8,407.8,906.8,907.6c0,498.9-407.8,905.9-906.8,905.9s-906.7-407-906.7-905.9
	C343.7,750.6,751.5,342.8,1250.4,342.8L1250.4,342.8z M643.4,762.6l325.2,843.8l119.2-308.2h312.5l119.2,308.2l328.7-854
	c-58-70-127.7-129.3-206-175.4l-228.2,628.3H1092L863,574.4C778.7,622.9,704.6,686.8,643.4,762.6L643.4,762.6z M1979.2,974.6
	l-370.4,966.4c248.6-130.3,419.7-390.8,419.7-690.5C2028.6,1153.4,2011.6,1060.6,1979.2,974.6z M1447.1,2003.9l-2.5-19.6l-201-521.1
	l-200.9,521.1l-0.8,16.2c66.4,18.7,136.2,28.1,208.6,28.1C1316.7,2028.7,1382.8,2020.4,1447.1,2003.9z M876.7,1932.4l-361-940.8
	c-28.9,80.9-44.3,167.7-44.3,258.8C471.4,1543.3,634.9,1800.4,876.7,1932.4L876.7,1932.4z M1250.4,471.4
	c68.1,0,135.4,8.5,199.2,25.5L1253,1041l-197.5-544.9C1119.1,479.6,1184.7,471.3,1250.4,471.4L1250.4,471.4z"/>
</svg>
